<svg xmlns="http://www.w3.org/2000/svg" width="332.215" height="400" viewBox="0 0 332.215 400"><path d="M-1228.381,510.46c13.96,6.225,52.364,5.436,61.329-1.241,1.369-1.025,1.988-2.158,1.828-3.372-4.424-34.014-7.185-99.687-7.285-143.534a17.592,17.592,0,0,1,5.173-12.552,17.772,17.772,0,0,1,12.652-5.234h154.345a17.771,17.771,0,0,1,12.655,5.234,17.6,17.6,0,0,1,5.173,12.552c-.109,43.868-2.862,109.554-7.292,143.534-.155,1.214.466,2.347,1.835,3.372,4.843,3.6,18.223,5.5,31.734,5.5,11.54,0,23.166-1.383,29.6-4.256,3.514-1.565,5.394-3.494,5.611-5.713,14.17-156.983,12.761-270.792-4.715-380.569-.343-2.158-2.569-4.047-6.623-5.591-14.872-5.645-50.8-5.3-60.035,2.26-1.665,1.369-2.374,2.927-2.1,4.613,5.795,35.1,11.406,100.624,11.54,134.84.019,5.915-1.78,11.142-4.945,14.319a11.828,11.828,0,0,1-8.714,3.487h-161.8a11.857,11.857,0,0,1-8.714-3.487c-3.163-3.177-4.964-8.4-4.936-14.319.128-34.216,5.739-99.741,11.538-134.84.277-1.686-.432-3.244-2.1-4.613-9.239-7.561-45.169-7.9-60.027-2.26-4.046,1.545-6.28,3.426-6.63,5.591-17.475,109.783-18.885,223.593-4.7,380.569.2,2.219,2.085,4.148,5.608,5.713" transform="translate(1243.621 -114.716)" fill="#e03127"/></svg>