<svg xmlns="http://www.w3.org/2000/svg" width="144" height="72.046" viewBox="0 0 144 72.046"><g transform="translate(-70.399 -351.72)"><path d="M109.57,353.991c-7.526-1.347-14.465-.424-18.407,1.1-.793.308-1.174.658-.984,1.429a10.957,10.957,0,0,1,.283,3.247,6.439,6.439,0,0,1-2.226,4.407c-.882.789-2.359,1.145-3.158.565a2.168,2.168,0,0,1-.5-2.622,6.5,6.5,0,0,0,.648-2.278c-.059-.813-.933-1.018-1.809-.407-.761.528-1.922,1.548-2.62,1.577-.6.027-1.122-.708-1.153-1.565-.062-1.7,1.133-3.025,3.278-3.081a3.677,3.677,0,0,1,3.541,2.1,4.705,4.705,0,0,1-.341,4.1.577.577,0,0,0,.083.758.754.754,0,0,0,.96-.117,5.044,5.044,0,0,0,1.828-4.134c-.074-3.68-3.007-6.036-7.043-6.036a6.764,6.764,0,0,0-6.9,5.385,7.035,7.035,0,0,0,.533,4.5,3.479,3.479,0,0,1-.439,3.289A20.511,20.511,0,0,0,70.4,379.526c0,5.753,2.654,10.828,7.954,15.146,1.294,1.053,3.885,2.482,4.5,3.569A4.58,4.58,0,0,1,83.1,402a8.245,8.245,0,0,0-.287,4.8,7.562,7.562,0,0,1-.165,3.567,14.711,14.711,0,0,1-1.007,2.513c-.377.715-1.089,1.527-1.645,2.452a4.329,4.329,0,0,0-.5,3.412c.2.861.984,1.8,1.578,1.842.321.022.413-.606.436-1.5.015-.555.212-1.387.727-1.376.615.012.695,1.753.84,2.63.35,2.141,1.733,3.231,2.675,3.32.69.066,3.235.108,4.425.059a.865.865,0,0,0,.858-.763,1.461,1.461,0,0,0-.43-1.183,9.724,9.724,0,0,0-1.169-1.07,4.474,4.474,0,0,1-1.13-1.341,4.113,4.113,0,0,1-.371-3.1,19.847,19.847,0,0,1,3.513-7.663c1.3-1.6,3.009-1.661,4.7-2.661a10.24,10.24,0,0,0,3.539-4.2,5.129,5.129,0,0,1,2.6-2.52,9.6,9.6,0,0,1,3.679-.34,22.6,22.6,0,0,0,3.815-.362c1.169-.21,2.023-1.459,1.6-3.787a114.623,114.623,0,0,1-1.383-18.6,91.88,91.88,0,0,1,1.909-18.341,3.416,3.416,0,0,0-.243-2.613,2.7,2.7,0,0,0-2.094-1.192" transform="translate(0 -0.249)" fill="#fff"/><path d="M108.384,426.4a3.47,3.47,0,0,1,.207-4.471c.741-.909,3.113-2.3,2.926-3.262-.133-.682-2.573-.3-3.929.093a10.046,10.046,0,0,0-4.655,2.972,5.316,5.316,0,0,0-1.379,3.929c.069,1.45,1.184,2.861,2.521,4.637,0,0,2.684,3.257,3.73,4.3a4.211,4.211,0,0,0,2.806.62c.558,0,1.618-.042,2.025-.081a1.321,1.321,0,0,0,1.185-.564,1.588,1.588,0,0,0-.114-1.388c-.782-1.264-4.251-5.015-5.32-6.787" transform="translate(-5.902 -12.616)" fill="#fff"/><path d="M234.483,365.068a2.44,2.44,0,0,0-2.141.767,3.664,3.664,0,0,1-1.672.7,9.9,9.9,0,0,1-2.525,0,9.374,9.374,0,0,1-3.056-1.2c-.879-.443-1.995-1.075-3.351-1.815a1.257,1.257,0,0,0-1.27-.015,7.381,7.381,0,0,0-1.137.836.76.76,0,0,0-.23.981,9.533,9.533,0,0,0,.737,1.291,7.376,7.376,0,0,1,.58.927.791.791,0,0,1,0,.693,1.625,1.625,0,0,1-1.115.752c-3.672.9-6.845.489-7.964-.359a12.112,12.112,0,0,0-3.633-1.6c-.765-.163-1.689-.267-2.583-.37a15.382,15.382,0,0,1-2.4-.379c-.695-.223-2.076-1.742-3.113-2.976a2.686,2.686,0,0,1-.41-3.013c.793-1.636,6.91-4.187,7.94-4.41a4.329,4.329,0,0,1,3.3,1.046,11.014,11.014,0,0,0,1.688,1.3,10.851,10.851,0,0,0,1.615.435,13.259,13.259,0,0,0,1.619.232.486.486,0,0,0,.528-.411,14.073,14.073,0,0,1,1.231-3.986c.182-.4.325-.713.4-.9.1-.274.463-1.217-.055-1.7s-1.789.091-2.35.439a11.925,11.925,0,0,1-4.252,1.549h-.078a11.981,11.981,0,0,1-3.244-.856,19.3,19.3,0,0,0-4.124-.859,20.708,20.708,0,0,0-6.551.782c-1.442.343-6.117,1.93-9.094,1.93a16.343,16.343,0,0,1-5.149-.679,2.847,2.847,0,0,0-2.983.46c-1.082.909-.837,2.812-.671,3.807a109.97,109.97,0,0,1,1.537,18.2,172.051,172.051,0,0,1-1.134,17.545,4.1,4.1,0,0,0,.893,3.317c1.152,1.1,3.484,1.369,5.346,1.67a30.9,30.9,0,0,1,4.036.609c1.055.421,1.707,1.3,1.81,3.049.114,1.951-.534,4.46-.332,7.939a13.133,13.133,0,0,0,1.933,5.715,14.073,14.073,0,0,1,1.309,3.423c.075.307.375,1.3.439,1.516a.906.906,0,0,0,1.107.636c.614-.105.739-.43.71-1.324-.034-1.024.073-1.943.631-1.943s.84.759,1.113,1.965a16.1,16.1,0,0,0,.511,1.8,1.475,1.475,0,0,0,.87.909,10.3,10.3,0,0,0,3.758.151,2.873,2.873,0,0,0,1.682-1.318,2.932,2.932,0,0,0-.272-1.728,15.522,15.522,0,0,0-1.355-1.825c-.2-.241-.4-.49-.569-.72A11.793,11.793,0,0,1,201.053,414a16.228,16.228,0,0,1-.406-3.122,19.665,19.665,0,0,0-.571-3.889,1.869,1.869,0,0,1,.373-1.824,26.039,26.039,0,0,0,2.758-9.565c.155-1.567,1.516-2.152,2.341-2.914,1.275-1.18.789-3.367-.015-4.9a9.031,9.031,0,0,1-1.36-4.258c0-.269.018-.679.311-.782s.655.13.912.409a14.029,14.029,0,0,0,5.749,3.224,12.852,12.852,0,0,0,6.541.007,11.123,11.123,0,0,0,5.916-4.275,3.878,3.878,0,0,1,2.3-1.819c3.2-.639,4.387-1.3,5.315-2.221a2.265,2.265,0,0,0,.678-1.639.7.7,0,0,0-.7-.623c-.372-.042-2.343.118-3.572.07a5.306,5.306,0,0,1-2.853-.634.673.673,0,0,1-.216-.481c0-.5.857-.562,2.238-.639a33.53,33.53,0,0,0,3.811-.337,9.993,9.993,0,0,0,3.292-1.1,1.572,1.572,0,0,0,.936-1.254,25.2,25.2,0,0,1-.124-3.3c.149-1.161.564-2.808-.217-3.064" transform="translate(-20.545)" fill="#fff"/><path d="M217,361.013a5.562,5.562,0,0,1-2.035-1.466,2.843,2.843,0,0,0-2.367-.723,13.948,13.948,0,0,0-3.682,1.381,19.588,19.588,0,0,0-3.061,1.747.982.982,0,0,0-.324.857,1.982,1.982,0,0,0,.432.99c.391.453,2.1,1.688,2.971,1.6a31.3,31.3,0,0,1,3.161-.147c2.376,0,7.093.845,7.747.786a5.723,5.723,0,0,0,2.352-1.152c.614-.426,1.987-1.1,2.5-1.405.808-.49,1.128-1.247.88-1.7-.206-.379-.845-.394-1.56-.334a33.709,33.709,0,0,1-3.466.011,29.6,29.6,0,0,1-3.544-.449" transform="translate(-25.607 -1.342)" fill="#fff"/><path d="M193.141,432.23a8.431,8.431,0,0,0-.948-2.07,12.282,12.282,0,0,1-1.707-7.179c.07-1.187-.909-1.8-2.019-1.786a1.942,1.942,0,0,0-1.942,1.38,10,10,0,0,0-.207,4.869c.424,1.154,1.873,1.6,2.35,2.177a7.5,7.5,0,0,1,.991,2.022,3.3,3.3,0,0,0,.9,1.606,3.393,3.393,0,0,0,1.968.162.983.983,0,0,0,.524-.28,1.325,1.325,0,0,0,.086-.9" transform="translate(-21.925 -13.166)" fill="#fff"/><path d="M129.747,398.026c1.508.672,5.656.587,6.623-.135a.4.4,0,0,0,.2-.364,153.813,153.813,0,0,1-.787-15.5,1.9,1.9,0,0,1,.558-1.355,1.917,1.917,0,0,1,1.366-.565h16.667a1.919,1.919,0,0,1,1.925,1.92,154.207,154.207,0,0,1-.787,15.5.4.4,0,0,0,.2.364,7.282,7.282,0,0,0,3.428.594,8.971,8.971,0,0,0,3.195-.46c.38-.169.583-.378.606-.618,1.53-16.951,1.378-29.24-.51-41.094-.037-.233-.277-.437-.716-.6-1.6-.609-5.485-.573-6.482.244a.524.524,0,0,0-.227.5,118.093,118.093,0,0,1,1.246,14.56,2.175,2.175,0,0,1-.533,1.546,1.276,1.276,0,0,1-.94.377H137.3a1.277,1.277,0,0,1-.941-.377,2.174,2.174,0,0,1-.533-1.546,118.408,118.408,0,0,1,1.247-14.56.524.524,0,0,0-.227-.5c-1-.817-4.878-.853-6.482-.244-.437.166-.678.37-.716.6-1.887,11.854-2.04,24.144-.508,41.094.022.24.225.449.6.618" transform="translate(-10.935 -0.677)" fill="#fff"/><path d="M161.193,417.024c-.008-.072-.069-.135-.182-.183a3.058,3.058,0,0,0-2,.078.173.173,0,0,0-.086.165c.44,3.441.836,7.132.421,8.424a3.092,3.092,0,0,1-5.853,0c-.416-1.293-.02-4.984.42-8.424a.177.177,0,0,0-.088-.165,3.087,3.087,0,0,0-2.005-.077c-.112.049-.172.111-.179.183-.032.312-.069.647-.106,1-.275,2.556-.65,6.057-.386,7.67.438,2.666,2.259,4.075,5.269,4.075s4.834-1.409,5.271-4.075c.263-1.61-.11-5.1-.383-7.653-.038-.357-.075-.7-.108-1.015" transform="translate(-15.285 -12.316)" fill="#fff"/><path d="M143.889,423.857a.391.391,0,0,1-.325.137H140.41a.356.356,0,0,1-.373-.489,25.9,25.9,0,0,1,1.395-3.779c.173-.325.332-.458.555-.458s.382.133.554.458a25.885,25.885,0,0,1,1.395,3.779.388.388,0,0,1-.046.352M143.435,417c-.085-.162-.9-.249-1.457-.249s-1.371.087-1.456.249a60.818,60.818,0,0,0-4.355,12.228.186.186,0,0,0,.058.181,2.825,2.825,0,0,0,1.892.172c.164-.049.256-.116.275-.2a28.331,28.331,0,0,1,.77-2.848.718.718,0,0,1,.667-.47h4.3a.719.719,0,0,1,.667.47,28.582,28.582,0,0,1,.769,2.848c.019.084.112.151.273.2a2.667,2.667,0,0,0,.72.083,2.086,2.086,0,0,0,1.174-.254.179.179,0,0,0,.058-.181A60.908,60.908,0,0,0,143.435,417" transform="translate(-12.463 -12.324)" fill="#fff"/><path d="M131.84,416.8a3.009,3.009,0,0,0-1.963.077.18.18,0,0,0-.077.171,35.355,35.355,0,0,1,.373,4.355.632.632,0,0,1-.152.447.365.365,0,0,1-.265.105h-5.229a.364.364,0,0,1-.266-.105.63.63,0,0,1-.152-.447,35.337,35.337,0,0,1,.373-4.355.178.178,0,0,0-.077-.171,3,3,0,0,0-1.963-.077c-.14.053-.216.12-.229.2a48.264,48.264,0,0,0-.152,12.306c.006.081.072.15.2.2a3.22,3.22,0,0,0,2.005-.042.139.139,0,0,0,.069-.131,46.192,46.192,0,0,1-.236-4.636.543.543,0,0,1,.161-.389.552.552,0,0,1,.392-.162h4.988a.552.552,0,0,1,.393.162.537.537,0,0,1,.16.389,46.083,46.083,0,0,1-.235,4.636.14.14,0,0,0,.068.131,2.223,2.223,0,0,0,1.045.18,2.692,2.692,0,0,0,.96-.138c.123-.054.189-.122.2-.2A48.26,48.26,0,0,0,132.07,417c-.013-.079-.091-.146-.229-.2" transform="translate(-9.731 -12.309)" fill="#fff"/><path d="M170.73,420.389c-.242-.04-.472-.075-.689-.107-1.258-.193-2.017-.309-2.139-.774a.3.3,0,0,1,.076-.255c.262-.338,1.139-.733,2.751-.733a9.668,9.668,0,0,1,3.873.769c.124.046.25-.068.357-.327.2-.489.306-1.5-.112-1.672a8.592,8.592,0,0,0-3.886-.775c-3.349,0-5.271,1.1-5.271,3.007,0,1.681,1.153,2.4,4.745,2.959,2.88.448,4.3,1.435,4.207,2.936-.079,1.341-1.506,2.14-3.817,2.14a6.154,6.154,0,0,1-3.807-1.381.6.6,0,0,0-.846.02,1.586,1.586,0,0,0-.521,1.635c.453.764,2.242,1.979,5.118,1.979a7.322,7.322,0,0,0,4.547-1.293,3.852,3.852,0,0,0,1.528-3.081c0-2.8-1.885-4.36-6.114-5.046" transform="translate(-18.036 -12.279)" fill="#fff"/></g></svg>