<svg xmlns="http://www.w3.org/2000/svg" width="61.522" height="31.278" viewBox="0 0 61.522 31.278"><path d="M-931.334,113.007c-.269-.111-.619.145-.768.254a1.492,1.492,0,0,1-.492.211,4.284,4.284,0,0,1-1.208.017,4.912,4.912,0,0,1-1.434-.49c-.368-.186-1.141-.587-1.7-.918a.653.653,0,0,0-.548,0,.7.7,0,0,0-.431.415c-.068.228.124.532.4.937a3.056,3.056,0,0,1,.232.367.194.194,0,0,1,0,.171.556.556,0,0,1-.377.241,4.664,4.664,0,0,1-3.244-.126,5.192,5.192,0,0,0-1.591-.7c-.326-.069-.716-.114-1.105-.158a6.53,6.53,0,0,1-.988-.154c-.1-.03-.407-.21-1.25-1.213a1.042,1.042,0,0,1-.166-1.146c.291-.6,2.735-1.615,3.228-1.722a1.747,1.747,0,0,1,1.32.372l.032.028a2.714,2.714,0,0,0,.8.578c.212.047.755.142,1.02.177a.3.3,0,0,0,.227-.06.28.28,0,0,0,.109-.193,7.308,7.308,0,0,1,.621-1.722c.077-.171.138-.305.168-.386a.379.379,0,0,0-.122-.468.575.575,0,0,0-.6.049,5.815,5.815,0,0,1-1.877.751h-.029a5.857,5.857,0,0,1-1.491-.34,6.956,6.956,0,0,0-1.612-.373c-.988-.04-1.828.006-5.182.984a5.114,5.114,0,0,1-3.3-.125l-.046-.015c-.175-.056-.316-.1-.417-.13a1.1,1.1,0,0,0-1.233.384,1.684,1.684,0,0,0-.072,1.235l.015.084a45.69,45.69,0,0,1,.64,7.411c0,2.344-.252,5.087-.5,7.461a1.653,1.653,0,0,0,.4,1.373,3.761,3.761,0,0,0,2.256.752c.082.009.185.018.3.029a7.118,7.118,0,0,1,1.435.225c.416.162.764.376.821,1.38a14.38,14.38,0,0,1-.089,1.5,17.539,17.539,0,0,0-.107,1.944,6.453,6.453,0,0,0,.819,2.679,4.729,4.729,0,0,1,.452,1.277c.032.133.061.247.089.34a.436.436,0,0,0,.5.312.415.415,0,0,0,.361-.429c-.014-.325.034-.529.146-.548.146,0,.309.434.455.823.033.088.067.179.1.271a.81.81,0,0,0,.433.471,4.143,4.143,0,0,0,.961.1,2.816,2.816,0,0,0,.685-.068.694.694,0,0,0,.4-.337.6.6,0,0,0,.069-.46,2.125,2.125,0,0,0-.4-.6c-.082-.1-.166-.2-.235-.3a6.791,6.791,0,0,1-1.065-1.816,4.732,4.732,0,0,1-.142-.8c-.013-.147-.02-.333-.027-.542a5.971,5.971,0,0,0-.168-1.473,1.64,1.64,0,0,1,.1-1.235,11.893,11.893,0,0,0,1.189-3.976c.127-.964.441-1.137.84-1.356a2.459,2.459,0,0,0,.6-.426c.579-.578.284-1.221-.029-1.9a3.767,3.767,0,0,1-.437-1.445.525.525,0,0,1,.006-.1c.01,0,.036,0,.076.032a11.641,11.641,0,0,0,1.812.966,6.238,6.238,0,0,0,2.9.264,3.991,3.991,0,0,0,2.88-1.909,1.3,1.3,0,0,1,.874-.7,3.927,3.927,0,0,0,2.285-.963.941.941,0,0,0,.241-.791.3.3,0,0,0-.319-.19l-.6.021c-.284.01-.641.027-.685.022a1.846,1.846,0,0,1-1.105-.227.147.147,0,0,1-.049-.1c.045-.071.417-.094.639-.108l.074,0c.417-.026.746-.053,1.1-.1a8.27,8.27,0,0,0,.927-.2,4.357,4.357,0,0,0,.954-.352.758.758,0,0,0,.333-.614h0a13.042,13.042,0,0,1,.037-1.524l.007-.045c.052-.348.111-.742-.139-.845" transform="translate(992.07 -106.667)" fill="#fff"/><path d="M-944.588,172.607c-.088-.156-.179-.318-.238-.446a7.548,7.548,0,0,1-.436-1.18,6.967,6.967,0,0,1-.16-1.08,1.01,1.01,0,0,0-.994-.927.985.985,0,0,0-1.055.757,3.122,3.122,0,0,0,.028,1.539,1.557,1.557,0,0,0,.649.663,1.381,1.381,0,0,1,.572.714,3.9,3.9,0,0,0,.589,1.163,1.093,1.093,0,0,0,.556.131,1.232,1.232,0,0,0,.37-.053.712.712,0,0,0,.361-.237.662.662,0,0,0,.02-.532,3.7,3.7,0,0,0-.261-.512" transform="translate(987.776 -144.594)" fill="#fff"/><path d="M-925.689,113.716c-.143-.022-.3-.042-.449-.06-.211-.027-.427-.053-.511-.077a1.487,1.487,0,0,1-.512-.343c-.086-.08-.268-.236-.37-.322a1.372,1.372,0,0,0-1.062-.244,7.97,7.97,0,0,0-1.332.518,8.017,8.017,0,0,0-1.564.895c-.288.262-.124.7.047.914a2.352,2.352,0,0,0,1.382.731,18.033,18.033,0,0,1,4.117.148,1.213,1.213,0,0,0,.178.013,1.16,1.16,0,0,0,.525-.125,7.177,7.177,0,0,0,.757-.435,7.421,7.421,0,0,1,.736-.472c.39-.2.478-.467.434-.631-.059-.219-.276-.249-.459-.25-.21,0-1.358-.176-1.79-.242Z" transform="translate(978.001 -109.98)" fill="#fff"/><path d="M-1033.569,108.578a16.461,16.461,0,0,0-8.012.616.537.537,0,0,0-.318.6,3.046,3.046,0,0,1,.049.851,2.723,2.723,0,0,1-.871,1.872,1.062,1.062,0,0,1-1.154.129.624.624,0,0,1-.032-.8,1.35,1.35,0,0,0,.164-.954.3.3,0,0,0-.192-.195.5.5,0,0,0-.42.076l-.145.1c-.187.133-.534.38-.642.437a.479.479,0,0,1-.458,0,.734.734,0,0,1-.29-.641,1.1,1.1,0,0,1,1.038-1.1,1.272,1.272,0,0,1,1.35.712,1.96,1.96,0,0,1-.144,1.6.4.4,0,0,0,.056.511.483.483,0,0,0,.6-.063,2.322,2.322,0,0,0,.824-1.856,2.68,2.68,0,0,0-2.9-2.548,2.843,2.843,0,0,0-2.969,2.255,3.165,3.165,0,0,0,.252,1.881,1.511,1.511,0,0,1-.072,1.332,9.058,9.058,0,0,0-2,5.625,7.029,7.029,0,0,0,3.1,5.744c.217.172.5.353.8.545a5.7,5.7,0,0,1,1.509,1.208,2.394,2.394,0,0,1,.028,2.194,5.113,5.113,0,0,0-.185,1.9,4.069,4.069,0,0,1-.036,1.325,7.47,7.47,0,0,1-.5,1.16l-.034.066a6.147,6.147,0,0,1-.629,1.03,1.688,1.688,0,0,0-.344,1.034c.043.593.36,1.064.713,1.066a.189.189,0,0,0,.134-.06c.051-.053.106-.161.092-.522a.928.928,0,0,1,.026-.3,3.629,3.629,0,0,1,.272.665,5.065,5.065,0,0,0,.233.611,1.486,1.486,0,0,0,.946.837,10.977,10.977,0,0,0,1.222.058,4.588,4.588,0,0,0,.524-.021.276.276,0,0,0,.224-.182.457.457,0,0,0-.089-.438c-.052-.06-.152-.152-.28-.268a4.381,4.381,0,0,1-.536-.544,1.786,1.786,0,0,1-.31-1.433,10.944,10.944,0,0,1,1.566-3.555,4.506,4.506,0,0,1,1.5-.977c.13-.062.242-.116.324-.161a4.568,4.568,0,0,0,1.653-1.76,2.041,2.041,0,0,1,1.26-1.17,5.519,5.519,0,0,1,1.526-.083h.035a5.257,5.257,0,0,0,1.585-.105c.518-.181.512-.745.436-1.272a62.153,62.153,0,0,1-.528-8.052,38.53,38.53,0,0,1,.762-7.691,1.109,1.109,0,0,0-.071-.888,1.077,1.077,0,0,0-.65-.4" transform="translate(1050.643 -107.075)" fill="#fff"/><path d="M-1019.718,170.7c-.3-.362-.567-.675-.786-.971a1.47,1.47,0,0,1-.2-1.758,4.371,4.371,0,0,1,1.045-1.029c.149-.111.507-.46.37-.735-.181-.363-1.322.028-1.539.12a4.988,4.988,0,0,0-1.8,1.162,2.3,2.3,0,0,0-.587,1.632,3.993,3.993,0,0,0,.929,1.7l.1.13a15.528,15.528,0,0,0,1.2,1.351,2.135,2.135,0,0,0,.99.546,4.079,4.079,0,0,0,.584.032c.182,0,.361-.006.49-.015a.432.432,0,0,0,.382-.249.571.571,0,0,0-.094-.576c-.389-.512-.761-.955-1.089-1.346" transform="translate(1034.275 -142.801)" fill="#fff"/><path d="M-975,163.638c0-.031-.029-.057-.077-.077a1.292,1.292,0,0,0-.847.033.073.073,0,0,0-.036.069,12.936,12.936,0,0,1,.177,3.559,1.161,1.161,0,0,1-1.237.886,1.16,1.16,0,0,1-1.236-.886,12.983,12.983,0,0,1,.177-3.559.073.073,0,0,0-.037-.069,1.3,1.3,0,0,0-.848-.033c-.047.021-.072.047-.076.077-.013.132-.029.273-.045.421a16.829,16.829,0,0,0-.163,3.241,1.986,1.986,0,0,0,2.226,1.722A1.986,1.986,0,0,0-974.8,167.3a16.784,16.784,0,0,0-.162-3.234c-.016-.15-.032-.295-.045-.428" transform="translate(1007.278 -141.233)" fill="#e24b32"/><path d="M-989.254,166.546a.166.166,0,0,1-.137.057h-1.333a.165.165,0,0,1-.138-.058.168.168,0,0,1-.02-.148,10.888,10.888,0,0,1,.59-1.6c.073-.138.14-.194.234-.194s.161.056.234.194a10.94,10.94,0,0,1,.59,1.6.166.166,0,0,1-.02.149m-.192-2.9c-.036-.069-.38-.1-.615-.1s-.579.036-.616.1a25.737,25.737,0,0,0-1.84,5.166.078.078,0,0,0,.025.076,1.191,1.191,0,0,0,.8.073c.069-.021.108-.049.116-.085a11.774,11.774,0,0,1,.326-1.2.3.3,0,0,1,.281-.2h1.817a.3.3,0,0,1,.281.2,11.81,11.81,0,0,1,.325,1.2c.008.036.047.064.115.085a1.115,1.115,0,0,0,.3.035.878.878,0,0,0,.5-.108.074.074,0,0,0,.024-.076,25.7,25.7,0,0,0-1.84-5.166" transform="translate(1015.409 -141.257)" fill="#e24b32"/><path d="M-1001.059,163.526a1.273,1.273,0,0,0-.83.032.075.075,0,0,0-.032.072,15.06,15.06,0,0,1,.158,1.84.267.267,0,0,1-.065.189.152.152,0,0,1-.111.045h-2.21a.154.154,0,0,1-.112-.045.269.269,0,0,1-.065-.189,14.981,14.981,0,0,1,.158-1.84.075.075,0,0,0-.032-.072,1.272,1.272,0,0,0-.829-.032c-.059.023-.091.051-.1.084a20.38,20.38,0,0,0-.064,5.2c0,.034.031.063.083.086a1.364,1.364,0,0,0,.848-.018.059.059,0,0,0,.029-.055c-.06-.465-.1-1.362-.1-1.959a.23.23,0,0,1,.068-.165.233.233,0,0,1,.165-.068h2.108a.234.234,0,0,1,.166.068.231.231,0,0,1,.067.165,19.594,19.594,0,0,1-.1,1.959.058.058,0,0,0,.029.055.934.934,0,0,0,.441.076,1.143,1.143,0,0,0,.406-.058c.052-.023.079-.052.082-.086a20.376,20.376,0,0,0-.064-5.2c-.006-.033-.038-.061-.1-.084" transform="translate(1023.277 -141.213)" fill="#e24b32"/><path d="M-964.213,164.97l-.291-.045c-.532-.081-.853-.131-.9-.327a.127.127,0,0,1,.032-.108,1.584,1.584,0,0,1,1.163-.31,4.081,4.081,0,0,1,1.636.325c.052.02.106-.029.15-.138.084-.206.13-.631-.047-.706a3.628,3.628,0,0,0-1.642-.327c-1.415,0-2.226.463-2.226,1.271,0,.71.487,1.014,2,1.25,1.217.189,1.816.606,1.778,1.24-.033.566-.636.9-1.612.9a2.6,2.6,0,0,1-1.609-.584.254.254,0,0,0-.357.008.669.669,0,0,0-.22.691,2.618,2.618,0,0,0,2.162.836,3.1,3.1,0,0,0,1.921-.546,1.629,1.629,0,0,0,.645-1.3c0-1.185-.8-1.843-2.583-2.132" transform="translate(999.354 -141.127)" fill="#e24b32"/><path d="M-1038.243,133.193c.462.629,1.136,1.345,1.875,2.319.188.247.127.575-.183.6a6.04,6.04,0,0,1-1.042-.016,1.992,1.992,0,0,1-.912-.506,15.5,15.5,0,0,1-1.191-1.336,4.382,4.382,0,0,1-1-1.759,2.153,2.153,0,0,1,.554-1.528,4.9,4.9,0,0,1,1.75-1.123c.475-.2,1.269-.362,1.356-.188s-.186.451-.328.557a4.493,4.493,0,0,0-1.079,1.065,1.621,1.621,0,0,0,.2,1.92m3.762-8.461c.085.593.039.984-.342,1.117a5.349,5.349,0,0,1-1.562.1,5.594,5.594,0,0,0-1.58.089,2.171,2.171,0,0,0-1.345,1.243,4.412,4.412,0,0,1-1.595,1.7c-.084.047-.2.1-.333.165a4.547,4.547,0,0,0-1.537,1.013,11.121,11.121,0,0,0-1.592,3.611,1.939,1.939,0,0,0,.33,1.542,10.748,10.748,0,0,0,.827.827c.112.13.107.364-.047.385a10.752,10.752,0,0,1-1.7-.037,1.348,1.348,0,0,1-.842-.761,4.86,4.86,0,0,1-.226-.591c-.144-.426-.278-.8-.42-.791s-.164.242-.155.476c.009.217-.007.432-.085.434-.237,0-.529-.384-.569-.934a1.553,1.553,0,0,1,.313-.934,6.645,6.645,0,0,0,.678-1.119,7.506,7.506,0,0,0,.506-1.187,4.148,4.148,0,0,0,.042-1.374,5,5,0,0,1,.174-1.838,2.491,2.491,0,0,0-.041-2.329,12.043,12.043,0,0,0-2.336-1.784,6.965,6.965,0,0,1-3.048-5.632,8.958,8.958,0,0,1,1.982-5.551,1.638,1.638,0,0,0,.08-1.462,3.036,3.036,0,0,1-.244-1.8,2.715,2.715,0,0,1,2.829-2.137,2.527,2.527,0,0,1,2.757,2.4,2.174,2.174,0,0,1-.773,1.746.344.344,0,0,1-.42.062.264.264,0,0,1-.02-.333,2.088,2.088,0,0,0,.144-1.732,1.421,1.421,0,0,0-1.486-.788,1.244,1.244,0,0,0-1.17,1.25.868.868,0,0,0,.361.76.624.624,0,0,0,.6,0c.154-.081.7-.478.8-.548.13-.089.344-.113.4.045a1.227,1.227,0,0,1-.148.832.763.763,0,0,0,.055.986,1.182,1.182,0,0,0,1.345-.128,2.852,2.852,0,0,0,.917-1.963,3.2,3.2,0,0,0-.05-.895.391.391,0,0,1,.227-.441,16.314,16.314,0,0,1,7.938-.61.937.937,0,0,1,.556.338.99.99,0,0,1,.048.78,38.57,38.57,0,0,0-.764,7.717,62.288,62.288,0,0,0,.529,8.074m.027-17.629a15.8,15.8,0,0,0-4.7-.262,18.745,18.745,0,0,0-3.883.809.53.53,0,0,1-.58-.116,3.5,3.5,0,0,0-2.672-1.07h-.053a3.66,3.66,0,0,0-2.832,1.21,3.479,3.479,0,0,0-.561,3.471,1.433,1.433,0,0,1-.051,1.206,9.547,9.547,0,0,0-2.11,5.883c0,3.685,1.9,6.1,4.773,8.11a1.145,1.145,0,0,1,.494,1.22,4.35,4.35,0,0,0-.05,1.936,6.661,6.661,0,0,1,.069,1.662,6.527,6.527,0,0,1-.846,1.634,2.445,2.445,0,0,0-.515,1.722,1.883,1.883,0,0,0,.822,1.435c.325.165.779.213.948.538a1.294,1.294,0,0,0,.983.774c.449.04,1.817.067,2.23.049a.885.885,0,0,0,.578-.237.779.779,0,0,0,.153-.621,1.163,1.163,0,0,0-.436-.751,6.928,6.928,0,0,1-.653-.67,1.326,1.326,0,0,1-.235-1.168,6.441,6.441,0,0,1,1.061-2.523,2.531,2.531,0,0,1,1.1-.821c.357-.1.459.051.378.194a2.65,2.65,0,0,0-.416,2.186,12.459,12.459,0,0,0,2.477,3.345,1.8,1.8,0,0,0,1.2.656c.377.025,1.626.015,1.9-.009a.54.54,0,0,0,.526-.4,1.262,1.262,0,0,0-.1-.9,19.765,19.765,0,0,0-1.556-2c-.6-.739-1.052-1.284-.691-1.864a3.536,3.536,0,0,1,.916-.817,4.944,4.944,0,0,0,1.238-1.193,3.328,3.328,0,0,0,.372-2.02c-.056-.5.085-.841.415-.938a1.537,1.537,0,0,0,.944-.6,1.612,1.612,0,0,0,.192-1.113,61.98,61.98,0,0,1-.584-8.343,40,40,0,0,1,.82-8.018,1.377,1.377,0,0,0-1.06-1.587" transform="translate(1051.9 -106.18)" fill="#e24b32"/><path d="M-938.875,110.479a7.627,7.627,0,0,0-.752.481,6.854,6.854,0,0,1-.74.425,1.024,1.024,0,0,1-.617.1,19.536,19.536,0,0,0-2.818-.211c-.477,0-.929.021-1.335.062a2.276,2.276,0,0,1-1.255-.678c-.143-.18-.27-.531-.063-.72a8.074,8.074,0,0,1,1.529-.871,7.444,7.444,0,0,1,1.3-.508,1.23,1.23,0,0,1,.94.214c.1.084.28.237.365.316a1.585,1.585,0,0,0,.571.375c.153.044.613.085.978.141s1.693.262,1.937.263.3.064.321.144c.033.124-.073.319-.361.468m-13.742,20.412a.844.844,0,0,1,.911-.641.872.872,0,0,1,.856.794,7.209,7.209,0,0,0,.164,1.105,7.719,7.719,0,0,0,.444,1.206c.139.3.431.752.494.942a.527.527,0,0,1-.005.41.577.577,0,0,1-.285.178,1.121,1.121,0,0,1-.805-.063,4.128,4.128,0,0,1-.531-1.092,1.52,1.52,0,0,0-.628-.784,1.427,1.427,0,0,1-.6-.6,2.976,2.976,0,0,1-.019-1.456m20.243-16.4a.615.615,0,0,1-.269.489,4.422,4.422,0,0,1-.915.333,8.049,8.049,0,0,1-.908.192c-.332.048-.647.075-1.086.1s-.847.04-.847.254a.284.284,0,0,0,.092.2,1.89,1.89,0,0,0,1.205.268c.055,0,1.014-.036,1.286-.044.079,0,.157.02.179.089a.812.812,0,0,1-.2.648,3.815,3.815,0,0,1-2.213.924,1.437,1.437,0,0,0-.97.768,3.861,3.861,0,0,1-2.787,1.841,6.074,6.074,0,0,1-2.819-.258,11.661,11.661,0,0,1-1.78-.949.226.226,0,0,0-.215-.044c-.073.032-.093.117-.09.231a3.891,3.891,0,0,0,.451,1.5c.3.661.567,1.233.058,1.742a2.332,2.332,0,0,1-.574.4c-.416.229-.775.426-.912,1.462a11.738,11.738,0,0,1-1.171,3.922,1.766,1.766,0,0,0-.114,1.353,5.9,5.9,0,0,1,.16,1.432c.007.205.014.4.027.55a4.862,4.862,0,0,0,.148.829,6.937,6.937,0,0,0,1.086,1.855c.07.1.157.2.241.3a2.125,2.125,0,0,1,.377.55.472.472,0,0,1-.057.35.55.55,0,0,1-.318.269,4.069,4.069,0,0,1-1.57-.033.685.685,0,0,1-.338-.385c-.037-.093-.071-.185-.1-.274-.19-.505-.342-.91-.587-.91a.2.2,0,0,0-.042,0c-.184.034-.265.26-.246.692a.273.273,0,0,1-.242.283.292.292,0,0,1-.34-.212c-.027-.091-.055-.2-.086-.333a4.829,4.829,0,0,0-.469-1.317,6.284,6.284,0,0,1-.8-2.611,17.72,17.72,0,0,1,.107-1.927,14.285,14.285,0,0,0,.089-1.523c-.061-1.078-.464-1.331-.912-1.5a9.546,9.546,0,0,0-1.772-.263,3.652,3.652,0,0,1-2.168-.709,1.541,1.541,0,0,1-.361-1.26c.25-2.413.5-5.158.5-7.475a45.534,45.534,0,0,0-.641-7.437,1.732,1.732,0,0,1,.033-1.213.95.95,0,0,1,1.078-.327c.109.03.263.08.457.143a5.245,5.245,0,0,0,3.383.127c3.33-.972,4.161-1.019,5.136-.979a6.916,6.916,0,0,1,1.575.367,5.93,5.93,0,0,0,1.533.347h.033a5.871,5.871,0,0,0,1.95-.773.431.431,0,0,1,.441-.05.238.238,0,0,1,.067.3c-.03.08-.091.213-.167.381a7.313,7.313,0,0,0-.631,1.761.151.151,0,0,1-.175.129c-.252-.034-.792-.127-1.007-.175a3.2,3.2,0,0,1-.764-.573,1.892,1.892,0,0,0-1.446-.4c-.435.094-2.991,1.107-3.326,1.8a1.18,1.18,0,0,0,.185,1.3,5.173,5.173,0,0,0,1.316,1.257,6.463,6.463,0,0,0,1.016.16c.377.044.769.088,1.091.157a5.109,5.109,0,0,1,1.535.676,4.709,4.709,0,0,0,3.364.152.684.684,0,0,0,.472-.318.334.334,0,0,0,0-.293,3.19,3.19,0,0,0-.246-.391c-.194-.282-.436-.633-.382-.813a.556.556,0,0,1,.346-.323.526.526,0,0,1,.423-.015c.562.331,1.34.736,1.711.923a5.025,5.025,0,0,0,1.483.5,4.431,4.431,0,0,0,1.25-.019,1.641,1.641,0,0,0,.548-.236c.13-.1.436-.317.629-.237.155.064.084.473.045.737a12.97,12.97,0,0,0-.038,1.552m.771-1.627c.114-.752.073-1.178-.129-1.34a.987.987,0,0,0-1.2.058,2.4,2.4,0,0,1-1.461.416h0a3.542,3.542,0,0,1-1.417-.35,17.987,17.987,0,0,1-1.6-.889c-.281-.173-.36-.273-.373-.375-.018-.129.145-.315.1-.607s-.247-.43-.6-.432a5.792,5.792,0,0,1-1.163-.1.256.256,0,0,1-.2-.291,11.647,11.647,0,0,1,.642-1.806,1.034,1.034,0,0,0-.163-1.274,1.353,1.353,0,0,0-1.276.027,6.816,6.816,0,0,1-1.8.665h-.027a8.313,8.313,0,0,1-.939-.237,11.531,11.531,0,0,0-2.045-.462c-1.1-.031-1.936.052-5.266,1a3.769,3.769,0,0,1-2.677-.017,6.6,6.6,0,0,0-1.355-.33,1.4,1.4,0,0,0-1.373.622,2.232,2.232,0,0,0-.175,1.52,45.136,45.136,0,0,1,.667,7.645,59.349,59.349,0,0,1-.54,7.478,2.113,2.113,0,0,0,.443,1.775,6.054,6.054,0,0,0,1.329.921,1.989,1.989,0,0,1,.784,1.2,13.138,13.138,0,0,1-.034,3.538,2.512,2.512,0,0,0,.236,1.634c.384.582,1.031.748,1.2,1.257a5.862,5.862,0,0,0,.529,1.325,1.532,1.532,0,0,0,1.435.428,2.022,2.022,0,0,0,.569-.219.16.16,0,0,1,.227.085.774.774,0,0,0,.67.616.733.733,0,0,0,.536-.162.316.316,0,0,1,.267-.108c.113.016.193.209.276.369a.969.969,0,0,0,.165.261,2.213,2.213,0,0,0,1.378.3,4.524,4.524,0,0,0,.956-.111,1.308,1.308,0,0,0,.791-.644,1.491,1.491,0,0,0-.009-1,5.151,5.151,0,0,0-.693-1.033l-.007-.009a10.682,10.682,0,0,1-.866-1.41,2.616,2.616,0,0,1-.2-.994,12.926,12.926,0,0,0-.2-1.971,1.453,1.453,0,0,1,.052-.907,11.934,11.934,0,0,0,1.054-3.979c.054-.565.684-.943,1.191-1.191a7.647,7.647,0,0,0,1.195-.734,3.792,3.792,0,0,0,.768-.862.849.849,0,0,1,.654-.415,8.61,8.61,0,0,0,2.018-.292,5.447,5.447,0,0,0,3.027-2.264c.091-.155.23-.39.459-.434a6.171,6.171,0,0,0,1.585-.492A2.8,2.8,0,0,0-933,117.222a1.729,1.729,0,0,0,.183-1.028.361.361,0,0,1,.239-.413,2.153,2.153,0,0,0,.842-.474,1.105,1.105,0,0,0,.135-.857,5.234,5.234,0,0,1,0-1.589" transform="translate(993.063 -105.727)" fill="#e24b32"/><path d="M-998.983,127a4.5,4.5,0,0,0,2.8-.057.167.167,0,0,0,.084-.153,65.075,65.075,0,0,1-.333-6.549.8.8,0,0,1,.236-.572.811.811,0,0,1,.577-.239h7.042a.811.811,0,0,1,.577.239.8.8,0,0,1,.236.572,65.147,65.147,0,0,1-.333,6.549.167.167,0,0,0,.084.153,3.075,3.075,0,0,0,1.448.251,3.787,3.787,0,0,0,1.35-.194c.161-.071.246-.159.256-.261a68.038,68.038,0,0,0-.215-17.362c-.016-.1-.118-.185-.3-.255a4.189,4.189,0,0,0-2.739.1.22.22,0,0,0-.1.21,50.013,50.013,0,0,1,.526,6.152.92.92,0,0,1-.225.653.54.54,0,0,1-.4.16h-7.382a.541.541,0,0,1-.4-.16.923.923,0,0,1-.226-.653,50.028,50.028,0,0,1,.527-6.152.22.22,0,0,0-.1-.21,4.19,4.19,0,0,0-2.739-.1c-.185.07-.286.156-.3.255a68.077,68.077,0,0,0-.215,17.362c.01.1.1.189.256.261" transform="translate(1019.808 -107.706)" fill="#e24b32"/></svg>