<svg xmlns="http://www.w3.org/2000/svg" width="302.097" height="84.483" viewBox="0 0 302.097 84.483"><g transform="translate(0)"><path d="M235.034,316.118c.182.311.858,1.151,1.711,2.214,1.27,1.579,2.85,3.545,3.634,4.8a1.225,1.225,0,0,1,.067,1.006.676.676,0,0,1-.442.427,5.263,5.263,0,0,1-4.921-.954,21.94,21.94,0,0,1-3.159-3.215c-.153-.2-.306-.4-.456-.6-1.319-1.73-2.46-3.223-2.46-4.739a6.236,6.236,0,0,1,1.365-3.9,10.722,10.722,0,0,1,4.479-2.838,9,9,0,0,1,3.3-.593c.107,0,.214,0,.322,0,.172.005.2.088.207.116a.81.81,0,0,1-.386.7l-.434.323a10.267,10.267,0,0,0-2.958,2.879c-.553.835-1.141,2.2.134,4.374m10.722-22.056c.232,1.6-.357,2.9-1.435,3.142a17.586,17.586,0,0,1-3.783.14,15.523,15.523,0,0,0-4.33.241,5.916,5.916,0,0,0-3.686,3.36,11.983,11.983,0,0,1-4.37,4.59c-.231.127-.547.274-.912.446a11.32,11.32,0,0,0-4,2.624,32.218,32.218,0,0,0-4.466,10.171,4.607,4.607,0,0,0,.8,3.87l.093.142A6.224,6.224,0,0,0,220.89,324a7.035,7.035,0,0,1,.948.882.9.9,0,0,1,.159.8.356.356,0,0,1-.286.237c-.372.06-3.871-.023-4.669-.1a4.031,4.031,0,0,1-2.306-2.055,13.283,13.283,0,0,1-.618-1.6c-.394-1.151-.736-2.152-1.2-2.152a.286.286,0,0,0-.061.006c-.355.066-.336.663-.317,1.3.014.455.03.972-.122,1.127a.147.147,0,0,1-.111.044c-.65,0-1.45-1.036-1.56-2.523a4.169,4.169,0,0,1,.858-2.525,14.661,14.661,0,0,0,1.7-2.726l.155-.3a23.86,23.86,0,0,0,1.386-3.207,11.078,11.078,0,0,0,.114-3.716,13.348,13.348,0,0,1,.478-4.967c.735-1.779,1.2-4.465.1-6.179a12.457,12.457,0,0,0-3.956-3.17c-.9-.557-1.832-1.132-2.661-1.769-4.944-3.794-7.465-7.588-8.173-12.305a23.19,23.19,0,0,1,.951-9.963,34.794,34.794,0,0,1,4.174-7.778l.127-.185a4.4,4.4,0,0,0,.219-3.951,8.113,8.113,0,0,1-.666-4.865c.611-3.335,3.709-5.711,7.533-5.777h.191c4.9,0,7.524,3.249,7.582,6.5a5.746,5.746,0,0,1-2.118,4.72.88.88,0,0,1-1.111.133.656.656,0,0,1-.094-.866c.7-1.316,1.082-3.406.394-4.682a3.9,3.9,0,0,0-4.072-2.128,3.386,3.386,0,0,0-3.207,3.378,2.335,2.335,0,0,0,.991,2.054,1.725,1.725,0,0,0,1.634.013,11.256,11.256,0,0,0,1.3-.841c.235-.167.488-.347.769-.536a1.191,1.191,0,0,1,.948-.259.409.409,0,0,1,.265.275,3.273,3.273,0,0,1-.406,2.251,2.239,2.239,0,0,0,.1,2.547c.672.678,2.72.674,3.742-.227a7.679,7.679,0,0,0,2.514-5.308,8.547,8.547,0,0,0-.139-2.417A1.055,1.055,0,0,1,222.99,250a45.275,45.275,0,0,1,21.752-1.648,1.966,1.966,0,0,1,1.315.817,2.859,2.859,0,0,1,.344,2.2,102.861,102.861,0,0,0-2.1,20.862,166.13,166.13,0,0,0,1.451,21.825m.075-47.654a43.852,43.852,0,0,0-12.888-.708,52.013,52.013,0,0,0-10.642,2.187,1.462,1.462,0,0,1-1.586-.314,9.664,9.664,0,0,0-7.324-2.894h-.144a10.1,10.1,0,0,0-7.763,3.273,9.307,9.307,0,0,0-1.537,9.384,3.832,3.832,0,0,1-.14,3.26,43.075,43.075,0,0,0-3.014,5.017,22.986,22.986,0,0,0-2.461,13.817c.853,7.748,5.149,14.136,12.77,18.99a3.48,3.48,0,0,1,1.527,3,22.681,22.681,0,0,0-.383,4.818c.013.407.09.979.171,1.585a9.732,9.732,0,0,1,.09,3.629,24.154,24.154,0,0,1-2.321,4.28,7.75,7.75,0,0,0-1.377,4.626c.221,1.973,1.422,3.919,2.348,4.341a7.936,7.936,0,0,0,.991.347c.658.2,1.281.388,1.481.809.519,1.093,1.612,2.2,2.7,2.2h6.252a1.712,1.712,0,0,0,1.225-.585,2.3,2.3,0,0,0,.632-1.709,2.846,2.846,0,0,0-1.234-2,10.325,10.325,0,0,1-1.848-1.716,3.939,3.939,0,0,1-.642-3.312,22.058,22.058,0,0,1,3.547-7.838,4.852,4.852,0,0,1,1.981-1.567,10.646,10.646,0,0,0,1.735-1.075c-1.322,3.068-1.825,6.006-1.346,7.907.547,2.174,4.463,6.393,6.135,8.194l.246.265c1.059,1.145,2.511,2.714,3.862,2.714.8,0,1.711-.046,2.589-.091.594-.03,1.156-.059,1.663-.072a2.254,2.254,0,0,0,1.646-.694,2.5,2.5,0,0,0,.447-2.032c-.16-1.215-1.455-2.821-2.707-4.373-.173-.214-.347-.429-.517-.642-.32-.4-.647-.795-.964-1.174-1.662-1.988-3.1-3.706-2.108-5.272a9.605,9.605,0,0,1,2.512-2.21,9.132,9.132,0,0,0,3.194-3.093c1.237-2.735,1.443-3.442,1.269-6.18a1.756,1.756,0,0,1,.95-1.916,7.159,7.159,0,0,0,1.4-.509,3.75,3.75,0,0,0,1.845-4.145,162.293,162.293,0,0,1-1.6-22.551,106.666,106.666,0,0,1,2.247-21.675,3.726,3.726,0,0,0-2.9-4.29" transform="translate(-198.16 -243.98)" fill="#d61a1b"/><path d="M555.947,256.53a20.662,20.662,0,0,0-2.061,1.3,9.559,9.559,0,0,1-2.708,1.523.581.581,0,0,0-.059.011.248.248,0,0,1-.114.011,54.029,54.029,0,0,0-8.557-.7c-1.307,0-2.548.055-3.661.167-1.007.1-2.981-1.319-3.439-1.833a2.861,2.861,0,0,1-.424-1.383c.069-.211.121-.385.158-.531a31,31,0,0,1,7.848-3.759,4.192,4.192,0,0,1,2.828.771c.275.228.516.448.747.661a3.444,3.444,0,0,0,1.622,1.059c.094.015.231.023.388.031a7.154,7.154,0,0,1,.782.074l1.065.185a39.928,39.928,0,0,0,5.934.785h.05a.523.523,0,0,1,.56.345c.09.336-.17.879-.96,1.282m-37.693,55.478c.029-.168.059-.341.084-.506a2.06,2.06,0,0,1,2.023-1.5c.071,0,.144,0,.218.01a3.03,3.03,0,0,1,2.735,2.309v.091a9.9,9.9,0,0,0,.263,2.7c.28.793,1.9,4.478,2.283,5.189.072.134.13.262.187.388.031.068.061.136.09.191a1.614,1.614,0,0,1-.164,1.248.7.7,0,0,1-.441.332,4.375,4.375,0,0,1-2.385-.121c-.341-.214-.579-.884-.94-1.9-.164-.462-.351-.985-.584-1.574a3.771,3.771,0,0,0-1.652-1.6,3.457,3.457,0,0,1-1.632-1.622,6.609,6.609,0,0,1-.086-3.635m55.505-44.642a1.655,1.655,0,0,1-.739,1.322,12.216,12.216,0,0,1-2.508.9c-.52.149-1.6.311-2.557.456l-.037.005c-.43.065-.838.127-1.172.183a13.758,13.758,0,0,1-1.4.109l-.026,0c-1.653.079-2.59.152-2.59.729a.764.764,0,0,0,.25.55c.475.467,1.65.724,3.3.724.15.008.314,0,.48,0,.1,0,.206,0,.309,0,.4,0,.794-.026,1.178-.051a11.093,11.093,0,0,1,1.748-.02c.216.02.274.123.3.2a2.157,2.157,0,0,1-.562,1.75c-1.074,1.056-2.358,1.767-6.062,2.5a3.928,3.928,0,0,0-2.658,2.078c-1.965,3.369-4.963,4.406-7.636,4.977a16.9,16.9,0,0,1-7.724-.7,33.822,33.822,0,0,1-5.067-2.678.35.35,0,0,0-.374-.035.694.694,0,0,0-.272.651,10.416,10.416,0,0,0,1.235,4.055c.832,1.788,1.552,3.332.158,4.706a6.389,6.389,0,0,1-1.572,1.089c-1.14.617-2.125,1.152-2.5,3.952-.415,3.113-1.5,7.757-3.209,10.6a4.727,4.727,0,0,0-.313,3.657,15.642,15.642,0,0,1,.438,3.871c.02.554.038,1.077.076,1.487a13.033,13.033,0,0,0,.4,2.239c.257.791.827,2.076,2.977,5.016.191.263.429.548.659.823A5.753,5.753,0,0,1,539.336,324a1.26,1.26,0,0,1-.158.945,1.5,1.5,0,0,1-.871.726,11.3,11.3,0,0,1-4.3-.088,1.861,1.861,0,0,1-.924-1.04c-.1-.252-.195-.5-.286-.742-.52-1.366-.937-2.461-1.608-2.461a.577.577,0,0,0-.118.012c-.5.09-.725.7-.673,1.872a.74.74,0,0,1-.664.762.8.8,0,0,1-.932-.572c-.075-.247-.151-.55-.238-.9a12.907,12.907,0,0,0-1.285-3.561,16.817,16.817,0,0,1-2.189-7.057,47.157,47.157,0,0,1,.293-5.211,38.3,38.3,0,0,0,.246-4.116c-.167-2.913-1.277-3.587-2.5-4.067a16.605,16.605,0,0,0-3.854-.617c-.36-.032-.7-.062-1-.094-2.208-.237-4.669-.6-5.94-1.917a3.756,3.756,0,0,1-.581-3.534c.177-.792.351-1.525.516-2.229a49.113,49.113,0,0,0,1.609-13.533c0-9.038-2.513-17.279-4.971-24.149a4.39,4.39,0,0,1-.323-3.087,2.5,2.5,0,0,1,2.688-1.236c.307.042.742.122,1.294.222,2.846.521,8.146,1.488,11.955.393,9.124-2.626,11.4-2.753,14.073-2.646a19.112,19.112,0,0,1,4.317.991,16.466,16.466,0,0,0,4.2.938h.089c1.541-.035,4.647-1.656,5.343-2.089a1.139,1.139,0,0,1,1.228.047.51.51,0,0,1,.163.623c-.081.216-.247.575-.458,1.031-.672,1.456-1.787,3.868-1.751,5.188-.794-.139-1.532-.274-2.078-.373l-.242-.044c-.471-.087-.848-.155-1.071-.195a7.682,7.682,0,0,1-2.07-1.491,4.793,4.793,0,0,0-3.7-1.194c-1.193.255-8.111,2.973-9.029,4.842a3.367,3.367,0,0,0,.31,3.635c1.2,1.41,2.8,3.145,3.6,3.4a18.177,18.177,0,0,0,2.784.433c1.035.117,2.106.237,2.991.423a14.081,14.081,0,0,1,4.206,1.827c1.3.967,4.969,1.44,9.219.409a1.876,1.876,0,0,0,1.293-.859.891.891,0,0,0,.005-.792,8.439,8.439,0,0,0-.672-1.059c-.532-.762-1.194-1.711-1.048-2.2a1.514,1.514,0,0,1,.948-.872,1.454,1.454,0,0,1,1.16-.04c1.541.895,3.672,1.99,4.688,2.495a13.913,13.913,0,0,0,4.064,1.363,12.325,12.325,0,0,0,3.427-.051,4.474,4.474,0,0,0,1.5-.637c.357-.258,1.2-.857,1.726-.642.426.173.276,1.154.167,1.871-.018.118-.035.231-.05.336a27.1,27.1,0,0,0-.1,3.98m2.112-4.4c.312-2.034.2-3.184-.354-3.621a2.734,2.734,0,0,0-3.295.157,6.648,6.648,0,0,1-4,1.124h-.006a9.655,9.655,0,0,1-3.514-.871l-.191-.075a32.6,32.6,0,0,1-4.576-2.4c-.768-.467-.964-.742-1.022-1.013a1.3,1.3,0,0,1,.109-.552,2.15,2.15,0,0,0,.155-.851,1.477,1.477,0,0,0-1.623-1.405q-.223,0-.451.011a10.225,10.225,0,0,1-3.339-.419c-.076-1.12,1.5-4.895,1.825-5.531.8-1.484.77-2.621-.084-3.291a4.432,4.432,0,0,0-3.86-.08,18.864,18.864,0,0,1-4.935,1.8c-.026,0-.05,0-.073,0a23.048,23.048,0,0,1-2.574-.642,32.1,32.1,0,0,0-5.6-1.249c-3.024-.084-5.3.141-14.431,2.713-3.191.9-7.27.225-10.248-.266a18.321,18.321,0,0,0-3.8-.412c-1.811.179-2.7.739-3.378,2.14a5.527,5.527,0,0,0-.069,4.145,72.843,72.843,0,0,1,5.177,23.763,46.915,46.915,0,0,1-2.249,15.965,5.6,5.6,0,0,0,.828,5.259,8.192,8.192,0,0,0,3.181,2.055,1.252,1.252,0,0,0,.469.372,5.01,5.01,0,0,1,2.147,3.243c.664,3.059.15,7.98-.185,9.757a6.031,6.031,0,0,0,.71,4.54,4.338,4.338,0,0,0,1.7,1.454,3.115,3.115,0,0,1,1.763,1.9,15.909,15.909,0,0,0,1.313,3.3c1.171,1.475,3.317,1.187,4.021,1.091a3.2,3.2,0,0,0,1.956-.823c.02.062.038.121.054.16a2.451,2.451,0,0,0,2.459,2.052,1.713,1.713,0,0,0,.927-.458.773.773,0,0,1,.693-.262c.31.041.567.534.794.967a2.637,2.637,0,0,0,.453.7c.817.717,2.367.814,3.776.814a12.627,12.627,0,0,0,2.621-.3,3.573,3.573,0,0,0,2.169-1.742,3.972,3.972,0,0,0-.025-2.7,13.913,13.913,0,0,0-1.9-2.793l-.019-.026a28.954,28.954,0,0,1-2.372-3.81,7,7,0,0,1-.548-2.686,34.379,34.379,0,0,0-.558-5.327,3.876,3.876,0,0,1,.144-2.45c1.459-2.572,2.557-7.358,2.888-10.755.148-1.529,1.732-2.388,3.263-3.22l.268-.146a23.381,23.381,0,0,0,3.005-1.837,7.874,7.874,0,0,0,1.842-1.962c.085-.121.172-.242.264-.369.429-.581,1-1.245,1.592-1.245h.029c4.833.182,11.188-2.086,13.994-6.788.25-.419.629-1.054,1.255-1.172a16.983,16.983,0,0,0,4.344-1.331,7.613,7.613,0,0,0,3.273-2.821,4.615,4.615,0,0,0,.5-2.778.976.976,0,0,1,.656-1.118,5.921,5.921,0,0,0,2.307-1.279,2.956,2.956,0,0,0,.367-2.316,14.005,14.005,0,0,1-.01-4.3" transform="translate(-273.946 -243.752)" fill="#d61a1b"/><path d="M429.188,249.671c-.026-.256-.248-.474-.658-.651-1.745-.754-6.436-.578-7.6.286a.617.617,0,0,0-.309.579c1.682,12.946,3.188,26.837,1.6,31.711-1.76,5.4-5.323,7.917-11.211,7.917s-9.44-2.516-11.2-7.917c-1.588-4.873-.081-18.765,1.6-31.711a.617.617,0,0,0-.309-.579c-1.169-.864-5.86-1.04-7.6-.286-.41.177-.633.4-.658.651-.125,1.187-.264,2.461-.409,3.795-1.043,9.6-2.471,22.749-1.468,28.8,1.659,10,8.591,15.293,20.047,15.293s18.4-5.288,20.058-15.293c1-6.053-.424-19.2-1.467-28.8-.146-1.334-.284-2.607-.409-3.795" transform="translate(-245.516 -244.931)" fill="#d61a1b"/><path d="M344.748,274.044h0c.658-2.33,3.247-10.352,5.327-14.225.666-1.24,1.289-1.745,2.154-1.745s1.488.505,2.154,1.745c2.079,3.873,4.668,11.9,5.327,14.225a1.517,1.517,0,0,1-.187,1.365,1.535,1.535,0,0,1-1.277.535H346.212a1.534,1.534,0,0,1-1.276-.535,1.513,1.513,0,0,1-.187-1.365m-.75,9.589h16.4a2.781,2.781,0,0,1,2.584,1.8,106.047,106.047,0,0,1,2.942,10.72c.068.3.408.544,1.01.722a10.2,10.2,0,0,0,2.705.305c.4,0,.811-.015,1.221-.047a5.987,5.987,0,0,0,3.244-.893.617.617,0,0,0,.211-.632c-5.352-19.925-10.939-35.4-16.6-46-.318-.592-3.408-.908-5.516-.908s-5.2.316-5.514.908c-5.666,10.6-11.251,26.073-16.6,46a.617.617,0,0,0,.213.632,5.982,5.982,0,0,0,3.243.893,12.06,12.06,0,0,0,3.927-.259c.6-.178.941-.42,1.01-.722a106.089,106.089,0,0,1,2.941-10.72,2.782,2.782,0,0,1,2.584-1.8" transform="translate(-230.615 -244.971)" fill="#d61a1b"/><path d="M273.383,296.578a10.4,10.4,0,0,0,3.659.518,8.473,8.473,0,0,0,3.944-.674.482.482,0,0,0,.243-.449,171.072,171.072,0,0,1-.9-17.448,2.088,2.088,0,0,1,.626-1.5,2.16,2.16,0,0,1,1.529-.624h19.027a2.158,2.158,0,0,1,1.529.625,2.085,2.085,0,0,1,.626,1.5,170.8,170.8,0,0,1-.9,17.448.48.48,0,0,0,.243.449c1.114.82,5.875.917,7.6.157.449-.2.691-.443.717-.73,1.748-19.09,1.573-32.933-.581-46.288-.045-.28-.329-.52-.844-.712-1.838-.691-6.3-.645-7.441.28a.626.626,0,0,0-.275.6,131.524,131.524,0,0,1,1.423,16.389,2.4,2.4,0,0,1-.6,1.711,1.433,1.433,0,0,1-1.044.411H282.026a1.433,1.433,0,0,1-1.044-.411,2.4,2.4,0,0,1-.6-1.711,131.741,131.741,0,0,1,1.422-16.389.624.624,0,0,0-.274-.6c-1.148-.926-5.6-.972-7.441-.28-.515.192-.8.433-.844.712-2.155,13.355-2.329,27.2-.581,46.288.026.287.268.532.716.73" transform="translate(-216.201 -244.89)" fill="#d61a1b"/><path d="M486.151,268.177c-3.721-2.721-9.25-4.637-16.9-5.863-.924-.148-1.8-.279-2.614-.4-4.825-.728-7.738-1.166-8.211-2.945a1.161,1.161,0,0,1,.3-1c1-1.282,4.363-2.78,10.53-2.78a37.306,37.306,0,0,1,14.789,2.9c.447.173.905-.256,1.3-1.2a9.984,9.984,0,0,0,.658-3.59c-.012-1.423-.391-2.363-1.06-2.642-4.487-2.406-10.527-2.91-14.8-2.91-6.215,0-11.322,1.022-14.768,2.955s-5.282,4.812-5.282,8.31a7.637,7.637,0,0,0,4.045,7.23c2.7,1.611,6.891,2.764,14.005,3.856,11.019,1.689,16.431,5.422,16.09,11.1-.305,5.069-5.766,8.1-14.605,8.1a23.71,23.71,0,0,1-14.547-5.207,2.271,2.271,0,0,0-3.167.074c-1.764,1.442-2.816,4.687-1.974,6.09,1.72,2.871,8.528,7.426,19.475,7.426,7.221,0,13.208-1.678,17.313-4.852a14.391,14.391,0,0,0,5.806-11.558c0-5.663-2.084-9.941-6.372-13.076" transform="translate(-260.037 -244.733)" fill="#d61a1b"/><path d="M491.67,329.595c0,2.884-2.735,5.866-7.313,5.866-3.008,0-7.36-2.088-7.36-5.866,0-2.773,3.743-4.431,7.36-4.431,3.517,0,7.313,1.694,7.313,4.431m-.526-5.413a14.756,14.756,0,0,0-13.6.106,6.194,6.194,0,0,0-3.3,5.446c0,4.585,4.632,8.458,10.115,8.458,5.457,0,10.067-3.911,10.067-8.541a6.109,6.109,0,0,0-3.28-5.468" transform="translate(-266.092 -263.147)" fill="#d61a1b"/><path d="M460.419,325.142a14.041,14.041,0,0,1,6,1.336.49.49,0,0,0,.507-.087,2.521,2.521,0,0,0,.884-1.868.524.524,0,0,0-.3-.461,15.562,15.562,0,0,0-7.076-1.487,12.628,12.628,0,0,0-6.061,1.648,6.305,6.305,0,0,0-3.419,5.453,6.883,6.883,0,0,0,2.834,5.6c2.587,2.038,6.458,2.916,9.855,2.916a16.467,16.467,0,0,0,3.545-.359c.476-.106.57-1.184.424-1.878-.132-.63-.426-.955-.805-.881-4.334.8-8.751-.014-11.253-2.066a4.354,4.354,0,0,1-1.812-3.334c0-2.8,3.466-4.527,6.678-4.527" transform="translate(-260.362 -263.147)" fill="#d61a1b"/><path d="M429.03,335.665l-8.2-.014-4.048-.007c-.146,0-.2-.057-.2-.207v-4.374c0-.078.121-.152.214-.152l3.315,0,6.306-.008c.486,0,.708-.673.708-1.3,0-.608-.216-1.261-.688-1.261l-7.3.011-2.3,0a.235.235,0,0,1-.257-.206V326.04c0-.154.213-.239.362-.239h11.32a.876.876,0,0,0,.77-.481,1.965,1.965,0,0,0,.239-.967c0-.535-.2-1.073-.651-1.073H415.037a1.144,1.144,0,0,0-1.18,1.185v12.718a1.038,1.038,0,0,0,1.1,1.069l6.7.01,7.481.011c.442,0,.644-.651.644-1.257a2.208,2.208,0,0,0-.173-.9.653.653,0,0,0-.581-.448" transform="translate(-251.234 -263.321)" fill="#d61a1b"/><path d="M501.079,339.429a1.494,1.494,0,0,0-1.616,1.375,1.62,1.62,0,0,0,3.231,0,1.493,1.493,0,0,0-1.615-1.375" transform="translate(-272.298 -267.294)" fill="#d61a1b"/><path d="M279.876,327.578l-.822-.044c-2.137-.112-3.982-.208-3.982-1.135,0-.952,2.747-1.379,5.469-1.379a21.487,21.487,0,0,1,6.363,1.066c.276.084.562-.2.751-.732.222-.631.234-1.388-.182-1.545a19.535,19.535,0,0,0-7.127-1.08c-2.958,0-7.962.771-7.962,3.663,0,2.68,2.584,3.274,7.351,3.433,4.244.142,6.22.985,6.22,2.654,0,1.971-2.15,3.147-5.753,3.147a15.369,15.369,0,0,1-6.5-1.666c-.417-.216-.912.025-1.256.616s-.422,1.346.025,1.622a15.568,15.568,0,0,0,7.821,1.928c5.263,0,8.282-2.107,8.282-5.78,0-3.93-4.3-4.509-8.7-4.767" transform="translate(-216.37 -263.184)" fill="#d61a1b"/><path d="M334.326,323.355c-.009-.1-.093-.189-.247-.259a3.748,3.748,0,0,0-2.381,0,.225.225,0,0,0-.112.216c.44,3.708.869,8.153.279,9.638-.644,1.625-2.567,2.636-5.02,2.636-2.5,0-4.449-1-5.085-2.6-.467-1.178-.383-4.438.252-9.688a.226.226,0,0,0-.109-.216,3.7,3.7,0,0,0-2.361-.014c-.164.069-.253.158-.264.261-.409,3.536-.823,7.849-.4,9.826.662,3.062,3.712,4.962,7.961,4.962s7.27-1.9,7.887-4.963c.356-1.762.01-5.385-.268-8.3-.051-.53-.1-1.036-.139-1.5" transform="translate(-227.821 -263.222)" fill="#d61a1b"/><path d="M371.236,330.694a32.916,32.916,0,0,1,2.021-3.849.794.794,0,0,1,1.474,0,32.921,32.921,0,0,1,2.021,3.849.269.269,0,0,1-.014.266.579.579,0,0,1-.489.182H371.74a.579.579,0,0,1-.489-.182.269.269,0,0,1-.014-.266m4.4-7.487c-.192-.279-1.3-.3-1.635-.3h-.023c-.335,0-1.444.022-1.635.3a100.822,100.822,0,0,0-7.506,14.366.206.206,0,0,0,.029.216,3.907,3.907,0,0,0,2.377.345c.365-.048.568-.136.624-.271.339-.826,1.143-2.672,1.56-3.4a1.266,1.266,0,0,1,1.019-.608h7.088a1.267,1.267,0,0,1,1.019.608c.417.731,1.221,2.576,1.56,3.4.055.135.259.223.623.271a4.834,4.834,0,0,0,.6.034,3.019,3.019,0,0,0,1.776-.379.206.206,0,0,0,.029-.216,100.819,100.819,0,0,0-7.506-14.366" transform="translate(-239.169 -263.228)" fill="#d61a1b"/><path d="M397.424,325.206a14.963,14.963,0,0,1,6.269,1.351.386.386,0,0,0,.4-.078,2.784,2.784,0,0,0,.911-1.947.42.42,0,0,0-.235-.377,15.846,15.846,0,0,0-7.193-1.515c-3.8,0-9.411,2.262-9.411,7.117a6.764,6.764,0,0,0,2.518,5.287c2.349,2.027,6.311,3.21,10.406,3.21a20.9,20.9,0,0,0,2.726-.177,1.314,1.314,0,0,0,1.178-1.31v-7.876a.662.662,0,0,0-.716-.7h-4.61a.483.483,0,0,0-.438.245,1.074,1.074,0,0,0-.118.544c0,.731.41,1.77.791,1.77.017,0,1.579.03,2,.03a.367.367,0,0,1,.372.409v3.354c0,.427-.206.718-.538.756-3.459.4-7.046-.538-9.141-2.378a4.266,4.266,0,0,1-1.648-3.163c0-1.862,2.307-4.557,6.479-4.557" transform="translate(-244.912 -263.163)" fill="#d61a1b"/><path d="M300.6,330.694a32.921,32.921,0,0,1,2.021-3.849.794.794,0,0,1,1.474,0,32.8,32.8,0,0,1,2.02,3.849.267.267,0,0,1-.014.266.579.579,0,0,1-.489.182H301.1a.579.579,0,0,1-.489-.182.269.269,0,0,1-.014-.266M305,323.207c-.193-.279-1.3-.3-1.636-.3h-.023c-.335,0-1.443.022-1.636.3a100.926,100.926,0,0,0-7.505,14.366.2.2,0,0,0,.029.216,3.015,3.015,0,0,0,1.775.379,4.855,4.855,0,0,0,.6-.034c.363-.048.567-.136.622-.271.339-.826,1.143-2.672,1.56-3.4a1.266,1.266,0,0,1,1.019-.608H306.9a1.267,1.267,0,0,1,1.019.608c.417.731,1.221,2.576,1.56,3.4.055.135.259.223.623.271a3.912,3.912,0,0,0,2.378-.345.206.206,0,0,0,.029-.216,100.821,100.821,0,0,0-7.5-14.366" transform="translate(-221.787 -263.228)" fill="#d61a1b"/><path d="M350.252,327.578l-.822-.044c-2.137-.112-3.982-.208-3.982-1.135,0-.952,2.747-1.379,5.47-1.379a21.487,21.487,0,0,1,6.363,1.066c.275.084.562-.195.75-.731.223-.633.235-1.39-.181-1.546a19.537,19.537,0,0,0-7.128-1.08c-2.958,0-7.962.771-7.962,3.663,0,2.68,2.583,3.274,7.35,3.433,4.244.142,6.221.985,6.221,2.654,0,1.971-2.15,3.147-5.753,3.147a15.382,15.382,0,0,1-6.5-1.666c-.416-.216-.912.025-1.256.616s-.421,1.346.026,1.622a15.568,15.568,0,0,0,7.821,1.928c5.263,0,8.281-2.107,8.281-5.78,0-3.93-4.3-4.509-8.7-4.767" transform="translate(-233.686 -263.184)" fill="#d61a1b"/></g></svg>