<svg xmlns="http://www.w3.org/2000/svg" xmlns:xlink="http://www.w3.org/1999/xlink" width="710" height="300" viewBox="0 0 710 300"><defs><clipPath id="a"><path d="M1257.062,241.336a125.557,125.557,0,1,0,125.557-125.557,125.7,125.7,0,0,0-125.557,125.557" transform="translate(-1257.062 -115.779)" fill="none"/></clipPath></defs><g transform="translate(-322 -3491)"><g transform="translate(-518.764 3381.52)"><path d="M1391.691,388.184c-75.971,0-137.778-61.806-137.778-137.773s61.806-137.781,137.778-137.781,137.777,61.806,137.777,137.781-61.806,137.773-137.777,137.773" transform="translate(9.072 9.072)" fill="#f5e8d4"/><path d="M1400.762,109.48a150,150,0,1,0,150,150,150,150,0,0,0-150-150m0,24.445a125.555,125.555,0,1,1-125.557,125.557,125.7,125.7,0,0,1,125.557-125.557" transform="translate(0 0)" fill="#e24b32"/><g transform="translate(1275.205 133.925)"><g clip-path="url(#a)"><path d="M1490.182,189.918c-2.755-1.133-6.345,1.486-7.87,2.6a15.127,15.127,0,0,1-5.038,2.162,43.919,43.919,0,0,1-12.383.179c-4.432-.47-10.684-3-14.7-5.022-3.768-1.9-11.685-6.023-17.444-9.411a6.724,6.724,0,0,0-5.619.047,7.149,7.149,0,0,0-4.412,4.253c-.695,2.344,1.269,5.453,4.141,9.613a31.033,31.033,0,0,1,2.371,3.764,1.973,1.973,0,0,1-.008,1.754,5.737,5.737,0,0,1-3.865,2.476c-14.9,3.663-28.606,2.216-33.255-1.3a53.206,53.206,0,0,0-16.312-7.191c-3.338-.71-7.334-1.168-11.324-1.626a67.411,67.411,0,0,1-10.129-1.58c-.974-.314-4.172-2.15-12.807-12.438a10.655,10.655,0,0,1-1.708-11.743c2.985-6.163,28.031-16.548,33.084-17.642,3.081-.668,9.5.272,13.536,3.811l.319.283c3.524,3.1,6.365,5.515,8.165,5.922,2.165.485,7.739,1.455,10.448,1.816a3.154,3.154,0,0,0,2.324-.617,2.906,2.906,0,0,0,1.118-1.979c.571-4.956,4.18-12.877,6.361-17.65.8-1.754,1.42-3.136,1.731-3.966a3.881,3.881,0,0,0-1.25-4.793c-1.917-1.257-4.486-.512-6.1.5-2.433,1.533-13.85,7.571-19.241,7.7h-.3c-4.024,0-9.5-1.7-15.286-3.489-5.744-1.781-11.689-3.625-16.521-3.819-10.125-.407-18.737.062-53.11,10.086-14.514,4.23-24.666,1.688-33.821-1.281l-.466-.151c-1.8-.582-3.237-1.044-4.281-1.335-5.138-1.4-9.989.1-12.64,3.939-2.395,3.466-1.514,8.348-.734,12.659l.151.858a468.513,468.513,0,0,1,6.555,75.963c0,24.026-2.577,52.139-5.1,76.472-.6,5.848.776,10.579,4.094,14.072,5.073,5.324,14.592,6.776,23.118,7.711.843.089,1.9.19,3.09.3,4.579.423,11.5,1.067,14.708,2.3,4.261,1.653,7.839,3.854,8.417,14.142.167,3-.361,9.019-.919,15.419-.648,7.432-1.32,15.116-1.1,19.928.438,9.636,4.657,21.341,8.4,27.457,2.36,3.846,3.676,9.182,4.634,13.082.334,1.362.625,2.538.912,3.489a4.467,4.467,0,0,0,5.123,3.194,4.256,4.256,0,0,0,3.71-4.393c-.147-3.33.345-5.426,1.494-5.62,1.5,0,3.171,4.451,4.669,8.437.338.9.691,1.836,1.055,2.775.761,1.964,2.581,4.323,4.44,4.828a42.434,42.434,0,0,0,9.846,1.028,29.066,29.066,0,0,0,7.017-.695,7.141,7.141,0,0,0,4.153-3.458,6.2,6.2,0,0,0,.71-4.719c-.551-1.793-2.293-3.9-4.137-6.139-.843-1.017-1.707-2.065-2.41-3.043-7.92-10.987-10-15.717-10.92-18.609a48.408,48.408,0,0,1-1.46-8.177c-.136-1.5-.2-3.419-.272-5.557-.175-4.987-.4-11.192-1.719-15.1a16.792,16.792,0,0,1,1.048-12.655c6.489-10.979,10.621-28.819,12.19-40.753,1.3-9.888,4.521-11.658,8.607-13.905a24.85,24.85,0,0,0,6.2-4.366c5.93-5.926,2.906-12.512-.295-19.49-2.042-4.436-4.351-9.469-4.487-14.805a4.551,4.551,0,0,1,.066-.994c.093-.035.357.039.776.322,2.414,1.642,12.582,7.738,18.57,9.9,11.844,4.273,25.349,3.644,29.688,2.7,10.315-2.228,21.884-6.3,29.53-19.571,2.355-4.09,5.285-6.435,8.953-7.172,14.219-2.841,19.2-5.658,23.424-9.865,2.143-2.135,3.085-6.108,2.468-8.107-.4-1.257-1.618-1.933-3.272-1.944-1.191.035-3.652.124-6.14.217-2.914.1-6.562.272-7.009.229-5.635,0-9.869-.862-11.331-2.325a1.514,1.514,0,0,1-.509-1.036c.466-.726,4.28-.959,6.558-1.1l.753-.043c4.273-.276,7.65-.547,11.243-1.075a84.122,84.122,0,0,0,9.508-2.01c5.146-1.49,8.441-2.7,9.784-3.6a7.755,7.755,0,0,0,3.415-6.291v0c-.035-.846-.26-11.348.377-15.624l.073-.458c.532-3.566,1.145-7.606-1.42-8.662" transform="translate(-1270.69 -71.991)" fill="#fff"/><path d="M1336.691,147.421c-1.467-.225-3.089-.427-4.606-.613-2.154-.268-4.377-.547-5.236-.788a15.094,15.094,0,0,1-5.246-3.516c-.877-.823-2.748-2.414-3.8-3.291-2.907-2.441-7.82-3.19-10.874-2.5-3.7.78-10.137,3.663-13.649,5.313-7.506,3.532-13.8,7.129-16.032,9.17-2.95,2.682-1.269,7.172.481,9.364,1.626,2.053,9.644,8.041,14.158,7.5,11.693-1.191,28-.6,42.2,1.517a12.585,12.585,0,0,0,1.824.136,11.889,11.889,0,0,0,5.375-1.281,72.739,72.739,0,0,0,7.762-4.459,76.154,76.154,0,0,1,7.54-4.839c4.005-2.072,4.894-4.781,4.443-6.473-.6-2.247-2.825-2.55-4.7-2.557-2.158-.008-13.917-1.8-18.341-2.48Z" transform="translate(-1203.544 -56.182)" fill="#fff"/><path d="M1427.8,178.125a77.815,77.815,0,0,0-7.7,4.94,70.523,70.523,0,0,1-7.587,4.35,10.473,10.473,0,0,1-6.322,1.009,200.426,200.426,0,0,0-28.878-2.162,136.038,136.038,0,0,0-13.691.636c-3.772.357-11.247-4.921-12.865-6.951-1.46-1.843-2.767-5.445-.641-7.381s8.507-5.557,15.674-8.926c5.263-2.472,10.467-4.6,13.323-5.2a12.611,12.611,0,0,1,9.64,2.189c1.028.862,2.872,2.433,3.733,3.241a16.312,16.312,0,0,0,5.849,3.85c1.571.45,6.291.873,10.024,1.44s17.351,2.682,19.855,2.7,3.069.644,3.294,1.475c.338,1.273-.753,3.268-3.706,4.793M1286.953,387.337c.854-4.463,5.053-6.691,9.342-6.566a8.935,8.935,0,0,1,8.767,8.138,73.878,73.878,0,0,0,1.68,11.332,79.011,79.011,0,0,0,4.552,12.353c1.425,3.047,4.417,7.715,5.061,9.659.33,1.009.749,2.961-.047,4.2a5.907,5.907,0,0,1-2.918,1.828c-2.667.858-6.47.493-8.259-.64-1.273-.815-4.032-7.374-5.445-11.2a15.592,15.592,0,0,0-6.438-8.033c-2.651-1.719-4.925-3.427-6.1-6.147-1.464-3.376-1.153-9.873-.195-14.926M1494.43,219.215a6.3,6.3,0,0,1-2.763,5.01c-1.191.8-4.525,2.006-9.379,3.415a82.688,82.688,0,0,1-9.307,1.964c-3.4.493-6.636.776-11.126,1.06s-8.677.415-8.677,2.6a2.909,2.909,0,0,0,.939,2.084c1.778,1.77,6.167,2.744,12.353,2.744.563.027,10.4-.369,13.191-.442.811-.023,1.611.2,1.832.916.423,1.354-.268,4.8-2.1,6.632-4.016,4.005-8.821,6.7-22.671,9.469-4.11.823-7.362,3.4-9.943,7.878-7.35,12.772-18.562,16.707-28.562,18.869-4.215.912-17.355,1.51-28.889-2.647-5.728-2.069-15.834-8.1-18.244-9.737a2.329,2.329,0,0,0-2.212-.45c-.738.33-.947,1.2-.916,2.367.144,5.631,2.523,10.808,4.622,15.38,3.113,6.78,5.806,12.636.594,17.844a23.86,23.86,0,0,1-5.883,4.125c-4.265,2.344-7.944,4.366-9.341,14.984-1.552,11.805-5.627,29.413-12,40.2a18.122,18.122,0,0,0-1.172,13.87c1.254,3.7,1.467,9.784,1.638,14.681.078,2.1.144,4.087.284,5.635a50.3,50.3,0,0,0,1.514,8.491c.962,3,3.093,7.87,11.137,19.02.719,1,1.6,2.076,2.461,3.116,1.677,2.03,3.4,4.121,3.869,5.639a4.819,4.819,0,0,1-.594,3.582,5.608,5.608,0,0,1-3.252,2.751c-3.9,1.059-12.252.7-16.1-.33-1.168-.314-2.748-2.127-3.461-3.951-.369-.951-.726-1.9-1.068-2.814-1.948-5.177-3.509-9.326-6.015-9.326a2.135,2.135,0,0,0-.438.043c-1.89.345-2.713,2.666-2.518,7.1a2.8,2.8,0,0,1-2.488,2.887,2.977,2.977,0,0,1-3.481-2.169c-.284-.939-.571-2.088-.893-3.419-.981-3.99-2.328-9.454-4.809-13.5-3.644-5.957-7.757-17.359-8.184-26.758-.214-4.723.45-12.368,1.1-19.757.559-6.427,1.091-12.5.92-15.6-.625-11.049-4.762-13.641-9.353-15.419-4.23-1.642-13.944-2.232-18.162-2.693-8.254-.912-17.464-2.274-22.218-7.269-3.733-3.92-4.106-8.969-3.7-12.915,2.562-24.736,5.1-52.861,5.1-76.619a466.338,466.338,0,0,0-6.57-76.22c-.765-4.3-1.855-9.252.341-12.43,2.445-3.543,6.749-4.537,11.045-3.357,1.117.307,2.693.819,4.688,1.463,10.3,3.338,20.433,5.445,34.678,1.3,34.128-9.954,42.647-10.436,52.64-10.028,4.634.186,10.49,2,16.148,3.757,5.895,1.824,11.475,3.555,15.72,3.555.109,0,.222,0,.331,0,5.766-.132,17.386-6.283,19.986-7.921,1.363-.858,3.256-1.351,4.521-.52a2.449,2.449,0,0,1,.683,3.062c-.307.819-.927,2.181-1.711,3.908-2.263,4.964-5.864,12.865-6.466,18.046a1.539,1.539,0,0,1-1.789,1.316c-2.577-.341-8.115-1.3-10.327-1.793-1.645-.373-5.271-3.613-7.836-5.876-4.471-3.924-11.452-4.878-14.817-4.141-4.463.966-30.654,11.348-34.085,18.434a12.08,12.08,0,0,0,1.9,13.323c4.49,5.344,10.47,11.922,13.486,12.888a66.78,66.78,0,0,0,10.408,1.642c3.874.442,7.878.9,11.188,1.6,6.772,1.44,14.39,5.91,15.729,6.927,4.847,3.667,18.585,5.46,34.481,1.548,2.355-.578,4.117-1.766,4.839-3.256a3.421,3.421,0,0,0,.02-3,31.831,31.831,0,0,0-2.519-4.013c-1.987-2.887-4.467-6.489-3.915-8.34a5.7,5.7,0,0,1,3.543-3.306,5.382,5.382,0,0,1,4.335-.151c5.771,3.392,13.734,7.544,17.537,9.461,4.122,2.08,10.572,4.684,15.2,5.169a45.609,45.609,0,0,0,12.818-.194,16.873,16.873,0,0,0,5.616-2.414c1.331-.978,4.47-3.252,6.453-2.437,1.592.656.866,4.839.459,7.556-.656,4.428-.435,14.972-.392,15.9m7.9-16.676c1.167-7.711.745-12.073-1.323-13.73-3.275-2.623-7.889-2.4-12.322.6-4.462,3.015-8.8,4.25-14.976,4.261h-.023a36.362,36.362,0,0,1-14.522-3.586,183.035,183.035,0,0,1-16.447-9.116c-2.875-1.766-3.683-2.8-3.823-3.834-.178-1.327,1.491-3.237,1.017-6.221-.461-2.926-2.53-4.412-6.1-4.428a60.01,60.01,0,0,1-11.918-1.017,2.621,2.621,0,0,1-2.018-2.984c1.11-5.744,5.647-16.416,6.586-18.515,2.208-4.921,1.925-10.575-1.673-13.059-2.619-1.8-7.808-2.247-13.078.276-6.97,3.341-15.357,6.822-18.461,6.822-.1,0-.186,0-.276-.012a85.431,85.431,0,0,1-9.625-2.433c-7.273-2.049-16.323-4.6-20.964-4.739-11.309-.322-19.839.536-53.979,10.292-11.933,3.4-16.629,3.12-27.434-.175-5.794-1.766-10.8-3.295-13.885-3.388-6.807-.206-10.738,1.56-14.076,6.372-2.236,3.237-2.91,9.524-1.8,15.585,5.259,28.656,6.834,59.008,6.834,78.362,0,25.951-2.5,53.715-5.526,76.639-1,7.645.326,13.109,4.537,18.2,2.8,3.38,9.924,7.23,13.622,9.434,4.641,2.767,7.3,8.9,8.03,12.3,2.48,11.6.365,29.25-.349,36.251-.7,6.807-.322,12.6,2.41,16.75,3.947,5.965,10.571,7.669,12.341,12.88,1.483,4.358,3.365,10.948,5.426,13.579,4.378,5.592,12.077,4.746,14.709,4.385a20.763,20.763,0,0,0,5.829-2.239,1.64,1.64,0,0,1,2.325.869c1.448,4.672,4.47,6.089,6.869,6.318a7.511,7.511,0,0,0,5.491-1.669,3.239,3.239,0,0,1,2.732-1.106c1.16.159,1.979,2.134,2.829,3.78a10.1,10.1,0,0,0,1.7,2.674c3.05,2.72,8.851,3.085,14.122,3.085a46.231,46.231,0,0,0,9.8-1.133,13.388,13.388,0,0,0,8.111-6.6,15.281,15.281,0,0,0-.089-10.241c-.908-2.34-2.721-4.754-7.11-10.587l-.07-.1a110.158,110.158,0,0,1-8.872-14.448c-1.409-2.689-2.053-7.669-2.049-10.187a131.931,131.931,0,0,0-2.092-20.2c-.509-2.961-.916-6.687.543-9.291,5.453-9.753,9.566-27.9,10.8-40.776.555-5.8,7.009-9.667,12.209-12.209a77.916,77.916,0,0,0,12.24-7.521,38.829,38.829,0,0,0,7.878-8.837c1.781-2.526,3.869-4.087,6.706-4.257,4.467-.268,13.312-.656,20.677-2.992,12.314-3.916,24.453-12.046,31.023-23.2.939-1.591,2.352-4,4.7-4.444a62.917,62.917,0,0,0,16.249-5.045c5.445-2.682,9.908-6.582,12.24-10.7a17.719,17.719,0,0,0,1.882-10.533,3.7,3.7,0,0,1,2.453-4.238,22.051,22.051,0,0,0,8.627-4.851c1.393-1.335,1.945-4.863,1.374-8.782a53.74,53.74,0,0,1-.035-16.292" transform="translate(-1275.43 -76.478)" fill="#e24b32"/><path d="M1427.8,178.125a77.815,77.815,0,0,0-7.7,4.94,70.523,70.523,0,0,1-7.587,4.35,10.473,10.473,0,0,1-6.322,1.009,200.426,200.426,0,0,0-28.878-2.162,136.038,136.038,0,0,0-13.691.636c-3.772.357-11.247-4.921-12.865-6.951-1.46-1.843-2.767-5.445-.641-7.381s8.507-5.557,15.674-8.926c5.263-2.472,10.467-4.6,13.323-5.2a12.611,12.611,0,0,1,9.64,2.189c1.028.862,2.872,2.433,3.733,3.241a16.312,16.312,0,0,0,5.849,3.85c1.571.45,6.291.873,10.024,1.44s17.351,2.682,19.855,2.7,3.069.644,3.294,1.475C1431.848,174.6,1430.757,176.6,1427.8,178.125ZM1286.953,387.337c.854-4.463,5.053-6.691,9.342-6.566a8.935,8.935,0,0,1,8.767,8.138,73.878,73.878,0,0,0,1.68,11.332,79.011,79.011,0,0,0,4.552,12.353c1.425,3.047,4.417,7.715,5.061,9.659.33,1.009.749,2.961-.047,4.2a5.907,5.907,0,0,1-2.918,1.828c-2.667.858-6.47.493-8.259-.64-1.273-.815-4.032-7.374-5.445-11.2a15.592,15.592,0,0,0-6.438-8.033c-2.651-1.719-4.925-3.427-6.1-6.147C1285.684,398.886,1285.995,392.389,1286.953,387.337ZM1494.43,219.215a6.3,6.3,0,0,1-2.763,5.01c-1.191.8-4.525,2.006-9.379,3.415a82.688,82.688,0,0,1-9.307,1.964c-3.4.493-6.636.776-11.126,1.06s-8.677.415-8.677,2.6a2.909,2.909,0,0,0,.939,2.084c1.778,1.77,6.167,2.744,12.353,2.744.563.027,10.4-.369,13.191-.442.811-.023,1.611.2,1.832.916.423,1.354-.268,4.8-2.1,6.632-4.016,4.005-8.821,6.7-22.671,9.469-4.11.823-7.362,3.4-9.943,7.878-7.35,12.772-18.562,16.707-28.562,18.869-4.215.912-17.355,1.51-28.889-2.647-5.728-2.069-15.834-8.1-18.244-9.737a2.329,2.329,0,0,0-2.212-.45c-.738.33-.947,1.2-.916,2.367.144,5.631,2.523,10.808,4.622,15.38,3.113,6.78,5.806,12.636.594,17.844a23.86,23.86,0,0,1-5.883,4.125c-4.265,2.344-7.944,4.366-9.341,14.984-1.552,11.805-5.627,29.413-12,40.2a18.122,18.122,0,0,0-1.172,13.87c1.254,3.7,1.467,9.784,1.638,14.681.078,2.1.144,4.087.284,5.635a50.3,50.3,0,0,0,1.514,8.491c.962,3,3.093,7.87,11.137,19.02.719,1,1.6,2.076,2.461,3.116,1.677,2.03,3.4,4.121,3.869,5.639a4.819,4.819,0,0,1-.594,3.582,5.608,5.608,0,0,1-3.252,2.751c-3.9,1.059-12.252.7-16.1-.33-1.168-.314-2.748-2.127-3.461-3.951-.369-.951-.726-1.9-1.068-2.814-1.948-5.177-3.509-9.326-6.015-9.326a2.135,2.135,0,0,0-.438.043c-1.89.345-2.713,2.666-2.518,7.1a2.8,2.8,0,0,1-2.488,2.887,2.977,2.977,0,0,1-3.481-2.169c-.284-.939-.571-2.088-.893-3.419-.981-3.99-2.328-9.454-4.809-13.5-3.644-5.957-7.757-17.359-8.184-26.758-.214-4.723.45-12.368,1.1-19.757.559-6.427,1.091-12.5.92-15.6-.625-11.049-4.762-13.641-9.353-15.419-4.23-1.642-13.944-2.232-18.162-2.693-8.254-.912-17.464-2.274-22.218-7.269-3.733-3.92-4.106-8.969-3.7-12.915,2.562-24.736,5.1-52.861,5.1-76.619a466.338,466.338,0,0,0-6.57-76.22c-.765-4.3-1.855-9.252.341-12.43,2.445-3.543,6.749-4.537,11.045-3.357,1.117.307,2.693.819,4.688,1.463,10.3,3.338,20.433,5.445,34.678,1.3,34.128-9.954,42.647-10.436,52.64-10.028,4.634.186,10.49,2,16.148,3.757,5.895,1.824,11.475,3.555,15.72,3.555.109,0,.222,0,.331,0,5.766-.132,17.386-6.283,19.986-7.921,1.363-.858,3.256-1.351,4.521-.52a2.449,2.449,0,0,1,.683,3.062c-.307.819-.927,2.181-1.711,3.908-2.263,4.964-5.864,12.865-6.466,18.046a1.539,1.539,0,0,1-1.789,1.316c-2.577-.341-8.115-1.3-10.327-1.793-1.645-.373-5.271-3.613-7.836-5.876-4.471-3.924-11.452-4.878-14.817-4.141-4.463.966-30.654,11.348-34.085,18.434a12.08,12.08,0,0,0,1.9,13.323c4.49,5.344,10.47,11.922,13.486,12.888a66.78,66.78,0,0,0,10.408,1.642c3.874.442,7.878.9,11.188,1.6,6.772,1.44,14.39,5.91,15.729,6.927,4.847,3.667,18.585,5.46,34.481,1.548,2.355-.578,4.117-1.766,4.839-3.256a3.421,3.421,0,0,0,.02-3,31.831,31.831,0,0,0-2.519-4.013c-1.987-2.887-4.467-6.489-3.915-8.34a5.7,5.7,0,0,1,3.543-3.306,5.382,5.382,0,0,1,4.335-.151c5.771,3.392,13.734,7.544,17.537,9.461,4.122,2.08,10.572,4.684,15.2,5.169a45.609,45.609,0,0,0,12.818-.194,16.873,16.873,0,0,0,5.616-2.414c1.331-.978,4.47-3.252,6.453-2.437,1.592.656.866,4.839.459,7.556C1494.167,207.739,1494.387,218.284,1494.43,219.215Zm7.9-16.676c1.167-7.711.745-12.073-1.323-13.73-3.275-2.623-7.889-2.4-12.322.6-4.462,3.015-8.8,4.25-14.976,4.261h-.023a36.362,36.362,0,0,1-14.522-3.586,183.035,183.035,0,0,1-16.447-9.116c-2.875-1.766-3.683-2.8-3.823-3.834-.178-1.327,1.491-3.237,1.017-6.221-.461-2.926-2.53-4.412-6.1-4.428a60.01,60.01,0,0,1-11.918-1.017,2.621,2.621,0,0,1-2.018-2.984c1.11-5.744,5.647-16.416,6.586-18.515,2.208-4.921,1.925-10.575-1.673-13.059-2.619-1.8-7.808-2.247-13.078.276-6.97,3.341-15.357,6.822-18.461,6.822-.1,0-.186,0-.276-.012a85.431,85.431,0,0,1-9.625-2.433c-7.273-2.049-16.323-4.6-20.964-4.739-11.309-.322-19.839.536-53.979,10.292-11.933,3.4-16.629,3.12-27.434-.175-5.794-1.766-10.8-3.295-13.885-3.388-6.807-.206-10.738,1.56-14.076,6.372-2.236,3.237-2.91,9.524-1.8,15.585,5.259,28.656,6.834,59.008,6.834,78.362,0,25.951-2.5,53.715-5.526,76.639-1,7.645.326,13.109,4.537,18.2,2.8,3.38,9.924,7.23,13.622,9.434,4.641,2.767,7.3,8.9,8.03,12.3,2.48,11.6.365,29.25-.349,36.251-.7,6.807-.322,12.6,2.41,16.75,3.947,5.965,10.571,7.669,12.341,12.88,1.483,4.358,3.365,10.948,5.426,13.579,4.378,5.592,12.077,4.746,14.709,4.385a20.763,20.763,0,0,0,5.829-2.239,1.64,1.64,0,0,1,2.325.869c1.448,4.672,4.47,6.089,6.869,6.318a7.511,7.511,0,0,0,5.491-1.669,3.239,3.239,0,0,1,2.732-1.106c1.16.159,1.979,2.134,2.829,3.78a10.1,10.1,0,0,0,1.7,2.674c3.05,2.72,8.851,3.085,14.122,3.085a46.231,46.231,0,0,0,9.8-1.133,13.388,13.388,0,0,0,8.111-6.6,15.281,15.281,0,0,0-.089-10.241c-.908-2.34-2.721-4.754-7.11-10.587l-.07-.1a110.158,110.158,0,0,1-8.872-14.448c-1.409-2.689-2.053-7.669-2.049-10.187a131.931,131.931,0,0,0-2.092-20.2c-.509-2.961-.916-6.687.543-9.291,5.453-9.753,9.566-27.9,10.8-40.776.555-5.8,7.009-9.667,12.209-12.209a77.916,77.916,0,0,0,12.24-7.521,38.829,38.829,0,0,0,7.878-8.837c1.781-2.526,3.869-4.087,6.706-4.257,4.467-.268,13.312-.656,20.677-2.992,12.314-3.916,24.453-12.046,31.023-23.2.939-1.591,2.352-4,4.7-4.444a62.917,62.917,0,0,0,16.249-5.045c5.445-2.682,9.908-6.582,12.24-10.7a17.719,17.719,0,0,0,1.882-10.533,3.7,3.7,0,0,1,2.453-4.238,22.051,22.051,0,0,0,8.627-4.851c1.393-1.335,1.945-4.863,1.374-8.782A53.74,53.74,0,0,1,1502.332,202.539Z" transform="translate(-1275.43 -76.478)" fill="none" stroke="#e24b32" stroke-linejoin="round" stroke-width="0.607"/></g></g></g><g transform="translate(-239.106 3304)"><path d="M685.99,472.995c-77.809,0-141.11-63.3-141.11-141.11s63.3-141.112,141.11-141.112,141.11,63.3,141.11,141.112-63.3,141.11-141.11,141.11" transform="translate(25.116 5.116)" fill="#f5e2ca"/><path d="M691.106,187a150,150,0,1,0,150,150,150,150,0,0,0-150-150m0,17.778c72.907,0,132.222,59.313,132.222,132.222S764.013,469.222,691.106,469.222,558.884,409.907,558.884,337,618.2,204.778,691.106,204.778" transform="translate(20 0)" fill="#da3324"/><path d="M633.3,256.845c1.154-4.141,5.694-18.4,9.328-25.264,1.154-2.174,2.226-3.058,3.708-3.058s2.556.883,3.705,3.058c3.635,6.867,8.174,21.123,9.328,25.264a2.638,2.638,0,0,1-.313,2.356,2.593,2.593,0,0,1-2.174.916H635.785a2.6,2.6,0,0,1-2.174-.916,2.638,2.638,0,0,1-.313-2.356m-1.392,17.1h28.748a4.8,4.8,0,0,1,4.454,3.147c1.493,3.894,3.913,13.477,5.154,19.041.125.563.74,1.015,1.826,1.338a17.877,17.877,0,0,0,4.806.554c3.239,0,6.688-.577,7.844-1.7a1.2,1.2,0,0,0,.4-1.2c-9.387-35.415-19.184-62.919-29.116-81.752-.57-1.084-6.021-1.661-9.736-1.661s-9.17.577-9.738,1.661c-9.939,18.836-19.731,46.342-29.116,81.752a1.2,1.2,0,0,0,.393,1.2c1.807,1.746,9.194,2.184,12.65,1.145,1.086-.323,1.7-.775,1.828-1.338,1.239-5.571,3.661-15.156,5.152-19.041a4.8,4.8,0,0,1,4.455-3.147" transform="translate(89.859 33.499)" fill="#da3324"/><path d="M643.095,295.821c2.586-28.614,3.291-55.138-1.015-82.217-.424-2.664-15.22-2.707-14.727.252a235.713,235.713,0,0,1,2.5,29.146c.009,1.915-.9,3.915-3.018,3.915H591.864c-2.122,0-3.022-2-3.015-3.915a234.84,234.84,0,0,1,2.495-29.146c.49-2.959-14.3-2.916-14.725-.252-4.311,27.078-3.6,53.6-1.015,82.217.266,2.923,15.029,2.575,14.725.254-.982-7.545-1.555-22.039-1.576-31.026a3.91,3.91,0,0,1,3.92-3.91h33.351a3.907,3.907,0,0,1,3.92,3.91c-.023,8.987-.594,23.481-1.573,31.026-.309,2.32,14.459,2.669,14.725-.254" transform="translate(43.946 33.377)" fill="#da3324"/><path d="M643.7,255.429c-.049-.488-.455-.9-1.2-1.227-2.909-1.272-11.14-1.183-13.411.518a1.174,1.174,0,0,0-.575,1.107c2.945,23,5.585,47.671,2.808,56.316-3.074,9.557-10.932,14.009-21.22,14.009-10.266,0-18.119-4.452-21.194-14.009-2.775-8.645-.139-33.32,2.808-56.316a1.174,1.174,0,0,0-.575-1.107c-2.271-1.7-10.5-1.79-13.411-.518-.747.33-1.152.74-1.2,1.227-.217,2.1-.459,4.367-.714,6.732-1.828,17.069-4.334,40.444-2.572,51.212,2.914,17.825,16.737,27.248,36.861,27.248,20.141,0,33.971-9.423,36.887-27.248,1.762-10.763-.742-34.131-2.572-51.193-.254-2.374-.495-4.641-.716-6.751" transform="translate(42.752 89.926)" fill="#da3324"/><path d="M643.213,341.767c12.678,0,23.191-2.989,30.4-8.643a25.764,25.764,0,0,0,10.207-20.6c0-18.749-12.6-29.151-40.866-33.735-1.626-.262-3.154-.495-4.591-.716-8.424-1.289-13.51-2.066-14.32-5.173a2,2,0,0,1,.509-1.7c1.748-2.266,7.613-4.909,18.4-4.909,7.851,0,14.923.862,25.891,5.145.832.325,1.675-.45,2.381-2.184,1.324-3.262,2.045-9.981-.754-11.185-7.88-4.278-18.473-5.175-25.978-5.175-22.386,0-35.226,7.328-35.226,20.1,0,11.239,7.7,16.047,31.709,19.778,19.269,3,28.736,9.6,28.136,19.632-.53,8.959-10.073,14.311-25.519,14.311-10.327,0-20.223-4.638-25.45-9.237-1.724-1.515-3.731-1.465-5.658.13-3.437,2.848-4.872,8.567-3.479,10.926,3.025,5.121,14.987,13.239,34.211,13.239" transform="translate(91.328 89.318)" fill="#da3324"/></g></g></svg>