<svg xmlns="http://www.w3.org/2000/svg" width="301.203" height="83.195" viewBox="0 0 301.203 83.195"><g transform="translate(-157.021 -156.96)"><path d="M202.253,160.056c-8.69-1.555-16.7-.49-21.255,1.275-.917.355-1.356.76-1.137,1.649a12.6,12.6,0,0,1,.327,3.75,7.442,7.442,0,0,1-2.57,5.089c-1.018.911-2.724,1.323-3.646.653a2.5,2.5,0,0,1-.582-3.029,7.533,7.533,0,0,0,.749-2.63c-.07-.939-1.079-1.175-2.09-.47-.879.61-2.22,1.787-3.024,1.821-.7.031-1.3-.818-1.332-1.808-.072-1.965,1.307-3.492,3.786-3.557a4.244,4.244,0,0,1,4.088,2.42,5.432,5.432,0,0,1-.393,4.734.666.666,0,0,0,.1.874.868.868,0,0,0,1.108-.134,5.826,5.826,0,0,0,2.113-4.773c-.086-4.251-3.473-6.97-8.135-6.97a7.811,7.811,0,0,0-7.97,6.219,8.112,8.112,0,0,0,.616,5.2,4.022,4.022,0,0,1-.508,3.8,23.689,23.689,0,0,0-5.471,15.378c0,6.644,3.064,12.5,9.185,17.489,1.495,1.217,4.487,2.866,5.194,4.121a5.293,5.293,0,0,1,.29,4.339,9.521,9.521,0,0,0-.331,5.545,8.761,8.761,0,0,1-.189,4.118,17.075,17.075,0,0,1-1.164,2.9c-.436.825-1.257,1.763-1.9,2.831a5.014,5.014,0,0,0-.582,3.94c.236.994,1.138,2.081,1.822,2.128.371.025.477-.7.5-1.734.017-.64.246-1.6.841-1.588.71.014.8,2.024.968,3.037.406,2.472,2,3.731,3.091,3.834.8.076,3.735.124,5.11.068a1,1,0,0,0,.989-.881,1.685,1.685,0,0,0-.494-1.366A11.464,11.464,0,0,0,179,237.088a5.189,5.189,0,0,1-1.307-1.547,4.759,4.759,0,0,1-.428-3.576,22.928,22.928,0,0,1,4.058-8.849c1.508-1.846,3.476-1.919,5.427-3.073a11.825,11.825,0,0,0,4.085-4.846,5.922,5.922,0,0,1,3-2.91,11.078,11.078,0,0,1,4.248-.393,26.175,26.175,0,0,0,4.405-.417c1.349-.243,2.336-1.685,1.853-4.374a132.336,132.336,0,0,1-1.6-21.472,106.161,106.161,0,0,1,2.205-21.18,3.948,3.948,0,0,0-.282-3.018,3.116,3.116,0,0,0-2.419-1.377" transform="translate(0 -0.762)" fill="#fff"/><path d="M212.118,267.21c-1.288-2.136-.947-3.71.238-5.164.855-1.049,3.6-2.659,3.381-3.767-.155-.788-2.972-.351-4.539.107a11.6,11.6,0,0,0-5.375,3.431,6.134,6.134,0,0,0-1.594,4.537c.08,1.675,1.367,3.3,2.911,5.355,0,0,3.1,3.76,4.306,4.968.563.561,1.73.716,3.24.716.645,0,1.869-.049,2.339-.094a1.521,1.521,0,0,0,1.367-.652,1.824,1.824,0,0,0-.132-1.6c-.9-1.461-4.908-5.79-6.143-7.838" transform="translate(-18.05 -38.58)" fill="#fff"/><path d="M602.536,172.374a2.816,2.816,0,0,0-2.471.885,4.233,4.233,0,0,1-1.932.813,11.409,11.409,0,0,1-2.916,0,10.841,10.841,0,0,1-3.53-1.388c-1.013-.511-2.3-1.241-3.868-2.1a1.454,1.454,0,0,0-1.468-.018,8.521,8.521,0,0,0-1.314.965.877.877,0,0,0-.266,1.133,11.3,11.3,0,0,0,.85,1.491,8.7,8.7,0,0,1,.67,1.07.909.909,0,0,1-.006.8A1.872,1.872,0,0,1,585,176.9c-4.239,1.042-7.9.564-9.2-.414a13.983,13.983,0,0,0-4.195-1.847c-.883-.188-1.95-.309-2.982-.427a17.905,17.905,0,0,1-2.777-.437c-.8-.258-2.4-2.011-3.6-3.437a3.1,3.1,0,0,1-.472-3.478c.915-1.89,7.979-4.836,9.169-5.093a4.993,4.993,0,0,1,3.812,1.207,12.784,12.784,0,0,0,1.95,1.5,12.458,12.458,0,0,0,1.866.5,15.27,15.27,0,0,0,1.867.267.562.562,0,0,0,.611-.475,16.252,16.252,0,0,1,1.421-4.6c.21-.46.375-.824.457-1.041.118-.317.534-1.406-.063-1.959s-2.067.105-2.715.508a13.745,13.745,0,0,1-4.91,1.788h-.088a13.857,13.857,0,0,1-3.747-.988,22.268,22.268,0,0,0-4.761-.992,23.892,23.892,0,0,0-7.565.9c-1.664.4-7.063,2.228-10.5,2.228-2.769,0-6.848-.92-8.725-1.147-1.181-.143-2.612-.25-3.595,1.113-.953,1.324-.274,3.454.114,4.553,2.452,6.947,4.958,14.945,4.958,24.083a49.369,49.369,0,0,1-2.326,16.236,4.085,4.085,0,0,0,.608,3.78c1.268,1.332,4.319,2.211,6.471,2.558a35.586,35.586,0,0,1,4.659.7c1.219.485,1.973,1.506,2.091,3.52.132,2.253-.617,5.151-.383,9.167a15.176,15.176,0,0,0,2.23,6.6,16.244,16.244,0,0,1,1.513,3.953c.086.354.434,1.5.508,1.75a1.044,1.044,0,0,0,1.276.736c.71-.122.854-.5.82-1.529-.038-1.182.086-2.244.728-2.244s.972.878,1.285,2.268a19.664,19.664,0,0,0,.589,2.082,1.708,1.708,0,0,0,1.005,1.049,11.916,11.916,0,0,0,4.34.175,3.313,3.313,0,0,0,1.942-1.522,3.383,3.383,0,0,0-.314-1.995,17.94,17.94,0,0,0-1.565-2.108c-.229-.278-.466-.566-.656-.831a13.6,13.6,0,0,1-2.226-4.69,18.857,18.857,0,0,1-.469-3.6,22.752,22.752,0,0,0-.659-4.491,2.155,2.155,0,0,1,.43-2.106,30.084,30.084,0,0,0,3.186-11.047c.179-1.81,1.751-2.485,2.7-3.365,1.472-1.362.912-3.887-.018-5.652a10.435,10.435,0,0,1-1.57-4.917c0-.311.021-.784.359-.9s.756.149,1.053.471a16.2,16.2,0,0,0,6.639,3.723,14.834,14.834,0,0,0,7.553.008,12.841,12.841,0,0,0,6.831-4.936,4.483,4.483,0,0,1,2.651-2.1c3.694-.739,5.067-1.5,6.139-2.564a2.618,2.618,0,0,0,.782-1.893.806.806,0,0,0-.809-.719c-.429-.049-2.706.136-4.124.081s-2.821-.259-3.295-.732a.776.776,0,0,1-.25-.556c0-.584.987-.649,2.583-.737a38.808,38.808,0,0,0,4.4-.39,11.546,11.546,0,0,0,3.8-1.274,1.814,1.814,0,0,0,1.081-1.448,29.3,29.3,0,0,1-.143-3.815c.172-1.34.652-3.242-.251-3.538" transform="translate(-144.845 0)" fill="#fff"/><path d="M593.505,170.246a6.414,6.414,0,0,1-2.35-1.693,3.283,3.283,0,0,0-2.733-.834,16.112,16.112,0,0,0-4.251,1.594,22.634,22.634,0,0,0-3.536,2.019,1.131,1.131,0,0,0-.375.989,2.285,2.285,0,0,0,.5,1.143c.453.522,2.426,1.949,3.431,1.853a36.338,36.338,0,0,1,3.651-.169c2.743,0,8.192.976,8.946.908a6.63,6.63,0,0,0,2.716-1.33c.71-.492,2.294-1.267,2.883-1.624.934-.565,1.3-1.44,1.017-1.963-.238-.438-.977-.456-1.8-.386a38.937,38.937,0,0,1-4,.012,34.377,34.377,0,0,1-4.093-.519" transform="translate(-161.852 -4.104)" fill="#fff"/><path d="M558.951,274.99a9.7,9.7,0,0,0-1.1-2.39,14.165,14.165,0,0,1-1.971-8.29c.081-1.372-1.05-2.074-2.33-2.063a2.244,2.244,0,0,0-2.244,1.594c-.418,1.389-.75,4.237-.239,5.624.49,1.332,2.163,1.843,2.714,2.514a8.636,8.636,0,0,1,1.144,2.335,3.8,3.8,0,0,0,1.046,1.853,3.9,3.9,0,0,0,2.271.187,1.124,1.124,0,0,0,.606-.322,1.529,1.529,0,0,0,.1-1.041" transform="translate(-150.593 -40.263)" fill="#fff"/><path d="M429.19,163.967c-.026-.258-.246-.48-.656-.659-1.741-.762-6.419-.585-7.584.288a.628.628,0,0,0-.309.586c1.677,13.09,3.181,27.134,1.6,32.062-1.756,5.462-5.309,8.005-11.182,8.005s-9.416-2.543-11.17-8.005c-1.584-4.928-.082-18.972,1.6-32.062a.629.629,0,0,0-.308-.586c-1.165-.873-5.845-1.051-7.584-.288-.409.179-.631.4-.657.659-.125,1.2-.263,2.488-.408,3.837-1.041,9.706-2.464,23-1.464,29.12,1.654,10.115,8.568,15.463,19.994,15.463s18.351-5.348,20.006-15.463c1-6.12-.423-19.413-1.464-29.12-.145-1.349-.283-2.637-.408-3.837" transform="translate(-89.371 -2.243)" fill="#fff"/><path d="M331.632,188.646h0c.656-2.355,3.239-10.467,5.312-14.383.665-1.254,1.286-1.764,2.149-1.764s1.484.511,2.148,1.764c2.074,3.916,4.657,12.027,5.313,14.383a1.55,1.55,0,0,1-.186,1.38,1.523,1.523,0,0,1-1.274.54h-12a1.518,1.518,0,0,1-1.273-.54,1.554,1.554,0,0,1-.187-1.38m-.748,9.7h16.359a2.775,2.775,0,0,1,2.576,1.82A108.351,108.351,0,0,1,352.753,211c.068.305.406.55,1.007.73a10.065,10.065,0,0,0,2.7.308c.4,0,.809-.015,1.219-.047a5.906,5.906,0,0,0,3.235-.9.626.626,0,0,0,.211-.638c-5.339-20.147-10.911-35.793-16.56-46.506-.316-.6-3.4-.918-5.5-.918s-5.184.32-5.5.918c-5.652,10.715-11.223,26.362-16.562,46.506a.63.63,0,0,0,.212.638,5.912,5.912,0,0,0,3.235.9,11.875,11.875,0,0,0,3.917-.261c.6-.18.939-.425,1.007-.73a108.536,108.536,0,0,1,2.933-10.838,2.779,2.779,0,0,1,2.577-1.82" transform="translate(-61.172 -2.32)" fill="#fff"/><path d="M247.552,211.356a10.261,10.261,0,0,0,3.651.524,8.357,8.357,0,0,0,3.933-.682.49.49,0,0,0,.241-.455,175.078,175.078,0,0,1-.9-17.641,2.141,2.141,0,0,1,2.15-2.144h18.977a2.14,2.14,0,0,1,2.148,2.144,174.834,174.834,0,0,1-.9,17.641.489.489,0,0,0,.243.454c1.11.829,5.858.926,7.582.158.448-.2.689-.448.715-.738,1.744-19.3,1.569-33.3-.579-46.8-.046-.282-.329-.526-.842-.72-1.833-.7-6.28-.652-7.423.283a.637.637,0,0,0-.274.608A134.558,134.558,0,0,1,277.7,180.56a2.437,2.437,0,0,1-.595,1.73,1.414,1.414,0,0,1-1.041.416H256.173a1.418,1.418,0,0,1-1.042-.416,2.442,2.442,0,0,1-.594-1.73,135.117,135.117,0,0,1,1.417-16.571.634.634,0,0,0-.273-.608c-1.145-.936-5.586-.982-7.422-.283-.514.195-.8.438-.842.72-2.149,13.5-2.323,27.5-.579,46.8.027.29.267.539.714.738" transform="translate(-33.895 -2.165)" fill="#fff"/><path d="M499,182.5c-3.712-2.751-9.225-4.689-16.859-5.928-.921-.149-1.791-.282-2.607-.406-4.813-.736-7.718-1.18-8.19-2.978a1.188,1.188,0,0,1,.3-1.01c1-1.3,4.352-2.811,10.5-2.811a36.766,36.766,0,0,1,14.75,2.93c.446.175.9-.259,1.294-1.217a10.207,10.207,0,0,0,.656-3.63c-.012-1.44-.391-2.389-1.058-2.671-4.476-2.433-10.5-2.943-14.763-2.943-6.2,0-11.292,1.034-14.729,2.988s-5.268,4.866-5.268,8.4a7.744,7.744,0,0,0,4.034,7.31c2.7,1.629,6.874,2.794,13.969,3.9,10.99,1.708,16.389,5.482,16.048,11.218-.3,5.125-5.751,8.185-14.567,8.185A23.462,23.462,0,0,1,468,198.572a2.244,2.244,0,0,0-3.16.075c-1.759,1.458-2.808,4.739-1.968,6.158,1.715,2.9,8.505,7.508,19.424,7.508,7.2,0,13.175-1.7,17.269-4.906a14.62,14.62,0,0,0,5.79-11.686c0-5.726-2.078-10.051-6.355-13.221" transform="translate(-116.851 -1.865)" fill="#fff"/><path d="M502.633,267.234c-3,0-7.341-2.112-7.341-5.931,0-2.8,3.733-4.481,7.341-4.481,3.508,0,7.295,1.713,7.295,4.481,0,2.916-2.729,5.931-7.295,5.931m6.769-11.4a14.538,14.538,0,0,0-13.563.107,6.276,6.276,0,0,0-3.294,5.507c0,4.636,4.62,8.551,10.089,8.551,5.443,0,10.041-3.955,10.041-8.636a6.188,6.188,0,0,0-3.272-5.529" transform="translate(-128.311 -37.188)" fill="#fff"/><path d="M473.628,256.8a13.87,13.87,0,0,1,5.981,1.35.482.482,0,0,0,.505-.088,2.56,2.56,0,0,0,.882-1.889.525.525,0,0,0-.295-.466,15.332,15.332,0,0,0-7.056-1.5,12.454,12.454,0,0,0-6.045,1.667,6.378,6.378,0,0,0-3.41,5.513,6.99,6.99,0,0,0,2.827,5.659c2.58,2.06,6.441,2.948,9.828,2.948a16.218,16.218,0,0,0,3.536-.364c.476-.107.568-1.2.422-1.9-.132-.637-.425-.965-.8-.891-4.322.8-8.727-.014-11.224-2.089a4.42,4.42,0,0,1-1.808-3.37c0-2.828,3.457-4.578,6.66-4.578" transform="translate(-117.467 -37.188)" fill="#fff"/><path d="M434.151,267.6l-8.183-.015-4.036-.006c-.146,0-.2-.058-.2-.21v-4.422c0-.079.12-.154.214-.154l3.306,0,6.29-.008c.485,0,.707-.68.707-1.311,0-.614-.216-1.276-.687-1.276l-7.277.011-2.3,0a.236.236,0,0,1-.256-.207v-2.132c0-.156.214-.242.36-.242h11.292a.871.871,0,0,0,.767-.487,2.012,2.012,0,0,0,.239-.977c0-.54-.2-1.085-.649-1.085H420.194a1.15,1.15,0,0,0-1.177,1.2v12.859a1.042,1.042,0,0,0,1.1,1.08l6.684.01,7.463.012c.44,0,.642-.659.642-1.27a2.258,2.258,0,0,0-.173-.916.651.651,0,0,0-.579-.452" transform="translate(-100.192 -37.522)" fill="#fff"/><path d="M524.866,275.008a1.5,1.5,0,0,0-1.611,1.391,1.614,1.614,0,0,0,3.221,0,1.5,1.5,0,0,0-1.611-1.391" transform="translate(-140.055 -45.144)" fill="#fff"/><path d="M254.178,259.3c-.277-.017-.552-.03-.82-.045-2.131-.112-3.972-.21-3.972-1.147,0-.964,2.74-1.394,5.456-1.394a21.174,21.174,0,0,1,6.345,1.077c.276.085.561-.2.749-.74.222-.638.234-1.4-.181-1.563a19.277,19.277,0,0,0-7.108-1.091c-2.951,0-7.943.779-7.943,3.7,0,2.709,2.578,3.31,7.332,3.471,4.234.145,6.2,1,6.2,2.683,0,1.992-2.144,3.182-5.738,3.182a15.171,15.171,0,0,1-6.482-1.685c-.416-.218-.908.025-1.252.622s-.421,1.361.025,1.641a15.355,15.355,0,0,0,7.8,1.95c5.25,0,8.26-2.131,8.26-5.844,0-3.974-4.287-4.559-8.676-4.82" transform="translate(-34.213 -37.261)" fill="#fff"/><path d="M318.737,255.062c-.009-.1-.092-.19-.245-.261a3.69,3.69,0,0,0-2.375,0,.231.231,0,0,0-.112.219c.439,3.749.866,8.244.279,9.745-.642,1.644-2.56,2.665-5.006,2.665-2.494,0-4.438-1.009-5.072-2.634-.466-1.191-.382-4.487.251-9.794a.228.228,0,0,0-.108-.218,3.63,3.63,0,0,0-2.354-.014c-.164.07-.251.159-.263.264-.408,3.575-.821,7.935-.394,9.934.661,3.1,3.7,5.018,7.941,5.018s7.25-1.924,7.866-5.018c.355-1.781.009-5.445-.267-8.39-.051-.536-.1-1.047-.14-1.517" transform="translate(-55.885 -37.333)" fill="#fff"/><path d="M371.193,262.758a.577.577,0,0,1-.489.185h-4.5a.577.577,0,0,1-.488-.185.274.274,0,0,1-.014-.269,33.241,33.241,0,0,1,2.015-3.891.788.788,0,0,1,1.47,0,33.629,33.629,0,0,1,2.015,3.891.275.275,0,0,1-.014.269m-1.094-7.84c-.191-.282-1.3-.3-1.632-.3h-.022c-.335,0-1.441.022-1.632.3a102.486,102.486,0,0,0-7.486,14.525.211.211,0,0,0,.028.219c.252.332,1.616.448,2.372.35.364-.048.567-.137.622-.274.337-.836,1.14-2.7,1.556-3.44a1.259,1.259,0,0,1,1.017-.615h7.069a1.263,1.263,0,0,1,1.017.615c.416.737,1.219,2.6,1.556,3.44.056.136.258.225.621.274a4.755,4.755,0,0,0,.6.035,2.973,2.973,0,0,0,1.771-.384.21.21,0,0,0,.028-.219,102.483,102.483,0,0,0-7.486-14.525" transform="translate(-77.359 -37.345)" fill="#fff"/><path d="M396.968,256.88a14.763,14.763,0,0,1,6.253,1.366.381.381,0,0,0,.4-.079,2.832,2.832,0,0,0,.908-1.969.421.421,0,0,0-.235-.38,15.614,15.614,0,0,0-7.174-1.532c-3.785,0-9.386,2.287-9.386,7.2a6.876,6.876,0,0,0,2.512,5.346c2.342,2.049,6.3,3.246,10.38,3.245a20.451,20.451,0,0,0,2.717-.18,1.321,1.321,0,0,0,1.176-1.324v-7.964a.663.663,0,0,0-.715-.7h-4.6a.48.48,0,0,0-.437.247,1.1,1.1,0,0,0-.118.55c0,.74.41,1.791.789,1.791.016,0,1.575.03,2,.03a.368.368,0,0,1,.371.413v3.39c0,.433-.206.726-.536.765-3.45.4-7.028-.543-9.117-2.4a4.333,4.333,0,0,1-1.645-3.2c0-1.884,2.3-4.608,6.463-4.608" transform="translate(-88.228 -37.219)" fill="#fff"/><path d="M285.183,262.758a.579.579,0,0,1-.489.185h-4.5a.579.579,0,0,1-.489-.185.274.274,0,0,1-.012-.269,33.33,33.33,0,0,1,2.014-3.891.789.789,0,0,1,1.471,0,33.647,33.647,0,0,1,2.016,3.891.28.28,0,0,1-.014.269m-1.093-7.84c-.193-.282-1.3-.3-1.633-.3h-.022c-.335,0-1.44.022-1.633.3a102.664,102.664,0,0,0-7.485,14.525.21.21,0,0,0,.029.219,2.97,2.97,0,0,0,1.77.384,4.772,4.772,0,0,0,.6-.035c.362-.048.566-.138.62-.274.338-.836,1.141-2.7,1.557-3.44a1.258,1.258,0,0,1,1.017-.615h7.069A1.261,1.261,0,0,1,287,266.3c.416.737,1.219,2.6,1.557,3.44.055.136.258.225.62.274.759.1,2.122-.017,2.372-.35a.21.21,0,0,0,.028-.219,102.486,102.486,0,0,0-7.484-14.525" transform="translate(-44.467 -37.345)" fill="#fff"/><path d="M339.871,259.3c-.276-.017-.552-.03-.819-.045-2.131-.112-3.972-.21-3.972-1.147,0-.964,2.741-1.394,5.457-1.394a21.177,21.177,0,0,1,6.345,1.077c.275.085.561-.2.749-.739.222-.639.235-1.4-.181-1.564a19.273,19.273,0,0,0-7.108-1.091c-2.951,0-7.943.779-7.943,3.7,0,2.709,2.577,3.31,7.331,3.471,4.233.145,6.2,1,6.2,2.683,0,1.992-2.144,3.182-5.738,3.182a15.18,15.18,0,0,1-6.483-1.685c-.415-.218-.908.025-1.252.622s-.421,1.361.026,1.641a15.355,15.355,0,0,0,7.8,1.95c5.25,0,8.259-2.131,8.259-5.844,0-3.974-4.287-4.559-8.676-4.82" transform="translate(-66.984 -37.261)" fill="#fff"/></g></svg>