<svg width="631" height="45" viewBox="0 0 631 45" fill="none" xmlns="http://www.w3.org/2000/svg">
<path d="M80.8261 21.962C80.8261 25.458 79.7895 28.8755 77.8472 31.7823C75.9049 34.6891 73.1443 36.9546 69.9144 38.2925C66.6846 39.6304 63.1305 39.9804 59.7017 39.2984C56.2729 38.6163 53.1233 36.9329 50.6513 34.4608C48.1793 31.9888 46.4958 28.8392 45.8138 25.4104C45.1317 21.9816 45.4818 18.4276 46.8196 15.1977C48.1575 11.9678 50.4231 9.20722 53.3299 7.26495C56.2367 5.32269 59.6541 4.28601 63.1501 4.28601C67.8381 4.28601 72.3341 6.1483 75.6489 9.46319C78.9638 12.7781 80.8261 17.274 80.8261 21.962Z" fill="#E34D32"/>
<path d="M77.3341 21.961C77.3343 24.7666 76.5025 27.5093 74.9439 29.8421C73.3853 32.175 71.17 33.9933 68.5779 35.067C65.9859 36.1408 63.1337 36.4218 60.382 35.8745C57.6303 35.3272 55.1027 33.9762 53.1188 31.9923C51.1349 30.0084 49.7839 27.4808 49.2366 24.7291C48.6893 21.9774 48.9703 19.1252 50.0441 16.5332C51.1178 13.9412 52.9361 11.7258 55.269 10.1672C57.6018 8.6086 60.3445 7.77681 63.1501 7.77701C66.912 7.77701 70.5199 9.27135 73.1801 11.9313C75.8402 14.5913 77.3348 18.1991 77.3351 21.961" fill="white"/>
<path d="M73.3881 22.457C73.5111 21.648 73.4591 21.201 73.2151 21.008C73.0171 20.8676 72.7782 20.7967 72.5356 20.8063C72.293 20.8159 72.0605 20.9054 71.8741 21.061C71.4631 21.3424 70.9718 21.4828 70.4741 21.461C69.9989 21.4438 69.5325 21.3284 69.1041 21.122C68.5559 20.8547 68.0219 20.5593 67.5041 20.237C67.2331 20.071 67.1911 19.993 67.1841 19.945C67.1891 19.9005 67.2009 19.857 67.2191 19.816C67.283 19.6639 67.3054 19.4976 67.2841 19.334C67.2586 19.1706 67.1701 19.0237 67.0376 18.9248C66.905 18.8259 66.739 18.7829 66.5751 18.805C66.1927 18.8106 65.8107 18.7771 65.4351 18.705C65.4002 18.6975 65.3694 18.677 65.349 18.6477C65.3285 18.6184 65.32 18.5824 65.3251 18.547C65.4877 17.936 65.7001 17.3393 65.9601 16.763C66.0954 16.5397 66.1494 16.2765 66.1129 16.0179C66.0765 15.7593 65.9519 15.5212 65.7601 15.344C65.5445 15.2317 65.3044 15.1745 65.0614 15.1776C64.8183 15.1808 64.5797 15.2441 64.3671 15.362C63.8122 15.667 63.215 15.8878 62.5951 16.017V16.017C62.2811 15.9541 61.9707 15.8747 61.6651 15.779C60.992 15.5609 60.3 15.4063 59.5981 15.317C58.4791 15.286 57.6341 15.371 54.2871 16.327C53.6473 16.5715 52.9499 16.623 52.2811 16.475C51.7241 16.343 50.4421 15.93 50.1231 15.824C49.6091 15.651 49.3591 16.724 49.6411 16.815C50.0981 16.96 51.0931 17.193 51.7871 17.348C52.691 17.5678 53.6374 17.5405 54.5271 17.269C57.8501 16.3 58.6751 16.253 59.6361 16.293C60.1658 16.353 60.6867 16.4748 61.1881 16.656C61.6926 16.8431 62.22 16.9615 62.7561 17.008H62.7911C63.5053 16.8707 64.1878 16.6022 64.8041 16.216C64.8484 16.1816 64.9006 16.1587 64.956 16.1497C65.0114 16.1406 65.0681 16.1455 65.1211 16.164C65.1831 16.204 65.1531 16.299 65.1431 16.327C65.1141 16.405 65.0551 16.536 64.9791 16.702C64.6873 17.2713 64.4714 17.8765 64.3371 18.502C64.3369 18.506 64.3358 18.5098 64.3339 18.5133C64.332 18.5167 64.3293 18.5197 64.3261 18.522C64.3211 18.5256 64.3154 18.5282 64.3094 18.5296C64.3034 18.5309 64.2972 18.5311 64.2911 18.53C64.0321 18.496 63.5001 18.403 63.2911 18.357C63.0418 18.2141 62.8122 18.0393 62.6081 17.837L62.5761 17.809C62.3615 17.6345 62.1131 17.5061 61.8466 17.432C61.58 17.3578 61.3011 17.3395 61.0271 17.378C60.6651 17.457 57.9861 18.478 57.6151 19.243C57.5058 19.4743 57.4665 19.7325 57.502 19.9859C57.5375 20.2393 57.6464 20.4767 57.8151 20.669C58.1819 21.1893 58.6486 21.6312 59.1881 21.969C59.5314 22.0509 59.8804 22.1065 60.2321 22.135C60.6061 22.178 60.9931 22.222 61.3101 22.289C61.8396 22.4258 62.3434 22.6473 62.8021 22.945C63.896 23.4306 65.1313 23.4923 66.2681 23.118C66.3816 23.098 66.4894 23.0536 66.5842 22.988C66.6789 22.9224 66.7584 22.8372 66.8171 22.738C66.8465 22.6769 66.8618 22.6099 66.8618 22.542C66.8618 22.4742 66.8465 22.4072 66.8171 22.346C66.7422 22.2031 66.6566 22.0661 66.5611 21.936C66.4191 21.736 66.1611 21.348 66.1941 21.219C66.22 21.1601 66.2583 21.1074 66.3062 21.0645C66.3542 21.0215 66.4107 20.9893 66.4721 20.97C66.5727 20.9203 66.6888 20.9124 66.7951 20.948C67.3631 21.282 68.1441 21.689 68.5161 21.876C68.995 22.1268 69.5097 22.3022 70.0421 22.396C70.4696 22.4499 70.9025 22.4432 71.3281 22.376C71.5428 22.3268 71.7464 22.2376 71.9281 22.113C72.2431 21.882 72.3841 21.864 72.4441 21.887C72.5061 21.945 72.4441 22.332 72.4281 22.459L72.4221 22.504C72.3768 23.028 72.3635 23.5544 72.3821 24.08C72.3782 24.1574 72.3564 24.2328 72.3184 24.3003C72.2804 24.3678 72.2273 24.4256 72.1631 24.469C71.8823 24.6111 71.5851 24.7182 71.2781 24.788C70.984 24.8682 70.6855 24.9313 70.3841 24.977C70.0371 25.027 69.7161 25.054 69.3051 25.077H69.2311C68.7781 25.105 68.3501 25.132 68.3501 25.442C68.3509 25.4955 68.3623 25.5482 68.3838 25.5972C68.4052 25.6461 68.4363 25.6903 68.4751 25.727C68.858 25.9648 69.3085 26.0702 69.7571 26.027V26.027C69.7891 26.027 69.9881 26.022 70.4381 26.006C70.6861 25.997 70.9381 25.988 71.0551 25.985C71.0774 25.9838 71.0998 25.9865 71.1211 25.993C71.1287 26.0892 71.117 26.1859 71.0866 26.2774C71.0562 26.369 71.0077 26.4535 70.9441 26.526C70.339 27.0472 69.5826 27.3606 68.7861 27.42C68.5607 27.4706 68.3494 27.571 68.1679 27.7139C67.9863 27.8569 67.8391 28.0387 67.7371 28.246C67.4468 28.7282 67.0524 29.1393 66.5826 29.4492C66.1128 29.7591 65.5796 29.9599 65.0221 30.037C64.0948 30.1697 63.1494 30.0824 62.2621 29.782C61.6502 29.5201 61.062 29.206 60.5041 28.843C60.4593 28.8055 60.4052 28.7807 60.3475 28.7712C60.2898 28.7617 60.2306 28.7679 60.1761 28.789C60.0101 28.862 60.0161 29.063 60.0181 29.129C60.0651 29.6714 60.2223 30.1985 60.4801 30.678C60.7801 31.327 61.0131 31.84 60.5601 32.292C60.3973 32.4467 60.2122 32.5761 60.0111 32.676C59.5851 32.907 59.1831 33.131 59.0391 34.227C58.9911 34.594 58.9191 35.019 58.8191 35.46C58.6801 36.079 58.5451 36.64 58.4041 37.254C58.3561 37.464 59.3041 37.819 59.3521 37.601C59.4921 36.99 59.6261 36.226 59.6991 35.753C59.7661 35.333 59.8361 34.928 59.8721 34.563C59.9211 34.047 60.5401 33.688 61.0011 33.463C61.4293 33.2511 61.8367 32.9997 62.2181 32.712C62.5261 32.4581 62.7935 32.1586 63.0111 31.824C63.0693 31.7216 63.1513 31.6347 63.2502 31.5706C63.349 31.5066 63.4619 31.4673 63.5791 31.456H63.6631C64.3272 31.4376 64.9866 31.3393 65.6271 31.163C66.9041 30.7842 68.0036 29.9614 68.7271 28.843C68.8081 28.706 68.9271 28.496 69.1081 28.465C69.6674 28.3728 70.2114 28.2046 70.7251 27.965C71.2371 27.7293 71.6697 27.35 71.9701 26.873C72.1484 26.5357 72.2182 26.1515 72.1701 25.773C72.1568 25.7131 72.1663 25.6504 72.1966 25.597C72.2268 25.5436 72.2759 25.5033 72.3341 25.484C72.6635 25.3866 72.9664 25.2156 73.2201 24.984C73.314 24.8452 73.3775 24.688 73.4065 24.523C73.4354 24.3579 73.4292 24.1885 73.3881 24.026C73.3091 23.509 73.3091 22.983 73.3881 22.466V22.457ZM65.9361 19.96C65.6729 20.1095 65.4188 20.2744 65.1751 20.454C64.9415 20.6076 64.6987 20.7469 64.4481 20.871C64.2788 20.9569 64.0868 20.9877 63.8991 20.959C62.9588 20.8202 62.0097 20.749 61.0591 20.746C60.5701 20.746 60.1161 20.767 59.7101 20.808C59.2702 20.7167 58.8679 20.4955 58.5551 20.173C58.4551 20.045 58.3241 19.747 58.4801 19.608C58.9485 19.2714 59.4514 18.9855 59.9801 18.755C60.3894 18.5484 60.8173 18.381 61.2581 18.255C61.4042 18.2295 61.5539 18.2332 61.6986 18.2658C61.8433 18.2984 61.9801 18.3593 62.1011 18.445C62.2011 18.528 62.3781 18.68 62.4611 18.758C62.6359 18.9347 62.8472 19.0713 63.0801 19.158C63.2623 19.1972 63.4466 19.226 63.6321 19.244C63.7781 19.262 63.9321 19.281 64.0741 19.302L64.1741 19.318C64.9281 19.433 65.8211 19.566 66.0281 19.567C66.2351 19.568 66.2341 19.607 66.2391 19.625C66.2531 19.677 66.1971 19.825 65.9391 19.962" fill="#E34D32"/>
<path d="M58.3801 14.251C58.367 14.2591 58.3524 14.2644 58.3372 14.2667C58.3219 14.269 58.3064 14.2682 58.2915 14.2644C58.2765 14.2605 58.2625 14.2538 58.2503 14.2444C58.238 14.2351 58.2278 14.2234 58.2201 14.21C57.9511 13.8418 57.7133 13.4518 57.5091 13.044C57.2324 12.518 57.0128 11.9638 56.8541 11.391C56.8467 11.3657 56.8485 11.3386 56.8591 11.3144C56.8697 11.2903 56.8885 11.2706 56.9121 11.259C57.0281 11.191 57.2011 11.098 57.3741 11.008C57.5341 10.8951 57.716 10.817 57.9081 10.7787C58.1002 10.7405 58.2981 10.743 58.4891 10.786C58.7513 10.8962 58.9592 11.1059 59.0671 11.369C59.2128 11.6389 59.2624 11.9502 59.2079 12.252C59.1534 12.5538 58.998 12.8281 58.7671 13.03C58.5321 13.302 58.4991 13.388 58.5721 13.53C58.663 13.6633 58.7608 13.7918 58.8651 13.915C58.8891 13.962 58.8721 13.995 58.8291 14.022C58.7861 14.049 58.6861 14.1 58.5941 14.147C58.5221 14.183 58.4461 14.223 58.3791 14.252L58.3801 14.251ZM58.5971 12.352C58.6527 12.1075 58.6171 11.8511 58.4971 11.631C58.3401 11.324 58.1281 11.173 57.7781 11.351C57.6631 11.409 57.6231 11.451 57.6051 11.503C57.6463 11.8845 57.7764 12.251 57.9851 12.573C58.0851 12.773 58.1511 12.862 58.2351 12.818C58.4096 12.7117 58.5397 12.5458 58.6011 12.351" fill="#E34D32"/>
<path d="M61.6372 13.119C60.7192 13.276 60.3372 12.748 60.2122 12.012C60.0252 10.924 60.2602 9.83401 61.0432 9.70101C61.8262 9.56801 62.4102 10.516 62.5952 11.601C62.7222 12.341 62.5372 12.966 61.6372 13.121V13.119ZM61.9182 11.598C61.7892 10.847 61.4612 10.269 61.1492 10.322C60.8162 10.38 60.7232 11.05 60.8492 11.773C60.9492 12.337 61.1772 12.524 61.5222 12.463C61.8672 12.402 62.0152 12.153 61.9222 11.596" fill="#E34D32"/>
<path d="M64.0972 9.614C64.2442 9.614 64.7422 9.665 64.9112 9.69C65.6112 9.79 66.0842 10.084 65.9852 10.757C65.9529 10.9535 65.8719 11.1388 65.7496 11.296C65.6273 11.4531 65.4677 11.5773 65.2852 11.657C65.2751 11.6621 65.2661 11.6693 65.2588 11.6781C65.2516 11.6869 65.2463 11.6971 65.2432 11.708C65.2409 11.7179 65.2418 11.7282 65.2458 11.7376C65.2497 11.7469 65.2565 11.7548 65.2652 11.76C65.4369 11.9386 65.5704 12.1503 65.6574 12.3823C65.7444 12.6143 65.7832 12.8616 65.7712 13.109C65.7699 13.1227 65.7658 13.1359 65.7591 13.1479C65.7525 13.1599 65.7435 13.1704 65.7326 13.1787C65.7217 13.1871 65.7092 13.1931 65.6959 13.1964C65.6826 13.1997 65.6687 13.2003 65.6552 13.198C65.5972 13.198 65.4942 13.178 65.3882 13.163C65.2992 13.15 65.2102 13.137 65.1442 13.123C65.0782 13.109 65.0382 13.076 65.0392 13.015C65.0592 12.347 64.8222 11.963 64.5192 11.915C64.3122 11.884 64.2082 11.973 64.1732 12.204C64.1422 12.411 64.1622 12.839 64.1532 12.894C64.1442 12.949 64.1132 12.959 64.0622 12.956C63.9932 12.95 63.9002 12.941 63.7982 12.926C63.7142 12.914 63.6302 12.896 63.5542 12.881C63.4962 12.868 63.4432 12.847 63.4472 12.759C63.4608 12.3483 63.4972 11.9387 63.5562 11.532C63.6486 10.9072 63.7901 10.2906 63.9792 9.688C63.9962 9.63 64.0372 9.61301 64.0982 9.61301L64.0972 9.614ZM64.3372 11.453C64.5618 11.4581 64.7811 11.3839 64.9564 11.2435C65.1318 11.103 65.2521 10.9053 65.2962 10.685C65.3422 10.374 65.1572 10.219 64.8662 10.176C64.7689 10.1492 64.6652 10.1573 64.5732 10.199C64.3988 10.5104 64.2963 10.8568 64.2732 11.213C64.2462 11.394 64.2732 11.444 64.3412 11.452" fill="#E34D32"/>
<path d="M66.3842 13.467C66.3102 13.424 66.2842 13.367 66.3312 13.249C66.4432 12.963 66.5892 12.649 66.7482 12.335C67.0493 11.7423 67.386 11.1682 67.7562 10.616C67.8322 10.5 67.8752 10.495 67.9562 10.529C68.0082 10.55 68.0892 10.587 68.1662 10.629C68.2432 10.671 68.3122 10.709 68.3832 10.749C68.4542 10.789 68.4692 10.826 68.4252 10.902C68.1596 11.2529 67.9119 11.617 67.6832 11.993C67.6662 12.028 67.6672 12.051 67.6902 12.065C67.7132 12.079 67.7442 12.072 67.8092 12.047C68.3288 11.9483 68.7926 11.6586 69.1092 11.235C69.1582 11.177 69.1912 11.169 69.2442 11.187C69.3261 11.2216 69.4062 11.2603 69.4842 11.303C69.5642 11.343 69.6422 11.388 69.6932 11.419C69.7442 11.45 69.7582 11.491 69.7342 11.535C69.4417 11.9725 69.0117 12.3001 68.5122 12.466C68.4831 12.4744 68.4582 12.4933 68.4422 12.519C68.4361 12.5322 68.433 12.5465 68.433 12.561C68.433 12.5755 68.4361 12.5898 68.4422 12.603C68.5457 12.88 68.591 13.1753 68.5754 13.4705C68.5597 13.7657 68.4834 14.0546 68.3512 14.319C68.3122 14.397 68.2622 14.419 68.1992 14.393C68.1238 14.3638 68.05 14.3304 67.9782 14.293C67.9052 14.256 67.8312 14.213 67.7572 14.17C67.6832 14.127 67.6812 14.07 67.7142 13.982C68.0142 13.16 67.9552 12.725 67.7002 12.596C67.5892 12.538 67.4002 12.587 67.2852 12.817C67.1452 13.093 67.0412 13.505 66.9722 13.641C66.9675 13.6554 66.9597 13.6685 66.9495 13.6796C66.9392 13.6907 66.9267 13.6995 66.9128 13.7054C66.8989 13.7112 66.8839 13.7141 66.8688 13.7137C66.8537 13.7133 66.8388 13.7096 66.8252 13.703C66.7622 13.676 66.6842 13.641 66.6042 13.603C66.5242 13.565 66.4342 13.512 66.3792 13.479" fill="#E34D32"/>
<path d="M206.352 21.962C206.352 25.458 205.315 28.8755 203.373 31.7823C201.431 34.6891 198.67 36.9546 195.44 38.2925C192.21 39.6304 188.656 39.9804 185.228 39.2984C181.799 38.6163 178.649 36.9329 176.177 34.4608C173.705 31.9888 172.022 28.8392 171.34 25.4104C170.658 21.9816 171.008 18.4276 172.346 15.1977C173.683 11.9678 175.949 9.20722 178.856 7.26495C181.763 5.32269 185.18 4.28601 188.676 4.28601C193.364 4.28601 197.86 6.1483 201.175 9.46319C204.49 12.7781 206.352 17.274 206.352 21.962Z" fill="#E34D32"/>
<path d="M202.86 21.961C202.86 24.7663 202.028 27.5087 200.47 29.8412C198.911 32.1738 196.696 33.9918 194.104 35.0653C191.512 36.1389 188.66 36.4198 185.909 35.8725C183.157 35.3252 180.63 33.9743 178.646 31.9906C176.663 30.0069 175.312 27.4796 174.764 24.7282C174.217 21.9767 174.498 19.1248 175.572 16.533C176.645 13.9412 178.463 11.726 180.796 10.1674C183.128 8.60888 185.871 7.77701 188.676 7.77701C192.438 7.77701 196.046 9.27138 198.706 11.9314C201.366 14.5914 202.86 18.1992 202.86 21.961" fill="white"/>
<path d="M184.32 13.998C184.308 14.005 184.294 14.0093 184.279 14.0107C184.265 14.0122 184.251 14.0106 184.237 14.0062C184.223 14.0018 184.211 13.9946 184.2 13.9851C184.189 13.9756 184.18 13.964 184.174 13.951C183.955 13.551 183.757 13.139 183.58 12.715C183.346 12.1737 183.154 11.6154 183.005 11.045C182.996 11.0169 182.998 10.9864 183.011 10.9599C183.024 10.9333 183.047 10.9126 183.074 10.902C183.195 10.837 183.455 10.717 183.715 10.602C184.038 10.4026 184.425 10.3349 184.796 10.413C184.869 10.4456 184.934 10.4925 184.989 10.5509C185.043 10.6093 185.085 10.678 185.112 10.753C185.164 10.8774 185.187 11.0123 185.178 11.147C185.169 11.2817 185.129 11.4125 185.061 11.529C185.041 11.57 185.03 11.599 185.041 11.623C185.052 11.647 185.068 11.655 185.099 11.665C185.272 11.6882 185.436 11.7565 185.575 11.8633C185.713 11.97 185.821 12.1113 185.887 12.273C186.15 12.892 185.863 13.354 184.813 13.801C184.647 13.871 184.472 13.941 184.32 14.001V13.998ZM184.56 11.088C184.46 10.863 184.229 10.888 183.982 10.988C183.845 11.046 183.73 11.104 183.705 11.177C183.732 11.4324 183.806 11.6805 183.923 11.909C183.956 11.989 183.993 12.031 184.056 12.004C184.238 11.9387 184.39 11.809 184.483 11.6393C184.576 11.4696 184.604 11.2717 184.561 11.083L184.56 11.088ZM185.241 12.444C185.125 12.179 184.841 12.034 184.671 12.108C184.538 12.1835 184.421 12.2828 184.324 12.401C184.277 12.4459 184.246 12.5058 184.238 12.5706C184.23 12.6354 184.245 12.7009 184.28 12.756C184.33 12.9243 184.427 13.0753 184.558 13.192C184.627 13.224 184.674 13.218 184.847 13.145C185.147 13.016 185.38 12.781 185.237 12.445" fill="#E34D32"/>
<path d="M186.948 13.053C186.854 13.058 186.801 13.046 186.786 12.942C186.758 12.742 186.731 12.522 186.709 12.292C186.619 11.48 186.609 10.661 186.68 9.84702C186.68 9.81746 186.69 9.78874 186.708 9.76538C186.726 9.74202 186.751 9.72535 186.78 9.71802C186.923 9.69102 187.221 9.65702 187.531 9.62602C187.878 9.59102 188.247 9.55802 188.455 9.55502C188.513 9.55502 188.539 9.57802 188.542 9.61302C188.529 9.78888 188.499 9.96305 188.452 10.133C188.448 10.1486 188.439 10.1625 188.427 10.1729C188.415 10.1833 188.4 10.1896 188.384 10.191C188.345 10.1901 188.305 10.1837 188.268 10.172C188.048 10.1288 187.822 10.1203 187.599 10.147C187.438 10.163 187.368 10.196 187.318 10.258C187.247 10.4639 187.227 10.6838 187.26 10.899C187.27 10.999 187.308 11.035 187.393 11.026C187.542 11.011 187.74 10.917 188.019 10.889C188.202 10.87 188.351 10.889 188.359 10.977C188.355 11.1313 188.336 11.2847 188.301 11.435C188.289 11.489 188.269 11.5 188.235 11.503C188.076 11.4808 187.916 11.4717 187.756 11.476C187.409 11.511 187.294 11.641 187.326 11.949C187.369 12.379 187.439 12.433 187.681 12.411C187.987 12.3838 188.285 12.2971 188.558 12.156C188.583 12.1382 188.61 12.125 188.64 12.117C188.664 12.117 188.687 12.125 188.705 12.163C188.777 12.3536 188.828 12.5514 188.858 12.753C188.864 12.818 188.826 12.861 188.75 12.873C188.487 12.913 188.177 12.948 187.879 12.982C187.526 13.017 187.186 13.043 186.937 13.059" fill="#E34D32"/>
<path d="M189.529 12.928C189.437 12.907 189.39 12.88 189.405 12.777C189.434 12.577 189.47 12.358 189.512 12.131C189.653 11.3261 189.873 10.537 190.168 9.775C190.176 9.74534 190.193 9.71921 190.218 9.70099C190.242 9.68278 190.273 9.6736 190.303 9.67501C190.449 9.68901 190.743 9.73899 191.05 9.79599C191.397 9.85999 191.75 9.932 191.957 9.988C192.015 10.003 192.032 10.032 192.025 10.067C191.963 10.2314 191.886 10.3894 191.794 10.539C191.785 10.5518 191.773 10.5618 191.759 10.5678C191.745 10.5738 191.729 10.5756 191.714 10.573C191.679 10.5604 191.645 10.5432 191.614 10.522C191.415 10.4195 191.2 10.3483 190.979 10.311C190.93 10.294 190.878 10.2878 190.826 10.2926C190.774 10.2974 190.724 10.3132 190.679 10.339C190.554 10.5169 190.474 10.723 190.448 10.939C190.43 11.039 190.456 11.082 190.54 11.098C190.687 11.125 190.903 11.09 191.18 11.141C191.361 11.175 191.497 11.236 191.48 11.322C191.434 11.4689 191.372 11.6106 191.297 11.745C191.271 11.794 191.249 11.798 191.214 11.792C191.068 11.7269 190.916 11.6738 190.761 11.633C190.421 11.569 190.273 11.662 190.216 11.966C190.137 12.391 190.189 12.466 190.429 12.508C190.731 12.5675 191.041 12.5675 191.342 12.508C191.371 12.498 191.402 12.4932 191.432 12.494C191.457 12.494 191.476 12.515 191.481 12.556C191.497 12.7591 191.491 12.9633 191.463 13.165C191.451 13.23 191.405 13.265 191.325 13.25C191.062 13.214 190.755 13.162 190.459 13.111C190.113 13.046 189.776 12.975 189.535 12.921" fill="#E34D32"/>
<path d="M192.084 13.572C192.057 13.5595 192.035 13.5376 192.023 13.5104C192.011 13.4832 192.009 13.4525 192.018 13.424C192.137 12.9911 192.301 12.5718 192.507 12.173C192.76 11.6301 193.07 11.1153 193.431 10.637C193.447 10.6173 193.47 10.6036 193.495 10.598C193.52 10.5924 193.546 10.5952 193.569 10.606C193.769 10.679 194.02 10.794 194.262 10.906C194.504 11.018 194.709 11.13 194.869 11.222C194.93 11.261 194.927 11.298 194.908 11.338C194.813 11.5188 194.69 11.6837 194.545 11.827C194.536 11.8358 194.524 11.8415 194.511 11.8433C194.498 11.8451 194.485 11.8429 194.474 11.837C194.449 11.8223 194.426 11.8045 194.405 11.784C194.289 11.6675 194.154 11.572 194.005 11.502C193.866 11.436 193.789 11.418 193.721 11.444C193.542 11.6126 193.405 11.8209 193.321 12.052C193.255 12.189 193.282 12.252 193.39 12.303C193.555 12.383 193.79 12.403 194.073 12.539C194.153 12.578 194.193 12.616 194.165 12.671C194.078 12.8464 193.972 13.0114 193.849 13.163C193.839 13.1757 193.824 13.1843 193.808 13.1872C193.792 13.1901 193.775 13.1872 193.761 13.179C193.692 13.145 193.52 13.029 193.292 12.92C193.107 12.831 192.984 12.83 192.903 12.999C192.817 13.2463 192.747 13.4992 192.696 13.756C192.672 13.807 192.625 13.814 192.552 13.788C192.52 13.777 192.417 13.733 192.321 13.688C192.225 13.643 192.13 13.588 192.097 13.572" fill="#E34D32"/>
<path d="M183.547 17.583C183.578 17.6174 183.616 17.6443 183.659 17.6618C183.702 17.6792 183.749 17.6867 183.795 17.6836C183.841 17.6805 183.886 17.667 183.926 17.644C183.966 17.621 184.001 17.5892 184.027 17.551C184.496 16.6701 185.272 15.9919 186.208 15.645C186.453 15.587 186.608 15.635 186.801 15.445C187.365 14.8789 188.106 14.5241 188.901 14.44C190.062 14.6007 191.179 14.9975 192.181 15.606C192.573 15.8669 192.925 16.1828 193.227 16.544C193.349 16.702 193.595 16.939 193.805 16.824C193.892 16.7591 193.994 16.7172 194.101 16.7021C194.209 16.6871 194.319 16.6994 194.42 16.738C194.611 16.855 194.545 17.179 194.362 17.32C194.127 17.5397 193.984 17.8407 193.962 18.162C193.904 18.436 194.22 18.501 194.41 18.377C194.6 18.253 194.616 17.889 194.91 17.751C195.228 17.6621 195.555 17.6064 195.885 17.585C196.12 17.54 196.203 17.716 196.124 17.955C196.008 18.302 196.192 18.924 195.288 19.255C194.66 19.486 194.849 19.878 195.188 19.9C195.527 19.922 195.143 20.746 194.828 20.73C194.513 20.714 194.409 20.818 194.442 21.122C194.462 21.305 194.792 21.389 195.242 21.396C195.483 21.396 195.512 21.646 195.266 21.685C195.02 21.724 194.688 21.769 194.758 21.978C194.922 22.47 194.678 22.878 194.212 22.884C194.163 22.8935 194.117 22.9156 194.078 22.9481C194.04 22.9806 194.011 23.0225 193.993 23.0697C193.976 23.1169 193.971 23.1677 193.979 23.2173C193.987 23.267 194.008 23.3137 194.039 23.353C194.23 23.5789 194.404 23.8185 194.559 24.07C194.69 24.319 194.333 24.882 194.134 24.705C193.935 24.528 193.663 24.564 193.672 24.953C193.65 25.4143 193.801 25.8673 194.094 26.224C194.597 26.7167 194.979 27.3181 195.213 27.982C195.411 29.0681 195.304 30.1878 194.905 31.217C194.829 31.3641 194.711 31.4847 194.565 31.5628C194.419 31.6408 194.253 31.6727 194.089 31.654C193.96 31.623 193.708 31.736 193.689 31.854C193.668 31.9691 193.621 32.0778 193.552 32.172C193.483 32.2661 193.393 32.3431 193.289 32.397C193.033 32.536 192.736 32.466 192.7 32.779C192.664 33.092 191.731 33.333 191.731 33.052C191.731 32.771 191.542 32.719 191.331 32.742C190.211 32.863 189.7 32.725 189.403 32.269C189.321 32.1083 189.2 31.971 189.051 31.8699C188.901 31.7688 188.729 31.7072 188.549 31.691C188.336 31.6556 188.136 31.5653 187.969 31.429C187.801 31.2928 187.672 31.1153 187.594 30.914C187.417 30.424 187.526 29.637 187.205 29.249C186.884 28.861 185.405 27.418 184.927 26.771C184.475 26.0882 184.115 25.3484 183.858 24.571C183.7 24.081 183.484 24.109 183.468 24.513C183.452 24.917 183.086 24.853 183.068 24.224C183.05 23.595 183.234 21.735 183.193 21.403C183.152 21.071 182.264 21.245 181.964 21.23C181.664 21.215 180.722 20.564 181.046 20.63C181.427 20.705 181.821 20.451 181.705 20.121C181.447 19.38 180.917 19.486 180.428 19.052C179.955 18.635 179.996 18.231 180.682 18.081C181.351 17.935 182.993 18.752 183.766 20.113C183.931 20.402 184.098 20.371 184.055 20.088C183.996 19.673 183.845 19.2762 183.615 18.926C183.315 18.47 182.885 17.88 183.001 17.673C183.117 17.466 183.258 17.346 183.545 17.584L183.547 17.583ZM191.656 31.696C192.229 31.696 192.506 31.896 192.915 31.56C193.044 31.452 193.052 31.354 192.904 31.271C192.489 31.0184 192.011 30.889 191.526 30.898C191.007 30.9012 190.499 31.0509 190.061 31.33C189.931 31.436 190.08 31.548 190.177 31.63C190.55 31.943 191.077 31.695 191.655 31.695L191.656 31.696ZM193.667 30.637C193.956 30.732 194.18 30.537 194.316 29.795C194.481 29.1003 194.373 28.369 194.016 27.751C193.623 27.03 193.16 26.797 192.924 26.37C192.656 25.6188 192.547 24.8204 192.603 24.025C192.596 23.064 192.522 22.1047 192.381 21.154C192.213 20.4167 192.312 19.6435 192.662 18.973C192.831 18.68 192.999 18.347 192.862 18.115C192.579 17.5611 192.199 17.062 191.741 16.641C190.841 16.0899 189.844 15.7164 188.804 15.541C188.233 15.586 187.66 16.357 187.035 16.641C186.609 16.832 186.265 16.436 185.512 17.093C185.012 17.525 185.239 18.063 185.52 18.512C185.801 18.961 186.502 18.812 187.057 19.412C187.612 20.012 187.57 21.229 188.168 22.169C188.781 23.3107 189.151 24.5672 189.254 25.859C189.283 26.1242 189.237 26.3922 189.12 26.632C188.858 27.0557 188.653 27.5119 188.509 27.989C188.377 28.5084 188.334 29.0462 188.38 29.58C188.398 29.919 188.449 30.434 188.704 30.62C188.851 30.6967 189.016 30.734 189.182 30.7282C189.348 30.7224 189.509 30.6738 189.651 30.587C190.26 30.3108 190.912 30.1417 191.579 30.087C192.306 30.1151 193.019 30.3014 193.667 30.633V30.637ZM185.123 21.968C184.883 22.03 184.905 22.274 185.123 22.309C185.597 22.4683 186.06 22.658 186.509 22.877C186.748 22.992 186.864 22.764 186.688 22.562C186.512 22.36 186.535 22.112 186.408 21.881C186.333 21.771 186.223 21.689 186.097 21.6481C185.97 21.6072 185.833 21.6096 185.708 21.655C185.472 21.739 185.361 21.906 185.123 21.968Z" fill="#E34D32"/>
<path d="M191.727 32.756C191.758 33.8105 191.593 34.8617 191.241 35.856C191.001 36.556 191.931 36.567 192.121 36.039C192.475 34.936 192.674 33.7889 192.711 32.631C192.727 31.982 192.38 32.016 192.084 32.053C191.788 32.09 191.706 32.468 191.727 32.753" fill="#E34D32"/>
<path d="M193.822 24.472C194.617 25.0971 195.576 25.4791 196.583 25.572C198.035 25.872 201.32 26.272 202.283 26.439C203.246 26.606 203.642 25.714 202.639 25.483C201.411 25.203 198.285 24.87 197.195 24.693C195.941 24.6422 194.758 24.0993 193.902 23.182C193.595 22.796 193.272 23.04 193.32 23.552C193.32 23.734 193.366 23.913 193.454 24.0727C193.541 24.2324 193.667 24.3676 193.82 24.466" fill="#E34D32"/>
<path d="M183.498 23.975C183.467 25.0444 183.595 26.1124 183.879 27.144C184.245 28.447 184.762 29.7023 185.422 30.884C186.262 32.437 187.522 34.684 187.756 36.422C187.944 37.83 186.921 37.173 186.756 36.383C186.473 35.1969 186.026 34.0562 185.427 32.994C184.426 31.2871 183.614 29.4765 183.005 27.594C182.412 25.5888 182.352 23.4634 182.832 21.428C182.965 20.793 183.172 20.816 183.495 20.865C183.818 20.914 183.519 22.99 183.495 23.976" fill="#E34D32"/>
<path d="M182.295 20.713C181.752 20.7637 181.205 20.6905 180.695 20.499C180.183 20.1787 179.783 19.7073 179.55 19.15C179.395 18.8321 179.203 18.5342 178.976 18.263C178.769 18.056 178.803 17.855 179.192 17.819C179.789 17.642 180.406 17.5438 181.028 17.527C181.627 17.5927 182.202 17.799 182.706 18.1292C183.21 18.4594 183.629 18.9041 183.928 19.427C184.353 20.138 184.828 19.357 184.642 18.836C184.38 18.3067 184 17.844 183.532 17.4831C183.064 17.1222 182.521 16.8725 181.942 16.753C180.817 16.7019 179.692 16.8585 178.624 17.215C177.935 17.328 177.716 17.894 178.124 18.395C178.466 18.8235 178.741 19.3016 178.939 19.813C179.179 20.4603 179.639 21.0023 180.239 21.344C180.896 21.604 181.602 21.7186 182.307 21.68C182.652 21.664 182.756 21.897 182.707 22.25C182.658 22.603 183.172 22.562 183.252 22.001C183.332 21.44 183.661 20.701 183.316 20.701C182.978 20.6819 182.64 20.6839 182.302 20.707" fill="#E34D32"/>
<path d="M193.402 17.117C193.746 16.7889 194.186 16.5788 194.658 16.517C195.309 16.423 196.27 16.517 196.792 16.417C197.314 16.317 197.617 16.462 197.566 16.875C197.496 17.436 197.913 18.645 197.514 19.58C197.058 20.65 195.651 20.935 194.442 20.68C193.777 20.542 194.082 19.727 194.668 19.841C195.236 19.952 196.246 19.887 196.555 19.441C196.983 18.829 196.798 17.824 196.855 17.407C196.892 17.107 196.782 16.976 196.442 17.053C195.661 17.23 194.42 16.806 193.875 17.844C193.466 18.619 192.929 17.551 193.406 17.113" fill="#E34D32"/>
<path d="M189.286 28.743C189.127 28.861 189.012 28.715 189.098 28.512C189.177 28.3386 189.311 28.1958 189.479 28.1055C189.647 28.0152 189.84 27.9824 190.028 28.012C190.15 28.0311 190.266 28.076 190.369 28.1437C190.472 28.2114 190.559 28.3004 190.624 28.4046C190.69 28.5088 190.733 28.6258 190.749 28.7478C190.766 28.8699 190.756 28.994 190.721 29.112C190.644 29.401 190.414 29.326 190.371 29.086C190.344 28.9784 190.287 28.8802 190.208 28.802C190.13 28.7238 190.031 28.6685 189.923 28.642C189.705 28.5923 189.476 28.6281 189.283 28.742" fill="#E34D32"/>
<path d="M192.83 29.142C192.843 29.335 192.57 29.351 192.491 29.125C192.414 28.9634 192.382 28.7837 192.4 28.6055C192.418 28.4273 192.484 28.2573 192.591 28.114C192.733 27.9705 192.92 27.881 193.121 27.8609C193.322 27.8409 193.524 27.8915 193.691 28.004C193.784 28.0919 193.848 28.206 193.874 28.3311C193.9 28.4561 193.888 28.5862 193.838 28.704C193.753 28.877 193.607 28.814 193.587 28.714C193.577 28.6682 193.557 28.6252 193.528 28.5877C193.5 28.5502 193.464 28.519 193.423 28.4962C193.382 28.4734 193.337 28.4594 193.29 28.4553C193.244 28.4511 193.196 28.4568 193.152 28.472C192.883 28.564 192.82 28.934 192.833 29.143" fill="#E34D32"/>
<path d="M189.812 27.253C189.546 27.311 189.512 27.115 189.729 26.968C190.167 26.6854 190.665 26.5103 191.184 26.457C191.755 26.4296 192.323 26.5686 192.817 26.857C193.041 26.98 193.008 27.226 192.684 27.157C192.225 27.0536 191.754 27.0106 191.284 27.029C190.787 27.0628 190.294 27.1367 189.809 27.25" fill="#E34D32"/>
<path d="M188.338 17.781C188.129 17.697 188.148 17.528 188.438 17.509C188.828 17.4702 189.22 17.5582 189.556 17.76C189.699 17.88 189.811 17.885 189.898 17.76C189.982 17.623 190.096 17.5068 190.231 17.4202C190.366 17.3336 190.519 17.2788 190.679 17.26C190.892 17.248 190.979 17.43 190.779 17.585C190.456 17.9977 190.23 18.4785 190.119 18.991C190.036 19.358 189.755 19.338 189.619 19.033C189.367 18.4687 188.91 18.0216 188.34 17.783" fill="#E34D32"/>
<path d="M332.352 21.962C332.352 25.458 331.315 28.8755 329.373 31.7823C327.431 34.6891 324.67 36.9546 321.44 38.2925C318.21 39.6304 314.656 39.9804 311.228 39.2984C307.799 38.6163 304.649 36.9329 302.177 34.4608C299.705 31.9888 298.022 28.8392 297.34 25.4104C296.658 21.9816 297.008 18.4276 298.346 15.1977C299.683 11.9678 301.949 9.20722 304.856 7.26495C307.763 5.32269 311.18 4.28601 314.676 4.28601C319.364 4.28601 323.86 6.1483 327.175 9.46319C330.49 12.7781 332.352 17.274 332.352 21.962Z" fill="#E34D32"/>
<path d="M328.861 21.961C328.861 24.7663 328.029 27.5086 326.471 29.8411C324.912 32.1736 322.697 33.9916 320.105 35.0652C317.513 36.1388 314.662 36.4198 311.91 35.8725C309.159 35.3253 306.631 33.9745 304.648 31.991C302.664 30.0074 301.313 27.4801 300.766 24.7288C300.218 21.9774 300.499 19.1255 301.572 16.5337C302.646 13.9419 304.464 11.7266 306.796 10.1679C309.128 8.60924 311.871 7.77721 314.676 7.77701C318.438 7.77701 322.046 9.27135 324.706 11.9313C327.366 14.5913 328.861 18.1991 328.861 21.961Z" fill="white"/>
<path d="M317.818 18.738C317.819 18.5186 317.745 18.3054 317.608 18.1335C317.472 17.9616 317.281 17.8412 317.067 17.792C316.726 17.7047 316.366 17.7311 316.041 17.867C315.612 18.056 315.441 18.367 315.165 18.448C315.125 18.454 315.087 18.4711 315.056 18.4974C315.025 18.5236 315.002 18.5581 314.99 18.5968C314.977 18.6354 314.976 18.6769 314.985 18.7163C314.995 18.7558 315.016 18.7917 315.045 18.82C315.186 18.9977 315.278 19.2084 315.314 19.432C315.39 19.8427 315.618 20.2096 315.952 20.46C316.117 20.5683 316.304 20.6375 316.5 20.6627C316.695 20.6878 316.894 20.6681 317.081 20.605C317.238 20.547 317.341 20.547 317.391 20.7C317.42 20.787 317.499 20.624 317.52 20.476C317.548 20.2751 317.608 20.0799 317.698 19.898C317.767 19.81 317.629 19.845 317.553 19.95C317.478 20.0499 317.381 20.1317 317.269 20.1891C317.158 20.2466 317.035 20.2783 316.91 20.282C316.77 20.3029 316.627 20.296 316.49 20.2617C316.353 20.2274 316.224 20.1663 316.11 20.082C315.907 19.8943 315.76 19.6546 315.683 19.389C315.625 19.1826 315.611 18.966 315.644 18.754C315.69 18.5937 315.781 18.4503 315.908 18.3417C316.034 18.233 316.19 18.164 316.355 18.143C316.643 18.0638 316.95 18.093 317.217 18.225C317.42 18.339 317.573 18.5244 317.647 18.745C317.694 18.895 317.847 18.966 317.82 18.745" fill="#E34D32"/>
<path d="M316.442 18.711C316.332 18.716 316.296 18.604 316.406 18.538C316.506 18.4745 316.619 18.4323 316.736 18.4141C316.853 18.3959 316.973 18.402 317.088 18.432C317.207 18.4637 317.312 18.5352 317.385 18.6348C317.458 18.7343 317.494 18.8558 317.488 18.979C317.488 19.163 317.382 19.163 317.329 19.04C317.301 18.9612 317.253 18.8907 317.19 18.8351C317.127 18.7796 317.052 18.7407 316.97 18.722C316.797 18.6846 316.618 18.6816 316.443 18.713" fill="#E34D32"/>
<path d="M317.199 19.23C317.199 19.2908 317.181 19.3503 317.148 19.4009C317.114 19.4516 317.066 19.4911 317.01 19.5144C316.954 19.5378 316.892 19.544 316.832 19.5321C316.773 19.5203 316.718 19.4911 316.675 19.4481C316.632 19.4051 316.603 19.3503 316.591 19.2907C316.579 19.231 316.585 19.1692 316.609 19.113C316.632 19.0569 316.671 19.009 316.722 18.9753C316.773 18.9417 316.832 18.9238 316.893 18.924C316.974 18.9243 317.052 18.9566 317.109 19.0139C317.166 19.0712 317.199 19.1489 317.199 19.23Z" fill="#E34D32"/>
<path d="M316.066 19.168C316.079 19.005 316.23 18.968 316.266 19.185C316.271 19.2996 316.308 19.4105 316.373 19.505C316.438 19.5996 316.528 19.6741 316.633 19.72C316.741 19.7458 316.853 19.7474 316.962 19.7248C317.071 19.7021 317.173 19.6558 317.262 19.589C317.409 19.499 317.517 19.536 317.435 19.671C317.349 19.8246 317.212 19.9427 317.047 20.0041C316.882 20.0654 316.701 20.0661 316.536 20.0059C316.37 19.9457 316.232 19.8286 316.145 19.6756C316.058 19.5226 316.029 19.3437 316.062 19.171" fill="#E34D32"/>
<path d="M318.272 21.935C318.418 21.935 318.561 22.003 318.552 22.173C318.565 22.4734 318.474 22.7691 318.296 23.0109C318.117 23.2527 317.861 23.426 317.57 23.502C317.267 23.5931 316.942 23.5869 316.643 23.4843C316.343 23.3817 316.083 23.1879 315.899 22.93C315.49 22.141 316.028 21.139 314.748 20.23C314.348 19.947 314.137 20.172 314.401 20.471C314.85 21.0687 315.056 21.8137 314.979 22.557C314.972 22.9254 315.075 23.2875 315.276 23.5964C315.477 23.9054 315.765 24.147 316.105 24.29C316.432 24.4175 316.782 24.4764 317.133 24.463C317.484 24.4496 317.829 24.3641 318.145 24.212C318.487 24.0268 318.772 23.751 318.968 23.4148C319.163 23.0786 319.263 22.695 319.255 22.306C319.269 22.157 319.393 22.068 319.625 22.106C319.825 22.14 319.77 21.923 319.545 21.806C319.188 21.702 318.817 21.6501 318.445 21.652C318.232 21.64 318.105 21.941 318.28 21.941" fill="#E34D32"/>
<path d="M308.032 24.649C307.955 24.8413 307.807 24.9969 307.619 25.084C306.968 25.2594 306.304 25.3855 305.634 25.461C304.658 25.6313 303.657 25.5917 302.697 25.345C301.687 24.9922 300.734 24.4929 299.869 23.863C299.518 23.557 298.945 24.325 299.519 24.78C300.745 25.7336 302.213 26.3249 303.757 26.487C304.837 26.5017 305.915 26.3879 306.968 26.148C307.203 26.08 307.368 26.227 307.246 26.495C307.151 26.701 307.746 26.531 307.984 26.048C308.148 25.6146 308.218 25.1515 308.19 24.689C308.208 24.363 308.12 24.383 308.031 24.652" fill="#E34D32"/>
<path d="M317.933 29.417C318.101 29.5971 318.203 29.8279 318.225 30.073C318.509 31.4055 318.559 32.7775 318.371 34.127C318.113 35.5802 317.458 36.9338 316.48 38.039C316.007 38.579 317.073 38.848 317.58 38.302C318.597 37.1731 319.241 35.7576 319.423 34.249C319.59 32.9937 319.531 31.7187 319.25 30.484C319.192 30.213 319.25 30.107 319.465 30.203C319.68 30.299 319.783 30.03 319.376 29.777C318.961 29.4949 318.533 29.2338 318.092 28.995C317.77 28.854 317.702 29.221 317.934 29.417" fill="#E34D32"/>
<path d="M317.685 20.894C317.791 20.9 317.779 21.032 317.762 21.183C317.726 21.3779 317.749 21.5793 317.828 21.761C317.897 21.835 317.983 21.8898 318.079 21.9201C318.175 21.9505 318.278 21.9553 318.376 21.934C318.896 21.9485 319.411 22.0301 319.91 22.177C320.381 22.263 320.61 22.203 320.824 21.946C320.867 21.9022 320.924 21.8742 320.985 21.8666C321.046 21.859 321.108 21.8721 321.16 21.904C321.241 21.95 321.325 21.846 321.211 21.773C321.097 21.7 320.411 21.306 320.287 21.268C320.163 21.23 320.222 21.341 320.349 21.412C320.371 21.4205 320.39 21.4335 320.407 21.4502C320.423 21.4668 320.435 21.4868 320.443 21.5087C320.451 21.5307 320.454 21.554 320.452 21.5772C320.45 21.6003 320.443 21.6228 320.431 21.643C320.335 21.7164 320.214 21.7497 320.093 21.736C319.693 21.706 319.458 21.536 319.023 21.484C318.663 21.441 318.293 21.509 318.214 21.42C318.135 21.331 318.2 21.06 318.221 20.997C318.242 20.934 318.321 20.824 318.538 20.824C318.638 20.824 318.658 20.693 318.459 20.699C318.26 20.705 317.85 20.792 317.792 20.787C317.669 20.777 317.568 20.887 317.682 20.895" fill="#E34D32"/>
<path d="M317.376 20.398C317.409 20.1642 317.518 19.9478 317.686 19.782C317.901 19.576 318.141 19.592 318.271 19.382C318.371 19.217 318.482 18.734 318.826 18.637C319.17 18.54 319.368 18.695 319.555 19.085C319.672 19.3255 319.856 19.5264 320.086 19.663C320.415 19.8104 320.723 20.0022 321 20.233C321.288 20.4848 321.507 20.8064 321.635 21.167C321.704 21.4271 321.702 21.7008 321.63 21.96C321.577 22.101 321.35 22.021 321.244 21.955C321.138 21.889 320.865 21.738 320.692 21.626C320.061 21.1498 319.303 20.8714 318.513 20.826C318.153 20.836 317.713 20.98 317.513 20.854C317.332 20.739 317.352 20.565 317.378 20.399L317.376 20.398ZM318.739 20.404C319.071 20.4401 319.395 20.5279 319.699 20.664C320.025 20.802 320.617 21.153 320.781 21.245C320.906 21.314 321.067 21.28 321.029 21.112C320.96 20.812 320.454 20.412 320.105 20.212C319.829 20.0749 319.576 19.8965 319.354 19.683C319.223 19.528 319.146 19.305 318.94 19.305C318.734 19.305 318.61 19.583 318.533 19.747C318.466 19.888 318.295 19.96 318.119 20.055C317.943 20.15 317.871 20.32 317.943 20.385C318.015 20.45 318.434 20.375 318.743 20.399" fill="#E34D32"/>
<path d="M318.524 23.941C318.483 23.969 318.449 24.005 318.423 24.0467C318.397 24.0884 318.379 24.135 318.372 24.1836C318.364 24.2323 318.367 24.2819 318.379 24.3296C318.391 24.3773 318.413 24.422 318.443 24.461C318.906 25.0157 319.279 25.6391 319.55 26.309C320.054 27.4833 320.339 28.74 320.39 30.017C320.399 30.401 320.228 30.448 320.019 30.39C319.118 30.1259 318.274 29.6988 317.527 29.13C317.383 29.004 317.26 28.977 317.238 29.24C317.105 30.2144 316.893 31.1764 316.603 32.116C316.545 32.392 316.256 32.555 316.05 32.254C315.533 31.6915 315.06 31.0897 314.636 30.454C314.527 30.237 314.384 30.229 314.3 30.454C313.948 31.2566 313.445 31.9835 312.817 32.595C312.668 32.79 312.347 32.79 312.307 32.407C312.246 31.817 311.865 30.88 311.797 29.843C311.778 29.543 311.592 29.509 311.457 29.67C310.956 30.198 310.393 30.6646 309.782 31.06C309.628 31.197 309.42 31.179 309.431 30.829C309.359 29.91 309.401 28.9857 309.556 28.077C309.61 27.842 309.513 27.796 309.274 27.937C308.282 28.4585 307.221 28.8354 306.122 29.056C305.84 29.172 305.513 28.905 305.811 28.556C306.607 27.6132 307.263 26.5599 307.757 25.429C308.257 24.268 308.203 22.945 308.886 21.317C309.184 20.6187 309.622 19.9894 310.174 19.4685C310.727 18.9476 311.38 18.5464 312.095 18.29C312.217 18.255 312.21 18.163 312.119 18.09C311.851 17.9295 311.566 17.7985 311.27 17.699C311.105 17.653 311.17 17.526 311.458 17.357C312.171 16.8805 312.977 16.5608 313.823 16.419C315.211 16.2354 316.623 16.4274 317.912 16.975C318.149 17.0858 318.351 17.2589 318.496 17.4758C318.642 17.6926 318.726 17.945 318.74 18.206C318.734 18.3111 318.771 18.4142 318.841 18.4928C318.911 18.5715 319.009 18.6193 319.114 18.626C319.287 18.658 319.114 18.926 318.978 18.941C318.842 18.956 318.652 19.16 318.549 19.312C318.446 19.464 318.273 19.397 318.328 19.277C318.372 19.2092 318.394 19.1294 318.391 19.0486C318.387 18.9679 318.359 18.8901 318.31 18.826C318.155 18.6552 318.067 18.4338 318.063 18.203C318.03 18.0219 317.956 17.8508 317.847 17.7028C317.737 17.5547 317.595 17.4337 317.432 17.349C316.638 16.9872 315.769 16.8199 314.898 16.861C314.115 16.8825 313.346 17.075 312.645 17.425C312.529 17.5 312.506 17.591 312.603 17.652C312.892 17.8107 313.164 17.9972 313.417 18.209C313.505 18.309 313.433 18.463 313.292 18.509C312.546 18.7223 311.851 19.0814 311.245 19.5657C310.639 20.05 310.136 20.6497 309.764 21.33C308.985 22.846 309.109 24.322 308.69 25.555C308.453 26.2575 308.098 26.9144 307.64 27.497C307.451 27.687 307.501 27.797 307.723 27.721C308.843 27.3269 309.786 26.547 310.384 25.521C310.602 25.177 310.784 25.313 310.749 25.621C310.566 27.021 310.378 28.085 310.264 29.096C310.236 29.339 310.31 29.435 310.481 29.285C311.178 28.6489 311.798 27.9334 312.329 27.153C312.445 26.92 312.597 26.916 312.596 27.253C312.58 28.4023 312.647 29.5513 312.796 30.691C312.838 30.909 312.886 31.005 313.057 30.732C313.566 29.8575 313.916 28.8992 314.09 27.902C314.138 27.563 314.345 27.547 314.437 27.861C314.771 28.8248 315.25 29.7324 315.856 30.553C315.981 30.71 316.098 30.726 316.161 30.49C316.403 29.4696 316.515 28.4225 316.493 27.374C316.483 27.085 316.578 26.912 316.816 27.237C317.427 28.0021 318.197 28.6246 319.074 29.061C319.265 29.144 319.463 29.161 319.425 28.891C319.305 27.8886 318.999 26.9171 318.525 26.026C318.269 25.5473 317.967 25.0943 317.625 24.673C317.549 24.5925 317.455 24.5309 317.351 24.4931C317.246 24.4553 317.135 24.4422 317.025 24.455C316.794 24.455 316.655 24.09 317.168 23.91C317.525 23.8145 317.873 23.6914 318.211 23.542C318.403 23.417 318.748 23.781 318.537 23.942" fill="#E34D32"/>
<path d="M317.631 17.225C317.966 17.336 318.385 17.3 318.222 17.167C318.108 17.0535 318.02 16.9167 317.965 16.766C317.909 16.6153 317.887 16.4542 317.899 16.294C317.924 15.9211 317.842 15.5488 317.662 15.221C317.483 14.8931 317.214 14.6233 316.886 14.443C316.603 14.327 316.421 14.531 316.525 14.704C316.682 14.959 316.745 15.2605 316.704 15.557C316.657 15.702 316.382 15.681 316.253 15.463C316.107 15.1479 315.896 14.8672 315.634 14.6393C315.372 14.4113 315.064 14.2412 314.732 14.14C314.366 14.04 314.101 14.313 314.317 14.532C314.582 14.7728 314.747 15.1044 314.779 15.461C314.77 15.624 314.499 15.713 314.279 15.515C313.847 15.0407 313.25 14.7487 312.61 14.698C312.2 14.698 312.102 14.98 312.391 15.145C312.556 15.2235 312.702 15.3367 312.819 15.4769C312.936 15.617 313.021 15.7808 313.069 15.957C313.091 16.1109 313.064 16.2677 312.992 16.4056C312.921 16.5434 312.808 16.6554 312.669 16.726C312.454 16.826 312.247 17.226 312.792 17.043C313.561 16.8113 314.362 16.6987 315.165 16.709C316 16.8052 316.824 16.9794 317.627 17.229" fill="#E34D32"/>
<path d="M308.077 32.261C308.087 31.795 308.472 31.732 308.577 32.181C308.751 33.1178 308.714 34.0816 308.469 35.0023C308.224 35.9231 307.777 36.7777 307.16 37.504L306.041 36.782C306.664 36.2016 307.165 35.5029 307.514 34.7266C307.863 33.9503 308.055 33.112 308.076 32.261" fill="#E34D32"/>
<path d="M306.064 15.933C305.241 15.217 304.851 14.304 305.385 13.688C305.479 13.5878 305.593 13.5083 305.72 13.4547C305.847 13.4011 305.983 13.3745 306.121 13.3767C306.258 13.3788 306.394 13.4097 306.519 13.4673C306.644 13.5248 306.755 13.6079 306.846 13.711C306.886 13.7426 306.917 13.783 306.939 13.829C306.96 13.875 306.97 13.9254 306.968 13.976C306.983 14.1453 306.949 14.3154 306.868 14.465C306.84 14.497 306.803 14.493 306.76 14.456C306.717 14.419 306.66 14.356 306.617 14.32C306.36 14.097 306.011 13.907 305.817 14.126C305.604 14.371 305.842 14.826 306.389 15.304C306.874 15.725 307.208 15.772 307.469 15.472C307.574 15.3362 307.633 15.1703 307.636 14.9987C307.639 14.827 307.588 14.6589 307.488 14.519C307.482 14.5064 307.479 14.4923 307.48 14.4782C307.481 14.4641 307.486 14.4505 307.494 14.439C307.552 14.371 307.725 14.423 307.913 14.589C308.018 14.6746 308.103 14.7818 308.163 14.9034C308.223 15.0249 308.256 15.1579 308.259 15.2933C308.263 15.4287 308.237 15.5632 308.184 15.6878C308.131 15.8124 308.051 15.924 307.951 16.015C307.451 16.586 306.791 16.571 306.056 15.932" fill="#E34D32"/>
<path d="M309.135 14.731C309.083 14.752 309.046 14.749 308.987 14.682C308.711 14.3474 308.464 13.9905 308.247 13.615C307.925 13.1084 307.661 12.5674 307.459 12.002C307.447 11.977 307.444 11.9491 307.45 11.9221C307.455 11.8952 307.469 11.8706 307.489 11.852C307.559 11.8 307.631 11.7516 307.706 11.707C307.781 11.6617 307.858 11.6206 307.937 11.584C307.978 11.57 308.004 11.584 308.031 11.624C308.175 12.0049 308.345 12.3752 308.541 12.732C308.584 12.803 308.626 12.824 308.672 12.816C308.756 12.781 308.852 12.668 309.061 12.542C309.27 12.416 309.421 12.387 309.461 12.342C309.501 12.297 309.482 12.253 309.44 12.182C309.217 11.8427 308.973 11.5183 308.708 11.211C308.702 11.2037 308.697 11.1951 308.695 11.1859C308.692 11.1767 308.692 11.1671 308.693 11.1577C308.695 11.1483 308.698 11.1392 308.703 11.1312C308.708 11.1231 308.715 11.1163 308.723 11.111C308.787 11.062 308.854 11.0166 308.923 10.975C308.996 10.931 309.073 10.885 309.154 10.846C309.18 10.8336 309.21 10.8307 309.238 10.8381C309.266 10.8454 309.291 10.8623 309.308 10.886C309.707 11.3358 310.057 11.8273 310.351 12.352C310.58 12.7201 310.778 13.1064 310.944 13.507C310.973 13.596 310.967 13.636 310.91 13.674C310.837 13.728 310.763 13.778 310.686 13.824C310.611 13.8714 310.532 13.9132 310.451 13.949C310.401 13.974 310.37 13.972 310.341 13.924C310.279 13.824 310.083 13.282 309.933 13.024C309.814 12.824 309.625 12.801 309.361 12.959C308.976 13.19 308.93 13.386 309.069 13.618C309.245 13.8707 309.434 14.1137 309.636 14.346C309.663 14.391 309.657 14.415 309.614 14.451C309.541 14.505 309.464 14.551 309.383 14.599C309.302 14.647 309.214 14.69 309.132 14.729" fill="#E34D32"/>
<path d="M312.243 13.266C312.143 13.294 312.043 13.32 311.954 13.336C311.93 13.3412 311.905 13.3374 311.883 13.3252C311.862 13.313 311.846 13.2934 311.838 13.27C311.653 12.8663 311.503 12.4478 311.388 12.019C311.21 11.4449 311.089 10.8548 311.027 10.257C311.021 10.2286 311.026 10.1992 311.04 10.1738C311.054 10.1484 311.076 10.1287 311.103 10.118C311.18 10.091 311.269 10.06 311.359 10.035C311.449 10.01 311.553 9.98401 311.645 9.96001C311.654 9.95781 311.663 9.95754 311.672 9.9592C311.681 9.96086 311.689 9.96442 311.697 9.96964C311.704 9.97486 311.71 9.98161 311.715 9.98944C311.719 9.99727 311.722 10.006 311.723 10.015C311.765 10.556 311.859 11.0917 312.002 11.615C312.154 12.1161 312.345 12.6042 312.574 13.075C312.588 13.125 312.574 13.148 312.525 13.175C312.437 13.21 312.344 13.241 312.245 13.27" fill="#E34D32"/>
<path d="M313.058 11.573C313.005 10.484 313.392 9.57302 314.208 9.52902C314.887 9.49502 315.176 10.071 315.202 10.599C315.207 10.6495 315.2 10.7004 315.181 10.7476C315.163 10.7949 315.134 10.8372 315.096 10.871C314.986 11.0002 314.84 11.0941 314.677 11.141C314.634 11.141 314.612 11.114 314.609 11.057C314.606 11 314.609 10.922 314.609 10.857C314.593 10.517 314.488 10.133 314.198 10.148C313.873 10.164 313.709 10.648 313.744 11.376C313.775 12.017 313.972 12.291 314.37 12.276C314.541 12.2576 314.701 12.1849 314.827 12.0686C314.953 11.9522 315.038 11.7985 315.07 11.63C315.086 11.598 315.106 11.58 315.131 11.579C315.221 11.579 315.301 11.732 315.314 11.979C315.325 12.1138 315.307 12.2494 315.26 12.3766C315.214 12.5037 315.141 12.6194 315.046 12.7158C314.952 12.8122 314.837 12.887 314.711 12.9352C314.584 12.9834 314.449 13.0038 314.314 12.995C313.558 13.032 313.114 12.543 313.063 11.571" fill="#E34D32"/>
<path d="M316.054 12.979C315.973 12.953 315.938 12.903 315.954 12.779C316.002 12.479 316.079 12.135 316.168 11.797C316.337 11.1534 316.545 10.5206 316.79 9.902C316.841 9.776 316.881 9.759 316.97 9.774C317.025 9.784 317.113 9.802 317.195 9.824C317.277 9.846 317.356 9.87101 317.433 9.89401C317.51 9.91701 317.533 9.952 317.506 10.035C317.32 10.4339 317.155 10.8425 317.012 11.259C317.002 11.297 317.012 11.321 317.033 11.328C317.054 11.335 317.087 11.328 317.149 11.285C317.637 11.0793 318.029 10.6977 318.249 10.216C318.284 10.148 318.315 10.134 318.371 10.14C318.458 10.1549 318.545 10.1743 318.63 10.198C318.717 10.221 318.803 10.248 318.861 10.267C318.873 10.2689 318.884 10.2733 318.894 10.2799C318.904 10.2865 318.912 10.2952 318.918 10.3054C318.924 10.3156 318.928 10.327 318.93 10.3389C318.931 10.3507 318.93 10.3627 318.926 10.374C318.732 10.8644 318.38 11.2762 317.926 11.544C317.899 11.5581 317.879 11.5816 317.868 11.61C317.865 11.624 317.865 11.6385 317.868 11.6525C317.871 11.6664 317.877 11.6796 317.886 11.691C318.046 11.9403 318.153 12.2199 318.201 12.5124C318.248 12.8048 318.234 13.1039 318.161 13.391C318.139 13.475 318.095 13.507 318.028 13.491C317.948 13.4781 317.868 13.4601 317.79 13.437C317.711 13.417 317.63 13.39 317.548 13.365C317.466 13.34 317.454 13.286 317.466 13.192C317.582 12.325 317.435 11.911 317.158 11.837C317.038 11.806 316.866 11.891 316.8 12.137C316.721 12.437 316.707 12.862 316.668 13.01C316.666 13.0251 316.662 13.0397 316.654 13.0528C316.646 13.0659 316.636 13.0771 316.623 13.0859C316.611 13.0946 316.597 13.1006 316.582 13.1033C316.567 13.1061 316.552 13.1057 316.537 13.102C316.47 13.089 316.386 13.071 316.3 13.048C316.214 13.025 316.115 12.995 316.054 12.975" fill="#E34D32"/>
<path d="M318.804 13.88C318.727 13.826 318.693 13.78 318.746 13.693C318.846 13.52 318.962 13.329 319.086 13.133C319.514 12.4378 320.011 11.7867 320.567 11.189C320.586 11.1655 320.611 11.149 320.64 11.1421C320.669 11.1352 320.7 11.1383 320.727 11.151C320.857 11.217 321.112 11.374 321.376 11.54C321.676 11.727 321.976 11.928 322.148 12.054C322.196 12.09 322.2 12.123 322.182 12.154C322.064 12.2839 321.933 12.4021 321.792 12.507C321.779 12.5153 321.764 12.5197 321.749 12.5197C321.733 12.5197 321.718 12.5153 321.705 12.507C321.676 12.4821 321.65 12.4532 321.628 12.421C321.481 12.2516 321.309 12.1062 321.117 11.99C320.98 11.903 320.904 11.89 320.828 11.904C320.646 12.0234 320.495 12.1849 320.388 12.375C320.334 12.46 320.342 12.511 320.415 12.557C320.542 12.637 320.755 12.684 320.993 12.835C321.148 12.935 321.253 13.04 321.206 13.114C321.108 13.2333 320.998 13.3422 320.878 13.439C320.836 13.474 320.813 13.47 320.784 13.452C320.672 13.3372 320.551 13.2315 320.422 13.136C320.129 12.951 319.96 12.982 319.792 13.244C319.561 13.609 319.582 13.695 319.792 13.825C320.05 13.9923 320.337 14.1074 320.639 14.164C320.67 14.1651 320.7 14.1719 320.728 14.184C320.74 14.192 320.749 14.204 320.753 14.2179C320.758 14.2317 320.757 14.2467 320.751 14.26C320.691 14.4547 320.609 14.6421 320.508 14.819C320.5 14.8322 320.489 14.8434 320.477 14.8521C320.464 14.8608 320.45 14.8666 320.434 14.8693C320.419 14.8719 320.404 14.8713 320.389 14.8675C320.374 14.8636 320.36 14.8567 320.348 14.847C320.117 14.717 319.848 14.554 319.597 14.398C319.297 14.209 319.013 14.019 318.808 13.878" fill="#E34D32"/>
<path d="M320.972 15.395C320.962 15.3857 320.955 15.3745 320.949 15.3621C320.944 15.3498 320.941 15.3364 320.941 15.323C320.941 15.3096 320.944 15.2963 320.949 15.2839C320.955 15.2715 320.962 15.2603 320.972 15.251C321.309 14.8901 321.669 14.5526 322.052 14.241C322.471 13.8726 322.929 13.5514 323.418 13.283C323.444 13.2712 323.472 13.2672 323.5 13.2717C323.528 13.2761 323.554 13.2888 323.575 13.308C323.626 13.3579 323.674 13.411 323.718 13.467C323.767 13.525 323.813 13.588 323.842 13.63C323.855 13.6493 323.863 13.6715 323.866 13.6947C323.868 13.718 323.865 13.7414 323.856 13.763C323.616 14.5211 323.295 15.2507 322.897 15.939C322.89 15.9471 322.886 15.9574 322.886 15.968C322.886 15.9786 322.89 15.9889 322.897 15.997C322.914 16.017 322.948 16.016 322.978 15.991C323.511 15.5331 324.005 15.0331 324.458 14.496C324.465 14.4886 324.474 14.4826 324.483 14.4786C324.493 14.4746 324.503 14.4725 324.513 14.4725C324.523 14.4725 324.533 14.4746 324.543 14.4786C324.552 14.4826 324.561 14.4886 324.568 14.496C324.615 14.546 324.678 14.616 324.741 14.696C324.804 14.776 324.847 14.83 324.884 14.883C324.902 14.904 324.912 14.9313 324.911 14.9592C324.91 14.9871 324.898 15.0135 324.878 15.033C324.164 15.7895 323.369 16.4649 322.507 17.047C322.494 17.0585 322.478 17.067 322.461 17.072C322.444 17.077 322.426 17.0784 322.409 17.076C322.391 17.0736 322.375 17.0676 322.36 17.0583C322.345 17.049 322.332 17.0366 322.322 17.022C322.278 16.976 322.206 16.896 322.144 16.822C322.098 16.764 322.057 16.71 322.028 16.672C322.005 16.6475 321.992 16.6151 321.992 16.5815C321.992 16.5479 322.005 16.5155 322.028 16.491C322.409 15.84 322.738 15.1603 323.013 14.458C323.03 14.416 323.03 14.389 323.013 14.372C322.996 14.355 322.947 14.354 322.907 14.388C322.371 14.8199 321.872 15.2948 321.413 15.808C321.37 15.844 321.331 15.832 321.292 15.791C321.253 15.75 321.185 15.675 321.122 15.599C321.059 15.523 321.006 15.455 320.968 15.399" fill="#E34D32"/>
<path d="M459.622 21.962C459.622 25.458 458.585 28.8755 456.643 31.7823C454.701 34.6891 451.94 36.9546 448.71 38.2925C445.48 39.6304 441.926 39.9804 438.498 39.2984C435.069 38.6163 431.919 36.9329 429.447 34.4608C426.975 31.9888 425.292 28.8392 424.61 25.4104C423.928 21.9816 424.278 18.4276 425.616 15.1977C426.953 11.9678 429.219 9.20722 432.126 7.26495C435.033 5.32269 438.45 4.28601 441.946 4.28601C446.634 4.28601 451.13 6.1483 454.445 9.46319C457.76 12.7781 459.622 17.274 459.622 21.962Z" fill="#E34D32"/>
<path d="M456.132 21.961C456.132 24.7663 455.3 27.5087 453.741 29.8412C452.183 32.1738 449.968 33.9918 447.376 35.0653C444.784 36.1389 441.932 36.4198 439.181 35.8725C436.429 35.3252 433.902 33.9743 431.918 31.9906C429.935 30.0069 428.584 27.4796 428.036 24.7282C427.489 21.9767 427.77 19.1248 428.844 16.533C429.917 13.9412 431.735 11.726 434.068 10.1674C436.4 8.60888 439.143 7.77701 441.948 7.77701C445.71 7.77727 449.317 9.27174 451.977 11.9317C454.637 14.5917 456.132 18.1992 456.132 21.961" fill="white"/>
<path d="M438.409 25.147C438.592 25.0629 438.797 25.0438 438.992 25.0927C439.187 25.1417 439.36 25.2557 439.481 25.416C439.746 26.035 439.014 26.998 439.33 27.873C439.752 29.042 440.905 28.393 441.372 29.162C441.744 29.777 441.445 31.362 441.272 32.01C441.102 32.642 441.545 32.81 441.772 32.403C442.109 31.6756 442.329 30.8993 442.422 30.103C442.471 29.7951 442.452 29.4801 442.366 29.1805C442.279 28.8809 442.128 28.6042 441.922 28.37C441.31 27.735 440.484 28.008 440.217 27.561C439.94 27.093 440.804 26.015 440.262 25.001C440.016 24.5806 439.612 24.2752 439.141 24.152C439.081 24.1399 439.027 24.1046 438.993 24.0537C438.958 24.0029 438.945 23.9405 438.956 23.88C438.966 23.732 438.735 23.533 438.635 23.862C438.57 24.1889 438.446 24.501 438.269 24.783C438.069 25.026 438.24 25.32 438.41 25.152" fill="#E34D32"/>
<path d="M442.063 30.153C442.039 30.717 442.286 30.937 442.324 30.753C442.362 30.569 442.502 30.527 442.658 30.542C443.317 30.5958 443.955 30.7982 444.525 31.134C445.378 31.649 445.789 32.3 446.946 32.507C447.431 32.6269 447.943 32.5675 448.388 32.3396C448.833 32.1118 449.181 31.7308 449.367 31.267C449.393 31.1805 449.437 31.1009 449.498 31.034C449.558 30.9672 449.633 30.9149 449.717 30.881C449.995 30.7215 450.23 30.4955 450.399 30.2233C450.569 29.9511 450.668 29.6411 450.689 29.321C450.721 28.315 450.463 27.3209 449.947 26.457C448.91 25.0615 448.126 23.4957 447.628 21.83C447.528 21.38 447.243 21.757 446.96 21.791C446.677 21.825 446.083 22.413 446.46 22.355C446.576 22.3471 446.691 22.382 446.783 22.4531C446.875 22.5243 446.938 22.6267 446.96 22.741C447.168 23.3952 447.436 24.0288 447.76 24.634C448.569 25.7939 449.228 27.0507 449.724 28.375C449.939 29.316 449.624 30.092 448.955 30.243C448.639 30.2941 448.317 30.2759 448.009 30.1895C447.701 30.1032 447.416 29.9508 447.173 29.743C446.659 29.312 446.019 29.0609 445.349 29.028C444.917 29.053 444.876 29.385 445.357 29.468C445.873 29.558 447.157 30.95 448.113 31.047C448.365 31.072 448.413 31.22 448.146 31.382C447.855 31.525 447.531 31.5855 447.208 31.5571C446.885 31.5288 446.576 31.4125 446.315 31.221C445.768 30.903 445.287 30.445 444.658 30.132C444.051 29.8375 443.391 29.6675 442.718 29.632C442.643 29.6343 442.569 29.6096 442.511 29.5624C442.452 29.5153 442.413 29.4488 442.399 29.375C442.381 29.26 442.099 29.565 442.069 30.155" fill="#E34D32"/>
<path d="M448.553 29.482C448.543 29.259 448.465 29.0445 448.33 28.8667C448.195 28.689 448.009 28.5566 447.797 28.487C447.318 28.413 447.092 28.977 447.491 29.096C447.623 29.1262 447.746 29.1857 447.852 29.2702C447.958 29.3547 448.043 29.462 448.102 29.584C448.124 29.634 448.163 29.6748 448.211 29.6995C448.26 29.7242 448.316 29.7313 448.369 29.7195C448.422 29.7077 448.47 29.6778 448.504 29.6348C448.537 29.5919 448.555 29.5386 448.554 29.484" fill="#E34D32"/>
<path d="M439.94 23.557C439.748 23.542 439.684 23.279 440.04 23.235C440.396 23.191 440.419 23.135 440.508 23.043C440.67 22.8419 440.875 22.6802 441.108 22.5701C441.342 22.4601 441.597 22.4047 441.855 22.408C442.731 22.415 443.037 23.125 443.231 23.626C443.256 23.6697 443.272 23.7183 443.277 23.7685C443.282 23.8187 443.277 23.8695 443.261 23.9175C443.246 23.9655 443.22 24.0096 443.186 24.0471C443.152 24.0846 443.111 24.1145 443.065 24.135C442.693 24.3916 442.248 24.5208 441.797 24.503C441.37 24.3983 440.995 24.1425 440.741 23.783C440.606 23.616 440.361 23.589 439.941 23.556L439.94 23.557ZM442.557 23.537C442.622 23.572 442.68 23.495 442.636 23.383C442.577 23.2287 442.475 23.0941 442.343 22.9947C442.211 22.8954 442.054 22.8351 441.889 22.821C441.758 22.8086 441.626 22.8243 441.502 22.8669C441.378 22.9095 441.264 22.978 441.169 23.068C441.075 23.159 441.19 23.218 441.312 23.226C441.741 23.2661 442.161 23.372 442.558 23.54" fill="#E34D32"/>
<path d="M433.777 24.994C434.034 24.521 434.417 24.771 434.277 25.176C434.017 25.9499 434.03 26.7897 434.314 27.555C434.714 28.294 435.728 27.955 436.573 28.62C437.299 29.194 437.029 30.26 437.511 30.656C437.772 30.8133 438.064 30.9117 438.367 30.9443C438.67 30.9769 438.976 30.9431 439.264 30.845C439.721 30.752 439.928 31.145 439.371 31.409C438.959 31.5831 438.511 31.6562 438.065 31.6225C437.618 31.5888 437.187 31.4491 436.805 31.215C436.132 30.633 436.285 29.748 435.885 29.298C435.434 28.79 434.415 29.125 433.72 28.177C433.43 27.6943 433.282 27.1398 433.292 26.5767C433.302 26.0136 433.471 25.4648 433.778 24.993" fill="#E34D32"/>
<path d="M436.749 20.279C437.172 19.97 437.688 19.8159 438.212 19.8423C438.735 19.8687 439.233 20.074 439.623 20.424C439.872 20.6801 440.037 21.0064 440.095 21.359C440.153 21.7115 440.102 22.0735 439.948 22.396C439.521 23.071 438.948 22.828 438.978 23.449C439.004 23.7798 438.957 24.1123 438.842 24.4232C438.726 24.7341 438.543 25.0159 438.307 25.249C438.176 25.3742 438.022 25.4721 437.853 25.5371C437.684 25.602 437.504 25.6327 437.323 25.6273C437.142 25.6219 436.964 25.5806 436.799 25.5057C436.634 25.4307 436.486 25.3238 436.363 25.191C436.241 24.959 436.167 24.7045 436.146 24.443C436.125 24.1815 436.158 23.9184 436.242 23.67C436.279 23.2655 436.215 22.8581 436.057 22.484C435.924 22.0894 435.919 21.6627 436.044 21.2653C436.168 20.8679 436.415 20.5201 436.75 20.272L436.749 20.279ZM436.741 22.678C436.887 23.1674 436.916 23.6842 436.827 24.187C436.78 24.3186 436.78 24.4628 436.829 24.5939C436.878 24.7251 436.972 24.8346 437.094 24.903C437.24 24.949 437.395 24.956 437.544 24.9234C437.694 24.8908 437.832 24.8196 437.945 24.717C438.085 24.5591 438.193 24.3751 438.261 24.1755C438.33 23.9758 438.358 23.7646 438.345 23.554C438.339 23.335 438.172 23.276 438.072 23.404C437.952 23.5586 437.846 23.7236 437.755 23.897C437.7 24.013 437.43 24.147 437.455 23.763C437.468 23.564 437.524 23.3704 437.621 23.196C437.718 23.0217 437.852 22.8711 438.014 22.755C438.501 22.401 438.886 22.538 439.268 22.214C439.588 21.942 439.368 21.097 438.787 20.736C438.521 20.5873 438.216 20.5241 437.913 20.555C437.61 20.586 437.324 20.7096 437.094 20.909C436.869 21.1382 436.716 21.428 436.653 21.743C436.591 22.0579 436.622 22.3843 436.742 22.682" fill="#E34D32"/>
<path d="M444.652 31.212C444.872 31.4698 445.011 31.7866 445.052 32.123C445.26 32.9117 445.264 33.7405 445.064 34.5314C444.864 35.3222 444.466 36.0493 443.908 36.644C443.325 37.297 444.52 37.323 444.917 36.865C445.414 36.2696 445.768 35.5687 445.953 34.8155C446.138 34.0623 446.149 33.2769 445.984 32.519C445.945 32.264 446.072 32.199 446.202 32.266C446.332 32.333 446.669 31.966 446.347 31.766C445.865 31.4097 445.364 31.079 444.847 30.775C444.467 30.613 444.461 31.081 444.647 31.213" fill="#E34D32"/>
<path d="M428.901 27.41C429.149 26.1196 429.796 24.9394 430.749 24.035C431.574 23.4308 432.543 23.0545 433.56 22.944C433.992 22.925 434.172 22.752 433.97 22.452C433.768 21.9167 433.688 21.343 433.736 20.7728C433.784 20.2027 433.958 19.6504 434.247 19.1564C434.536 18.6624 434.931 18.239 435.404 17.9173C435.877 17.5957 436.416 17.3837 436.982 17.297C437.237 17.259 437.39 17.304 437.396 17.474C437.408 17.7019 437.442 17.9282 437.496 18.15C437.561 18.407 437.889 18.386 437.929 18.074C437.956 17.5528 438.135 17.051 438.445 16.6308C438.754 16.2105 439.18 15.8904 439.67 15.71C440.156 15.5502 440.673 15.5123 441.176 15.5995C441.68 15.6867 442.154 15.8963 442.558 16.21C442.658 16.297 442.737 16.4 442.686 16.523C442.607 16.7094 442.545 16.9029 442.503 17.101C442.494 17.1511 442.503 17.2028 442.53 17.2462C442.557 17.2896 442.598 17.3216 442.647 17.336C442.696 17.3504 442.749 17.3462 442.794 17.3243C442.84 17.3023 442.877 17.2641 442.896 17.217C443.031 16.858 443.266 16.545 443.573 16.3147C443.88 16.0845 444.246 15.9465 444.629 15.917C445.141 15.8967 445.641 16.0767 446.023 16.4187C446.404 16.7606 446.638 17.2377 446.674 17.749C446.71 17.922 446.574 17.922 446.505 17.909C446.302 17.9016 446.099 17.9289 445.905 17.99C445.778 18.053 445.761 18.233 445.995 18.254C446.317 18.2329 446.639 18.3048 446.921 18.4612C447.204 18.6175 447.436 18.8518 447.589 19.136C447.803 19.4685 447.884 19.8697 447.815 20.2592C447.746 20.6487 447.532 20.9977 447.216 21.236C446.922 21.3867 446.597 21.4661 446.267 21.4677C445.937 21.4692 445.611 21.3929 445.316 21.245C444.926 20.975 444.611 20.309 444.766 20.053C444.906 19.7676 444.942 19.4419 444.866 19.133C444.859 19.088 444.836 19.047 444.801 19.0171C444.767 18.9873 444.723 18.9706 444.678 18.9699C444.632 18.9691 444.588 18.9845 444.552 19.0132C444.517 19.042 444.493 19.0822 444.484 19.127C444.351 19.4822 444.114 19.7885 443.803 20.0052C443.492 20.2219 443.122 20.3387 442.743 20.34C442.346 20.2431 441.983 20.037 441.697 19.7449C441.411 19.4527 441.212 19.0863 441.123 18.687C441.034 18.328 440.648 18.435 440.661 18.728C440.683 18.9907 440.724 19.2515 440.785 19.508C440.81 19.5891 440.819 19.6744 440.81 19.7589C440.802 19.8434 440.777 19.9254 440.736 20C440.486 20.2299 440.172 20.3787 439.836 20.427C439.691 20.4146 439.553 20.3624 439.436 20.276C439.353 20.214 439.19 20.27 439.436 20.659C439.579 20.8567 439.687 21.078 439.753 21.313C439.796 21.461 440.11 21.531 440.094 21.413C440.078 21.295 440.113 21.13 440.267 21.107C440.606 21.0484 440.923 20.8987 441.184 20.674C441.211 20.6482 441.243 20.6282 441.279 20.6152C441.314 20.6022 441.351 20.5966 441.389 20.5985C441.426 20.6005 441.463 20.61 441.496 20.6266C441.53 20.6432 441.56 20.6665 441.584 20.695C441.842 20.9149 442.152 21.0653 442.484 21.132C442.925 21.2038 443.377 21.1125 443.755 20.875C443.855 20.803 444.044 20.781 444.088 20.922C444.258 21.3913 444.579 21.7909 445 22.058C445.373 22.2704 445.794 22.3839 446.223 22.3876C446.652 22.3912 447.075 22.285 447.451 22.079C447.88 21.9337 448.242 21.6397 448.473 21.2502C448.703 20.8608 448.787 20.4017 448.708 19.956C448.596 19.244 448.226 18.5982 447.668 18.142C447.559 18.0325 447.495 17.8863 447.488 17.732C447.418 17.1461 447.18 16.5929 446.803 16.1389C446.426 15.6849 445.926 15.3495 445.363 15.173C445.005 15.0916 444.635 15.085 444.275 15.1539C443.914 15.2227 443.572 15.3654 443.27 15.573C443.115 15.673 443.078 15.626 442.957 15.527C442.481 15.1423 441.916 14.8844 441.314 14.7774C440.712 14.6704 440.092 14.7177 439.513 14.915C438.833 15.1436 438.235 15.5651 437.791 16.128C437.735 16.2066 437.659 16.2692 437.572 16.3097C437.484 16.3502 437.387 16.3672 437.291 16.359C436.587 16.4047 435.901 16.6024 435.281 16.9385C434.661 17.2746 434.121 17.7412 433.698 18.306C432.955 19.2708 432.623 20.4897 432.774 21.698C432.787 21.97 432.743 22.098 432.466 22.16C431.372 22.3955 430.373 22.9526 429.598 23.7598C428.823 24.5669 428.307 25.5874 428.116 26.69C427.937 27.714 428.766 28.229 428.888 27.426" fill="#E34D32"/>
<path d="M448.709 19.835C448.74 19.996 448.849 20.382 449.177 20.417C449.717 20.4648 450.247 20.5897 450.752 20.788C450.862 20.829 450.954 20.9067 451.012 21.0079C451.071 21.1091 451.093 21.2275 451.074 21.343C450.952 21.918 450.661 22.4434 450.238 22.8522C449.816 23.261 449.281 23.5346 448.702 23.638C448.529 23.678 448.493 24.112 448.586 24.302C448.679 24.492 448.439 24.874 448.168 24.423C447.767 23.6719 447.405 22.9006 447.083 22.112C446.961 21.771 447.405 21.598 447.661 21.285C447.917 20.972 448.397 20.35 448.335 19.87C448.273 19.39 448.65 19.547 448.704 19.832" fill="#E34D32"/>
<path d="M437.841 13.056C437.989 13.1975 438.119 13.3563 438.229 13.529C438.238 13.5442 438.244 13.5612 438.246 13.5788C438.248 13.5964 438.247 13.6143 438.242 13.6314C438.237 13.6484 438.228 13.6642 438.217 13.6777C438.205 13.6912 438.191 13.7022 438.175 13.71C438.031 13.802 437.848 13.91 437.675 14.01C437.412 14.16 437.155 14.303 436.975 14.395C436.891 14.438 436.838 14.448 436.782 14.359C436.682 14.208 436.582 14.036 436.482 13.85C436.057 13.1213 435.695 12.3579 435.399 11.568C435.389 11.5464 435.386 11.522 435.392 11.4988C435.397 11.4755 435.41 11.4548 435.429 11.44C435.479 11.406 435.569 11.35 435.673 11.29C435.777 11.23 435.883 11.174 435.949 11.143C436.015 11.112 436.039 11.137 436.056 11.167C436.306 11.9244 436.611 12.6624 436.97 13.375C437.095 13.595 437.16 13.614 437.293 13.537C437.46 13.4299 437.603 13.2884 437.711 13.122C437.744 13.068 437.761 13.054 437.776 13.045C437.787 13.0385 437.801 13.0358 437.814 13.0372C437.827 13.0387 437.839 13.0442 437.849 13.053" fill="#E34D32"/>
<path d="M438.853 13.407C438.781 13.42 438.737 13.407 438.713 13.337C438.648 13.137 438.581 12.929 438.531 12.717C438.369 12.2488 438.327 11.7478 438.407 11.259C438.487 10.7702 438.687 10.309 438.99 9.917C439.016 9.88641 439.051 9.86445 439.09 9.854C439.124 9.84797 439.16 9.85397 439.19 9.871C439.628 10.0891 440.006 10.4116 440.291 10.81C440.576 11.2084 440.758 11.6706 440.822 12.156C440.869 12.356 440.911 12.566 440.942 12.791C440.952 12.87 440.915 12.901 440.842 12.926C440.763 12.9542 440.682 12.9779 440.6 12.997C440.5 13.022 440.4 13.035 440.335 13.047C440.325 13.0487 440.314 13.0483 440.304 13.0457C440.293 13.0432 440.284 13.0386 440.275 13.0323C440.267 13.026 440.26 13.018 440.254 13.0088C440.249 12.9996 440.245 12.9895 440.244 12.979C440.232 12.7873 440.21 12.5964 440.178 12.407C440.128 12.194 439.99 12.133 439.732 12.194C439.403 12.273 439.143 12.469 439.212 12.753C439.256 12.936 439.351 13.079 439.381 13.184C439.386 13.1932 439.388 13.2033 439.388 13.2136C439.389 13.2239 439.387 13.2341 439.383 13.2435C439.379 13.253 439.373 13.2615 439.365 13.2685C439.358 13.2755 439.349 13.2808 439.339 13.284C439.253 13.3146 439.165 13.34 439.076 13.36C438.997 13.379 438.926 13.396 438.855 13.408L438.853 13.407ZM439.6 11.733C439.748 11.693 439.842 11.68 439.9 11.657C439.958 11.634 439.958 11.603 439.943 11.542C439.838 11.1723 439.62 10.8446 439.32 10.604C439.289 10.584 439.273 10.57 439.252 10.576C439.231 10.582 439.218 10.597 439.194 10.634C438.999 11.0381 438.946 11.4961 439.044 11.934C439.053 11.972 439.078 11.984 439.102 11.978C439.258 11.8773 439.426 11.7957 439.602 11.735" fill="#E34D32"/>
<path d="M442.351 12.895C442.256 12.8925 442.16 12.8845 442.066 12.871C441.96 12.857 441.855 12.839 441.758 12.817C441.738 12.8132 441.721 12.8027 441.708 12.7875C441.695 12.7722 441.688 12.753 441.687 12.733C441.666 12.2596 441.688 11.7853 441.753 11.316C441.834 10.7365 441.955 10.1631 442.114 9.60001C442.117 9.5763 442.129 9.55468 442.148 9.53975C442.166 9.52482 442.19 9.51774 442.214 9.52001C442.287 9.52501 442.406 9.53701 442.524 9.55201C442.621 9.56387 442.718 9.58089 442.813 9.603C442.843 9.60822 442.87 9.6218 442.893 9.64217C442.915 9.66254 442.931 9.68885 442.939 9.71801C443.104 10.1958 443.238 10.6838 443.339 11.179C443.348 11.211 443.359 11.226 443.38 11.229C443.391 11.23 443.402 11.2274 443.411 11.2214C443.42 11.2154 443.427 11.2064 443.431 11.196C443.657 10.7531 443.905 10.3219 444.175 9.90401C444.188 9.87502 444.21 9.85031 444.236 9.83266C444.263 9.81501 444.294 9.80509 444.326 9.804C444.417 9.80468 444.509 9.81236 444.599 9.827C444.684 9.838 444.772 9.854 444.86 9.873C444.889 9.87679 444.917 9.89095 444.937 9.91294C444.957 9.93493 444.968 9.96331 444.969 9.993C445.016 10.5484 445.003 11.1073 444.931 11.66C444.866 12.1415 444.77 12.6182 444.642 13.087C444.638 13.1144 444.624 13.1392 444.602 13.1568C444.581 13.1743 444.554 13.1833 444.526 13.182C444.4 13.1763 444.275 13.1643 444.151 13.146C444.063 13.1354 443.976 13.1194 443.89 13.098C443.84 13.087 443.821 13.063 443.827 13.019C444.006 12.4976 444.143 11.9625 444.235 11.419C444.271 11.1851 444.284 10.9484 444.276 10.712C444.277 10.7031 444.274 10.6941 444.269 10.6869C444.264 10.6797 444.256 10.6747 444.247 10.673C444.239 10.6713 444.231 10.6725 444.224 10.6764C444.217 10.6802 444.212 10.6865 444.209 10.694C443.951 11.2223 443.656 11.7319 443.327 12.219C443.318 12.2377 443.304 12.2534 443.286 12.2643C443.268 12.2753 443.248 12.2811 443.227 12.281C443.205 12.2763 443.185 12.2657 443.169 12.2504C443.153 12.235 443.141 12.2155 443.135 12.194C442.933 11.6462 442.776 11.0826 442.666 10.509C442.665 10.4991 442.661 10.4897 442.655 10.4824C442.648 10.4751 442.639 10.4704 442.629 10.469C442.612 10.469 442.597 10.478 442.59 10.498C442.523 10.759 442.474 11.0243 442.443 11.292C442.385 11.8037 442.385 12.3203 442.443 12.832C442.437 12.875 442.405 12.89 442.358 12.89" fill="#E34D32"/>
<path d="M445.455 13.586C445.442 13.5804 445.43 13.5722 445.42 13.5619C445.41 13.5516 445.403 13.5394 445.397 13.526C445.392 13.5127 445.39 13.4984 445.391 13.4842C445.391 13.4699 445.395 13.4559 445.401 13.443C445.585 13.006 445.79 12.592 446.001 12.208C446.279 11.6875 446.597 11.1891 446.951 10.717C446.967 10.6925 446.993 10.6753 447.021 10.6688C447.05 10.6623 447.08 10.667 447.106 10.682C447.232 10.736 447.488 10.865 447.737 11C448.196 11.248 448.479 11.452 448.558 11.728C448.577 11.8053 448.581 11.8857 448.57 11.9645C448.558 12.0433 448.53 12.1189 448.489 12.187C448.424 12.3054 448.333 12.4071 448.222 12.484C448.111 12.5609 447.984 12.6109 447.85 12.63C447.805 12.64 447.776 12.65 447.763 12.673C447.758 12.6843 447.755 12.6966 447.755 12.709C447.755 12.7215 447.758 12.7338 447.763 12.745C447.854 12.8954 447.903 13.0672 447.906 13.243C447.909 13.4187 447.864 13.592 447.778 13.745C447.458 14.336 446.917 14.4 445.913 13.856C445.755 13.77 445.591 13.677 445.451 13.592L445.455 13.586ZM447.242 13.345C447.308 13.2428 447.335 13.1203 447.318 12.9999C447.301 12.8795 447.241 12.7691 447.15 12.689C447.008 12.6333 446.858 12.6039 446.706 12.602C446.641 12.5927 446.575 12.6062 446.519 12.6403C446.463 12.6745 446.421 12.7271 446.4 12.789C446.299 12.9333 446.241 13.1031 446.232 13.279C446.251 13.354 446.285 13.387 446.451 13.479C446.74 13.636 447.067 13.669 447.242 13.347V13.345ZM447.883 11.968C447.999 11.753 447.834 11.584 447.594 11.455C447.462 11.384 447.346 11.33 447.273 11.355C447.09 11.5353 446.942 11.7479 446.836 11.982C446.794 12.059 446.784 12.113 446.845 12.145C447.009 12.2469 447.205 12.285 447.396 12.2522C447.587 12.2194 447.759 12.118 447.88 11.967" fill="#E34D32"/>
<path d="M586.352 21.962C586.352 25.458 585.315 28.8755 583.373 31.7823C581.431 34.6891 578.67 36.9546 575.44 38.2925C572.21 39.6304 568.656 39.9804 565.228 39.2984C561.799 38.6163 558.649 36.9329 556.177 34.4608C553.705 31.9888 552.022 28.8392 551.34 25.4104C550.658 21.9816 551.008 18.4276 552.346 15.1977C553.683 11.9678 555.949 9.20722 558.856 7.26495C561.763 5.32269 565.18 4.28601 568.676 4.28601C573.364 4.28601 577.86 6.1483 581.175 9.46319C584.49 12.7781 586.352 17.274 586.352 21.962Z" fill="#E34D32"/>
<path d="M582.86 21.961C582.86 24.7666 582.028 27.5093 580.47 29.8421C578.911 32.175 576.696 33.9933 574.104 35.067C571.512 36.1408 568.66 36.4218 565.908 35.8745C563.156 35.3272 560.629 33.9762 558.645 31.9923C556.661 30.0084 555.31 27.4808 554.763 24.7291C554.215 21.9774 554.496 19.1252 555.57 16.5332C556.644 13.9412 558.462 11.7258 560.795 10.1672C563.128 8.6086 565.87 7.77681 568.676 7.77701C572.438 7.77701 576.046 9.27135 578.706 11.9313C581.366 14.5913 582.861 18.1991 582.861 21.961" fill="white"/>
<path d="M569.083 18.683C568.761 18.866 568.641 18.596 568.731 18.321C568.786 18.1653 568.885 18.0289 569.015 17.9278C569.146 17.8267 569.302 17.7654 569.467 17.751C569.544 17.7412 569.622 17.7469 569.697 17.7676C569.772 17.7883 569.842 17.8236 569.904 17.8716C569.965 17.9196 570.016 17.9793 570.054 18.0471C570.092 18.115 570.116 18.1897 570.125 18.267C570.131 18.3686 570.098 18.4687 570.032 18.5467C569.967 18.6248 569.874 18.6749 569.773 18.687C569.484 18.74 569.385 18.514 569.084 18.687" fill="#E34D32"/>
<path d="M565.811 21.079C565.567 21.117 565.511 20.985 565.646 20.832C565.797 20.6548 565.989 20.5174 566.205 20.432C566.424 20.357 566.642 20.571 566.467 20.776C566.289 20.9495 566.058 21.0574 565.811 21.082" fill="#E34D32"/>
<path d="M580.039 24.408C579.869 24.408 579.794 24.292 579.914 24.142C580.264 23.6738 580.511 23.1366 580.638 22.566C580.71 22.119 580.438 22.089 580.095 22.104C579.304 22.1418 578.523 22.3017 577.78 22.578C577.531 22.678 577.523 22.573 577.629 22.35C577.773 22.0274 577.877 21.6881 577.937 21.34C577.981 21.051 577.767 20.84 577.437 20.866C576.517 20.9288 575.616 21.1617 574.78 21.553C574.339 21.7754 573.92 22.0407 573.531 22.345C573.424 22.426 573.284 22.42 573.292 22.273C573.301 22.1 572.714 22.536 572.692 22.749C572.676 23.169 572.638 23.5879 572.579 24.004C572.508 24.239 572.914 24.431 572.968 24.221C573.045 23.9379 573.192 23.6787 573.395 23.467C573.817 23.0388 574.297 22.6719 574.821 22.377C575.377 22.0381 575.991 21.8032 576.631 21.684C576.904 21.64 577.031 21.67 576.993 21.91C576.852 22.71 575.819 23.572 575.438 23.894C575.138 24.146 575.438 24.304 575.676 24.174C576.176 23.902 577.053 23.514 577.447 23.348C578.138 23.0874 578.852 22.8922 579.579 22.765C579.856 22.719 579.868 22.823 579.779 23.005C579.562 23.4831 579.236 23.9035 578.826 24.232C578.643 24.3817 578.424 24.4813 578.191 24.521C578.006 24.554 578.123 24.744 579.101 24.647C580.079 24.55 580.237 24.409 580.038 24.409" fill="#E34D32"/>
<path d="M582.203 24.538C580.371 24.3093 578.513 24.3802 576.703 24.748C575.246 25.032 573.85 25.5739 572.583 26.348C572.452 26.427 572.359 26.328 572.392 26.156C573.34 23.7973 573.567 21.2106 573.044 18.723C572.96 18.2032 572.775 17.705 572.498 17.2571C572.221 16.8092 571.859 16.4204 571.431 16.1128C571.004 15.8053 570.52 15.5852 570.008 15.4651C569.495 15.345 568.964 15.3273 568.444 15.413C567.644 15.4906 566.883 15.7989 566.255 16.3003C565.626 16.8018 565.157 17.4749 564.903 18.238C564.733 18.672 564.73 19.006 564.493 19.273C563.431 19.9471 562.409 20.6816 561.431 21.473C560.982 21.906 561.01 22.466 561.439 22.673C561.904 22.7857 562.39 22.7701 562.846 22.628C563.254 22.6449 563.656 22.7312 564.035 22.883C564.167 22.904 564.301 22.9137 564.435 22.912C563.596 23.7556 562.907 24.7364 562.398 25.812C562.378 25.9479 562.393 26.0867 562.44 26.2155C562.488 26.3444 562.567 26.4593 562.67 26.5495C562.774 26.6398 562.898 26.7026 563.033 26.7323C563.167 26.7619 563.306 26.7573 563.438 26.719C564.719 26.155 565.895 25.3773 566.915 24.419C567.233 24.156 567.51 23.983 567.555 24.419C567.655 25.0798 567.587 25.7551 567.357 26.3826C567.127 27.01 566.742 27.5694 566.239 28.009C564.633 29.322 563.629 30.801 563.693 32.63C563.705 32.941 563.819 33.076 564.07 32.977C564.22 32.919 564.489 32.677 564.716 32.558C564.943 32.439 564.935 32.658 564.804 32.948C564.527 33.6322 564.385 34.3637 564.387 35.102C564.379 35.3586 564.392 35.6155 564.426 35.87C564.465 35.9714 564.527 36.0627 564.607 36.1369C564.686 36.2112 564.781 36.2666 564.885 36.299C565.332 36.483 565.446 36.313 565.405 36.056C565.327 35.4083 565.327 34.7536 565.405 34.106C565.559 33.2821 565.85 32.49 566.267 31.763C566.56 31.275 566.361 31.054 565.902 31.238C565.57 31.372 565.276 31.568 565.102 31.638C564.881 31.733 564.758 31.648 564.793 31.369C564.854 30.869 565.362 29.897 566.9 28.624C567.515 28.0199 567.975 27.2755 568.239 26.4548C568.503 25.634 568.564 24.7614 568.416 23.912C568.352 23.5707 568.368 23.2192 568.462 22.885C568.631 22.4256 568.643 21.9233 568.498 21.456C568.35 21.1032 568.126 20.7876 567.841 20.532C567.681 20.3596 567.564 20.1523 567.499 19.9266C567.433 19.7009 567.421 19.4631 567.464 19.232C567.524 18.653 567.175 18.542 566.829 18.891C566.573 19.147 566.121 19.603 565.674 19.499C565.227 19.395 565.501 18.788 565.695 18.339C565.947 17.7687 566.335 17.2695 566.827 16.8857C567.318 16.5019 567.896 16.2454 568.51 16.139C570.723 15.846 571.81 17.308 572.197 18.982C572.847 21.771 571.955 24.619 571.097 26.863C570.745 27.6968 570.564 28.5923 570.562 29.4972C570.561 30.4021 570.74 31.2981 571.089 32.133C571.382 32.726 571.778 32.677 571.62 31.871C571.471 31.2048 571.463 30.5147 571.597 29.8453C571.731 29.1759 572.005 28.5421 572.399 27.985C573.099 27.126 574.399 26.291 576.924 25.624C578.546 25.2313 580.229 25.1502 581.881 25.385C582.664 25.524 583.187 25.785 583.299 25.364C583.436 24.841 582.994 24.634 582.199 24.533L582.203 24.538ZM567.544 21.945C567.567 21.763 567.732 21.727 567.775 21.922C567.812 22.1383 567.793 22.3604 567.722 22.5679C567.651 22.7754 567.529 22.9617 567.367 23.11C566.334 23.9862 565.255 24.8061 564.134 25.566C563.441 26.028 563.259 25.766 563.434 25.366C563.569 25.051 565.017 23.422 565.354 23.018C565.554 22.775 565.783 22.857 565.685 23.041C565.527 23.3392 565.348 23.6263 565.15 23.9C564.991 24.121 565.15 24.218 565.356 24.084C565.964 23.7139 566.536 23.2884 567.066 22.813C567.32 22.5916 567.489 22.2885 567.544 21.956V21.945ZM565.497 20.108C565.696 20.1561 565.904 20.1516 566.101 20.095C566.298 20.0383 566.477 19.9315 566.62 19.785C566.763 19.654 566.945 19.709 566.952 19.965C566.961 20.3074 567.095 20.6348 567.329 20.885C567.364 20.9143 567.392 20.9519 567.409 20.9945C567.426 21.0371 567.432 21.0833 567.427 21.1288C567.422 21.1744 567.405 21.2179 567.379 21.2555C567.352 21.293 567.317 21.3235 567.276 21.344C566.519 21.8045 565.697 22.1493 564.838 22.367C564.342 22.3161 563.856 22.1956 563.394 22.009C563.008 21.9621 562.617 21.9986 562.246 22.116C561.946 22.209 561.905 21.943 562.122 21.734C562.913 21.0568 563.784 20.4804 564.717 20.018C564.846 19.9781 564.982 19.9655 565.116 19.981C565.25 19.9965 565.38 20.0398 565.496 20.108" fill="#E34D32"/>
<path d="M563.864 14.258C563.797 14.286 563.759 14.285 563.72 14.258C563.425 13.9069 563.189 13.5104 563.02 13.084C562.741 12.5458 562.517 11.981 562.351 11.398C562.343 11.3741 562.342 11.3481 562.35 11.324C562.358 11.3 562.374 11.2792 562.395 11.265C562.502 11.202 562.642 11.128 562.769 11.065C563.724 10.594 564.525 10.729 565.178 12.053C565.293 12.2136 565.367 12.3996 565.395 12.5951C565.423 12.7906 565.404 12.99 565.338 13.1764C565.273 13.3628 565.164 13.5306 565.02 13.6658C564.875 13.801 564.701 13.8995 564.511 13.953C564.277 14.068 563.941 14.229 563.862 14.263L563.864 14.258ZM564.527 12.256C564.149 11.488 563.668 11.297 563.269 11.494C563.227 11.5145 563.195 11.5503 563.179 11.594C563.223 11.9681 563.353 12.327 563.558 12.643C563.798 13.129 563.965 13.421 564.098 13.467C564.154 13.4813 564.213 13.473 564.263 13.444C564.693 13.232 564.822 12.857 564.526 12.258" fill="#E34D32"/>
<path d="M567.425 9.65001C567.497 9.63069 567.57 9.61631 567.644 9.60699C567.731 9.59401 567.82 9.58633 567.908 9.584C567.929 9.58212 567.949 9.5867 567.967 9.59709C567.985 9.60748 567.999 9.62317 568.008 9.642C568.207 10.1878 568.335 10.7567 568.39 11.335C568.52 12.295 568.35 12.935 567.456 13.061C566.685 13.166 566.243 12.72 566.101 11.695C566.01 11.1092 565.988 10.5148 566.036 9.92399C566.037 9.9033 566.044 9.88337 566.056 9.86667C566.069 9.84996 566.086 9.83721 566.105 9.83C566.168 9.817 566.273 9.798 566.375 9.784C566.477 9.77 566.562 9.763 566.626 9.759C566.636 9.75812 566.647 9.7595 566.657 9.76303C566.667 9.76656 566.676 9.77216 566.683 9.77946C566.691 9.78677 566.696 9.7956 566.7 9.80536C566.704 9.81511 566.706 9.82555 566.705 9.836C566.694 10.3953 566.718 10.9548 566.778 11.511C566.878 12.211 567.078 12.449 567.383 12.411C567.714 12.366 567.811 12.101 567.715 11.397C567.635 10.8448 567.523 10.2979 567.379 9.759C567.368 9.708 567.372 9.672 567.425 9.659V9.65001Z" fill="#E34D32"/>
<path d="M569.311 11.469C569.489 10.392 570.062 9.58101 570.867 9.71401C571.002 9.74184 571.129 9.79743 571.241 9.87723C571.353 9.95703 571.447 10.0593 571.517 10.1775C571.587 10.2956 571.632 10.4272 571.648 10.5636C571.665 10.7001 571.653 10.8385 571.613 10.97C571.607 11.0203 571.589 11.0685 571.561 11.1107C571.533 11.1528 571.495 11.1879 571.451 11.213C571.316 11.3159 571.153 11.3761 570.984 11.386C570.942 11.379 570.926 11.346 570.935 11.286C570.944 11.226 570.966 11.154 570.976 11.094C571.034 10.758 571.011 10.361 570.724 10.314C570.403 10.261 570.139 10.704 570.024 11.414C569.924 12.047 570.055 12.357 570.447 12.421C570.617 12.4391 570.789 12.402 570.937 12.315C571.085 12.2281 571.201 12.0959 571.268 11.938C571.275 11.9268 571.285 11.9177 571.297 11.9116C571.309 11.9055 571.323 11.9025 571.336 11.903C571.424 11.917 571.47 12.089 571.428 12.339C571.41 12.4737 571.363 12.603 571.29 12.7179C571.218 12.8327 571.121 12.9305 571.007 13.0045C570.893 13.0786 570.764 13.127 570.63 13.1466C570.495 13.1662 570.358 13.1564 570.228 13.118C569.482 12.993 569.148 12.418 569.309 11.461" fill="#E34D32"/>
<path d="M571.942 13.48C571.868 13.437 571.842 13.38 571.891 13.262C572.006 12.977 572.152 12.662 572.31 12.35C572.614 11.7582 572.953 11.1852 573.325 10.634C573.402 10.521 573.444 10.514 573.525 10.548C573.576 10.569 573.658 10.606 573.734 10.648C573.81 10.69 573.88 10.728 573.951 10.768C574.022 10.808 574.036 10.846 573.992 10.922C573.725 11.2722 573.476 11.6356 573.246 12.011C573.228 12.046 573.23 12.069 573.253 12.083C573.276 12.097 573.306 12.091 573.372 12.066C573.891 11.9686 574.355 11.6799 574.672 11.257C574.721 11.199 574.754 11.191 574.808 11.209C574.89 11.2429 574.97 11.2816 575.048 11.325C575.128 11.368 575.206 11.411 575.256 11.441C575.267 11.4455 575.277 11.4524 575.285 11.4611C575.293 11.4697 575.299 11.4801 575.303 11.4914C575.307 11.5027 575.308 11.5146 575.307 11.5265C575.306 11.5383 575.302 11.5498 575.296 11.56C575.003 11.9961 574.572 12.3214 574.072 12.484C574.043 12.4921 574.018 12.5106 574.002 12.536C573.996 12.5491 573.993 12.5632 573.993 12.5775C573.993 12.5918 573.996 12.606 574.002 12.619C574.104 12.8966 574.148 13.1922 574.13 13.4874C574.113 13.7826 574.035 14.0711 573.902 14.335C573.863 14.412 573.812 14.435 573.75 14.408C573.674 14.3793 573.601 14.3459 573.529 14.308C573.457 14.271 573.382 14.228 573.308 14.185C573.234 14.142 573.233 14.085 573.265 13.997C573.565 13.176 573.511 12.74 573.256 12.611C573.146 12.553 572.956 12.601 572.841 12.83C572.7 13.106 572.594 13.518 572.525 13.654C572.52 13.6684 572.513 13.6815 572.502 13.6926C572.492 13.7037 572.479 13.7125 572.466 13.7184C572.452 13.7242 572.437 13.7271 572.422 13.7267C572.406 13.7263 572.392 13.7226 572.378 13.716C572.316 13.688 572.237 13.653 572.157 13.616C572.077 13.579 571.988 13.525 571.933 13.491" fill="#E34D32"/>
</svg>
