<svg width="353" height="45" viewBox="0 0 353 45" fill="none" xmlns="http://www.w3.org/2000/svg">
<path d="M52.8261 21.676C52.8261 25.172 51.7895 28.5895 49.8472 31.4963C47.9049 34.4031 45.1443 36.6686 41.9144 38.0065C38.6846 39.3443 35.1305 39.6944 31.7017 39.0124C28.2729 38.3303 25.1233 36.6469 22.6513 34.1748C20.1793 31.7028 18.4958 28.5532 17.8138 25.1244C17.1317 21.6956 17.4818 18.1416 18.8196 14.9117C20.1575 11.6818 22.4231 8.92121 25.3299 6.97894C28.2367 5.03668 31.6541 4 35.1501 4C39.8381 4 44.3341 5.86228 47.6489 9.17718C50.9638 12.4921 52.8261 16.988 52.8261 21.676Z" fill="#E34D32"/>
<path d="M49.3341 21.675C49.3343 24.4806 48.5025 27.2233 46.9439 29.5561C45.3853 31.889 43.17 33.7073 40.5779 34.781C37.9859 35.8548 35.1337 36.1358 32.382 35.5885C29.6303 35.0412 27.1027 33.6902 25.1188 31.7063C23.1349 29.7224 21.7839 27.1948 21.2366 24.4431C20.6893 21.6914 20.9703 18.8392 22.0441 16.2472C23.1178 13.6552 24.9361 11.4398 27.269 9.88118C29.6018 8.32259 32.3445 7.4908 35.1501 7.491C38.912 7.491 42.5199 8.98534 45.1801 11.6453C47.8402 14.3053 49.3348 17.9131 49.3351 21.675" fill="white"/>
<path d="M45.3881 22.171C45.5111 21.362 45.4591 20.915 45.2151 20.722C45.0171 20.5816 44.7782 20.5107 44.5356 20.5203C44.293 20.5299 44.0605 20.6194 43.8741 20.775C43.4631 21.0564 42.9718 21.1968 42.4741 21.175C41.9989 21.1578 41.5325 21.0424 41.1041 20.836C40.5559 20.5687 40.0219 20.2733 39.5041 19.951C39.2331 19.785 39.1911 19.707 39.1841 19.659C39.1891 19.6145 39.2009 19.571 39.2191 19.53C39.283 19.3779 39.3054 19.2116 39.2841 19.048C39.2586 18.8846 39.1701 18.7377 39.0376 18.6388C38.905 18.5399 38.739 18.4969 38.5751 18.519C38.1927 18.5246 37.8107 18.4911 37.4351 18.419C37.4002 18.4115 37.3694 18.391 37.349 18.3617C37.3285 18.3324 37.32 18.2964 37.3251 18.261C37.4877 17.65 37.7001 17.0533 37.9601 16.477C38.0954 16.2536 38.1494 15.9904 38.1129 15.7319C38.0765 15.4733 37.9519 15.2352 37.7601 15.058C37.5445 14.9456 37.3044 14.8885 37.0614 14.8916C36.8183 14.8948 36.5797 14.9581 36.3671 15.076C35.8122 15.381 35.215 15.6018 34.5951 15.731C34.2811 15.6681 33.9707 15.5887 33.6651 15.493C32.992 15.2749 32.3 15.1202 31.5981 15.031C30.4791 15 29.6341 15.085 26.2871 16.041C25.6473 16.2855 24.9499 16.337 24.2811 16.189C23.7241 16.057 22.4421 15.644 22.1231 15.538C21.6091 15.365 21.3591 16.438 21.6411 16.529C22.0981 16.674 23.0931 16.907 23.7871 17.062C24.691 17.2818 25.6374 17.2545 26.5271 16.983C29.8501 16.014 30.6751 15.967 31.6361 16.007C32.1658 16.067 32.6867 16.1888 33.1881 16.37C33.6926 16.5571 34.22 16.6755 34.7561 16.722H34.7911C35.5053 16.5847 36.1878 16.3162 36.8041 15.93C36.8484 15.8955 36.9006 15.8727 36.956 15.8636C37.0114 15.8546 37.0681 15.8595 37.1211 15.878C37.1831 15.918 37.1531 16.013 37.1431 16.041C37.1141 16.119 37.0551 16.25 36.9791 16.416C36.6873 16.9853 36.4714 17.5905 36.3371 18.216C36.3369 18.22 36.3358 18.2238 36.3339 18.2273C36.332 18.2307 36.3293 18.2337 36.3261 18.236C36.3211 18.2396 36.3154 18.2422 36.3094 18.2436C36.3034 18.2449 36.2972 18.2451 36.2911 18.244C36.0321 18.21 35.5001 18.117 35.2911 18.071C35.0418 17.9281 34.8122 17.7533 34.6081 17.551L34.5761 17.523C34.3615 17.3485 34.1131 17.2201 33.8466 17.146C33.58 17.0718 33.3011 17.0534 33.0271 17.092C32.6651 17.171 29.9861 18.192 29.6151 18.957C29.5058 19.1883 29.4665 19.4465 29.502 19.6999C29.5375 19.9533 29.6464 20.1907 29.8151 20.383C30.1819 20.9033 30.6486 21.3452 31.1881 21.683C31.5314 21.7649 31.8804 21.8204 32.2321 21.849C32.6061 21.892 32.9931 21.936 33.3101 22.003C33.8396 22.1398 34.3434 22.3613 34.8021 22.659C35.896 23.1446 37.1313 23.2063 38.2681 22.832C38.3816 22.8119 38.4894 22.7676 38.5842 22.702C38.6789 22.6364 38.7584 22.5511 38.8171 22.452C38.8465 22.3908 38.8618 22.3239 38.8618 22.256C38.8618 22.1882 38.8465 22.1211 38.8171 22.06C38.7422 21.9171 38.6566 21.7801 38.5611 21.65C38.4191 21.45 38.1611 21.062 38.1941 20.933C38.22 20.8741 38.2583 20.8214 38.3062 20.7785C38.3542 20.7355 38.4107 20.7033 38.4721 20.684C38.5727 20.6343 38.6888 20.6264 38.7951 20.662C39.3631 20.996 40.1441 21.403 40.5161 21.59C40.995 21.8408 41.5097 22.0162 42.0421 22.11C42.4696 22.1639 42.9025 22.1572 43.3281 22.09C43.5428 22.0408 43.7464 21.9515 43.9281 21.827C44.2431 21.596 44.3841 21.578 44.4441 21.601C44.5061 21.659 44.4441 22.046 44.4281 22.173L44.4221 22.218C44.3768 22.742 44.3635 23.2683 44.3821 23.794C44.3782 23.8714 44.3564 23.9468 44.3184 24.0143C44.2804 24.0818 44.2273 24.1395 44.1631 24.183C43.8823 24.3251 43.5851 24.4322 43.2781 24.502C42.984 24.5822 42.6855 24.6453 42.3841 24.691C42.0371 24.741 41.7161 24.768 41.3051 24.791H41.2311C40.7781 24.819 40.3501 24.846 40.3501 25.156C40.3509 25.2095 40.3623 25.2622 40.3838 25.3112C40.4052 25.3601 40.4363 25.4043 40.4751 25.441C40.858 25.6788 41.3085 25.7842 41.7571 25.741C41.7891 25.741 41.9881 25.736 42.4381 25.72C42.6861 25.711 42.9381 25.702 43.0551 25.699C43.0774 25.6978 43.0998 25.7005 43.1211 25.707C43.1287 25.8032 43.117 25.8999 43.0866 25.9914C43.0562 26.083 43.0077 26.1675 42.9441 26.24C42.339 26.7612 41.5826 27.0746 40.7861 27.134C40.5606 27.1845 40.3494 27.285 40.1679 27.4279C39.9863 27.5709 39.8391 27.7527 39.7371 27.96C39.4468 28.4422 39.0524 28.8533 38.5826 29.1632C38.1128 29.4731 37.5796 29.6739 37.0221 29.751C36.0948 29.8837 35.1494 29.7964 34.2621 29.496C33.6502 29.2341 33.062 28.92 32.5041 28.557C32.4593 28.5195 32.4052 28.4947 32.3475 28.4852C32.2898 28.4757 32.2306 28.4818 32.1761 28.503C32.0101 28.576 32.0161 28.777 32.0181 28.843C32.0651 29.3854 32.2223 29.9125 32.4801 30.392C32.7801 31.041 33.0131 31.554 32.5601 32.006C32.3973 32.1607 32.2122 32.2901 32.0111 32.39C31.5851 32.621 31.1831 32.845 31.0391 33.941C30.9911 34.308 30.9191 34.733 30.8191 35.174C30.6801 35.793 30.5451 36.354 30.4041 36.968C30.3561 37.178 31.3041 37.533 31.3521 37.315C31.4921 36.704 31.6261 35.94 31.6991 35.467C31.7661 35.047 31.8361 34.642 31.8721 34.277C31.9211 33.761 32.5401 33.402 33.0011 33.177C33.4293 32.9651 33.8367 32.7137 34.2181 32.426C34.5261 32.1721 34.7935 31.8726 35.0111 31.538C35.0693 31.4356 35.1513 31.3487 35.2502 31.2846C35.349 31.2206 35.4619 31.1812 35.5791 31.17H35.6631C36.3272 31.1516 36.9866 31.0532 37.6271 30.877C38.9041 30.4982 40.0036 29.6754 40.7271 28.557C40.8081 28.42 40.9271 28.21 41.1081 28.179C41.6674 28.0868 42.2114 27.9186 42.7251 27.679C43.2372 27.4433 43.6697 27.0639 43.9701 26.587C44.1484 26.2497 44.2182 25.8655 44.1701 25.487C44.1568 25.4271 44.1663 25.3644 44.1966 25.311C44.2268 25.2576 44.2759 25.2173 44.3341 25.198C44.6635 25.1005 44.9664 24.9296 45.2201 24.698C45.314 24.5592 45.3775 24.402 45.4065 24.2369C45.4354 24.0718 45.4292 23.9025 45.3881 23.74C45.3091 23.223 45.3091 22.697 45.3881 22.18V22.171ZM37.9361 19.674C37.6729 19.8235 37.4188 19.9884 37.1751 20.168C36.9415 20.3216 36.6987 20.4609 36.4481 20.585C36.2788 20.6709 36.0868 20.7017 35.8991 20.673C34.9588 20.5342 34.0097 20.463 33.0591 20.46C32.5701 20.46 32.1161 20.481 31.7101 20.522C31.2702 20.4307 30.8679 20.2095 30.5551 19.887C30.4551 19.759 30.3241 19.461 30.4801 19.322C30.9485 18.9854 31.4514 18.6995 31.9801 18.469C32.3894 18.2624 32.8173 18.095 33.2581 17.969C33.4042 17.9435 33.5539 17.9472 33.6986 17.9798C33.8433 18.0124 33.9801 18.0733 34.1011 18.159C34.2011 18.242 34.3781 18.394 34.4611 18.472C34.6359 18.6487 34.8472 18.7853 35.0801 18.872C35.2623 18.9112 35.4466 18.9399 35.6321 18.958C35.7781 18.976 35.9321 18.995 36.0741 19.016L36.1741 19.032C36.9281 19.147 37.8211 19.28 38.0281 19.281C38.2351 19.282 38.2341 19.321 38.2391 19.339C38.2531 19.391 38.1971 19.539 37.9391 19.676" fill="#E34D32"/>
<path d="M30.3801 13.965C30.367 13.973 30.3524 13.9784 30.3372 13.9807C30.3219 13.983 30.3064 13.9822 30.2915 13.9784C30.2765 13.9745 30.2625 13.9678 30.2503 13.9584C30.238 13.9491 30.2278 13.9374 30.2201 13.924C29.9511 13.5558 29.7133 13.1658 29.5091 12.758C29.2324 12.232 29.0128 11.6778 28.8541 11.105C28.8467 11.0797 28.8485 11.0526 28.8591 11.0284C28.8697 11.0043 28.8885 10.9846 28.9121 10.973C29.0281 10.905 29.2011 10.812 29.3741 10.722C29.5341 10.6091 29.716 10.531 29.9081 10.4927C30.1002 10.4545 30.2981 10.4569 30.4891 10.5C30.7513 10.6102 30.9592 10.8198 31.0671 11.083C31.2128 11.3529 31.2624 11.6642 31.2079 11.966C31.1534 12.2678 30.998 12.5421 30.7671 12.744C30.5321 13.016 30.4991 13.102 30.5721 13.244C30.663 13.3773 30.7608 13.5058 30.8651 13.629C30.8891 13.676 30.8721 13.709 30.8291 13.736C30.7861 13.763 30.6861 13.814 30.5941 13.861C30.5221 13.897 30.4461 13.937 30.3791 13.966L30.3801 13.965ZM30.5971 12.066C30.6527 11.8215 30.6171 11.5651 30.4971 11.345C30.3401 11.038 30.1281 10.887 29.7781 11.065C29.6631 11.123 29.6231 11.165 29.6051 11.217C29.6463 11.5985 29.7764 11.965 29.9851 12.287C30.0851 12.487 30.1511 12.576 30.2351 12.532C30.4096 12.4257 30.5397 12.2598 30.6011 12.065" fill="#E34D32"/>
<path d="M33.6372 12.833C32.7192 12.99 32.3372 12.462 32.2122 11.726C32.0252 10.638 32.2602 9.548 33.0432 9.415C33.8262 9.282 34.4102 10.23 34.5952 11.315C34.7222 12.055 34.5372 12.68 33.6372 12.835V12.833ZM33.9182 11.312C33.7892 10.561 33.4612 9.983 33.1492 10.036C32.8162 10.094 32.7232 10.764 32.8492 11.487C32.9492 12.051 33.1772 12.238 33.5222 12.177C33.8672 12.116 34.0152 11.867 33.9222 11.31" fill="#E34D32"/>
<path d="M36.0972 9.32799C36.2442 9.32799 36.7422 9.37899 36.9112 9.40399C37.6112 9.50399 38.0842 9.79799 37.9852 10.471C37.9529 10.6675 37.8719 10.8528 37.7496 11.0099C37.6273 11.1671 37.4677 11.2912 37.2852 11.371C37.2751 11.3761 37.2661 11.3833 37.2588 11.3921C37.2516 11.4009 37.2463 11.411 37.2432 11.422C37.2409 11.4319 37.2418 11.4422 37.2458 11.4516C37.2497 11.4609 37.2565 11.4688 37.2652 11.474C37.4369 11.6526 37.5704 11.8643 37.6574 12.0963C37.7444 12.3282 37.7832 12.5755 37.7712 12.823C37.7699 12.8366 37.7658 12.8499 37.7591 12.8619C37.7525 12.8739 37.7435 12.8844 37.7326 12.8927C37.7217 12.901 37.7092 12.9071 37.6959 12.9104C37.6826 12.9137 37.6687 12.9142 37.6552 12.912C37.5972 12.912 37.4942 12.892 37.3882 12.877C37.2992 12.864 37.2102 12.851 37.1442 12.837C37.0782 12.823 37.0382 12.79 37.0392 12.729C37.0592 12.061 36.8222 11.677 36.5192 11.629C36.3122 11.598 36.2082 11.687 36.1732 11.918C36.1422 12.125 36.1622 12.553 36.1532 12.608C36.1442 12.663 36.1132 12.673 36.0622 12.67C35.9932 12.664 35.9002 12.655 35.7982 12.64C35.7142 12.628 35.6302 12.61 35.5542 12.595C35.4962 12.582 35.4432 12.561 35.4472 12.473C35.4608 12.0623 35.4972 11.6527 35.5562 11.246C35.6486 10.6212 35.7901 10.0046 35.9792 9.40199C35.9962 9.34399 36.0372 9.327 36.0982 9.327L36.0972 9.32799ZM36.3372 11.167C36.5618 11.1721 36.7811 11.0979 36.9564 10.9574C37.1318 10.817 37.2521 10.6193 37.2962 10.399C37.3422 10.088 37.1572 9.933 36.8662 9.89C36.7689 9.86319 36.6652 9.87132 36.5732 9.91299C36.3988 10.2244 36.2963 10.5708 36.2732 10.927C36.2462 11.108 36.2732 11.158 36.3412 11.166" fill="#E34D32"/>
<path d="M38.3842 13.181C38.3102 13.138 38.2842 13.081 38.3312 12.963C38.4432 12.677 38.5892 12.363 38.7482 12.049C39.0493 11.4563 39.386 10.8822 39.7562 10.33C39.8322 10.214 39.8752 10.209 39.9562 10.243C40.0082 10.264 40.0892 10.301 40.1662 10.343C40.2432 10.385 40.3122 10.423 40.3832 10.463C40.4542 10.503 40.4692 10.54 40.4252 10.616C40.1596 10.9669 39.9119 11.331 39.6832 11.707C39.6662 11.742 39.6672 11.765 39.6902 11.779C39.7132 11.793 39.7442 11.786 39.8092 11.761C40.3288 11.6623 40.7926 11.3726 41.1092 10.949C41.1582 10.891 41.1912 10.883 41.2442 10.901C41.3261 10.9356 41.4062 10.9743 41.4842 11.017C41.5642 11.057 41.6422 11.102 41.6932 11.133C41.7442 11.164 41.7582 11.205 41.7342 11.249C41.4417 11.6865 41.0117 12.0141 40.5122 12.18C40.4831 12.1884 40.4582 12.2073 40.4422 12.233C40.4361 12.2462 40.433 12.2605 40.433 12.275C40.433 12.2895 40.4361 12.3038 40.4422 12.317C40.5457 12.5939 40.591 12.8892 40.5754 13.1845C40.5597 13.4797 40.4834 13.7685 40.3512 14.033C40.3122 14.111 40.2622 14.133 40.1992 14.107C40.1238 14.0777 40.05 14.0444 39.9782 14.007C39.9052 13.97 39.8312 13.927 39.7572 13.884C39.6832 13.841 39.6812 13.784 39.7142 13.696C40.0142 12.874 39.9552 12.439 39.7002 12.31C39.5892 12.252 39.4002 12.301 39.2852 12.531C39.1452 12.807 39.0412 13.219 38.9722 13.355C38.9675 13.3693 38.9597 13.3825 38.9495 13.3936C38.9392 13.4047 38.9267 13.4135 38.9128 13.4194C38.8989 13.4252 38.8839 13.4281 38.8688 13.4277C38.8537 13.4272 38.8388 13.4236 38.8252 13.417C38.7622 13.39 38.6842 13.355 38.6042 13.317C38.5242 13.279 38.4342 13.226 38.3792 13.193" fill="#E34D32"/>
<path d="M122.352 21.676C122.352 25.172 121.315 28.5895 119.373 31.4963C117.431 34.4031 114.67 36.6686 111.44 38.0065C108.21 39.3443 104.656 39.6944 101.228 39.0124C97.7988 38.3303 94.6492 36.6469 92.1772 34.1748C89.7052 31.7028 88.0217 28.5532 87.3396 25.1244C86.6576 21.6956 87.0077 18.1416 88.3455 14.9117C89.6834 11.6818 91.9489 8.92121 94.8557 6.97894C97.7626 5.03668 101.18 4 104.676 4C109.364 4 113.86 5.86228 117.175 9.17718C120.49 12.4921 122.352 16.988 122.352 21.676Z" fill="#E34D32"/>
<path d="M118.86 21.675C118.86 24.4803 118.028 27.2227 116.47 29.5552C114.911 31.8878 112.696 33.7057 110.104 34.7793C107.512 35.8528 104.66 36.1337 101.909 35.5865C99.1574 35.0392 96.63 33.6883 94.6463 31.7046C92.6627 29.7209 91.3118 27.1936 90.7645 24.4422C90.2172 21.6907 90.4981 18.8388 91.5716 16.247C92.6452 13.6552 94.4632 11.44 96.7957 9.88142C99.1283 8.32287 101.871 7.491 104.676 7.491C108.438 7.491 112.046 8.98537 114.706 11.6454C117.366 14.3054 118.86 17.9132 118.86 21.675Z" fill="white"/>
<path d="M100.32 13.712C100.308 13.719 100.294 13.7233 100.279 13.7247C100.265 13.7261 100.251 13.7246 100.237 13.7202C100.223 13.7158 100.211 13.7086 100.2 13.6991C100.189 13.6896 100.18 13.678 100.174 13.665C99.9554 13.265 99.7574 12.853 99.5801 12.429C99.3465 11.8877 99.1543 11.3294 99.0051 10.759C98.9962 10.7309 98.9985 10.7004 99.0113 10.6738C99.0241 10.6473 99.0466 10.6266 99.0741 10.616C99.1951 10.551 99.4551 10.431 99.7151 10.316C100.038 10.1166 100.425 10.0489 100.796 10.127C100.869 10.1596 100.934 10.2065 100.989 10.2649C101.043 10.3233 101.085 10.392 101.112 10.467C101.164 10.5914 101.187 10.7263 101.178 10.861C101.169 10.9957 101.129 11.1265 101.061 11.243C101.041 11.284 101.03 11.313 101.041 11.337C101.052 11.361 101.068 11.369 101.099 11.379C101.272 11.4021 101.436 11.4705 101.575 11.5773C101.713 11.684 101.821 11.8253 101.887 11.987C102.15 12.606 101.863 13.068 100.813 13.515C100.647 13.585 100.472 13.655 100.32 13.715V13.712ZM100.56 10.802C100.46 10.577 100.229 10.602 99.9821 10.702C99.8451 10.76 99.7301 10.818 99.7051 10.891C99.7321 11.1463 99.806 11.3945 99.9231 11.623C99.9561 11.703 99.9931 11.745 100.056 11.718C100.238 11.6527 100.39 11.5229 100.483 11.3533C100.576 11.1836 100.604 10.9857 100.561 10.797L100.56 10.802ZM101.241 12.158C101.125 11.893 100.841 11.748 100.671 11.822C100.538 11.8974 100.421 11.9968 100.324 12.115C100.277 12.1599 100.246 12.2198 100.238 12.2846C100.23 12.3494 100.245 12.4149 100.28 12.47C100.33 12.6383 100.427 12.7893 100.558 12.906C100.627 12.938 100.674 12.932 100.847 12.859C101.147 12.73 101.38 12.495 101.237 12.159" fill="#E34D32"/>
<path d="M102.948 12.767C102.854 12.772 102.801 12.76 102.786 12.656C102.758 12.456 102.731 12.236 102.709 12.006C102.619 11.1939 102.609 10.375 102.68 9.561C102.68 9.53145 102.69 9.50273 102.708 9.47937C102.726 9.45601 102.751 9.43934 102.78 9.43201C102.923 9.40501 103.221 9.37101 103.531 9.34001C103.878 9.30501 104.247 9.27201 104.455 9.26901C104.513 9.26901 104.539 9.29201 104.542 9.32701C104.529 9.50287 104.499 9.67704 104.452 9.84702C104.448 9.86256 104.439 9.87649 104.427 9.88689C104.415 9.89728 104.4 9.90362 104.384 9.90501C104.345 9.90412 104.305 9.89773 104.268 9.88602C104.048 9.84275 103.822 9.83431 103.599 9.86101C103.438 9.87701 103.368 9.91002 103.318 9.97202C103.247 10.1779 103.227 10.3978 103.26 10.613C103.27 10.713 103.308 10.749 103.393 10.74C103.542 10.725 103.74 10.631 104.019 10.603C104.202 10.584 104.351 10.603 104.359 10.691C104.355 10.8453 104.336 10.9987 104.301 11.149C104.289 11.203 104.269 11.214 104.235 11.217C104.076 11.1947 103.916 11.1857 103.756 11.19C103.409 11.225 103.294 11.355 103.326 11.663C103.369 12.093 103.439 12.147 103.681 12.125C103.987 12.0978 104.285 12.0111 104.558 11.87C104.583 11.8522 104.61 11.839 104.64 11.831C104.664 11.831 104.687 11.839 104.705 11.877C104.777 12.0676 104.828 12.2654 104.858 12.467C104.864 12.532 104.826 12.575 104.75 12.587C104.487 12.627 104.177 12.662 103.879 12.696C103.526 12.731 103.186 12.757 102.937 12.773" fill="#E34D32"/>
<path d="M105.529 12.642C105.437 12.621 105.39 12.594 105.405 12.491C105.434 12.291 105.47 12.072 105.512 11.845C105.653 11.0401 105.873 10.2509 106.168 9.48899C106.176 9.45933 106.193 9.4332 106.218 9.41498C106.242 9.39676 106.273 9.38759 106.303 9.389C106.449 9.403 106.743 9.45298 107.05 9.50998C107.397 9.57398 107.75 9.64598 107.957 9.70198C108.015 9.71698 108.032 9.74599 108.025 9.78099C107.963 9.94537 107.886 10.1034 107.794 10.253C107.785 10.2658 107.773 10.2758 107.759 10.2818C107.745 10.2878 107.729 10.2896 107.714 10.287C107.679 10.2744 107.645 10.2572 107.614 10.236C107.415 10.1335 107.2 10.0623 106.979 10.025C106.93 10.008 106.878 10.0018 106.826 10.0066C106.774 10.0114 106.724 10.0272 106.679 10.053C106.554 10.2309 106.474 10.437 106.448 10.653C106.43 10.753 106.456 10.796 106.54 10.812C106.687 10.839 106.903 10.804 107.18 10.855C107.361 10.889 107.497 10.95 107.48 11.036C107.434 11.1829 107.372 11.3246 107.297 11.459C107.271 11.508 107.249 11.512 107.214 11.506C107.068 11.4409 106.916 11.3877 106.761 11.347C106.421 11.283 106.273 11.376 106.216 11.68C106.137 12.105 106.189 12.18 106.429 12.222C106.731 12.2815 107.041 12.2815 107.342 12.222C107.371 12.212 107.402 12.2072 107.432 12.208C107.457 12.208 107.476 12.229 107.481 12.27C107.497 12.473 107.491 12.6772 107.463 12.879C107.451 12.944 107.405 12.979 107.325 12.964C107.062 12.928 106.755 12.876 106.459 12.825C106.113 12.76 105.776 12.689 105.535 12.635" fill="#E34D32"/>
<path d="M108.084 13.286C108.057 13.2735 108.035 13.2516 108.023 13.2244C108.011 13.1972 108.009 13.1665 108.018 13.138C108.137 12.7051 108.301 12.2858 108.507 11.887C108.76 11.3441 109.07 10.8293 109.431 10.351C109.447 10.3313 109.47 10.3176 109.495 10.312C109.52 10.3064 109.546 10.3092 109.569 10.32C109.769 10.393 110.02 10.508 110.262 10.62C110.504 10.732 110.709 10.844 110.869 10.936C110.93 10.975 110.927 11.012 110.908 11.052C110.813 11.2328 110.69 11.3977 110.545 11.541C110.536 11.5498 110.524 11.5555 110.511 11.5573C110.498 11.5591 110.485 11.5569 110.474 11.551C110.449 11.5363 110.426 11.5185 110.405 11.498C110.289 11.3814 110.154 11.286 110.005 11.216C109.866 11.15 109.789 11.132 109.721 11.158C109.542 11.3266 109.405 11.5349 109.321 11.766C109.255 11.903 109.282 11.966 109.39 12.017C109.555 12.097 109.79 12.117 110.073 12.253C110.153 12.292 110.193 12.33 110.165 12.385C110.078 12.5604 109.972 12.7254 109.849 12.877C109.839 12.8897 109.824 12.8983 109.808 12.9012C109.792 12.9041 109.775 12.9012 109.761 12.893C109.692 12.859 109.52 12.743 109.292 12.634C109.107 12.545 108.984 12.544 108.903 12.713C108.817 12.9603 108.747 13.2132 108.696 13.47C108.672 13.521 108.625 13.528 108.552 13.502C108.52 13.491 108.417 13.447 108.321 13.402C108.225 13.357 108.13 13.302 108.097 13.286" fill="#E34D32"/>
<path d="M99.547 17.297C99.578 17.3314 99.6164 17.3583 99.6593 17.3758C99.7022 17.3932 99.7485 17.4007 99.7947 17.3976C99.841 17.3945 99.8859 17.381 99.9261 17.358C99.9663 17.335 100.001 17.3032 100.027 17.265C100.496 16.3841 101.272 15.7059 102.208 15.359C102.453 15.301 102.608 15.349 102.801 15.159C103.365 14.5929 104.106 14.238 104.901 14.154C106.062 14.3147 107.179 14.7115 108.181 15.32C108.573 15.5809 108.925 15.8968 109.227 16.258C109.349 16.416 109.595 16.653 109.805 16.538C109.892 16.4731 109.994 16.4311 110.101 16.4161C110.209 16.4011 110.319 16.4134 110.42 16.452C110.611 16.569 110.545 16.893 110.362 17.034C110.127 17.2537 109.984 17.5547 109.962 17.876C109.904 18.15 110.22 18.215 110.41 18.091C110.6 17.967 110.616 17.603 110.91 17.465C111.228 17.3761 111.555 17.3204 111.885 17.299C112.12 17.254 112.203 17.43 112.124 17.669C112.008 18.016 112.192 18.638 111.288 18.969C110.66 19.2 110.849 19.592 111.188 19.614C111.527 19.636 111.143 20.46 110.828 20.444C110.513 20.428 110.409 20.532 110.442 20.836C110.462 21.019 110.792 21.103 111.242 21.11C111.483 21.11 111.512 21.36 111.266 21.399C111.02 21.438 110.688 21.483 110.758 21.692C110.922 22.184 110.678 22.592 110.212 22.598C110.163 22.6075 110.117 22.6295 110.078 22.6621C110.04 22.6946 110.011 22.7365 109.993 22.7837C109.976 22.8309 109.971 22.8817 109.979 22.9313C109.987 22.981 110.008 23.0277 110.039 23.067C110.23 23.2928 110.404 23.5325 110.559 23.784C110.69 24.033 110.333 24.596 110.134 24.419C109.935 24.242 109.663 24.278 109.672 24.667C109.65 25.1283 109.801 25.5813 110.094 25.938C110.597 26.4307 110.979 27.0321 111.213 27.696C111.411 28.7821 111.304 29.9018 110.905 30.931C110.829 31.0781 110.711 31.1987 110.565 31.2768C110.419 31.3548 110.253 31.3866 110.089 31.368C109.96 31.337 109.708 31.45 109.689 31.568C109.668 31.6831 109.621 31.7918 109.552 31.886C109.483 31.9801 109.393 32.0571 109.289 32.111C109.033 32.25 108.736 32.18 108.7 32.493C108.664 32.806 107.731 33.047 107.731 32.766C107.731 32.485 107.542 32.433 107.331 32.456C106.211 32.577 105.7 32.439 105.403 31.983C105.321 31.8223 105.2 31.6849 105.051 31.5839C104.901 31.4828 104.729 31.4212 104.549 31.405C104.336 31.3696 104.136 31.2793 103.969 31.143C103.801 31.0068 103.672 30.8293 103.594 30.628C103.417 30.138 103.526 29.351 103.205 28.963C102.884 28.575 101.405 27.132 100.927 26.485C100.475 25.8022 100.115 25.0624 99.858 24.285C99.7 23.795 99.484 23.823 99.468 24.227C99.452 24.631 99.086 24.567 99.068 23.938C99.05 23.309 99.234 21.449 99.193 21.117C99.152 20.785 98.264 20.959 97.964 20.944C97.664 20.929 96.722 20.278 97.046 20.344C97.427 20.419 97.821 20.165 97.705 19.835C97.447 19.094 96.917 19.2 96.428 18.766C95.955 18.349 95.996 17.945 96.682 17.795C97.351 17.649 98.993 18.466 99.766 19.827C99.931 20.116 100.098 20.085 100.055 19.802C99.9957 19.387 99.8454 18.9902 99.615 18.64C99.315 18.184 98.885 17.594 99.001 17.387C99.117 17.18 99.258 17.06 99.545 17.298L99.547 17.297ZM107.656 31.41C108.229 31.41 108.506 31.61 108.915 31.274C109.044 31.166 109.052 31.068 108.904 30.985C108.489 30.7323 108.011 30.603 107.526 30.612C107.007 30.6152 106.499 30.7649 106.061 31.044C105.931 31.15 106.08 31.262 106.177 31.344C106.55 31.657 107.077 31.409 107.655 31.409L107.656 31.41ZM109.667 30.351C109.956 30.446 110.18 30.251 110.316 29.509C110.481 28.8143 110.373 28.083 110.016 27.465C109.623 26.744 109.16 26.511 108.924 26.084C108.656 25.3328 108.547 24.5344 108.603 23.739C108.596 22.778 108.522 21.8186 108.381 20.868C108.213 20.1307 108.312 19.3575 108.662 18.687C108.831 18.394 108.999 18.061 108.862 17.829C108.579 17.2751 108.199 16.776 107.741 16.355C106.841 15.8038 105.844 15.4304 104.804 15.255C104.233 15.3 103.66 16.071 103.035 16.355C102.609 16.546 102.265 16.15 101.512 16.807C101.012 17.239 101.239 17.777 101.52 18.226C101.801 18.675 102.502 18.526 103.057 19.126C103.612 19.726 103.57 20.943 104.168 21.883C104.781 23.0247 105.151 24.2811 105.254 25.573C105.283 25.8381 105.237 26.1061 105.12 26.346C104.858 26.7697 104.653 27.2259 104.509 27.703C104.377 28.2224 104.334 28.7602 104.38 29.294C104.398 29.633 104.449 30.148 104.704 30.334C104.851 30.4107 105.016 30.448 105.182 30.4422C105.348 30.4364 105.509 30.3878 105.651 30.301C106.26 30.0248 106.912 29.8557 107.579 29.801C108.306 29.8291 109.019 30.0154 109.667 30.347V30.351ZM101.123 21.682C100.883 21.744 100.905 21.988 101.123 22.023C101.597 22.1823 102.06 22.372 102.509 22.591C102.748 22.706 102.864 22.478 102.688 22.276C102.512 22.074 102.535 21.826 102.408 21.595C102.333 21.485 102.223 21.403 102.097 21.3621C101.97 21.3212 101.833 21.3236 101.708 21.369C101.472 21.453 101.361 21.62 101.123 21.682Z" fill="#E34D32"/>
<path d="M107.727 32.47C107.758 33.5245 107.593 34.5757 107.241 35.57C107.001 36.27 107.931 36.281 108.121 35.753C108.475 34.65 108.674 33.5029 108.711 32.345C108.727 31.696 108.38 31.73 108.084 31.767C107.788 31.804 107.706 32.182 107.727 32.467" fill="#E34D32"/>
<path d="M109.822 24.186C110.617 24.8111 111.576 25.1931 112.583 25.286C114.035 25.586 117.32 25.986 118.283 26.153C119.246 26.32 119.642 25.428 118.639 25.197C117.411 24.917 114.285 24.584 113.195 24.407C111.941 24.3562 110.758 23.8133 109.902 22.896C109.595 22.51 109.272 22.754 109.32 23.266C109.32 23.448 109.366 23.627 109.454 23.7867C109.541 23.9464 109.667 24.0816 109.82 24.18" fill="#E34D32"/>
<path d="M99.498 23.689C99.467 24.7584 99.5954 25.8264 99.879 26.858C100.245 28.161 100.762 29.4163 101.422 30.598C102.262 32.151 103.522 34.398 103.756 36.136C103.944 37.544 102.921 36.887 102.756 36.097C102.473 34.9109 102.026 33.7702 101.427 32.708C100.426 31.0011 99.6142 29.1905 99.005 27.308C98.4116 25.3028 98.352 23.1773 98.832 21.142C98.965 20.507 99.172 20.53 99.495 20.579C99.818 20.628 99.519 22.704 99.495 23.69" fill="#E34D32"/>
<path d="M98.2951 20.427C97.7524 20.4777 97.2053 20.4045 96.6951 20.213C96.183 19.8926 95.7829 19.4213 95.5501 18.864C95.3955 18.5461 95.2027 18.2482 94.9761 17.977C94.7691 17.77 94.8031 17.569 95.1921 17.533C95.7887 17.356 96.406 17.2578 97.0281 17.241C97.627 17.3067 98.2019 17.513 98.7059 17.8432C99.2099 18.1734 99.6287 18.6181 99.9281 19.141C100.353 19.852 100.828 19.071 100.642 18.55C100.38 18.0206 100 17.558 99.5323 17.1971C99.0645 16.8362 98.5207 16.5865 97.9421 16.467C96.8171 16.4159 95.6923 16.5725 94.6241 16.929C93.9351 17.042 93.7161 17.608 94.1241 18.109C94.4663 18.5374 94.7411 19.0156 94.9391 19.527C95.1789 20.1743 95.6392 20.7163 96.2391 21.058C96.8961 21.318 97.6016 21.4326 98.3071 21.394C98.6521 21.378 98.7561 21.611 98.7071 21.964C98.6581 22.317 99.1721 22.276 99.2521 21.715C99.3321 21.154 99.6611 20.415 99.3161 20.415C98.9783 20.3958 98.6396 20.3979 98.3021 20.421" fill="#E34D32"/>
<path d="M109.402 16.831C109.746 16.5029 110.186 16.2928 110.658 16.231C111.309 16.137 112.27 16.231 112.792 16.131C113.314 16.031 113.617 16.176 113.566 16.589C113.496 17.15 113.913 18.359 113.514 19.294C113.058 20.364 111.651 20.649 110.442 20.394C109.777 20.256 110.082 19.441 110.668 19.555C111.236 19.666 112.246 19.601 112.555 19.155C112.983 18.543 112.798 17.538 112.855 17.121C112.892 16.821 112.782 16.69 112.442 16.767C111.661 16.944 110.42 16.52 109.875 17.558C109.466 18.333 108.929 17.265 109.406 16.827" fill="#E34D32"/>
<path d="M105.286 28.457C105.127 28.575 105.012 28.429 105.098 28.226C105.177 28.0525 105.311 27.9098 105.479 27.8195C105.647 27.7292 105.84 27.6964 106.028 27.726C106.15 27.7451 106.266 27.79 106.369 27.8577C106.472 27.9254 106.559 28.0144 106.624 28.1186C106.69 28.2228 106.733 28.3398 106.749 28.4618C106.766 28.5838 106.756 28.708 106.721 28.826C106.644 29.115 106.414 29.04 106.371 28.8C106.344 28.6924 106.287 28.5942 106.208 28.516C106.13 28.4378 106.031 28.3825 105.923 28.356C105.705 28.3063 105.476 28.342 105.283 28.456" fill="#E34D32"/>
<path d="M108.83 28.856C108.843 29.049 108.57 29.065 108.491 28.839C108.414 28.6774 108.382 28.4977 108.4 28.3195C108.418 28.1413 108.484 27.9713 108.591 27.828C108.733 27.6845 108.92 27.595 109.121 27.5749C109.322 27.5548 109.524 27.6054 109.691 27.718C109.784 27.8059 109.848 27.92 109.874 28.045C109.9 28.1701 109.888 28.3002 109.838 28.418C109.753 28.591 109.607 28.528 109.587 28.428C109.577 28.3822 109.557 28.3392 109.528 28.3017C109.5 28.2642 109.464 28.233 109.423 28.2102C109.382 28.1874 109.337 28.1734 109.29 28.1693C109.244 28.1651 109.196 28.1708 109.152 28.186C108.883 28.278 108.82 28.648 108.833 28.857" fill="#E34D32"/>
<path d="M105.812 26.967C105.546 27.025 105.512 26.829 105.729 26.682C106.167 26.3994 106.665 26.2243 107.184 26.171C107.755 26.1436 108.323 26.2826 108.817 26.571C109.041 26.694 109.008 26.94 108.684 26.871C108.225 26.7676 107.754 26.7246 107.284 26.743C106.787 26.7767 106.294 26.8507 105.809 26.964" fill="#E34D32"/>
<path d="M104.338 17.495C104.129 17.411 104.148 17.242 104.438 17.223C104.828 17.1842 105.22 17.2722 105.556 17.474C105.699 17.594 105.811 17.599 105.898 17.474C105.982 17.337 106.096 17.2208 106.231 17.1342C106.366 17.0476 106.519 16.9928 106.679 16.974C106.892 16.962 106.979 17.144 106.779 17.299C106.456 17.7117 106.23 18.1925 106.119 18.705C106.036 19.072 105.755 19.052 105.619 18.747C105.367 18.1827 104.91 17.7356 104.34 17.497" fill="#E34D32"/>
<path d="M192.352 21.676C192.352 25.172 191.315 28.5895 189.373 31.4963C187.431 34.4031 184.67 36.6686 181.44 38.0065C178.21 39.3443 174.656 39.6944 171.228 39.0124C167.799 38.3303 164.649 36.6469 162.177 34.1748C159.705 31.7028 158.022 28.5532 157.34 25.1244C156.658 21.6956 157.008 18.1416 158.346 14.9117C159.683 11.6818 161.949 8.92121 164.856 6.97894C167.763 5.03668 171.18 4 174.676 4C179.364 4 183.86 5.86228 187.175 9.17718C190.49 12.4921 192.352 16.988 192.352 21.676Z" fill="#E34D32"/>
<path d="M188.861 21.675C188.861 24.4803 188.029 27.2226 186.471 29.5551C184.912 31.8876 182.697 33.7056 180.105 34.7792C177.513 35.8528 174.662 36.1337 171.91 35.5865C169.159 35.0393 166.631 33.6885 164.648 31.705C162.664 29.7214 161.313 27.1941 160.766 24.4428C160.218 21.6914 160.499 18.8395 161.572 16.2477C162.646 13.6559 164.464 11.4406 166.796 9.88191C169.128 8.32323 171.871 7.4912 174.676 7.491C178.438 7.491 182.046 8.98534 184.706 11.6453C187.366 14.3053 188.861 17.9131 188.861 21.675Z" fill="white"/>
<path d="M177.818 18.452C177.819 18.2326 177.745 18.0194 177.608 17.8475C177.472 17.6756 177.281 17.5552 177.067 17.506C176.726 17.4187 176.366 17.4451 176.041 17.581C175.612 17.77 175.441 18.081 175.165 18.162C175.125 18.168 175.087 18.1851 175.056 18.2113C175.025 18.2376 175.002 18.272 174.99 18.3107C174.977 18.3494 174.976 18.3909 174.985 18.4303C174.995 18.4698 175.016 18.5057 175.045 18.534C175.186 18.7116 175.278 18.9224 175.314 19.146C175.39 19.5567 175.618 19.9236 175.952 20.174C176.117 20.2822 176.304 20.3515 176.5 20.3767C176.695 20.4018 176.894 20.3821 177.081 20.319C177.238 20.261 177.341 20.261 177.391 20.414C177.42 20.501 177.499 20.338 177.52 20.19C177.548 19.9891 177.608 19.7939 177.698 19.612C177.767 19.524 177.629 19.559 177.553 19.664C177.478 19.7639 177.381 19.8457 177.269 19.9031C177.158 19.9606 177.035 19.9923 176.91 19.996C176.77 20.0169 176.627 20.01 176.49 19.9757C176.353 19.9414 176.224 19.8803 176.11 19.796C175.907 19.6082 175.76 19.3686 175.683 19.103C175.625 18.8966 175.611 18.68 175.644 18.468C175.69 18.3077 175.781 18.1643 175.908 18.0556C176.034 17.947 176.19 17.8779 176.355 17.857C176.643 17.7778 176.95 17.807 177.217 17.939C177.42 18.053 177.573 18.2384 177.647 18.459C177.694 18.609 177.847 18.68 177.82 18.459" fill="#E34D32"/>
<path d="M176.442 18.425C176.332 18.43 176.296 18.318 176.406 18.252C176.506 18.1885 176.619 18.1463 176.736 18.1281C176.853 18.1099 176.973 18.116 177.088 18.146C177.207 18.1776 177.312 18.2492 177.385 18.3488C177.458 18.4483 177.494 18.5698 177.488 18.693C177.488 18.877 177.382 18.877 177.329 18.754C177.301 18.6751 177.253 18.6047 177.19 18.5491C177.127 18.4936 177.052 18.4547 176.97 18.436C176.797 18.3986 176.618 18.3955 176.443 18.427" fill="#E34D32"/>
<path d="M177.199 18.944C177.199 19.0048 177.181 19.0643 177.148 19.1149C177.114 19.1656 177.066 19.2051 177.01 19.2284C176.954 19.2518 176.892 19.2579 176.832 19.2461C176.773 19.2343 176.718 19.2051 176.675 19.1621C176.632 19.1191 176.603 19.0643 176.591 19.0046C176.579 18.945 176.585 18.8832 176.609 18.827C176.632 18.7709 176.671 18.723 176.722 18.6893C176.773 18.6556 176.832 18.6378 176.893 18.638C176.974 18.6383 177.052 18.6706 177.109 18.7279C177.166 18.7852 177.199 18.8629 177.199 18.944Z" fill="#E34D32"/>
<path d="M176.066 18.882C176.079 18.719 176.23 18.682 176.266 18.899C176.271 19.0136 176.308 19.1245 176.373 19.219C176.438 19.3136 176.528 19.3881 176.633 19.434C176.741 19.4598 176.853 19.4614 176.962 19.4388C177.071 19.4161 177.173 19.3698 177.262 19.303C177.409 19.213 177.517 19.25 177.435 19.385C177.349 19.5386 177.212 19.6567 177.047 19.7181C176.882 19.7794 176.701 19.7801 176.536 19.7199C176.37 19.6597 176.232 19.5426 176.145 19.3896C176.058 19.2366 176.029 19.0577 176.062 18.885" fill="#E34D32"/>
<path d="M178.272 21.649C178.418 21.649 178.561 21.717 178.552 21.887C178.565 22.1874 178.474 22.4831 178.296 22.7249C178.117 22.9667 177.861 23.14 177.57 23.216C177.267 23.307 176.942 23.3009 176.643 23.1983C176.343 23.0957 176.083 22.9019 175.899 22.644C175.49 21.855 176.028 20.853 174.748 19.944C174.348 19.661 174.137 19.886 174.401 20.185C174.85 20.7827 175.056 21.5277 174.979 22.271C174.972 22.6394 175.075 23.0015 175.276 23.3104C175.477 23.6194 175.765 23.861 176.105 24.004C176.432 24.1315 176.782 24.1904 177.133 24.177C177.484 24.1636 177.829 24.0781 178.145 23.926C178.487 23.7408 178.772 23.465 178.968 23.1288C179.163 22.7926 179.263 22.409 179.255 22.02C179.269 21.871 179.393 21.782 179.625 21.82C179.825 21.854 179.77 21.637 179.545 21.52C179.188 21.4159 178.817 21.364 178.445 21.366C178.232 21.354 178.105 21.655 178.28 21.655" fill="#E34D32"/>
<path d="M168.032 24.363C167.955 24.5553 167.807 24.7109 167.619 24.798C166.968 24.9734 166.304 25.0995 165.634 25.175C164.658 25.3453 163.657 25.3057 162.697 25.059C161.687 24.7062 160.734 24.2069 159.869 23.577C159.518 23.271 158.945 24.039 159.519 24.494C160.745 25.4476 162.213 26.0389 163.757 26.201C164.837 26.2157 165.915 26.1019 166.968 25.862C167.203 25.794 167.368 25.941 167.246 26.209C167.151 26.415 167.746 26.245 167.984 25.762C168.148 25.3286 168.218 24.8655 168.19 24.403C168.208 24.077 168.12 24.097 168.031 24.366" fill="#E34D32"/>
<path d="M177.933 29.131C178.101 29.3111 178.203 29.5419 178.225 29.787C178.509 31.1195 178.559 32.4915 178.371 33.841C178.113 35.2942 177.458 36.6478 176.48 37.753C176.007 38.293 177.073 38.562 177.58 38.016C178.597 36.8871 179.241 35.4716 179.423 33.963C179.59 32.7077 179.531 31.4327 179.25 30.198C179.192 29.927 179.25 29.821 179.465 29.917C179.68 30.013 179.783 29.744 179.376 29.491C178.961 29.2089 178.533 28.9478 178.092 28.709C177.77 28.568 177.702 28.935 177.934 29.131" fill="#E34D32"/>
<path d="M177.685 20.608C177.791 20.614 177.779 20.746 177.762 20.897C177.726 21.0919 177.749 21.2933 177.828 21.475C177.897 21.5489 177.983 21.6038 178.079 21.6341C178.175 21.6644 178.278 21.6692 178.376 21.648C178.896 21.6625 179.411 21.7441 179.91 21.891C180.381 21.977 180.61 21.917 180.824 21.66C180.867 21.6162 180.924 21.5882 180.985 21.5806C181.046 21.573 181.108 21.5861 181.16 21.618C181.241 21.664 181.325 21.56 181.211 21.487C181.097 21.414 180.411 21.02 180.287 20.982C180.163 20.944 180.222 21.055 180.349 21.126C180.371 21.1344 180.39 21.1474 180.407 21.1641C180.423 21.1808 180.435 21.2008 180.443 21.2227C180.451 21.2447 180.454 21.268 180.452 21.2912C180.45 21.3143 180.443 21.3368 180.431 21.357C180.335 21.4304 180.214 21.4637 180.093 21.45C179.693 21.42 179.458 21.25 179.023 21.198C178.663 21.155 178.293 21.223 178.214 21.134C178.135 21.045 178.2 20.774 178.221 20.711C178.242 20.648 178.321 20.538 178.538 20.538C178.638 20.538 178.658 20.407 178.459 20.413C178.26 20.419 177.85 20.506 177.792 20.501C177.669 20.491 177.568 20.601 177.682 20.609" fill="#E34D32"/>
<path d="M177.376 20.112C177.409 19.8782 177.518 19.6618 177.686 19.496C177.901 19.29 178.141 19.306 178.271 19.096C178.371 18.931 178.482 18.448 178.826 18.351C179.17 18.254 179.368 18.409 179.555 18.799C179.672 19.0395 179.856 19.2404 180.086 19.377C180.415 19.5244 180.723 19.7162 181 19.947C181.288 20.1988 181.507 20.5204 181.635 20.881C181.704 21.1411 181.702 21.4148 181.63 21.674C181.577 21.815 181.35 21.735 181.244 21.669C181.138 21.603 180.865 21.452 180.692 21.34C180.061 20.8638 179.303 20.5854 178.513 20.54C178.153 20.55 177.713 20.694 177.513 20.568C177.332 20.453 177.352 20.279 177.378 20.113L177.376 20.112ZM178.739 20.118C179.071 20.1541 179.395 20.2418 179.699 20.378C180.025 20.516 180.617 20.867 180.781 20.959C180.906 21.028 181.067 20.994 181.029 20.826C180.96 20.526 180.454 20.126 180.105 19.926C179.829 19.7888 179.576 19.6104 179.354 19.397C179.223 19.242 179.146 19.019 178.94 19.019C178.734 19.019 178.61 19.297 178.533 19.461C178.466 19.602 178.295 19.674 178.119 19.769C177.943 19.864 177.871 20.034 177.943 20.099C178.015 20.164 178.434 20.089 178.743 20.113" fill="#E34D32"/>
<path d="M178.524 23.655C178.483 23.683 178.449 23.719 178.423 23.7607C178.397 23.8024 178.379 23.849 178.372 23.8976C178.364 23.9463 178.367 23.9959 178.379 24.0436C178.391 24.0913 178.413 24.136 178.443 24.175C178.906 24.7296 179.279 25.3531 179.55 26.023C180.054 27.1973 180.339 28.454 180.39 29.731C180.399 30.115 180.228 30.162 180.019 30.104C179.118 29.8399 178.274 29.4128 177.527 28.844C177.383 28.718 177.26 28.691 177.238 28.954C177.105 29.9284 176.893 30.8904 176.603 31.83C176.545 32.106 176.256 32.269 176.05 31.968C175.533 31.4055 175.06 30.8037 174.636 30.168C174.527 29.951 174.384 29.943 174.3 30.168C173.948 30.9705 173.445 31.6975 172.817 32.309C172.668 32.504 172.347 32.504 172.307 32.121C172.246 31.531 171.865 30.594 171.797 29.557C171.778 29.257 171.592 29.223 171.457 29.384C170.956 29.912 170.393 30.3786 169.782 30.774C169.628 30.911 169.42 30.893 169.431 30.543C169.359 29.624 169.401 28.6996 169.556 27.791C169.61 27.556 169.513 27.51 169.274 27.651C168.282 28.1725 167.221 28.5493 166.122 28.77C165.84 28.886 165.513 28.619 165.811 28.27C166.607 27.3272 167.263 26.2739 167.757 25.143C168.257 23.982 168.203 22.659 168.886 21.031C169.184 20.3327 169.622 19.7033 170.174 19.1825C170.727 18.6616 171.38 18.2604 172.095 18.004C172.217 17.969 172.21 17.877 172.119 17.804C171.851 17.6435 171.566 17.5124 171.27 17.413C171.105 17.367 171.17 17.24 171.458 17.071C172.171 16.5945 172.977 16.2748 173.823 16.133C175.211 15.9494 176.623 16.1414 177.912 16.689C178.149 16.7998 178.351 16.9729 178.496 17.1898C178.642 17.4066 178.726 17.659 178.74 17.92C178.734 18.0251 178.771 18.1282 178.841 18.2068C178.911 18.2854 179.009 18.3333 179.114 18.34C179.287 18.372 179.114 18.64 178.978 18.655C178.842 18.67 178.652 18.874 178.549 19.026C178.446 19.178 178.273 19.111 178.328 18.991C178.372 18.9232 178.394 18.8434 178.391 18.7626C178.387 18.6819 178.359 18.6041 178.31 18.54C178.155 18.3692 178.067 18.1477 178.063 17.917C178.03 17.7359 177.956 17.5648 177.847 17.4167C177.737 17.2687 177.595 17.1477 177.432 17.063C176.638 16.7012 175.769 16.5339 174.898 16.575C174.115 16.5964 173.346 16.789 172.645 17.139C172.529 17.214 172.506 17.305 172.603 17.366C172.892 17.5247 173.164 17.7112 173.417 17.923C173.505 18.023 173.433 18.177 173.292 18.223C172.546 18.4363 171.851 18.7954 171.245 19.2797C170.639 19.764 170.136 20.3637 169.764 21.044C168.985 22.56 169.109 24.036 168.69 25.269C168.453 25.9715 168.098 26.6283 167.64 27.211C167.451 27.401 167.501 27.511 167.723 27.435C168.843 27.0409 169.786 26.261 170.384 25.235C170.602 24.891 170.784 25.027 170.749 25.335C170.566 26.735 170.378 27.799 170.264 28.81C170.236 29.053 170.31 29.149 170.481 28.999C171.178 28.3629 171.798 27.6474 172.329 26.867C172.445 26.634 172.597 26.63 172.596 26.967C172.58 28.1163 172.647 29.2653 172.796 30.405C172.838 30.623 172.886 30.719 173.057 30.446C173.566 29.5714 173.916 28.6132 174.09 27.616C174.138 27.277 174.345 27.261 174.437 27.575C174.771 28.5388 175.25 29.4464 175.856 30.267C175.981 30.424 176.098 30.44 176.161 30.204C176.403 29.1836 176.515 28.1365 176.493 27.088C176.483 26.799 176.578 26.626 176.816 26.951C177.427 27.7161 178.197 28.3386 179.074 28.775C179.265 28.858 179.463 28.875 179.425 28.605C179.305 27.6025 178.999 26.6311 178.525 25.74C178.269 25.2613 177.967 24.8083 177.625 24.387C177.549 24.3065 177.455 24.2449 177.351 24.2071C177.247 24.1692 177.135 24.1562 177.025 24.169C176.794 24.169 176.655 23.804 177.168 23.624C177.525 23.5285 177.873 23.4054 178.211 23.256C178.403 23.131 178.748 23.495 178.537 23.656" fill="#E34D32"/>
<path d="M177.631 16.939C177.966 17.05 178.385 17.014 178.222 16.881C178.108 16.7675 178.02 16.6307 177.965 16.48C177.909 16.3293 177.887 16.1682 177.899 16.008C177.924 15.6351 177.842 15.2628 177.662 14.935C177.483 14.6071 177.214 14.3372 176.886 14.157C176.603 14.041 176.421 14.245 176.525 14.418C176.682 14.673 176.745 14.9745 176.704 15.271C176.657 15.416 176.382 15.395 176.253 15.177C176.107 14.8619 175.896 14.5812 175.634 14.3532C175.372 14.1253 175.064 13.9552 174.732 13.854C174.366 13.754 174.101 14.027 174.317 14.246C174.582 14.4868 174.747 14.8184 174.779 15.175C174.77 15.338 174.499 15.427 174.279 15.229C173.847 14.7547 173.25 14.4627 172.61 14.412C172.2 14.412 172.102 14.694 172.391 14.859C172.556 14.9375 172.702 15.0507 172.819 15.1909C172.936 15.331 173.021 15.4948 173.069 15.671C173.091 15.8249 173.064 15.9817 172.992 16.1195C172.921 16.2574 172.808 16.3694 172.669 16.44C172.454 16.54 172.247 16.94 172.792 16.757C173.561 16.5253 174.362 16.4127 175.165 16.423C176 16.5192 176.824 16.6933 177.627 16.943" fill="#E34D32"/>
<path d="M168.077 31.975C168.087 31.509 168.472 31.446 168.577 31.895C168.751 32.8318 168.714 33.7956 168.469 34.7163C168.224 35.6371 167.777 36.4917 167.16 37.218L166.041 36.496C166.664 35.9156 167.165 35.2168 167.514 34.4405C167.863 33.6642 168.055 32.826 168.076 31.975" fill="#E34D32"/>
<path d="M166.064 15.647C165.241 14.931 164.851 14.018 165.385 13.402C165.479 13.3018 165.593 13.2223 165.72 13.1687C165.847 13.1151 165.983 13.0885 166.121 13.0907C166.258 13.0928 166.394 13.1237 166.519 13.1813C166.644 13.2388 166.755 13.3219 166.846 13.425C166.886 13.4566 166.917 13.497 166.939 13.543C166.96 13.589 166.97 13.6394 166.968 13.69C166.983 13.8593 166.949 14.0294 166.868 14.179C166.84 14.211 166.803 14.207 166.76 14.17C166.717 14.133 166.66 14.07 166.617 14.034C166.36 13.811 166.011 13.621 165.817 13.84C165.604 14.085 165.842 14.54 166.389 15.018C166.874 15.439 167.208 15.486 167.469 15.186C167.574 15.0502 167.633 14.8843 167.636 14.7126C167.639 14.541 167.588 14.3729 167.488 14.233C167.482 14.2204 167.479 14.2063 167.48 14.1922C167.481 14.1781 167.486 14.1645 167.494 14.153C167.552 14.085 167.725 14.137 167.913 14.303C168.018 14.3886 168.103 14.4958 168.163 14.6174C168.223 14.7389 168.256 14.8719 168.259 15.0073C168.263 15.1427 168.237 15.2772 168.184 15.4018C168.131 15.5264 168.051 15.638 167.951 15.729C167.451 16.3 166.791 16.285 166.056 15.646" fill="#E34D32"/>
<path d="M169.135 14.445C169.083 14.466 169.046 14.463 168.987 14.396C168.711 14.0614 168.464 13.7045 168.247 13.329C167.925 12.8224 167.661 12.2814 167.459 11.716C167.447 11.691 167.444 11.6631 167.45 11.6361C167.455 11.6092 167.469 11.5846 167.489 11.566C167.559 11.514 167.631 11.4656 167.706 11.421C167.781 11.3757 167.858 11.3346 167.937 11.298C167.978 11.284 168.004 11.298 168.031 11.338C168.175 11.7189 168.345 12.0892 168.541 12.446C168.584 12.517 168.626 12.538 168.672 12.53C168.756 12.495 168.852 12.382 169.061 12.256C169.27 12.13 169.421 12.101 169.461 12.056C169.501 12.011 169.482 11.967 169.44 11.896C169.217 11.5567 168.973 11.2323 168.708 10.925C168.702 10.9177 168.697 10.9091 168.695 10.8999C168.692 10.8907 168.692 10.8811 168.693 10.8717C168.695 10.8622 168.698 10.8532 168.703 10.8452C168.708 10.8371 168.715 10.8303 168.723 10.825C168.787 10.776 168.854 10.7306 168.923 10.689C168.996 10.645 169.073 10.599 169.154 10.56C169.18 10.5476 169.21 10.5447 169.238 10.552C169.266 10.5594 169.291 10.5763 169.308 10.6C169.707 11.0498 170.057 11.5413 170.351 12.066C170.58 12.4341 170.778 12.8204 170.944 13.221C170.973 13.31 170.967 13.35 170.91 13.388C170.837 13.442 170.763 13.492 170.686 13.538C170.611 13.5854 170.532 13.6272 170.451 13.663C170.401 13.688 170.37 13.686 170.341 13.638C170.279 13.538 170.083 12.996 169.933 12.738C169.814 12.538 169.625 12.515 169.361 12.673C168.976 12.904 168.93 13.1 169.069 13.332C169.245 13.5847 169.434 13.8277 169.636 14.06C169.663 14.105 169.657 14.129 169.614 14.165C169.541 14.219 169.464 14.265 169.383 14.313C169.302 14.361 169.214 14.404 169.132 14.443" fill="#E34D32"/>
<path d="M172.243 12.98C172.143 13.008 172.043 13.034 171.954 13.05C171.93 13.0552 171.905 13.0514 171.883 13.0392C171.862 13.027 171.846 13.0074 171.838 12.984C171.653 12.5803 171.503 12.1618 171.388 11.733C171.21 11.1589 171.089 10.5688 171.027 9.97101C171.021 9.94262 171.026 9.91317 171.04 9.88779C171.054 9.86241 171.076 9.84267 171.103 9.832C171.18 9.805 171.269 9.77401 171.359 9.74901C171.449 9.72401 171.553 9.698 171.645 9.674C171.654 9.6718 171.663 9.67153 171.672 9.67319C171.681 9.67485 171.689 9.67841 171.697 9.68363C171.704 9.68885 171.71 9.6956 171.715 9.70343C171.719 9.71126 171.722 9.71999 171.723 9.72901C171.765 10.27 171.859 10.8057 172.002 11.329C172.154 11.83 172.345 12.3182 172.574 12.789C172.588 12.839 172.574 12.862 172.525 12.889C172.437 12.924 172.344 12.955 172.245 12.984" fill="#E34D32"/>
<path d="M173.058 11.287C173.005 10.198 173.392 9.28701 174.208 9.24301C174.887 9.20901 175.176 9.78502 175.202 10.313C175.207 10.3635 175.2 10.4144 175.181 10.4616C175.163 10.5089 175.134 10.5511 175.096 10.585C174.986 10.7142 174.84 10.8081 174.677 10.855C174.634 10.855 174.612 10.828 174.609 10.771C174.606 10.714 174.609 10.636 174.609 10.571C174.593 10.231 174.488 9.84702 174.198 9.86202C173.873 9.87802 173.709 10.362 173.744 11.09C173.775 11.731 173.972 12.005 174.37 11.99C174.541 11.9716 174.701 11.8989 174.827 11.7825C174.953 11.6662 175.038 11.5125 175.07 11.344C175.086 11.312 175.106 11.294 175.131 11.293C175.221 11.293 175.301 11.446 175.314 11.693C175.325 11.8278 175.307 11.9634 175.26 12.0905C175.214 12.2177 175.141 12.3334 175.046 12.4298C174.952 12.5262 174.837 12.601 174.711 12.6492C174.584 12.6974 174.449 12.7178 174.314 12.709C173.558 12.746 173.114 12.257 173.063 11.285" fill="#E34D32"/>
<path d="M176.054 12.693C175.973 12.667 175.938 12.617 175.954 12.493C176.002 12.193 176.079 11.849 176.168 11.511C176.337 10.8674 176.545 10.2346 176.79 9.61599C176.841 9.48999 176.881 9.47298 176.97 9.48798C177.025 9.49798 177.113 9.51599 177.195 9.53799C177.277 9.55999 177.356 9.585 177.433 9.608C177.51 9.631 177.533 9.66599 177.506 9.74899C177.32 10.1479 177.155 10.5565 177.012 10.973C177.002 11.011 177.012 11.035 177.033 11.042C177.054 11.049 177.087 11.042 177.149 10.999C177.637 10.7933 178.029 10.4117 178.249 9.92999C178.284 9.86199 178.315 9.848 178.371 9.854C178.458 9.86891 178.545 9.88827 178.63 9.912C178.717 9.935 178.803 9.962 178.861 9.981C178.873 9.98285 178.884 9.98725 178.894 9.99389C178.904 10.0005 178.912 10.0092 178.918 10.0194C178.924 10.0296 178.928 10.041 178.93 10.0528C178.931 10.0647 178.93 10.0767 178.926 10.088C178.732 10.5784 178.38 10.9902 177.926 11.258C177.899 11.2721 177.879 11.2956 177.868 11.324C177.865 11.338 177.865 11.3525 177.868 11.3664C177.871 11.3804 177.877 11.3936 177.886 11.405C178.046 11.6542 178.153 11.9338 178.201 12.2263C178.248 12.5188 178.234 12.8179 178.161 13.105C178.139 13.189 178.095 13.221 178.028 13.205C177.948 13.1921 177.868 13.1741 177.79 13.151C177.711 13.131 177.63 13.104 177.548 13.079C177.466 13.054 177.454 13 177.466 12.906C177.582 12.039 177.435 11.625 177.158 11.551C177.038 11.52 176.866 11.605 176.8 11.851C176.721 12.151 176.707 12.576 176.668 12.724C176.666 12.7391 176.662 12.7537 176.654 12.7668C176.646 12.7799 176.636 12.7911 176.623 12.7999C176.611 12.8086 176.597 12.8145 176.582 12.8173C176.567 12.8201 176.552 12.8196 176.537 12.816C176.47 12.803 176.386 12.785 176.3 12.762C176.214 12.739 176.115 12.709 176.054 12.689" fill="#E34D32"/>
<path d="M178.804 13.594C178.727 13.54 178.693 13.494 178.746 13.407C178.846 13.234 178.962 13.043 179.086 12.847C179.514 12.1518 180.011 11.5006 180.567 10.903C180.586 10.8795 180.611 10.863 180.64 10.8561C180.669 10.8491 180.7 10.8523 180.727 10.865C180.857 10.931 181.112 11.088 181.376 11.254C181.676 11.441 181.976 11.642 182.148 11.768C182.196 11.804 182.2 11.837 182.182 11.868C182.064 11.9979 181.933 12.1161 181.792 12.221C181.779 12.2293 181.764 12.2337 181.749 12.2337C181.733 12.2337 181.718 12.2293 181.705 12.221C181.676 12.1961 181.65 12.1672 181.628 12.135C181.481 11.9656 181.309 11.8202 181.117 11.704C180.98 11.617 180.904 11.604 180.828 11.618C180.646 11.7374 180.495 11.8989 180.388 12.089C180.334 12.174 180.342 12.225 180.415 12.271C180.542 12.351 180.755 12.398 180.993 12.549C181.148 12.649 181.253 12.754 181.206 12.828C181.108 12.9473 180.998 13.0562 180.878 13.153C180.836 13.188 180.813 13.184 180.784 13.166C180.672 13.0511 180.551 12.9455 180.422 12.85C180.129 12.665 179.96 12.696 179.792 12.958C179.561 13.323 179.582 13.409 179.792 13.539C180.05 13.7063 180.337 13.8214 180.639 13.878C180.67 13.8791 180.7 13.8859 180.728 13.898C180.74 13.906 180.749 13.918 180.753 13.9318C180.758 13.9457 180.757 13.9607 180.751 13.974C180.691 14.1687 180.609 14.3561 180.508 14.533C180.5 14.5461 180.489 14.5574 180.477 14.5661C180.464 14.5748 180.45 14.5806 180.434 14.5833C180.419 14.5859 180.404 14.5853 180.389 14.5815C180.374 14.5776 180.36 14.5707 180.348 14.561C180.117 14.431 179.848 14.268 179.597 14.112C179.297 13.923 179.013 13.733 178.808 13.592" fill="#E34D32"/>
<path d="M180.972 15.109C180.962 15.0997 180.955 15.0885 180.949 15.0761C180.944 15.0637 180.941 15.0504 180.941 15.037C180.941 15.0236 180.944 15.0103 180.949 14.9979C180.955 14.9855 180.962 14.9743 180.972 14.965C181.309 14.6041 181.669 14.2666 182.052 13.955C182.471 13.5866 182.929 13.2654 183.418 12.997C183.444 12.9852 183.472 12.9812 183.5 12.9857C183.528 12.9901 183.554 13.0028 183.575 13.022C183.626 13.0719 183.674 13.125 183.718 13.181C183.767 13.239 183.813 13.302 183.842 13.344C183.855 13.3633 183.863 13.3855 183.866 13.4087C183.868 13.4319 183.865 13.4554 183.856 13.477C183.616 14.235 183.295 14.9647 182.897 15.653C182.89 15.6611 182.886 15.6714 182.886 15.682C182.886 15.6926 182.89 15.7029 182.897 15.711C182.914 15.731 182.948 15.73 182.978 15.705C183.511 15.247 184.005 14.7471 184.458 14.21C184.465 14.2026 184.474 14.1966 184.483 14.1926C184.493 14.1885 184.503 14.1865 184.513 14.1865C184.523 14.1865 184.533 14.1885 184.543 14.1926C184.552 14.1966 184.561 14.2026 184.568 14.21C184.615 14.26 184.678 14.33 184.741 14.41C184.804 14.49 184.847 14.544 184.884 14.597C184.902 14.618 184.912 14.6453 184.911 14.6732C184.91 14.7011 184.898 14.7275 184.878 14.747C184.164 15.5035 183.369 16.1789 182.507 16.761C182.494 16.7725 182.478 16.781 182.461 16.786C182.444 16.791 182.426 16.7923 182.409 16.79C182.391 16.7876 182.375 16.7816 182.36 16.7723C182.345 16.763 182.332 16.7506 182.322 16.736C182.278 16.69 182.206 16.61 182.144 16.536C182.098 16.478 182.057 16.424 182.028 16.386C182.005 16.3615 181.992 16.3291 181.992 16.2955C181.992 16.2619 182.005 16.2295 182.028 16.205C182.409 15.554 182.738 14.8742 183.013 14.172C183.03 14.13 183.03 14.103 183.013 14.086C182.996 14.069 182.947 14.068 182.907 14.102C182.371 14.5339 181.872 15.0088 181.413 15.522C181.37 15.558 181.331 15.546 181.292 15.505C181.253 15.464 181.185 15.389 181.122 15.313C181.059 15.237 181.006 15.169 180.968 15.113" fill="#E34D32"/>
<path d="M263.622 21.962C263.622 25.458 262.585 28.8755 260.643 31.7823C258.701 34.6891 255.94 36.9546 252.71 38.2925C249.48 39.6304 245.926 39.9804 242.498 39.2984C239.069 38.6163 235.919 36.9329 233.447 34.4608C230.975 31.9888 229.292 28.8392 228.61 25.4104C227.928 21.9816 228.278 18.4276 229.616 15.1977C230.953 11.9678 233.219 9.20722 236.126 7.26495C239.033 5.32269 242.45 4.28601 245.946 4.28601C250.634 4.28601 255.13 6.1483 258.445 9.46319C261.76 12.7781 263.622 17.274 263.622 21.962Z" fill="#E34D32"/>
<path d="M260.132 21.961C260.132 24.7663 259.3 27.5087 257.741 29.8412C256.183 32.1738 253.968 33.9918 251.376 35.0653C248.784 36.1389 245.932 36.4198 243.181 35.8725C240.429 35.3252 237.902 33.9743 235.918 31.9906C233.935 30.0069 232.584 27.4796 232.036 24.7282C231.489 21.9767 231.77 19.1248 232.844 16.533C233.917 13.9412 235.735 11.726 238.068 10.1674C240.4 8.60888 243.143 7.77701 245.948 7.77701C249.71 7.77727 253.317 9.27174 255.977 11.9317C258.637 14.5917 260.132 18.1992 260.132 21.961Z" fill="white"/>
<path d="M242.409 25.147C242.592 25.0629 242.797 25.0438 242.992 25.0927C243.187 25.1417 243.36 25.2557 243.481 25.416C243.746 26.035 243.014 26.998 243.33 27.873C243.752 29.042 244.905 28.393 245.372 29.162C245.744 29.777 245.445 31.362 245.272 32.01C245.102 32.642 245.545 32.81 245.772 32.403C246.109 31.6756 246.329 30.8993 246.422 30.103C246.471 29.7951 246.452 29.4801 246.366 29.1805C246.279 28.8809 246.128 28.6042 245.922 28.37C245.31 27.735 244.484 28.008 244.217 27.561C243.94 27.093 244.804 26.015 244.262 25.001C244.016 24.5806 243.612 24.2752 243.141 24.152C243.081 24.1399 243.027 24.1046 242.993 24.0537C242.958 24.0029 242.945 23.9405 242.956 23.88C242.966 23.732 242.735 23.533 242.635 23.862C242.57 24.1889 242.446 24.501 242.269 24.783C242.069 25.026 242.24 25.32 242.41 25.152" fill="#E34D32"/>
<path d="M246.063 30.153C246.039 30.717 246.286 30.937 246.324 30.753C246.362 30.569 246.502 30.527 246.658 30.542C247.317 30.5958 247.955 30.7982 248.525 31.134C249.378 31.649 249.789 32.3 250.946 32.507C251.431 32.6269 251.943 32.5675 252.388 32.3396C252.833 32.1117 253.181 31.7308 253.367 31.267C253.393 31.1805 253.437 31.1009 253.498 31.034C253.558 30.9672 253.633 30.9149 253.717 30.881C253.995 30.7215 254.23 30.4955 254.399 30.2233C254.569 29.9511 254.668 29.6411 254.689 29.321C254.721 28.315 254.463 27.3209 253.947 26.457C252.91 25.0615 252.126 23.4957 251.628 21.83C251.528 21.38 251.243 21.757 250.96 21.791C250.677 21.825 250.083 22.413 250.46 22.355C250.576 22.3471 250.691 22.382 250.783 22.4531C250.875 22.5243 250.938 22.6267 250.96 22.741C251.168 23.3952 251.436 24.0288 251.76 24.634C252.569 25.7939 253.228 27.0507 253.724 28.375C253.939 29.316 253.624 30.092 252.955 30.243C252.639 30.2941 252.317 30.2759 252.009 30.1895C251.701 30.1032 251.416 29.9508 251.173 29.743C250.659 29.312 250.019 29.0609 249.349 29.028C248.917 29.053 248.876 29.385 249.357 29.468C249.873 29.558 251.157 30.95 252.113 31.047C252.365 31.072 252.413 31.22 252.146 31.382C251.855 31.525 251.531 31.5855 251.208 31.5571C250.885 31.5288 250.576 31.4125 250.315 31.221C249.768 30.903 249.287 30.445 248.658 30.132C248.051 29.8375 247.391 29.6675 246.718 29.632C246.643 29.6343 246.569 29.6096 246.511 29.5624C246.452 29.5153 246.413 29.4488 246.399 29.375C246.381 29.26 246.099 29.565 246.069 30.155" fill="#E34D32"/>
<path d="M252.553 29.482C252.543 29.259 252.465 29.0445 252.33 28.8667C252.195 28.689 252.009 28.5566 251.797 28.487C251.318 28.413 251.092 28.977 251.491 29.096C251.623 29.1262 251.746 29.1857 251.852 29.2702C251.958 29.3547 252.043 29.462 252.102 29.584C252.124 29.634 252.163 29.6748 252.211 29.6995C252.26 29.7242 252.316 29.7313 252.369 29.7195C252.422 29.7077 252.47 29.6778 252.504 29.6348C252.537 29.5919 252.555 29.5386 252.554 29.484" fill="#E34D32"/>
<path d="M243.94 23.557C243.748 23.542 243.684 23.279 244.04 23.235C244.396 23.191 244.419 23.135 244.508 23.043C244.67 22.8419 244.875 22.6802 245.108 22.5701C245.342 22.4601 245.597 22.4047 245.855 22.408C246.731 22.415 247.037 23.125 247.231 23.626C247.256 23.6697 247.272 23.7183 247.277 23.7685C247.282 23.8187 247.277 23.8695 247.261 23.9175C247.246 23.9655 247.22 24.0096 247.186 24.0471C247.152 24.0846 247.111 24.1145 247.065 24.135C246.693 24.3916 246.248 24.5208 245.797 24.503C245.37 24.3983 244.995 24.1425 244.741 23.783C244.606 23.616 244.361 23.589 243.941 23.556L243.94 23.557ZM246.557 23.537C246.622 23.572 246.68 23.495 246.636 23.383C246.577 23.2287 246.475 23.0941 246.343 22.9947C246.211 22.8954 246.054 22.8351 245.889 22.821C245.758 22.8086 245.626 22.8243 245.502 22.8669C245.378 22.9095 245.264 22.978 245.169 23.068C245.075 23.159 245.19 23.218 245.312 23.226C245.741 23.2661 246.161 23.372 246.558 23.54" fill="#E34D32"/>
<path d="M237.777 24.994C238.034 24.521 238.417 24.771 238.277 25.176C238.017 25.9499 238.03 26.7897 238.314 27.555C238.714 28.294 239.728 27.955 240.573 28.62C241.299 29.194 241.029 30.26 241.511 30.656C241.772 30.8133 242.064 30.9117 242.367 30.9443C242.67 30.9769 242.976 30.9431 243.264 30.845C243.721 30.752 243.928 31.145 243.371 31.409C242.959 31.5831 242.511 31.6562 242.065 31.6225C241.618 31.5888 241.187 31.4491 240.805 31.215C240.132 30.633 240.285 29.748 239.885 29.298C239.434 28.79 238.415 29.125 237.72 28.177C237.43 27.6943 237.282 27.1398 237.292 26.5767C237.302 26.0136 237.471 25.4648 237.778 24.993" fill="#E34D32"/>
<path d="M240.749 20.279C241.172 19.97 241.688 19.8159 242.212 19.8423C242.735 19.8687 243.233 20.074 243.623 20.424C243.872 20.6801 244.037 21.0064 244.095 21.359C244.153 21.7115 244.102 22.0735 243.948 22.396C243.521 23.071 242.948 22.828 242.978 23.449C243.004 23.7798 242.957 24.1123 242.842 24.4232C242.726 24.7341 242.543 25.0159 242.307 25.249C242.176 25.3742 242.022 25.4721 241.853 25.5371C241.684 25.602 241.504 25.6327 241.323 25.6273C241.142 25.6219 240.964 25.5806 240.799 25.5057C240.634 25.4307 240.486 25.3238 240.363 25.191C240.241 24.959 240.167 24.7045 240.146 24.443C240.125 24.1815 240.158 23.9184 240.242 23.67C240.279 23.2655 240.215 22.8581 240.057 22.484C239.924 22.0894 239.919 21.6627 240.044 21.2653C240.168 20.8679 240.415 20.5201 240.75 20.272L240.749 20.279ZM240.741 22.678C240.887 23.1674 240.916 23.6842 240.827 24.187C240.78 24.3186 240.78 24.4628 240.829 24.5939C240.878 24.7251 240.972 24.8346 241.094 24.903C241.24 24.949 241.395 24.956 241.544 24.9234C241.694 24.8908 241.832 24.8196 241.945 24.717C242.085 24.5591 242.193 24.3751 242.261 24.1755C242.33 23.9758 242.358 23.7646 242.345 23.554C242.339 23.335 242.172 23.276 242.072 23.404C241.952 23.5586 241.846 23.7236 241.755 23.897C241.7 24.013 241.43 24.147 241.455 23.763C241.468 23.564 241.524 23.3704 241.621 23.196C241.718 23.0217 241.852 22.8711 242.014 22.755C242.501 22.401 242.886 22.538 243.268 22.214C243.588 21.942 243.368 21.097 242.787 20.736C242.521 20.5873 242.216 20.5241 241.913 20.555C241.61 20.586 241.324 20.7096 241.094 20.909C240.869 21.1382 240.716 21.428 240.653 21.743C240.591 22.0579 240.622 22.3843 240.742 22.682" fill="#E34D32"/>
<path d="M248.652 31.212C248.872 31.4698 249.011 31.7866 249.052 32.123C249.26 32.9117 249.264 33.7405 249.064 34.5314C248.864 35.3222 248.466 36.0493 247.908 36.644C247.325 37.297 248.52 37.323 248.917 36.865C249.414 36.2696 249.768 35.5687 249.953 34.8155C250.138 34.0623 250.149 33.2769 249.984 32.519C249.945 32.264 250.072 32.199 250.202 32.266C250.332 32.333 250.669 31.966 250.347 31.766C249.865 31.4097 249.364 31.079 248.847 30.775C248.467 30.613 248.461 31.081 248.647 31.213" fill="#E34D32"/>
<path d="M232.901 27.41C233.149 26.1196 233.796 24.9394 234.749 24.035C235.574 23.4308 236.543 23.0545 237.56 22.944C237.992 22.925 238.172 22.752 237.97 22.452C237.768 21.9167 237.688 21.343 237.736 20.7728C237.784 20.2027 237.958 19.6504 238.247 19.1564C238.536 18.6624 238.931 18.239 239.404 17.9173C239.877 17.5957 240.416 17.3837 240.982 17.297C241.237 17.259 241.39 17.304 241.396 17.474C241.408 17.7019 241.442 17.9282 241.496 18.15C241.561 18.407 241.889 18.386 241.929 18.074C241.956 17.5528 242.135 17.051 242.445 16.6308C242.754 16.2105 243.18 15.8904 243.67 15.71C244.156 15.5502 244.673 15.5123 245.176 15.5995C245.68 15.6867 246.154 15.8963 246.558 16.21C246.658 16.297 246.737 16.4 246.686 16.523C246.607 16.7094 246.545 16.9029 246.503 17.101C246.494 17.1511 246.503 17.2028 246.53 17.2462C246.557 17.2896 246.598 17.3216 246.647 17.336C246.696 17.3504 246.749 17.3462 246.794 17.3243C246.84 17.3023 246.877 17.2641 246.896 17.217C247.031 16.858 247.266 16.545 247.573 16.3147C247.88 16.0845 248.246 15.9465 248.629 15.917C249.141 15.8967 249.641 16.0767 250.023 16.4187C250.404 16.7606 250.638 17.2377 250.674 17.749C250.71 17.922 250.574 17.922 250.505 17.909C250.302 17.9016 250.099 17.9289 249.905 17.99C249.778 18.053 249.761 18.233 249.995 18.254C250.317 18.2329 250.639 18.3048 250.921 18.4612C251.204 18.6175 251.436 18.8518 251.589 19.136C251.803 19.4685 251.884 19.8697 251.815 20.2592C251.746 20.6487 251.532 20.9977 251.216 21.236C250.922 21.3867 250.597 21.4661 250.267 21.4677C249.937 21.4692 249.611 21.3929 249.316 21.245C248.926 20.975 248.611 20.309 248.766 20.053C248.906 19.7676 248.942 19.4419 248.866 19.133C248.859 19.088 248.836 19.047 248.801 19.0171C248.767 18.9873 248.723 18.9706 248.678 18.9699C248.632 18.9691 248.588 18.9845 248.552 19.0132C248.517 19.042 248.493 19.0822 248.484 19.127C248.351 19.4822 248.114 19.7885 247.803 20.0052C247.492 20.2219 247.122 20.3387 246.743 20.34C246.346 20.2431 245.983 20.037 245.697 19.7449C245.411 19.4527 245.212 19.0863 245.123 18.687C245.034 18.328 244.648 18.435 244.661 18.728C244.683 18.9907 244.724 19.2515 244.785 19.508C244.81 19.5891 244.819 19.6744 244.81 19.7589C244.802 19.8434 244.777 19.9254 244.736 20C244.486 20.2299 244.172 20.3787 243.836 20.427C243.691 20.4146 243.553 20.3624 243.436 20.276C243.353 20.214 243.19 20.27 243.436 20.659C243.579 20.8567 243.687 21.078 243.753 21.313C243.796 21.461 244.11 21.531 244.094 21.413C244.078 21.295 244.113 21.13 244.267 21.107C244.606 21.0484 244.923 20.8987 245.184 20.674C245.211 20.6482 245.243 20.6282 245.279 20.6152C245.314 20.6022 245.351 20.5966 245.389 20.5985C245.426 20.6005 245.463 20.61 245.496 20.6266C245.53 20.6432 245.56 20.6665 245.584 20.695C245.842 20.9149 246.152 21.0653 246.484 21.132C246.925 21.2038 247.377 21.1125 247.755 20.875C247.855 20.803 248.044 20.781 248.088 20.922C248.258 21.3913 248.579 21.7909 249 22.058C249.373 22.2704 249.794 22.3839 250.223 22.3876C250.652 22.3912 251.075 22.285 251.451 22.079C251.88 21.9337 252.242 21.6397 252.473 21.2502C252.703 20.8608 252.787 20.4017 252.708 19.956C252.596 19.244 252.226 18.5982 251.668 18.142C251.559 18.0325 251.495 17.8863 251.488 17.732C251.418 17.1461 251.18 16.5929 250.803 16.1389C250.426 15.6849 249.926 15.3495 249.363 15.173C249.005 15.0916 248.635 15.085 248.275 15.1539C247.914 15.2227 247.572 15.3654 247.27 15.573C247.115 15.673 247.078 15.626 246.957 15.527C246.481 15.1423 245.916 14.8844 245.314 14.7774C244.712 14.6704 244.092 14.7177 243.513 14.915C242.833 15.1436 242.235 15.5651 241.791 16.128C241.735 16.2066 241.659 16.2692 241.572 16.3097C241.484 16.3502 241.387 16.3672 241.291 16.359C240.587 16.4047 239.901 16.6024 239.281 16.9385C238.661 17.2746 238.121 17.7412 237.698 18.306C236.955 19.2708 236.623 20.4897 236.774 21.698C236.787 21.97 236.743 22.098 236.466 22.16C235.372 22.3955 234.373 22.9526 233.598 23.7598C232.823 24.5669 232.307 25.5874 232.116 26.69C231.937 27.714 232.766 28.229 232.888 27.426" fill="#E34D32"/>
<path d="M252.709 19.835C252.74 19.996 252.849 20.382 253.177 20.417C253.717 20.4648 254.247 20.5897 254.752 20.788C254.862 20.829 254.954 20.9067 255.012 21.0079C255.071 21.1091 255.093 21.2275 255.074 21.343C254.952 21.918 254.661 22.4434 254.238 22.8522C253.816 23.261 253.281 23.5346 252.702 23.638C252.529 23.678 252.493 24.112 252.586 24.302C252.679 24.492 252.439 24.874 252.168 24.423C251.767 23.6719 251.405 22.9006 251.083 22.112C250.961 21.771 251.405 21.598 251.661 21.285C251.917 20.972 252.397 20.35 252.335 19.87C252.273 19.39 252.65 19.547 252.704 19.832" fill="#E34D32"/>
<path d="M241.841 13.056C241.989 13.1975 242.119 13.3563 242.229 13.529C242.238 13.5442 242.244 13.5612 242.246 13.5788C242.248 13.5964 242.247 13.6143 242.242 13.6314C242.237 13.6484 242.228 13.6642 242.217 13.6777C242.205 13.6912 242.191 13.7022 242.175 13.71C242.031 13.802 241.848 13.91 241.675 14.01C241.412 14.16 241.155 14.303 240.975 14.395C240.891 14.438 240.838 14.448 240.782 14.359C240.682 14.208 240.582 14.036 240.482 13.85C240.057 13.1213 239.695 12.3579 239.399 11.568C239.389 11.5464 239.386 11.522 239.392 11.4988C239.397 11.4755 239.41 11.4548 239.429 11.44C239.479 11.406 239.569 11.35 239.673 11.29C239.777 11.23 239.883 11.174 239.949 11.143C240.015 11.112 240.039 11.137 240.056 11.167C240.306 11.9244 240.611 12.6624 240.97 13.375C241.095 13.595 241.16 13.614 241.293 13.537C241.46 13.4299 241.603 13.2884 241.711 13.122C241.744 13.068 241.761 13.054 241.776 13.045C241.787 13.0385 241.801 13.0358 241.814 13.0372C241.827 13.0387 241.839 13.0442 241.849 13.053" fill="#E34D32"/>
<path d="M242.853 13.407C242.781 13.42 242.737 13.407 242.713 13.337C242.648 13.137 242.581 12.929 242.531 12.717C242.369 12.2488 242.327 11.7478 242.407 11.259C242.487 10.7702 242.687 10.309 242.99 9.917C243.016 9.88641 243.051 9.86445 243.09 9.854C243.124 9.84797 243.16 9.85397 243.19 9.871C243.628 10.0891 244.006 10.4116 244.291 10.81C244.576 11.2084 244.758 11.6706 244.822 12.156C244.869 12.356 244.911 12.566 244.942 12.791C244.952 12.87 244.915 12.901 244.842 12.926C244.763 12.9542 244.682 12.9779 244.6 12.997C244.5 13.022 244.4 13.035 244.335 13.047C244.325 13.0487 244.314 13.0483 244.304 13.0457C244.293 13.0432 244.284 13.0386 244.275 13.0323C244.267 13.026 244.26 13.018 244.254 13.0088C244.249 12.9996 244.245 12.9895 244.244 12.979C244.232 12.7873 244.21 12.5964 244.178 12.407C244.128 12.194 243.99 12.133 243.732 12.194C243.403 12.273 243.143 12.469 243.212 12.753C243.256 12.936 243.351 13.079 243.381 13.184C243.386 13.1932 243.388 13.2033 243.388 13.2136C243.389 13.2239 243.387 13.2341 243.383 13.2435C243.379 13.253 243.373 13.2615 243.365 13.2685C243.358 13.2755 243.349 13.2808 243.339 13.284C243.253 13.3146 243.165 13.34 243.076 13.36C242.997 13.379 242.926 13.396 242.855 13.408L242.853 13.407ZM243.6 11.733C243.748 11.693 243.842 11.68 243.9 11.657C243.958 11.634 243.958 11.603 243.943 11.542C243.838 11.1723 243.62 10.8446 243.32 10.604C243.289 10.584 243.273 10.57 243.252 10.576C243.231 10.582 243.218 10.597 243.194 10.634C242.999 11.0381 242.946 11.4961 243.044 11.934C243.053 11.972 243.078 11.984 243.102 11.978C243.258 11.8773 243.426 11.7957 243.602 11.735" fill="#E34D32"/>
<path d="M246.351 12.895C246.256 12.8925 246.16 12.8845 246.066 12.871C245.96 12.857 245.855 12.839 245.758 12.817C245.738 12.8132 245.721 12.8027 245.708 12.7875C245.695 12.7722 245.688 12.753 245.687 12.733C245.666 12.2596 245.688 11.7853 245.753 11.316C245.834 10.7365 245.955 10.1631 246.114 9.60001C246.117 9.5763 246.129 9.55468 246.148 9.53975C246.166 9.52482 246.19 9.51774 246.214 9.52001C246.287 9.52501 246.406 9.53701 246.524 9.55201C246.621 9.56387 246.718 9.58089 246.813 9.603C246.843 9.60822 246.87 9.6218 246.893 9.64217C246.915 9.66254 246.931 9.68885 246.939 9.71801C247.104 10.1958 247.238 10.6838 247.339 11.179C247.348 11.211 247.359 11.226 247.38 11.229C247.391 11.23 247.402 11.2274 247.411 11.2214C247.42 11.2154 247.427 11.2064 247.431 11.196C247.657 10.7531 247.905 10.3219 248.175 9.90401C248.188 9.87502 248.21 9.85031 248.236 9.83266C248.263 9.81501 248.294 9.80509 248.326 9.804C248.417 9.80468 248.509 9.81236 248.599 9.827C248.684 9.838 248.772 9.854 248.86 9.873C248.889 9.87679 248.917 9.89095 248.937 9.91294C248.957 9.93493 248.968 9.96331 248.969 9.993C249.016 10.5484 249.003 11.1073 248.931 11.66C248.866 12.1415 248.77 12.6182 248.642 13.087C248.638 13.1144 248.624 13.1392 248.602 13.1568C248.581 13.1743 248.554 13.1833 248.526 13.182C248.4 13.1763 248.275 13.1643 248.151 13.146C248.063 13.1354 247.976 13.1194 247.89 13.098C247.84 13.087 247.821 13.063 247.827 13.019C248.006 12.4976 248.143 11.9625 248.235 11.419C248.271 11.1851 248.284 10.9484 248.276 10.712C248.277 10.7031 248.274 10.6941 248.269 10.6869C248.264 10.6797 248.256 10.6747 248.247 10.673C248.239 10.6713 248.231 10.6725 248.224 10.6764C248.217 10.6802 248.212 10.6865 248.209 10.694C247.951 11.2223 247.656 11.7319 247.327 12.219C247.318 12.2377 247.304 12.2534 247.286 12.2643C247.268 12.2753 247.248 12.2811 247.227 12.281C247.205 12.2763 247.185 12.2657 247.169 12.2504C247.153 12.235 247.141 12.2155 247.135 12.194C246.933 11.6462 246.776 11.0826 246.666 10.509C246.665 10.4991 246.661 10.4897 246.655 10.4824C246.648 10.4751 246.639 10.4704 246.629 10.469C246.612 10.469 246.597 10.478 246.59 10.498C246.523 10.759 246.474 11.0243 246.443 11.292C246.385 11.8037 246.385 12.3203 246.443 12.832C246.437 12.875 246.405 12.89 246.358 12.89" fill="#E34D32"/>
<path d="M249.455 13.586C249.442 13.5804 249.43 13.5722 249.42 13.5619C249.41 13.5516 249.403 13.5394 249.397 13.526C249.392 13.5127 249.39 13.4984 249.391 13.4842C249.391 13.4699 249.395 13.4559 249.401 13.443C249.585 13.006 249.79 12.592 250.001 12.208C250.279 11.6875 250.597 11.1891 250.951 10.717C250.967 10.6925 250.993 10.6753 251.021 10.6688C251.05 10.6623 251.08 10.667 251.106 10.682C251.232 10.736 251.488 10.865 251.737 11C252.196 11.248 252.479 11.452 252.558 11.728C252.577 11.8053 252.581 11.8857 252.57 11.9645C252.558 12.0433 252.53 12.1189 252.489 12.187C252.424 12.3054 252.333 12.4071 252.222 12.484C252.111 12.5609 251.984 12.6109 251.85 12.63C251.805 12.64 251.776 12.65 251.763 12.673C251.758 12.6843 251.755 12.6966 251.755 12.709C251.755 12.7215 251.758 12.7338 251.763 12.745C251.854 12.8954 251.903 13.0672 251.906 13.243C251.909 13.4187 251.864 13.592 251.778 13.745C251.458 14.336 250.917 14.4 249.913 13.856C249.755 13.77 249.591 13.677 249.451 13.592L249.455 13.586ZM251.242 13.345C251.308 13.2428 251.335 13.1203 251.318 12.9999C251.301 12.8795 251.241 12.7691 251.15 12.689C251.008 12.6333 250.858 12.6039 250.706 12.602C250.641 12.5927 250.575 12.6062 250.519 12.6403C250.463 12.6745 250.421 12.7271 250.4 12.789C250.299 12.9333 250.241 13.1031 250.232 13.279C250.251 13.354 250.285 13.387 250.451 13.479C250.74 13.636 251.067 13.669 251.242 13.347V13.345ZM251.883 11.968C251.999 11.753 251.834 11.584 251.594 11.455C251.462 11.384 251.346 11.33 251.273 11.355C251.09 11.5353 250.942 11.7479 250.836 11.982C250.794 12.059 250.784 12.113 250.845 12.145C251.009 12.2469 251.205 12.285 251.396 12.2522C251.587 12.2194 251.759 12.118 251.88 11.967" fill="#E34D32"/>
<path d="M335.352 21.676C335.352 25.172 334.315 28.5895 332.373 31.4963C330.431 34.4031 327.67 36.6686 324.44 38.0065C321.21 39.3443 317.656 39.6944 314.228 39.0124C310.799 38.3303 307.649 36.6469 305.177 34.1748C302.705 31.7028 301.022 28.5532 300.34 25.1244C299.658 21.6956 300.008 18.1416 301.346 14.9117C302.683 11.6818 304.949 8.92121 307.856 6.97894C310.763 5.03668 314.18 4 317.676 4C322.364 4 326.86 5.86228 330.175 9.17718C333.49 12.4921 335.352 16.988 335.352 21.676Z" fill="#E34D32"/>
<path d="M331.86 21.675C331.86 24.4806 331.028 27.2233 329.47 29.5561C327.911 31.889 325.696 33.7073 323.104 34.781C320.512 35.8548 317.66 36.1358 314.908 35.5885C312.156 35.0412 309.629 33.6902 307.645 31.7063C305.661 29.7224 304.31 27.1948 303.763 24.4431C303.215 21.6914 303.496 18.8392 304.57 16.2472C305.644 13.6552 307.462 11.4398 309.795 9.88118C312.128 8.32259 314.87 7.4908 317.676 7.491C321.438 7.491 325.046 8.98534 327.706 11.6453C330.366 14.3053 331.861 17.9131 331.861 21.675" fill="white"/>
<path d="M318.083 18.397C317.761 18.58 317.641 18.31 317.731 18.035C317.786 17.8793 317.885 17.7428 318.015 17.6418C318.146 17.5407 318.302 17.4793 318.467 17.465C318.544 17.4552 318.622 17.4608 318.697 17.4816C318.772 17.5023 318.842 17.5376 318.904 17.5856C318.965 17.6336 319.016 17.6933 319.054 17.7611C319.092 17.829 319.116 17.9037 319.125 17.981C319.131 18.0826 319.098 18.1827 319.032 18.2607C318.967 18.3388 318.874 18.3889 318.773 18.401C318.484 18.454 318.385 18.228 318.084 18.401" fill="#E34D32"/>
<path d="M314.811 20.793C314.567 20.831 314.511 20.699 314.646 20.546C314.797 20.3688 314.989 20.2314 315.205 20.146C315.424 20.071 315.642 20.285 315.467 20.49C315.289 20.6635 315.058 20.7714 314.811 20.796" fill="#E34D32"/>
<path d="M329.039 24.122C328.869 24.122 328.794 24.006 328.914 23.856C329.264 23.3878 329.511 22.8506 329.638 22.28C329.71 21.833 329.438 21.803 329.095 21.818C328.304 21.8558 327.523 22.0157 326.78 22.292C326.531 22.392 326.523 22.287 326.629 22.064C326.773 21.7413 326.877 21.4021 326.937 21.054C326.981 20.765 326.767 20.554 326.437 20.58C325.517 20.6428 324.616 20.8757 323.78 21.267C323.339 21.4894 322.92 21.7547 322.531 22.059C322.424 22.14 322.284 22.134 322.292 21.987C322.301 21.814 321.714 22.25 321.692 22.463C321.676 22.883 321.638 23.3019 321.579 23.718C321.508 23.953 321.914 24.145 321.968 23.935C322.045 23.6519 322.192 23.3926 322.395 23.181C322.817 22.7528 323.297 22.3859 323.821 22.091C324.377 21.7521 324.991 21.5172 325.631 21.398C325.904 21.354 326.031 21.384 325.993 21.624C325.852 22.424 324.819 23.286 324.438 23.608C324.138 23.86 324.438 24.018 324.676 23.888C325.176 23.616 326.053 23.228 326.447 23.062C327.138 22.8014 327.852 22.6062 328.579 22.479C328.856 22.433 328.868 22.537 328.779 22.719C328.562 23.1971 328.236 23.6175 327.826 23.946C327.643 24.0957 327.424 24.1953 327.191 24.235C327.006 24.268 327.123 24.458 328.101 24.361C329.079 24.264 329.237 24.123 329.038 24.123" fill="#E34D32"/>
<path d="M331.203 24.252C329.371 24.0233 327.513 24.0942 325.703 24.462C324.246 24.746 322.85 25.2879 321.583 26.062C321.452 26.141 321.359 26.042 321.392 25.87C322.34 23.5113 322.567 20.9246 322.044 18.437C321.96 17.9172 321.775 17.419 321.498 16.9711C321.221 16.5232 320.859 16.1343 320.431 15.8268C320.004 15.5193 319.52 15.2992 319.008 15.1791C318.495 15.059 317.964 15.0413 317.444 15.127C316.644 15.2046 315.883 15.5129 315.255 16.0143C314.626 16.5158 314.157 17.1889 313.903 17.952C313.733 18.386 313.73 18.72 313.493 18.987C312.431 19.6611 311.409 20.3956 310.431 21.187C309.982 21.62 310.01 22.18 310.439 22.387C310.904 22.4997 311.39 22.4841 311.846 22.342C312.254 22.3589 312.656 22.4452 313.035 22.597C313.167 22.618 313.301 22.6277 313.435 22.626C312.596 23.4696 311.907 24.4504 311.398 25.526C311.378 25.6619 311.393 25.8006 311.44 25.9295C311.488 26.0584 311.567 26.1732 311.67 26.2635C311.774 26.3538 311.898 26.4166 312.033 26.4462C312.167 26.4759 312.306 26.4713 312.438 26.433C313.719 25.869 314.895 25.0912 315.915 24.133C316.233 23.87 316.51 23.697 316.555 24.133C316.655 24.7938 316.587 25.4691 316.357 26.0965C316.127 26.724 315.742 27.2834 315.239 27.723C313.633 29.036 312.629 30.515 312.693 32.344C312.705 32.655 312.819 32.79 313.07 32.691C313.22 32.633 313.489 32.391 313.716 32.272C313.943 32.153 313.935 32.372 313.804 32.662C313.527 33.3462 313.385 34.0777 313.387 34.816C313.379 35.0726 313.392 35.3295 313.426 35.584C313.465 35.6854 313.527 35.7767 313.607 35.8509C313.686 35.9252 313.781 35.9806 313.885 36.013C314.332 36.197 314.446 36.027 314.405 35.77C314.327 35.1223 314.327 34.4676 314.405 33.82C314.559 32.9961 314.85 32.204 315.267 31.477C315.56 30.989 315.361 30.768 314.902 30.952C314.57 31.086 314.276 31.282 314.102 31.352C313.881 31.447 313.758 31.362 313.793 31.083C313.854 30.583 314.362 29.611 315.9 28.338C316.515 27.7339 316.975 26.9895 317.239 26.1688C317.503 25.348 317.564 24.4754 317.416 23.626C317.352 23.2847 317.368 22.9332 317.462 22.599C317.631 22.1395 317.643 21.6373 317.498 21.17C317.35 20.8172 317.126 20.5016 316.841 20.246C316.681 20.0735 316.564 19.8663 316.499 19.6406C316.433 19.4149 316.421 19.177 316.464 18.946C316.524 18.367 316.175 18.256 315.829 18.605C315.573 18.861 315.121 19.317 314.674 19.213C314.227 19.109 314.501 18.502 314.695 18.053C314.947 17.4827 315.335 16.9835 315.827 16.5997C316.318 16.2159 316.896 15.9594 317.51 15.853C319.723 15.56 320.81 17.022 321.197 18.696C321.847 21.485 320.955 24.333 320.097 26.577C319.745 27.4108 319.564 28.3063 319.562 29.2112C319.561 30.1161 319.74 31.0121 320.089 31.847C320.382 32.44 320.778 32.391 320.62 31.585C320.471 30.9188 320.463 30.2287 320.597 29.5593C320.731 28.8899 321.005 28.2561 321.399 27.699C322.099 26.84 323.399 26.005 325.924 25.338C327.546 24.9453 329.229 24.8642 330.881 25.099C331.664 25.238 332.187 25.499 332.299 25.078C332.436 24.555 331.994 24.348 331.199 24.247L331.203 24.252ZM316.544 21.659C316.567 21.477 316.732 21.441 316.775 21.636C316.812 21.8523 316.793 22.0743 316.722 22.2818C316.651 22.4893 316.529 22.6757 316.367 22.824C315.334 23.7002 314.255 24.5201 313.134 25.28C312.441 25.742 312.259 25.48 312.434 25.08C312.569 24.765 314.017 23.136 314.354 22.732C314.554 22.489 314.783 22.571 314.685 22.755C314.527 23.0532 314.348 23.3403 314.15 23.614C313.991 23.835 314.15 23.932 314.356 23.798C314.964 23.4279 315.536 23.0024 316.066 22.527C316.32 22.3056 316.489 22.0025 316.544 21.67V21.659ZM314.497 19.822C314.696 19.8701 314.904 19.8656 315.101 19.8089C315.298 19.7523 315.477 19.6455 315.62 19.499C315.763 19.368 315.945 19.423 315.952 19.679C315.961 20.0214 316.095 20.3488 316.329 20.599C316.364 20.6283 316.392 20.6659 316.409 20.7085C316.426 20.7511 316.432 20.7973 316.427 20.8428C316.422 20.8884 316.405 20.9319 316.379 20.9695C316.352 21.007 316.317 21.0374 316.276 21.058C315.519 21.5184 314.697 21.8633 313.838 22.081C313.342 22.0301 312.856 21.9096 312.394 21.723C312.008 21.6761 311.617 21.7126 311.246 21.83C310.946 21.923 310.905 21.657 311.122 21.448C311.913 20.7708 312.784 20.1944 313.717 19.732C313.846 19.6921 313.982 19.6795 314.116 19.695C314.25 19.7105 314.38 19.7538 314.496 19.822" fill="#E34D32"/>
<path d="M312.864 13.972C312.797 14 312.759 13.999 312.72 13.972C312.425 13.6208 312.189 13.2244 312.02 12.798C311.741 12.2598 311.517 11.6949 311.351 11.112C311.343 11.0881 311.342 11.0621 311.35 11.038C311.358 11.014 311.374 10.9932 311.395 10.979C311.502 10.916 311.642 10.842 311.769 10.779C312.724 10.308 313.525 10.443 314.178 11.767C314.293 11.9276 314.367 12.1135 314.395 12.3091C314.423 12.5046 314.404 12.704 314.338 12.8904C314.273 13.0768 314.164 13.2446 314.02 13.3798C313.875 13.515 313.701 13.6135 313.511 13.667C313.277 13.782 312.941 13.943 312.862 13.977L312.864 13.972ZM313.527 11.97C313.149 11.202 312.668 11.011 312.269 11.208C312.227 11.2284 312.195 11.2643 312.179 11.308C312.223 11.6821 312.353 12.0409 312.558 12.357C312.798 12.843 312.965 13.135 313.098 13.181C313.154 13.1952 313.213 13.187 313.263 13.158C313.693 12.946 313.822 12.571 313.526 11.972" fill="#E34D32"/>
<path d="M316.425 9.364C316.497 9.34468 316.57 9.3303 316.644 9.32098C316.731 9.308 316.82 9.30032 316.908 9.29799C316.929 9.29611 316.949 9.30069 316.967 9.31108C316.985 9.32147 316.999 9.33715 317.008 9.35599C317.207 9.90179 317.335 10.4707 317.39 11.049C317.52 12.009 317.35 12.649 316.456 12.775C315.685 12.88 315.243 12.434 315.101 11.409C315.01 10.8232 314.988 10.2288 315.036 9.63798C315.037 9.61729 315.044 9.59736 315.056 9.58066C315.069 9.56395 315.086 9.5512 315.105 9.54399C315.168 9.53099 315.273 9.51198 315.375 9.49798C315.477 9.48398 315.562 9.47699 315.626 9.47299C315.636 9.47211 315.647 9.47349 315.657 9.47702C315.667 9.48055 315.676 9.48615 315.683 9.49345C315.691 9.50075 315.696 9.50959 315.7 9.51935C315.704 9.5291 315.706 9.53954 315.705 9.54999C315.694 10.1093 315.718 10.6688 315.778 11.225C315.878 11.925 316.078 12.163 316.383 12.125C316.714 12.08 316.811 11.815 316.715 11.111C316.635 10.5588 316.523 10.0119 316.379 9.47299C316.368 9.42199 316.372 9.38598 316.425 9.37298V9.364Z" fill="#E34D32"/>
<path d="M318.311 11.183C318.489 10.106 319.062 9.295 319.867 9.428C320.002 9.45583 320.129 9.51142 320.241 9.59122C320.353 9.67102 320.447 9.77327 320.517 9.89145C320.587 10.0096 320.632 10.1412 320.648 10.2776C320.665 10.4141 320.653 10.5525 320.613 10.684C320.607 10.7343 320.589 10.7825 320.561 10.8246C320.533 10.8668 320.495 10.9019 320.451 10.927C320.316 11.0298 320.153 11.0901 319.984 11.1C319.942 11.093 319.926 11.06 319.935 11C319.944 10.94 319.966 10.868 319.976 10.808C320.034 10.472 320.011 10.075 319.724 10.028C319.403 9.975 319.139 10.418 319.024 11.128C318.924 11.761 319.055 12.071 319.447 12.135C319.617 12.1531 319.789 12.116 319.937 12.029C320.085 11.942 320.201 11.8099 320.268 11.652C320.275 11.6408 320.285 11.6317 320.297 11.6256C320.309 11.6195 320.323 11.6165 320.336 11.617C320.424 11.631 320.47 11.803 320.428 12.053C320.41 12.1877 320.363 12.317 320.29 12.4318C320.218 12.5467 320.121 12.6445 320.007 12.7185C319.893 12.7925 319.764 12.841 319.63 12.8606C319.495 12.8802 319.358 12.8704 319.228 12.832C318.482 12.707 318.148 12.132 318.309 11.175" fill="#E34D32"/>
<path d="M320.942 13.194C320.868 13.151 320.842 13.094 320.891 12.976C321.006 12.691 321.152 12.376 321.31 12.064C321.614 11.4722 321.953 10.8991 322.325 10.348C322.402 10.235 322.444 10.228 322.525 10.262C322.576 10.283 322.658 10.32 322.734 10.362C322.81 10.404 322.88 10.442 322.951 10.482C323.022 10.522 323.036 10.56 322.992 10.636C322.725 10.9862 322.476 11.3496 322.246 11.725C322.228 11.76 322.23 11.783 322.253 11.797C322.276 11.811 322.306 11.805 322.372 11.78C322.891 11.6826 323.355 11.3939 323.672 10.971C323.721 10.913 323.754 10.905 323.808 10.923C323.89 10.9569 323.97 10.9956 324.048 11.039C324.128 11.082 324.206 11.125 324.256 11.155C324.267 11.1595 324.277 11.1664 324.285 11.175C324.293 11.1837 324.299 11.1941 324.303 11.2054C324.307 11.2167 324.308 11.2286 324.307 11.2405C324.306 11.2523 324.302 11.2637 324.296 11.274C324.003 11.7101 323.572 12.0353 323.072 12.198C323.043 12.206 323.018 12.2246 323.002 12.25C322.996 12.263 322.993 12.2772 322.993 12.2915C322.993 12.3058 322.996 12.32 323.002 12.333C323.104 12.6106 323.148 12.9062 323.13 13.2014C323.113 13.4966 323.035 13.7851 322.902 14.049C322.863 14.126 322.812 14.149 322.75 14.122C322.674 14.0933 322.601 14.0599 322.529 14.022C322.457 13.985 322.382 13.942 322.308 13.899C322.234 13.856 322.233 13.799 322.265 13.711C322.565 12.89 322.511 12.454 322.256 12.325C322.146 12.267 321.956 12.315 321.841 12.544C321.7 12.82 321.594 13.232 321.525 13.368C321.52 13.3824 321.513 13.3955 321.502 13.4066C321.492 13.4177 321.479 13.4265 321.466 13.4324C321.452 13.4382 321.437 13.4411 321.422 13.4407C321.406 13.4403 321.392 13.4366 321.378 13.43C321.316 13.402 321.237 13.367 321.157 13.33C321.077 13.293 320.988 13.239 320.933 13.205" fill="#E34D32"/>
</svg>
