<svg xmlns="http://www.w3.org/2000/svg" width="403" height="14.52" viewBox="0 0 403 14.52"><path d="M-2797.482,1428.478c12.5,0,12.5,11.52,25,11.52s12.5-11.52,25-11.52,12.5,11.52,25,11.52,12.5-11.52,25-11.52,12.5,11.52,25,11.52,12.5-11.52,25-11.52,12.5,11.52,25,11.52,12.5-11.52,24.995-11.52,12.5,11.52,25,11.52,12.5-11.52,25-11.52,12.5,11.52,25,11.52,12.5-11.52,25-11.52,12.5,11.52,25,11.52,12.5-11.52,25-11.52,12.5,11.52,25.006,11.52,12.5-11.52,25.006-11.52" transform="translate(2798.982 -1426.978)" fill="none" stroke="#a46432" stroke-linecap="round" stroke-linejoin="round" stroke-width="3" stroke-dasharray="5 10"/></svg>