<svg xmlns="http://www.w3.org/2000/svg" xmlns:xlink="http://www.w3.org/1999/xlink" width="1265" height="45" viewBox="0 0 1265 45"><defs><clipPath id="a"><rect width="36" height="45" transform="translate(0.135 0)" fill="none"/></clipPath><clipPath id="b"><rect width="35.682" height="44.332" transform="translate(0 0)" fill="none"/></clipPath><clipPath id="c"><rect width="36" height="45" transform="translate(0 0)" fill="none"/></clipPath></defs><g transform="translate(-50.095 -372)"><g transform="translate(322.96 372)" clip-path="url(#a)"><g transform="translate(0.41 4.286)"><path d="M35.352,107.676A17.676,17.676,0,1,1,17.676,90a17.676,17.676,0,0,1,17.676,17.676" transform="translate(0 -90)" fill="#e34d32"/><path d="M88.819,164.624A14.184,14.184,0,1,1,74.634,150.44a14.185,14.185,0,0,1,14.185,14.184" transform="translate(-56.958 -146.949)" fill="#fff"/><path d="M314.021,323.937a.968.968,0,0,0-.751-.946,1.618,1.618,0,0,0-1.026.075c-.429.189-.6.5-.876.581a.218.218,0,0,0-.12.372,1.323,1.323,0,0,1,.269.612,1.663,1.663,0,0,0,.638,1.028,1.3,1.3,0,0,0,1.129.145c.157-.058.26-.058.31.095.029.087.108-.076.129-.224a1.9,1.9,0,0,1,.178-.578c.069-.088-.069-.053-.145.052a.837.837,0,0,1-.643.332,1.076,1.076,0,0,1-.8-.2,1.517,1.517,0,0,1-.427-.693,1.493,1.493,0,0,1-.039-.635.85.85,0,0,1,.711-.611,1.217,1.217,0,0,1,.862.082.938.938,0,0,1,.43.52c.047.15.2.221.173,0" transform="translate(-293.203 -309.485)" fill="#e34d32"/><path d="M334.9,334.71c-.11.005-.146-.107-.036-.173a.866.866,0,0,1,.682-.106.539.539,0,0,1,.4.547c0,.184-.106.184-.159.061a.5.5,0,0,0-.359-.318,1.358,1.358,0,0,0-.527-.009" transform="translate(-315.458 -320.285)" fill="#e34d32"/><path d="M339.673,343.726a.307.307,0,1,1-.306-.306.307.307,0,0,1,.306.306" transform="translate(-319.474 -328.782)" fill="#e34d32"/><path d="M330.009,345.469c.013-.163.164-.2.2.017a.613.613,0,0,0,.367.535.755.755,0,0,0,.629-.131c.147-.09.255-.053.173.082a.74.74,0,0,1-1.373-.5" transform="translate(-310.943 -330.587)" fill="#e34d32"/><path d="M303.209,365.57c.146,0,.289.068.28.238a1.316,1.316,0,0,1-.982,1.329,1.517,1.517,0,0,1-1.671-.572c-.409-.789.129-1.791-1.151-2.7-.4-.283-.611-.058-.347.241a2.966,2.966,0,0,1,.578,2.086,1.841,1.841,0,0,0,1.126,1.733,2.562,2.562,0,0,0,2.04-.078,2.119,2.119,0,0,0,1.11-1.906c.014-.149.138-.238.37-.2.2.034.145-.183-.08-.3a3.861,3.861,0,0,0-1.1-.154c-.213-.012-.34.289-.165.289" transform="translate(-281.937 -347.921)" fill="#e34d32"/><path d="M48.163,428.565a.814.814,0,0,1-.413.435,13.406,13.406,0,0,1-1.985.377,6.979,6.979,0,0,1-2.937-.116A10.92,10.92,0,0,1,40,427.779c-.351-.306-.924.462-.35.917a8.315,8.315,0,0,0,4.238,1.707,13.628,13.628,0,0,0,3.211-.339c.235-.068.4.079.278.347-.095.206.5.036.738-.447a3.287,3.287,0,0,0,.206-1.359c.018-.326-.07-.306-.159-.037" transform="translate(-37.131 -408.202)" fill="#e34d32"/><path d="M336.764,517.6a1.107,1.107,0,0,1,.292.656,11.706,11.706,0,0,1,.146,4.054,8.02,8.02,0,0,1-1.891,3.912c-.473.54.593.809,1.1.263a7.376,7.376,0,0,0,1.843-4.053,10.647,10.647,0,0,0-.173-3.765c-.058-.271,0-.377.215-.281s.318-.173-.089-.426a14.872,14.872,0,0,0-1.284-.782c-.322-.141-.39.226-.158.422" transform="translate(-315.831 -492.469)" fill="#e34d32"/><path d="M357.3,374.35c.106.006.094.138.077.289a.99.99,0,0,0,.066.578.58.58,0,0,0,.548.173,6.025,6.025,0,0,1,1.534.243c.471.086.7.026.914-.231a.273.273,0,0,1,.336-.042c.081.046.165-.058.051-.131s-.8-.467-.924-.505-.065.073.062.144a.162.162,0,0,1,.082.231.47.47,0,0,1-.338.093c-.4-.03-.635-.2-1.07-.252-.36-.043-.73.025-.809-.064s-.014-.36.007-.423.1-.173.317-.173c.1,0,.12-.131-.079-.125s-.609.093-.667.088c-.123-.01-.224.1-.11.108" transform="translate(-336.615 -357.742)" fill="#e34d32"/><path d="M352.472,339.761a1.076,1.076,0,0,1,.31-.616c.215-.206.455-.19.585-.4.1-.165.211-.648.555-.745s.542.058.729.448a1.366,1.366,0,0,0,.531.578,3.955,3.955,0,0,1,.914.57,2.234,2.234,0,0,1,.635.934,1.518,1.518,0,0,1-.005.793c-.053.141-.28.061-.386-.005s-.379-.217-.552-.329a4,4,0,0,0-2.179-.8c-.36.01-.8.154-1,.028-.181-.115-.161-.289-.135-.455m1.361.005a3.2,3.2,0,0,1,.96.26c.326.138.918.489,1.082.581.125.069.286.035.248-.133-.069-.3-.575-.7-.924-.9a3.032,3.032,0,0,1-.751-.529c-.131-.155-.208-.378-.414-.378s-.33.278-.407.442c-.067.141-.238.213-.414.308s-.248.265-.176.33.491-.01.8.014" transform="translate(-332.096 -323.649)" fill="#e34d32"/><path d="M163.328,306.574a.363.363,0,0,0-.081.52,6.943,6.943,0,0,1,1.107,1.848,10.456,10.456,0,0,1,.84,3.708c.009.384-.162.431-.371.373a7.678,7.678,0,0,1-2.492-1.26c-.144-.126-.267-.153-.289.11a17.93,17.93,0,0,1-.635,2.876c-.058.276-.347.439-.553.138a14.76,14.76,0,0,1-1.414-1.8c-.109-.217-.252-.225-.336,0a6.8,6.8,0,0,1-1.483,2.141c-.149.195-.47.195-.51-.188-.061-.59-.442-1.527-.51-2.564-.019-.3-.205-.334-.34-.173a9.2,9.2,0,0,1-1.675,1.39c-.154.137-.362.119-.351-.231a11.169,11.169,0,0,1,.125-2.752c.054-.235-.043-.281-.282-.14a11.739,11.739,0,0,1-3.152,1.119c-.282.116-.609-.151-.311-.5a12.769,12.769,0,0,0,1.946-3.127c.5-1.161.446-2.484,1.129-4.112a5.512,5.512,0,0,1,3.209-3.027c.122-.035.115-.127.024-.2a4.349,4.349,0,0,0-.849-.391c-.165-.046-.1-.173.188-.342a6.061,6.061,0,0,1,2.365-.938,7.831,7.831,0,0,1,4.089.556,1.441,1.441,0,0,1,.828,1.231.4.4,0,0,0,.374.42c.173.032,0,.3-.136.315s-.326.219-.429.371-.276.085-.221-.035a.391.391,0,0,0-.018-.451.951.951,0,0,1-.247-.623,1.205,1.205,0,0,0-.631-.854,5.488,5.488,0,0,0-2.534-.488,5.372,5.372,0,0,0-2.253.564c-.116.075-.139.166-.042.227a5.053,5.053,0,0,1,.814.557c.088.1.016.254-.125.3a5.857,5.857,0,0,0-3.528,2.821c-.779,1.516-.655,2.992-1.074,4.225a6.493,6.493,0,0,1-1.05,1.942c-.189.19-.139.3.083.224a5,5,0,0,0,2.661-2.2c.218-.344.4-.208.365.1-.183,1.4-.371,2.464-.485,3.475-.028.243.046.339.217.189a12.083,12.083,0,0,0,1.848-2.132c.116-.233.268-.237.267.1a23.955,23.955,0,0,0,.2,3.438c.042.218.09.314.261.041a8.526,8.526,0,0,0,1.033-2.83c.048-.339.255-.355.347-.041a10.112,10.112,0,0,0,1.419,2.692c.125.157.242.173.305-.063a12.365,12.365,0,0,0,.332-3.116c-.01-.289.085-.462.323-.137a6.727,6.727,0,0,0,2.258,1.824c.191.083.389.1.351-.17a8.164,8.164,0,0,0-.9-2.865,8.518,8.518,0,0,0-.9-1.353.713.713,0,0,0-.6-.218c-.231,0-.37-.365.143-.545a7.141,7.141,0,0,0,1.043-.368c.192-.125.537.239.326.4" transform="translate(-141.804 -286.919)" fill="#e34d32"/><path d="M268.945,263.316c.335.111.754.075.591-.058a1.11,1.11,0,0,1-.323-.873,1.965,1.965,0,0,0-1.013-1.851c-.283-.116-.465.088-.361.261a1.29,1.29,0,0,1,.179.853c-.047.145-.322.124-.451-.094a2.47,2.47,0,0,0-1.521-1.323c-.366-.1-.631.173-.415.392a1.429,1.429,0,0,1,.462.929c-.009.163-.28.252-.5.054a2.529,2.529,0,0,0-1.669-.817c-.41,0-.508.282-.219.447a1.267,1.267,0,0,1,.678.812.746.746,0,0,1-.4.769c-.215.1-.422.5.123.317a7.878,7.878,0,0,1,2.373-.334,13.491,13.491,0,0,1,2.462.52" transform="translate(-248.314 -250.377)" fill="#e34d32"/><path d="M158.565,568.019c.01-.466.395-.529.5-.08a6.415,6.415,0,0,1-1.417,5.323l-1.119-.722a6.4,6.4,0,0,0,2.035-4.521" transform="translate(-147.488 -540.044)" fill="#e34d32"/><path d="M141.84,249.863c-.823-.716-1.213-1.629-.679-2.245a.988.988,0,0,1,1.461.023.324.324,0,0,1,.122.265.866.866,0,0,1-.1.489c-.028.032-.065.028-.108-.009s-.1-.1-.143-.136c-.257-.223-.606-.413-.8-.194-.213.245.025.7.572,1.178.485.421.819.468,1.08.168a.8.8,0,0,0,.019-.953.077.077,0,0,1,.006-.08c.058-.068.231-.016.419.15a.941.941,0,0,1,.038,1.426c-.5.571-1.16.556-1.895-.083" transform="translate(-132.776 -238.216)" fill="#e34d32"/><path d="M182.574,207.215c-.052.021-.089.018-.148-.049a7.845,7.845,0,0,1-.74-1.067,8.045,8.045,0,0,1-.788-1.613.13.13,0,0,1,.03-.15,2.564,2.564,0,0,1,.217-.145,2.318,2.318,0,0,1,.231-.123c.041-.014.067,0,.094.04a8.627,8.627,0,0,0,.51,1.108c.043.071.085.092.131.084.084-.035.18-.148.389-.274s.36-.155.4-.2.021-.089-.021-.16a9.272,9.272,0,0,0-.732-.971.068.068,0,0,1,.015-.1,2.163,2.163,0,0,1,.2-.136c.073-.044.15-.09.231-.129a.124.124,0,0,1,.154.04,8.37,8.37,0,0,1,1.043,1.466,7.9,7.9,0,0,1,.593,1.155c.029.089.023.129-.034.167q-.109.081-.224.15a1.8,1.8,0,0,1-.235.125c-.05.025-.081.023-.11-.025-.062-.1-.258-.642-.408-.9-.119-.2-.308-.223-.572-.065-.385.231-.431.427-.292.659a8.545,8.545,0,0,0,.567.728c.027.045.021.069-.022.105-.073.054-.15.1-.231.148s-.169.091-.251.13" transform="translate(-170.439 -196.77)" fill="#e34d32"/><path d="M244.026,191.514c-.1.028-.2.054-.289.07a.1.1,0,0,1-.116-.066,7.951,7.951,0,0,1-.45-1.251,9.167,9.167,0,0,1-.361-1.762.124.124,0,0,1,.076-.139c.077-.027.166-.058.256-.083s.194-.051.286-.075a.063.063,0,0,1,.078.055,8.594,8.594,0,0,0,.279,1.6,9.894,9.894,0,0,0,.572,1.46c.014.05,0,.073-.049.1-.088.035-.181.066-.28.095" transform="translate(-228.783 -182.534)" fill="#e34d32"/><path d="M277.921,182.8c-.053-1.089.334-2,1.15-2.044.679-.034.968.542.994,1.07a.324.324,0,0,1-.106.272.864.864,0,0,1-.419.27c-.043,0-.065-.027-.068-.084s0-.135,0-.2c-.016-.34-.121-.724-.411-.709-.325.016-.489.5-.454,1.228.031.641.228.915.626.9a.8.8,0,0,0,.7-.646c.016-.032.036-.05.061-.051.09,0,.17.153.183.4a.942.942,0,0,1-1,1.016c-.756.037-1.2-.452-1.251-1.424" transform="translate(-261.863 -175.513)" fill="#e34d32"/><path d="M328.182,188.107c-.081-.026-.116-.076-.1-.2.048-.3.125-.644.214-.982a16.529,16.529,0,0,1,.622-1.895c.051-.126.091-.143.18-.128.055.01.143.028.225.05s.161.047.238.07.1.058.073.141a12.394,12.394,0,0,0-.494,1.224c-.01.038,0,.062.021.069s.054,0,.116-.043a2.11,2.11,0,0,0,1.1-1.069c.035-.068.066-.082.122-.076a2.6,2.6,0,0,1,.259.058c.087.023.173.05.231.069a.082.082,0,0,1,.065.107,2.369,2.369,0,0,1-1,1.17.123.123,0,0,0-.058.066.1.1,0,0,0,.018.081,2.156,2.156,0,0,1,.275,1.7c-.022.084-.066.116-.133.1a1.893,1.893,0,0,1-.238-.054c-.079-.02-.16-.047-.242-.072s-.094-.079-.082-.173c.116-.867-.031-1.281-.308-1.355-.12-.031-.292.054-.358.3-.079.3-.093.725-.132.873a.106.106,0,0,1-.131.092c-.067-.013-.151-.031-.237-.054s-.185-.053-.246-.073" transform="translate(-309.128 -179.414)" fill="#e34d32"/><path d="M376.118,211.364c-.077-.054-.111-.1-.058-.187.1-.173.216-.364.34-.56a12.393,12.393,0,0,1,1.481-1.944.132.132,0,0,1,.16-.038c.13.066.385.223.649.389.3.187.6.388.772.514.048.036.052.069.034.1a2.755,2.755,0,0,1-.39.353.081.081,0,0,1-.087,0,.412.412,0,0,1-.077-.086,2.15,2.15,0,0,0-.511-.431c-.137-.087-.213-.1-.289-.086a1.356,1.356,0,0,0-.44.471c-.054.085-.046.136.027.182.127.08.34.127.578.278.155.1.26.205.213.279a2.254,2.254,0,0,1-.328.325c-.042.035-.065.031-.094.013a2.989,2.989,0,0,0-.362-.316c-.293-.185-.462-.154-.63.108-.231.365-.21.451,0,.581a2.35,2.35,0,0,0,.847.339.249.249,0,0,1,.089.02.062.062,0,0,1,.023.076,2.786,2.786,0,0,1-.243.559.108.108,0,0,1-.16.028c-.231-.13-.5-.293-.751-.449-.3-.189-.584-.379-.789-.52" transform="translate(-354.314 -201.77)" fill="#e34d32"/><path d="M414.514,247.649a.1.1,0,0,1,0-.144,10.811,10.811,0,0,1,1.08-1.01,7.622,7.622,0,0,1,1.366-.958.143.143,0,0,1,.157.025,1.674,1.674,0,0,1,.143.159c.049.058.095.121.124.163a.141.141,0,0,1,.014.133,10.93,10.93,0,0,1-.959,2.176.045.045,0,0,0,0,.058c.017.02.051.019.081-.006A13.131,13.131,0,0,0,418,246.75a.076.076,0,0,1,.11,0c.047.05.11.12.173.2s.106.134.143.187a.109.109,0,0,1-.006.15,14.144,14.144,0,0,1-2.371,2.014.125.125,0,0,1-.185-.025c-.044-.046-.116-.126-.178-.2-.046-.058-.087-.112-.116-.15a.132.132,0,0,1,0-.181,14.509,14.509,0,0,0,.985-2.033c.017-.042.017-.069,0-.086s-.066-.018-.106.016a12.649,12.649,0,0,0-1.494,1.42c-.043.036-.082.024-.121-.017s-.107-.116-.17-.192-.116-.144-.154-.2" transform="translate(-390.542 -236.54)" fill="#e34d32"/></g></g><g transform="translate(1006.801 372)" clip-path="url(#b)"><g transform="translate(-0.117 4.286)"><path d="M35.352,107.676A17.676,17.676,0,1,1,17.676,90a17.676,17.676,0,0,1,17.676,17.676" transform="translate(0 -90)" fill="#e34d32"/><path d="M88.819,164.624A14.184,14.184,0,1,1,74.634,150.44a14.185,14.185,0,0,1,14.185,14.184" transform="translate(-56.958 -146.949)" fill="#fff"/><path d="M314.021,323.937a.968.968,0,0,0-.751-.946,1.618,1.618,0,0,0-1.026.075c-.429.189-.6.5-.876.581a.218.218,0,0,0-.12.372,1.323,1.323,0,0,1,.269.612,1.663,1.663,0,0,0,.638,1.028,1.3,1.3,0,0,0,1.129.145c.157-.058.26-.058.31.095.029.087.108-.076.129-.224a1.9,1.9,0,0,1,.178-.578c.069-.088-.069-.053-.145.052a.837.837,0,0,1-.643.332,1.076,1.076,0,0,1-.8-.2,1.517,1.517,0,0,1-.427-.693,1.493,1.493,0,0,1-.039-.635.85.85,0,0,1,.711-.611,1.217,1.217,0,0,1,.862.082.938.938,0,0,1,.43.52c.047.15.2.221.173,0" transform="translate(-293.203 -309.485)" fill="#e34d32"/><path d="M334.9,334.71c-.11.005-.146-.107-.036-.173a.866.866,0,0,1,.682-.106.539.539,0,0,1,.4.547c0,.184-.106.184-.159.061a.5.5,0,0,0-.359-.318,1.358,1.358,0,0,0-.527-.009" transform="translate(-315.458 -320.285)" fill="#e34d32"/><path d="M339.673,343.726a.307.307,0,1,1-.306-.306.307.307,0,0,1,.306.306" transform="translate(-319.474 -328.782)" fill="#e34d32"/><path d="M330.009,345.469c.013-.163.164-.2.2.017a.613.613,0,0,0,.367.535.755.755,0,0,0,.629-.131c.147-.09.255-.053.173.082a.74.74,0,0,1-1.373-.5" transform="translate(-310.943 -330.587)" fill="#e34d32"/><path d="M303.209,365.57c.146,0,.289.068.28.238a1.316,1.316,0,0,1-.982,1.329,1.517,1.517,0,0,1-1.671-.572c-.409-.789.129-1.791-1.151-2.7-.4-.283-.611-.058-.347.241a2.966,2.966,0,0,1,.578,2.086,1.841,1.841,0,0,0,1.126,1.733,2.562,2.562,0,0,0,2.04-.078,2.119,2.119,0,0,0,1.11-1.906c.014-.149.138-.238.37-.2.2.034.145-.183-.08-.3a3.861,3.861,0,0,0-1.1-.154c-.213-.012-.34.289-.165.289" transform="translate(-281.937 -347.921)" fill="#e34d32"/><path d="M48.163,428.565a.814.814,0,0,1-.413.435,13.406,13.406,0,0,1-1.985.377,6.979,6.979,0,0,1-2.937-.116A10.92,10.92,0,0,1,40,427.779c-.351-.306-.924.462-.35.917a8.315,8.315,0,0,0,4.238,1.707,13.628,13.628,0,0,0,3.211-.339c.235-.068.4.079.278.347-.095.206.5.036.738-.447a3.287,3.287,0,0,0,.206-1.359c.018-.326-.07-.306-.159-.037" transform="translate(-37.131 -408.202)" fill="#e34d32"/><path d="M336.764,517.6a1.107,1.107,0,0,1,.292.656,11.706,11.706,0,0,1,.146,4.054,8.02,8.02,0,0,1-1.891,3.912c-.473.54.593.809,1.1.263a7.376,7.376,0,0,0,1.843-4.053,10.647,10.647,0,0,0-.173-3.765c-.058-.271,0-.377.215-.281s.318-.173-.089-.426a14.872,14.872,0,0,0-1.284-.782c-.322-.141-.39.226-.158.422" transform="translate(-315.831 -492.469)" fill="#e34d32"/><path d="M357.3,374.35c.106.006.094.138.077.289a.99.99,0,0,0,.066.578.58.58,0,0,0,.548.173,6.025,6.025,0,0,1,1.534.243c.471.086.7.026.914-.231a.273.273,0,0,1,.336-.042c.081.046.165-.058.051-.131s-.8-.467-.924-.505-.065.073.062.144a.162.162,0,0,1,.082.231.47.47,0,0,1-.338.093c-.4-.03-.635-.2-1.07-.252-.36-.043-.73.025-.809-.064s-.014-.36.007-.423.1-.173.317-.173c.1,0,.12-.131-.079-.125s-.609.093-.667.088c-.123-.01-.224.1-.11.108" transform="translate(-336.615 -357.742)" fill="#e34d32"/><path d="M352.472,339.761a1.076,1.076,0,0,1,.31-.616c.215-.206.455-.19.585-.4.1-.165.211-.648.555-.745s.542.058.729.448a1.366,1.366,0,0,0,.531.578,3.955,3.955,0,0,1,.914.57,2.234,2.234,0,0,1,.635.934,1.518,1.518,0,0,1-.005.793c-.053.141-.28.061-.386-.005s-.379-.217-.552-.329a4,4,0,0,0-2.179-.8c-.36.01-.8.154-1,.028-.181-.115-.161-.289-.135-.455m1.361.005a3.2,3.2,0,0,1,.96.26c.326.138.918.489,1.082.581.125.069.286.035.248-.133-.069-.3-.575-.7-.924-.9a3.032,3.032,0,0,1-.751-.529c-.131-.155-.208-.378-.414-.378s-.33.278-.407.442c-.067.141-.238.213-.414.308s-.248.265-.176.33.491-.01.8.014" transform="translate(-332.096 -323.649)" fill="#e34d32"/><path d="M163.328,306.574a.363.363,0,0,0-.081.52,6.943,6.943,0,0,1,1.107,1.848,10.456,10.456,0,0,1,.84,3.708c.009.384-.162.431-.371.373a7.678,7.678,0,0,1-2.492-1.26c-.144-.126-.267-.153-.289.11a17.93,17.93,0,0,1-.635,2.876c-.058.276-.347.439-.553.138a14.76,14.76,0,0,1-1.414-1.8c-.109-.217-.252-.225-.336,0a6.8,6.8,0,0,1-1.483,2.141c-.149.195-.47.195-.51-.188-.061-.59-.442-1.527-.51-2.564-.019-.3-.205-.334-.34-.173a9.2,9.2,0,0,1-1.675,1.39c-.154.137-.362.119-.351-.231a11.169,11.169,0,0,1,.125-2.752c.054-.235-.043-.281-.282-.14a11.739,11.739,0,0,1-3.152,1.119c-.282.116-.609-.151-.311-.5a12.769,12.769,0,0,0,1.946-3.127c.5-1.161.446-2.484,1.129-4.112a5.512,5.512,0,0,1,3.209-3.027c.122-.035.115-.127.024-.2a4.349,4.349,0,0,0-.849-.391c-.165-.046-.1-.173.188-.342a6.061,6.061,0,0,1,2.365-.938,7.831,7.831,0,0,1,4.089.556,1.441,1.441,0,0,1,.828,1.231.4.4,0,0,0,.374.42c.173.032,0,.3-.136.315s-.326.219-.429.371-.276.085-.221-.035a.391.391,0,0,0-.018-.451.951.951,0,0,1-.247-.623,1.205,1.205,0,0,0-.631-.854,5.488,5.488,0,0,0-2.534-.488,5.372,5.372,0,0,0-2.253.564c-.116.075-.139.166-.042.227a5.053,5.053,0,0,1,.814.557c.088.1.016.254-.125.3a5.857,5.857,0,0,0-3.528,2.821c-.779,1.516-.655,2.992-1.074,4.225a6.493,6.493,0,0,1-1.05,1.942c-.189.19-.139.3.083.224a5,5,0,0,0,2.661-2.2c.218-.344.4-.208.365.1-.183,1.4-.371,2.464-.485,3.475-.028.243.046.339.217.189a12.083,12.083,0,0,0,1.848-2.132c.116-.233.268-.237.267.1a23.955,23.955,0,0,0,.2,3.438c.042.218.09.314.261.041a8.526,8.526,0,0,0,1.033-2.83c.048-.339.255-.355.347-.041a10.112,10.112,0,0,0,1.419,2.692c.125.157.242.173.305-.063a12.365,12.365,0,0,0,.332-3.116c-.01-.289.085-.462.323-.137a6.727,6.727,0,0,0,2.258,1.824c.191.083.389.1.351-.17a8.164,8.164,0,0,0-.9-2.865,8.518,8.518,0,0,0-.9-1.353.713.713,0,0,0-.6-.218c-.231,0-.37-.365.143-.545a7.141,7.141,0,0,0,1.043-.368c.192-.125.537.239.326.4" transform="translate(-141.804 -286.919)" fill="#e34d32"/><path d="M268.945,263.316c.335.111.754.075.591-.058a1.11,1.11,0,0,1-.323-.873,1.965,1.965,0,0,0-1.013-1.851c-.283-.116-.465.088-.361.261a1.29,1.29,0,0,1,.179.853c-.047.145-.322.124-.451-.094a2.47,2.47,0,0,0-1.521-1.323c-.366-.1-.631.173-.415.392a1.429,1.429,0,0,1,.462.929c-.009.163-.28.252-.5.054a2.529,2.529,0,0,0-1.669-.817c-.41,0-.508.282-.219.447a1.267,1.267,0,0,1,.678.812.746.746,0,0,1-.4.769c-.215.1-.422.5.123.317a7.878,7.878,0,0,1,2.373-.334,13.491,13.491,0,0,1,2.462.52" transform="translate(-248.314 -250.377)" fill="#e34d32"/><path d="M158.565,568.019c.01-.466.395-.529.5-.08a6.415,6.415,0,0,1-1.417,5.323l-1.119-.722a6.4,6.4,0,0,0,2.035-4.521" transform="translate(-147.488 -540.044)" fill="#e34d32"/><path d="M141.84,249.863c-.823-.716-1.213-1.629-.679-2.245a.988.988,0,0,1,1.461.023.324.324,0,0,1,.122.265.866.866,0,0,1-.1.489c-.028.032-.065.028-.108-.009s-.1-.1-.143-.136c-.257-.223-.606-.413-.8-.194-.213.245.025.7.572,1.178.485.421.819.468,1.08.168a.8.8,0,0,0,.019-.953.077.077,0,0,1,.006-.08c.058-.068.231-.016.419.15a.941.941,0,0,1,.038,1.426c-.5.571-1.16.556-1.895-.083" transform="translate(-132.776 -238.216)" fill="#e34d32"/><path d="M182.574,207.215c-.052.021-.089.018-.148-.049a7.845,7.845,0,0,1-.74-1.067,8.045,8.045,0,0,1-.788-1.613.13.13,0,0,1,.03-.15,2.564,2.564,0,0,1,.217-.145,2.318,2.318,0,0,1,.231-.123c.041-.014.067,0,.094.04a8.627,8.627,0,0,0,.51,1.108c.043.071.085.092.131.084.084-.035.18-.148.389-.274s.36-.155.4-.2.021-.089-.021-.16a9.272,9.272,0,0,0-.732-.971.068.068,0,0,1,.015-.1,2.163,2.163,0,0,1,.2-.136c.073-.044.15-.09.231-.129a.124.124,0,0,1,.154.04,8.37,8.37,0,0,1,1.043,1.466,7.9,7.9,0,0,1,.593,1.155c.029.089.023.129-.034.167q-.109.081-.224.15a1.8,1.8,0,0,1-.235.125c-.05.025-.081.023-.11-.025-.062-.1-.258-.642-.408-.9-.119-.2-.308-.223-.572-.065-.385.231-.431.427-.292.659a8.545,8.545,0,0,0,.567.728c.027.045.021.069-.022.105-.073.054-.15.1-.231.148s-.169.091-.251.13" transform="translate(-170.439 -196.77)" fill="#e34d32"/><path d="M244.026,191.514c-.1.028-.2.054-.289.07a.1.1,0,0,1-.116-.066,7.951,7.951,0,0,1-.45-1.251,9.167,9.167,0,0,1-.361-1.762.124.124,0,0,1,.076-.139c.077-.027.166-.058.256-.083s.194-.051.286-.075a.063.063,0,0,1,.078.055,8.594,8.594,0,0,0,.279,1.6,9.894,9.894,0,0,0,.572,1.46c.014.05,0,.073-.049.1-.088.035-.181.066-.28.095" transform="translate(-228.783 -182.534)" fill="#e34d32"/><path d="M277.921,182.8c-.053-1.089.334-2,1.15-2.044.679-.034.968.542.994,1.07a.324.324,0,0,1-.106.272.864.864,0,0,1-.419.27c-.043,0-.065-.027-.068-.084s0-.135,0-.2c-.016-.34-.121-.724-.411-.709-.325.016-.489.5-.454,1.228.031.641.228.915.626.9a.8.8,0,0,0,.7-.646c.016-.032.036-.05.061-.051.09,0,.17.153.183.4a.942.942,0,0,1-1,1.016c-.756.037-1.2-.452-1.251-1.424" transform="translate(-261.863 -175.513)" fill="#e34d32"/><path d="M328.182,188.107c-.081-.026-.116-.076-.1-.2.048-.3.125-.644.214-.982a16.529,16.529,0,0,1,.622-1.895c.051-.126.091-.143.18-.128.055.01.143.028.225.05s.161.047.238.07.1.058.073.141a12.394,12.394,0,0,0-.494,1.224c-.01.038,0,.062.021.069s.054,0,.116-.043a2.11,2.11,0,0,0,1.1-1.069c.035-.068.066-.082.122-.076a2.6,2.6,0,0,1,.259.058c.087.023.173.05.231.069a.082.082,0,0,1,.065.107,2.369,2.369,0,0,1-1,1.17.123.123,0,0,0-.058.066.1.1,0,0,0,.018.081,2.156,2.156,0,0,1,.275,1.7c-.022.084-.066.116-.133.1a1.893,1.893,0,0,1-.238-.054c-.079-.02-.16-.047-.242-.072s-.094-.079-.082-.173c.116-.867-.031-1.281-.308-1.355-.12-.031-.292.054-.358.3-.079.3-.093.725-.132.873a.106.106,0,0,1-.131.092c-.067-.013-.151-.031-.237-.054s-.185-.053-.246-.073" transform="translate(-309.128 -179.414)" fill="#e34d32"/><path d="M376.118,211.364c-.077-.054-.111-.1-.058-.187.1-.173.216-.364.34-.56a12.393,12.393,0,0,1,1.481-1.944.132.132,0,0,1,.16-.038c.13.066.385.223.649.389.3.187.6.388.772.514.048.036.052.069.034.1a2.755,2.755,0,0,1-.39.353.081.081,0,0,1-.087,0,.412.412,0,0,1-.077-.086,2.15,2.15,0,0,0-.511-.431c-.137-.087-.213-.1-.289-.086a1.356,1.356,0,0,0-.44.471c-.054.085-.046.136.027.182.127.08.34.127.578.278.155.1.26.205.213.279a2.254,2.254,0,0,1-.328.325c-.042.035-.065.031-.094.013a2.989,2.989,0,0,0-.362-.316c-.293-.185-.462-.154-.63.108-.231.365-.21.451,0,.581a2.35,2.35,0,0,0,.847.339.249.249,0,0,1,.089.02.062.062,0,0,1,.023.076,2.786,2.786,0,0,1-.243.559.108.108,0,0,1-.16.028c-.231-.13-.5-.293-.751-.449-.3-.189-.584-.379-.789-.52" transform="translate(-354.314 -201.77)" fill="#e34d32"/><path d="M414.514,247.649a.1.1,0,0,1,0-.144,10.811,10.811,0,0,1,1.08-1.01,7.622,7.622,0,0,1,1.366-.958.143.143,0,0,1,.157.025,1.674,1.674,0,0,1,.143.159c.049.058.095.121.124.163a.141.141,0,0,1,.014.133,10.93,10.93,0,0,1-.959,2.176.045.045,0,0,0,0,.058c.017.02.051.019.081-.006A13.131,13.131,0,0,0,418,246.75a.076.076,0,0,1,.11,0c.047.05.11.12.173.2s.106.134.143.187a.109.109,0,0,1-.006.15,14.144,14.144,0,0,1-2.371,2.014.125.125,0,0,1-.185-.025c-.044-.046-.116-.126-.178-.2-.046-.058-.087-.112-.116-.15a.132.132,0,0,1,0-.181,14.509,14.509,0,0,0,.985-2.033c.017-.042.017-.069,0-.086s-.066-.018-.106.016a12.649,12.649,0,0,0-1.494,1.42c-.043.036-.082.024-.121-.017s-.107-.116-.17-.192-.116-.144-.154-.2" transform="translate(-390.542 -236.54)" fill="#e34d32"/></g></g><g transform="translate(458.3 372)"><path d="M35.352,107.676A17.676,17.676,0,1,1,17.676,90a17.676,17.676,0,0,1,17.676,17.676" transform="translate(1.599 -85.714)" fill="#e34d32"/><path d="M88.809,164.624A14.184,14.184,0,1,1,74.625,150.44a14.185,14.185,0,0,1,14.184,14.184" transform="translate(-55.348 -142.663)" fill="#fff"/><path d="M241.016,427.274a.882.882,0,0,1,1.072.269c.265.619-.467,1.582-.151,2.457.422,1.169,1.575.52,2.042,1.289.372.615.073,2.2-.1,2.848-.17.632.273.8.5.393a7.564,7.564,0,0,0,.65-2.3,2.116,2.116,0,0,0-.5-1.733c-.612-.635-1.438-.362-1.705-.809-.277-.468.587-1.546.045-2.56a1.838,1.838,0,0,0-1.121-.849.235.235,0,0,1-.185-.272c.01-.148-.221-.347-.321-.018a2.714,2.714,0,0,1-.366.921c-.2.243-.029.537.141.369" transform="translate(-225.278 -402.127)" fill="#e34d32"/><path d="M307.973,398.467c-.024.564.223.784.261.6s.178-.226.334-.211a4.378,4.378,0,0,1,1.867.592c.853.515,1.264,1.166,2.421,1.373a2.073,2.073,0,0,0,2.421-1.24.6.6,0,0,1,.35-.386,1.942,1.942,0,0,0,.972-1.56,5.254,5.254,0,0,0-.742-2.864,14.922,14.922,0,0,1-2.319-4.627c-.1-.45-.385-.073-.668-.039s-.877.622-.5.564a.476.476,0,0,1,.5.386,11.218,11.218,0,0,0,.8,1.893,16.887,16.887,0,0,1,1.964,3.741c.215.941-.1,1.717-.769,1.868a2.2,2.2,0,0,1-1.782-.5,3.072,3.072,0,0,0-1.824-.715c-.432.025-.473.357.008.44.516.09,1.8,1.482,2.756,1.579.252.025.3.173.033.335a1.774,1.774,0,0,1-1.831-.161c-.547-.318-1.028-.776-1.657-1.089a5.05,5.05,0,0,0-1.94-.5.315.315,0,0,1-.319-.257c-.018-.115-.3.19-.33.78" transform="translate(-288.581 -368.314)" fill="#e34d32"/><path d="M399.694,509.8a1.1,1.1,0,0,0-.756-.995c-.479-.074-.705.49-.306.609a.9.9,0,0,1,.611.488.236.236,0,0,0,.452-.1" transform="translate(-373.812 -480.318)" fill="#e34d32"/><path d="M268.744,404.869c-.192-.015-.256-.278.1-.322s.379-.1.468-.192a1.7,1.7,0,0,1,1.347-.635c.876.007,1.182.717,1.376,1.218a.36.36,0,0,1-.166.509,2.087,2.087,0,0,1-1.268.368,1.823,1.823,0,0,1-1.056-.72c-.135-.167-.38-.194-.8-.227m2.616-.019c.065.035.123-.042.079-.154a.881.881,0,0,0-.747-.562.924.924,0,0,0-.72.247c-.094.091.021.15.143.158a4.2,4.2,0,0,1,1.246.314" transform="translate(-251.475 -381.312)" fill="#e34d32"/><path d="M156.767,444.294c.257-.473.64-.223.5.182a3.565,3.565,0,0,0,.037,2.379c.4.739,1.414.4,2.259,1.065.726.574.456,1.64.938,2.036a2.091,2.091,0,0,0,1.753.189c.457-.093.664.3.107.564a2.814,2.814,0,0,1-2.566-.194c-.673-.582-.52-1.467-.92-1.917-.451-.508-1.47-.173-2.165-1.121a3,3,0,0,1,.058-3.184" transform="translate(-145.661 -419.3)" fill="#e34d32"/><path d="M203.236,359.72a2.285,2.285,0,0,1,2.874.145,1.748,1.748,0,0,1,.325,1.972c-.427.675-1,.432-.97,1.053a2.278,2.278,0,0,1-.671,1.8,1.364,1.364,0,0,1-1.944-.058,1.931,1.931,0,0,1-.121-1.521,2.472,2.472,0,0,0-.185-1.186,1.97,1.97,0,0,1,.693-2.212m-.009,2.406a3.28,3.28,0,0,1,.086,1.509.591.591,0,0,0,.267.716.875.875,0,0,0,.851-.186,1.6,1.6,0,0,0,.4-1.163c-.006-.219-.173-.278-.273-.15a3.285,3.285,0,0,0-.317.493c-.055.116-.325.25-.3-.134a1.344,1.344,0,0,1,.559-1.008c.487-.354.872-.217,1.254-.541.32-.272.1-1.117-.481-1.478a1.481,1.481,0,0,0-1.693.173,1.649,1.649,0,0,0-.352,1.773" transform="translate(-189.158 -339.441)" fill="#e34d32"/><path d="M338.095,548.447a1.726,1.726,0,0,1,.4.911,4.811,4.811,0,0,1-1.144,4.521c-.583.653.612.679,1.009.221a5.093,5.093,0,0,0,1.067-4.346c-.039-.255.088-.32.218-.253s.467-.3.145-.5a17.194,17.194,0,0,0-1.5-.991c-.38-.162-.386.306-.2.438" transform="translate(-316.113 -517.235)" fill="#e34d32"/><path d="M67.078,283.233a6.292,6.292,0,0,1,1.848-3.375,5.822,5.822,0,0,1,2.811-1.091c.432-.019.612-.192.41-.492a3.842,3.842,0,0,1,3.012-5.155c.255-.038.408.007.414.177a3.709,3.709,0,0,0,.1.676c.065.257.393.236.433-.076a2.666,2.666,0,0,1,1.741-2.364,3.118,3.118,0,0,1,2.888.5c.1.087.179.19.128.313a3.173,3.173,0,0,0-.183.578.206.206,0,0,0,.393.116,2.018,2.018,0,0,1,1.733-1.3,1.972,1.972,0,0,1,2.045,1.832c.036.173-.1.173-.169.16a1.782,1.782,0,0,0-.6.081c-.127.063-.144.243.09.264a1.686,1.686,0,0,1,1.594.882,1.567,1.567,0,0,1-.373,2.1,2.1,2.1,0,0,1-1.9.009c-.39-.27-.705-.936-.55-1.192a1.354,1.354,0,0,0,.1-.92.194.194,0,0,0-.382-.006,1.865,1.865,0,0,1-1.741,1.213,2.191,2.191,0,0,1-1.62-1.653c-.089-.359-.475-.252-.462.041a5.245,5.245,0,0,0,.124.78.638.638,0,0,1-.049.492,1.683,1.683,0,0,1-.9.427.785.785,0,0,1-.4-.151c-.083-.062-.246-.006,0,.383a2.077,2.077,0,0,1,.317.654c.043.148.357.218.341.1s.019-.283.173-.306a1.9,1.9,0,0,0,.917-.433.276.276,0,0,1,.4.021,1.99,1.99,0,0,0,.9.437,1.835,1.835,0,0,0,1.271-.257c.1-.072.289-.094.333.047a2.251,2.251,0,0,0,.912,1.136,2.513,2.513,0,0,0,2.451.021,1.894,1.894,0,0,0,1.257-2.123,2.93,2.93,0,0,0-1.04-1.814.621.621,0,0,1-.18-.41,3.063,3.063,0,0,0-2.125-2.559,2.656,2.656,0,0,0-2.093.4c-.155.1-.192.053-.313-.046a3.62,3.62,0,0,0-3.444-.612,3.694,3.694,0,0,0-1.722,1.213.556.556,0,0,1-.5.231,4.883,4.883,0,0,0-3.593,1.947,4.621,4.621,0,0,0-.924,3.392c.013.272-.031.4-.308.462a5.614,5.614,0,0,0-4.35,4.53c-.179,1.024.65,1.539.772.736" transform="translate(-60.848 -255.824)" fill="#e34d32"/><path d="M396.214,354.735c.031.161.14.547.468.582a5.674,5.674,0,0,1,1.575.371.506.506,0,0,1,.322.555,2.957,2.957,0,0,1-2.372,2.295c-.173.04-.209.474-.116.664s-.147.572-.418.121a24.629,24.629,0,0,1-1.085-2.311c-.122-.341.322-.514.578-.827s.736-.935.674-1.415.315-.323.369-.038" transform="translate(-370.176 -334.9)" fill="#e34d32"/><path d="M194.794,210.4a2.547,2.547,0,0,1,.388.473.128.128,0,0,1-.054.181c-.144.092-.327.2-.5.3-.263.15-.52.293-.7.385-.084.043-.137.053-.193-.036-.1-.151-.2-.323-.3-.509a14.917,14.917,0,0,1-1.083-2.282.106.106,0,0,1,.03-.128c.05-.034.14-.09.244-.15s.21-.116.276-.147.09-.006.107.024a16.244,16.244,0,0,0,.914,2.208c.125.22.19.239.323.162a1.4,1.4,0,0,0,.418-.415c.033-.054.05-.068.065-.077a.063.063,0,0,1,.073.008" transform="translate(-179.624 -197.344)" fill="#e34d32"/><path d="M244.87,189.894c-.072.013-.116,0-.14-.07-.065-.2-.132-.408-.182-.62a2.986,2.986,0,0,1,.459-2.8.2.2,0,0,1,.1-.063.151.151,0,0,1,.1.017,2.99,2.99,0,0,1,1.632,2.285c.047.2.089.41.12.635.01.079-.027.11-.1.135a2.217,2.217,0,0,1-.242.071c-.1.025-.2.038-.265.05a.079.079,0,0,1-.091-.068,5.639,5.639,0,0,0-.066-.572c-.05-.213-.188-.274-.446-.213-.329.079-.589.275-.52.559.044.183.139.326.169.431a.072.072,0,0,1-.042.1,2.271,2.271,0,0,1-.263.076c-.079.019-.15.036-.221.048m.745-1.675c.148-.04.242-.053.3-.076s.058-.054.043-.115a1.855,1.855,0,0,0-.623-.938c-.031-.02-.047-.034-.068-.028s-.034.021-.058.058a1.993,1.993,0,0,0-.15,1.3c.009.038.034.05.058.044a2.329,2.329,0,0,1,.5-.243" transform="translate(-228.688 -176.487)" fill="#e34d32"/><path d="M302.037,183.992a2.478,2.478,0,0,1-.285-.024c-.106-.014-.211-.032-.308-.054a.088.088,0,0,1-.071-.084,7.785,7.785,0,0,1,.066-1.417,12.861,12.861,0,0,1,.361-1.716.092.092,0,0,1,.1-.08c.073.005.192.017.31.032a2.762,2.762,0,0,1,.289.051.159.159,0,0,1,.126.115,11.606,11.606,0,0,1,.4,1.461c.009.032.02.047.041.05a.049.049,0,0,0,.051-.033,14.76,14.76,0,0,1,.744-1.292.173.173,0,0,1,.151-.1,1.788,1.788,0,0,1,.273.023c.085.011.173.027.261.046a.125.125,0,0,1,.109.12,7.812,7.812,0,0,1-.038,1.667,11.035,11.035,0,0,1-.289,1.427.112.112,0,0,1-.116.095,3.764,3.764,0,0,1-.375-.036,2.15,2.15,0,0,1-.261-.048c-.05-.011-.069-.035-.063-.079a10.142,10.142,0,0,0,.408-1.6,3.777,3.777,0,0,0,.041-.707.036.036,0,0,0-.029-.039.033.033,0,0,0-.038.021,12.605,12.605,0,0,1-.882,1.525.111.111,0,0,1-.1.062.122.122,0,0,1-.092-.087,10.623,10.623,0,0,1-.469-1.685.043.043,0,0,0-.037-.04c-.017,0-.032.009-.039.029a5.9,5.9,0,0,0-.147.794,6.815,6.815,0,0,0,0,1.54c-.006.043-.038.058-.085.058" transform="translate(-282.357 -171.097)" fill="#e34d32"/><path d="M365.682,203.362a.106.106,0,0,1-.054-.143c.184-.437.389-.851.6-1.235a11.586,11.586,0,0,1,.95-1.491.116.116,0,0,1,.155-.035c.126.054.382.183.631.318.459.248.742.452.821.728a.6.6,0,0,1-.069.459.869.869,0,0,1-.639.443c-.045.01-.074.02-.087.043a.084.084,0,0,0,0,.072.99.99,0,0,1,.015,1c-.32.591-.861.655-1.865.111-.158-.086-.322-.179-.462-.264m1.791-.247a.507.507,0,0,0-.092-.656,1.255,1.255,0,0,0-.444-.087.281.281,0,0,0-.306.187.936.936,0,0,0-.168.49c.019.075.053.108.219.2.289.157.616.19.791-.132m.641-1.379c.116-.215-.049-.384-.289-.513-.132-.071-.248-.125-.321-.1a2.087,2.087,0,0,0-.437.627c-.042.077-.052.131.009.163a.792.792,0,0,0,1.035-.178" transform="translate(-342.898 -189.776)" fill="#e34d32"/><rect width="38" height="37" transform="translate(-0.205 3)" fill="none"/><rect width="38" height="45" transform="translate(-0.205 0)" fill="none"/></g><g transform="translate(1135.425 372)"><path d="M35.352,107.676A17.676,17.676,0,1,1,17.676,90a17.676,17.676,0,0,1,17.676,17.676" transform="translate(1.27 -85.714)" fill="#e34d32"/><path d="M88.809,164.624A14.184,14.184,0,1,1,74.625,150.44a14.185,14.185,0,0,1,14.184,14.184" transform="translate(-55.677 -142.663)" fill="#fff"/><path d="M241.016,427.274a.882.882,0,0,1,1.072.269c.265.619-.467,1.582-.151,2.457.422,1.169,1.575.52,2.042,1.289.372.615.073,2.2-.1,2.848-.17.632.273.8.5.393a7.564,7.564,0,0,0,.65-2.3,2.116,2.116,0,0,0-.5-1.733c-.612-.635-1.438-.362-1.705-.809-.277-.468.587-1.546.045-2.56a1.838,1.838,0,0,0-1.121-.849.235.235,0,0,1-.185-.272c.01-.148-.221-.347-.321-.018a2.714,2.714,0,0,1-.366.921c-.2.243-.029.537.141.369" transform="translate(-225.607 -402.127)" fill="#e34d32"/><path d="M307.973,398.467c-.024.564.223.784.261.6s.178-.226.334-.211a4.378,4.378,0,0,1,1.867.592c.853.515,1.264,1.166,2.421,1.373a2.073,2.073,0,0,0,2.421-1.24.6.6,0,0,1,.35-.386,1.942,1.942,0,0,0,.972-1.56,5.254,5.254,0,0,0-.742-2.864,14.922,14.922,0,0,1-2.319-4.627c-.1-.45-.385-.073-.668-.039s-.877.622-.5.564a.476.476,0,0,1,.5.386,11.218,11.218,0,0,0,.8,1.893,16.887,16.887,0,0,1,1.964,3.741c.215.941-.1,1.717-.769,1.868a2.2,2.2,0,0,1-1.782-.5,3.072,3.072,0,0,0-1.824-.715c-.432.025-.473.357.008.44.516.09,1.8,1.482,2.756,1.579.252.025.3.173.033.335a1.774,1.774,0,0,1-1.831-.161c-.547-.318-1.028-.776-1.657-1.089a5.05,5.05,0,0,0-1.94-.5.315.315,0,0,1-.319-.257c-.018-.115-.3.19-.33.78" transform="translate(-288.91 -368.314)" fill="#e34d32"/><path d="M399.694,509.8a1.1,1.1,0,0,0-.756-.995c-.479-.074-.705.49-.306.609a.9.9,0,0,1,.611.488.236.236,0,0,0,.452-.1" transform="translate(-374.141 -480.318)" fill="#e34d32"/><path d="M268.744,404.869c-.192-.015-.256-.278.1-.322s.379-.1.468-.192a1.7,1.7,0,0,1,1.347-.635c.876.007,1.182.717,1.376,1.218a.36.36,0,0,1-.166.509,2.087,2.087,0,0,1-1.268.368,1.823,1.823,0,0,1-1.056-.72c-.135-.167-.38-.194-.8-.227m2.616-.019c.065.035.123-.042.079-.154a.881.881,0,0,0-.747-.562.924.924,0,0,0-.72.247c-.094.091.021.15.143.158a4.2,4.2,0,0,1,1.246.314" transform="translate(-251.804 -381.312)" fill="#e34d32"/><path d="M156.767,444.294c.257-.473.64-.223.5.182a3.565,3.565,0,0,0,.037,2.379c.4.739,1.414.4,2.259,1.065.726.574.456,1.64.938,2.036a2.091,2.091,0,0,0,1.753.189c.457-.093.664.3.107.564a2.814,2.814,0,0,1-2.566-.194c-.673-.582-.52-1.467-.92-1.917-.451-.508-1.47-.173-2.165-1.121a3,3,0,0,1,.058-3.184" transform="translate(-145.99 -419.3)" fill="#e34d32"/><path d="M203.236,359.72a2.285,2.285,0,0,1,2.874.145,1.748,1.748,0,0,1,.325,1.972c-.427.675-1,.432-.97,1.053a2.278,2.278,0,0,1-.671,1.8,1.364,1.364,0,0,1-1.944-.058,1.931,1.931,0,0,1-.121-1.521,2.472,2.472,0,0,0-.185-1.186,1.97,1.97,0,0,1,.693-2.212m-.009,2.406a3.28,3.28,0,0,1,.086,1.509.591.591,0,0,0,.267.716.875.875,0,0,0,.851-.186,1.6,1.6,0,0,0,.4-1.163c-.006-.219-.173-.278-.273-.15a3.285,3.285,0,0,0-.317.493c-.055.116-.325.25-.3-.134a1.344,1.344,0,0,1,.559-1.008c.487-.354.872-.217,1.254-.541.32-.272.1-1.117-.481-1.478a1.481,1.481,0,0,0-1.693.173,1.649,1.649,0,0,0-.352,1.773" transform="translate(-189.487 -339.441)" fill="#e34d32"/><path d="M338.095,548.447a1.726,1.726,0,0,1,.4.911,4.811,4.811,0,0,1-1.144,4.521c-.583.653.612.679,1.009.221a5.093,5.093,0,0,0,1.067-4.346c-.039-.255.088-.32.218-.253s.467-.3.145-.5a17.194,17.194,0,0,0-1.5-.991c-.38-.162-.386.306-.2.438" transform="translate(-316.443 -517.235)" fill="#e34d32"/><path d="M67.078,283.233a6.292,6.292,0,0,1,1.848-3.375,5.822,5.822,0,0,1,2.811-1.091c.432-.019.612-.192.41-.492a3.842,3.842,0,0,1,3.012-5.155c.255-.038.408.007.414.177a3.709,3.709,0,0,0,.1.676c.065.257.393.236.433-.076a2.666,2.666,0,0,1,1.741-2.364,3.118,3.118,0,0,1,2.888.5c.1.087.179.19.128.313a3.173,3.173,0,0,0-.183.578.206.206,0,0,0,.393.116,2.018,2.018,0,0,1,1.733-1.3,1.972,1.972,0,0,1,2.045,1.832c.036.173-.1.173-.169.16a1.782,1.782,0,0,0-.6.081c-.127.063-.144.243.09.264a1.686,1.686,0,0,1,1.594.882,1.567,1.567,0,0,1-.373,2.1,2.1,2.1,0,0,1-1.9.009c-.39-.27-.705-.936-.55-1.192a1.354,1.354,0,0,0,.1-.92.194.194,0,0,0-.382-.006,1.865,1.865,0,0,1-1.741,1.213,2.191,2.191,0,0,1-1.62-1.653c-.089-.359-.475-.252-.462.041a5.245,5.245,0,0,0,.124.78.638.638,0,0,1-.049.492,1.683,1.683,0,0,1-.9.427.785.785,0,0,1-.4-.151c-.083-.062-.246-.006,0,.383a2.077,2.077,0,0,1,.317.654c.043.148.357.218.341.1s.019-.283.173-.306a1.9,1.9,0,0,0,.917-.433.276.276,0,0,1,.4.021,1.99,1.99,0,0,0,.9.437,1.835,1.835,0,0,0,1.271-.257c.1-.072.289-.094.333.047a2.251,2.251,0,0,0,.912,1.136,2.513,2.513,0,0,0,2.451.021,1.894,1.894,0,0,0,1.257-2.123,2.93,2.93,0,0,0-1.04-1.814.621.621,0,0,1-.18-.41,3.063,3.063,0,0,0-2.125-2.559,2.656,2.656,0,0,0-2.093.4c-.155.1-.192.053-.313-.046a3.62,3.62,0,0,0-3.444-.612,3.694,3.694,0,0,0-1.722,1.213.556.556,0,0,1-.5.231,4.883,4.883,0,0,0-3.593,1.947,4.621,4.621,0,0,0-.924,3.392c.013.272-.031.4-.308.462a5.614,5.614,0,0,0-4.35,4.53c-.179,1.024.65,1.539.772.736" transform="translate(-61.177 -255.823)" fill="#e34d32"/><path d="M396.214,354.735c.031.161.14.547.468.582a5.674,5.674,0,0,1,1.575.371.506.506,0,0,1,.322.555,2.957,2.957,0,0,1-2.372,2.295c-.173.04-.209.474-.116.664s-.147.572-.418.121a24.629,24.629,0,0,1-1.085-2.311c-.122-.341.322-.514.578-.827s.736-.935.674-1.415.315-.323.369-.038" transform="translate(-370.505 -334.9)" fill="#e34d32"/><path d="M194.794,210.4a2.547,2.547,0,0,1,.388.473.128.128,0,0,1-.054.181c-.144.092-.327.2-.5.3-.263.15-.52.293-.7.385-.084.043-.137.053-.193-.036-.1-.151-.2-.323-.3-.509a14.917,14.917,0,0,1-1.083-2.282.106.106,0,0,1,.03-.128c.05-.034.14-.09.244-.15s.21-.116.276-.147.09-.006.107.024a16.244,16.244,0,0,0,.914,2.208c.125.22.19.239.323.162a1.4,1.4,0,0,0,.418-.415c.033-.054.05-.068.065-.077a.063.063,0,0,1,.073.008" transform="translate(-179.953 -197.344)" fill="#e34d32"/><path d="M244.87,189.894c-.072.013-.116,0-.14-.07-.065-.2-.132-.408-.182-.62a2.986,2.986,0,0,1,.459-2.8.2.2,0,0,1,.1-.063.151.151,0,0,1,.1.017,2.99,2.99,0,0,1,1.632,2.285c.047.2.089.41.12.635.01.079-.027.11-.1.135a2.217,2.217,0,0,1-.242.071c-.1.025-.2.038-.265.05a.079.079,0,0,1-.091-.068,5.639,5.639,0,0,0-.066-.572c-.05-.213-.188-.274-.446-.213-.329.079-.589.275-.52.559.044.183.139.326.169.431a.072.072,0,0,1-.042.1,2.271,2.271,0,0,1-.263.076c-.079.019-.15.036-.221.048m.745-1.675c.148-.04.242-.053.3-.076s.058-.054.043-.115a1.855,1.855,0,0,0-.623-.938c-.031-.02-.047-.034-.068-.028s-.034.021-.058.058a1.993,1.993,0,0,0-.15,1.3c.009.038.034.05.058.044a2.329,2.329,0,0,1,.5-.243" transform="translate(-229.017 -176.487)" fill="#e34d32"/><path d="M302.037,183.992a2.478,2.478,0,0,1-.285-.024c-.106-.014-.211-.032-.308-.054a.088.088,0,0,1-.071-.084,7.785,7.785,0,0,1,.066-1.417,12.861,12.861,0,0,1,.361-1.716.092.092,0,0,1,.1-.08c.073.005.192.017.31.032a2.762,2.762,0,0,1,.289.051.159.159,0,0,1,.126.115,11.606,11.606,0,0,1,.4,1.461c.009.032.02.047.041.05a.049.049,0,0,0,.051-.033,14.76,14.76,0,0,1,.744-1.292.173.173,0,0,1,.151-.1,1.788,1.788,0,0,1,.273.023c.085.011.173.027.261.046a.125.125,0,0,1,.109.12,7.812,7.812,0,0,1-.038,1.667,11.035,11.035,0,0,1-.289,1.427.112.112,0,0,1-.116.095,3.764,3.764,0,0,1-.375-.036,2.15,2.15,0,0,1-.261-.048c-.05-.011-.069-.035-.063-.079a10.142,10.142,0,0,0,.408-1.6,3.777,3.777,0,0,0,.041-.707.036.036,0,0,0-.029-.039.033.033,0,0,0-.038.021,12.605,12.605,0,0,1-.882,1.525.111.111,0,0,1-.1.062.122.122,0,0,1-.092-.087,10.623,10.623,0,0,1-.469-1.685.043.043,0,0,0-.037-.04c-.017,0-.032.009-.039.029a5.9,5.9,0,0,0-.147.794,6.815,6.815,0,0,0,0,1.54c-.006.043-.038.058-.085.058" transform="translate(-282.686 -171.097)" fill="#e34d32"/><path d="M365.682,203.362a.106.106,0,0,1-.054-.143c.184-.437.389-.851.6-1.235a11.586,11.586,0,0,1,.95-1.491.116.116,0,0,1,.155-.035c.126.054.382.183.631.318.459.248.742.452.821.728a.6.6,0,0,1-.069.459.869.869,0,0,1-.639.443c-.045.01-.074.02-.087.043a.084.084,0,0,0,0,.072.99.99,0,0,1,.015,1c-.32.591-.861.655-1.865.111-.158-.086-.322-.179-.462-.264m1.791-.247a.507.507,0,0,0-.092-.656,1.255,1.255,0,0,0-.444-.087.281.281,0,0,0-.306.187.936.936,0,0,0-.168.49c.019.075.053.108.219.2.289.157.616.19.791-.132m.641-1.379c.116-.215-.049-.384-.289-.513-.132-.071-.248-.125-.321-.1a2.087,2.087,0,0,0-.437.627c-.042.077-.052.131.009.163a.792.792,0,0,0,1.035-.178" transform="translate(-343.227 -189.776)" fill="#e34d32"/><rect width="37.844" height="36.763" transform="translate(0 3.244)" fill="none"/><rect width="37.844" height="44.332" transform="translate(0 0)" fill="none"/></g><g transform="translate(596.398 376.286)"><g transform="translate(0 0)"><path d="M35.352,107.676A17.676,17.676,0,1,1,17.676,90a17.676,17.676,0,0,1,17.676,17.676" transform="translate(0 -90)" fill="#e34d32"/><path d="M88.809,164.624A14.185,14.185,0,1,1,74.625,150.44a14.185,14.185,0,0,1,14.185,14.184" transform="translate(-56.949 -146.949)" fill="#fff"/><path d="M306.83,324.024c-.322.183-.442-.087-.352-.362a.86.86,0,0,1,.736-.57.588.588,0,0,1,.658.516.4.4,0,0,1-.352.42c-.289.053-.388-.173-.689,0" transform="translate(-288.747 -309.627)" fill="#e34d32"/><path d="M252.545,369.841c-.244.038-.3-.094-.165-.247a1.417,1.417,0,0,1,.559-.4c.219-.075.437.139.262.344a1.094,1.094,0,0,1-.656.306" transform="translate(-237.734 -353.048)" fill="#e34d32"/><path d="M380.894,380.545c-.17,0-.245-.116-.125-.266a4.134,4.134,0,0,0,.724-1.576c.072-.447-.2-.477-.543-.462a7.691,7.691,0,0,0-2.315.474c-.249.1-.257-.005-.151-.228a4.277,4.277,0,0,0,.308-1.01c.044-.289-.17-.5-.5-.474a7.462,7.462,0,0,0-2.657.687,7.538,7.538,0,0,0-1.249.792c-.107.081-.247.075-.239-.072.009-.173-.578.263-.6.476a12.317,12.317,0,0,1-.113,1.255c-.071.235.335.427.389.217a1.753,1.753,0,0,1,.427-.754,6.431,6.431,0,0,1,1.426-1.09,5.366,5.366,0,0,1,1.81-.693c.273-.044.4-.014.362.226-.141.8-1.174,1.662-1.555,1.984-.3.252,0,.41.238.28.5-.272,1.377-.66,1.771-.826a11.8,11.8,0,0,1,2.132-.583c.277-.046.289.058.2.24a3.344,3.344,0,0,1-.953,1.227,1.364,1.364,0,0,1-.635.289c-.185.033-.068.223.91.126s1.136-.238.937-.238" transform="translate(-351.855 -360.423)" fill="#e34d32"/><path d="M196.069,291.172a17.031,17.031,0,0,0-5.5.21,12.485,12.485,0,0,0-4.12,1.6c-.131.079-.224-.02-.191-.192a12.85,12.85,0,0,0,.652-7.433,4,4,0,0,0-4.6-3.31,4.154,4.154,0,0,0-3.541,2.825c-.17.434-.173.768-.41,1.035a32.847,32.847,0,0,0-3.062,2.2c-.449.433-.421.993.008,1.2a2.639,2.639,0,0,0,1.407-.045,3.6,3.6,0,0,1,1.189.255,2.348,2.348,0,0,0,.4.029,10.45,10.45,0,0,0-2.037,2.9.82.82,0,0,0,1.04.907,12.343,12.343,0,0,0,3.477-2.3c.318-.263.595-.436.64,0a3.976,3.976,0,0,1-1.316,3.59c-1.606,1.313-2.61,2.792-2.546,4.621.012.311.126.446.377.347.15-.058.419-.3.646-.419s.219.1.088.39a5.7,5.7,0,0,0-.417,2.154,4.584,4.584,0,0,0,.039.768.723.723,0,0,0,.459.429c.447.184.561.014.52-.243a8.152,8.152,0,0,1,0-1.95,7.458,7.458,0,0,1,.862-2.343c.293-.488.094-.709-.365-.525-.332.134-.626.33-.8.4-.221.095-.344.01-.309-.269.061-.5.569-1.472,2.107-2.745a5.326,5.326,0,0,0,1.516-4.712,2.248,2.248,0,0,1,.046-1.027,2.227,2.227,0,0,0,.036-1.429,2.589,2.589,0,0,0-.657-.924,1.51,1.51,0,0,1-.377-1.3c.06-.579-.289-.69-.635-.341-.256.256-.708.712-1.155.608s-.173-.711.021-1.16a3.783,3.783,0,0,1,2.815-2.2c2.213-.293,3.3,1.169,3.687,2.843.65,2.789-.242,5.637-1.1,7.881a6.805,6.805,0,0,0-.008,5.27c.293.593.689.544.531-.262a4.878,4.878,0,0,1,.779-3.886c.7-.859,2-1.694,4.525-2.361a13.186,13.186,0,0,1,4.957-.239c.783.139,1.306.4,1.418-.021.137-.523-.305-.73-1.1-.831m-14.655-2.588c.023-.182.188-.218.231-.023a1.315,1.315,0,0,1-.408,1.188A37.634,37.634,0,0,1,178,292.2c-.693.462-.875.2-.7-.2.135-.315,1.583-1.944,1.92-2.348.2-.243.429-.161.331.023a7.355,7.355,0,0,1-.535.859c-.159.221,0,.318.206.184a11.55,11.55,0,0,0,1.71-1.271,1.449,1.449,0,0,0,.478-.857m-2.047-1.848a1.182,1.182,0,0,0,1.123-.323c.143-.131.325-.076.332.18a1.4,1.4,0,0,0,.377.92.276.276,0,0,1-.053.459,8.9,8.9,0,0,1-2.438,1.023,5.3,5.3,0,0,1-1.444-.358,2.718,2.718,0,0,0-1.148.107c-.3.093-.341-.173-.124-.382a12.577,12.577,0,0,1,2.595-1.716.973.973,0,0,1,.779.09" transform="translate(-164.866 -270.92)" fill="#e34d32"/><path d="M197.936,206.525c-.067.028-.105.027-.144,0a4.264,4.264,0,0,1-.7-1.174,9.065,9.065,0,0,1-.669-1.686.115.115,0,0,1,.044-.133c.107-.063.247-.137.374-.2.955-.471,1.756-.336,2.409.988a1.23,1.23,0,0,1-.667,1.9c-.234.115-.57.276-.649.31m.665-2.007c-.378-.768-.859-.959-1.258-.762a.18.18,0,0,0-.09.1,2.461,2.461,0,0,0,.379,1.049c.24.486.407.778.54.824a.22.22,0,0,0,.165-.023c.43-.212.559-.587.263-1.186" transform="translate(-185.072 -196.553)" fill="#e34d32"/><path d="M261.265,181.779a1.632,1.632,0,0,1,.219-.043,2.191,2.191,0,0,1,.264-.023.1.1,0,0,1,.1.058,6.833,6.833,0,0,1,.382,1.693c.13.96-.04,1.6-.934,1.726-.771.105-1.213-.341-1.355-1.366a7.575,7.575,0,0,1-.065-1.771.106.106,0,0,1,.069-.094c.063-.013.168-.032.27-.046s.187-.021.251-.025a.073.073,0,0,1,.079.077,13.255,13.255,0,0,0,.073,1.675c.1.7.3.938.605.9.331-.045.428-.31.332-1.014a14.122,14.122,0,0,0-.336-1.638c-.011-.051-.007-.087.046-.1Z" transform="translate(-244.84 -176.415)" fill="#e34d32"/><path d="M316.356,185.483c.178-1.077.751-1.888,1.556-1.755a.989.989,0,0,1,.746,1.256.326.326,0,0,1-.162.243.853.853,0,0,1-.467.173c-.042-.007-.058-.04-.049-.1s.031-.132.041-.192c.058-.336.035-.733-.252-.78-.321-.053-.585.39-.7,1.1-.1.633.031.943.423,1.007a.8.8,0,0,0,.821-.483.078.078,0,0,1,.068-.035c.088.014.134.186.092.436a.942.942,0,0,1-1.2.779c-.746-.125-1.08-.7-.919-1.657" transform="translate(-298.045 -178.3)" fill="#e34d32"/><path d="M361.311,201.031c-.074-.043-.1-.1-.051-.218.115-.285.261-.6.419-.912a16.59,16.59,0,0,1,1.015-1.716c.077-.113.119-.12.2-.086.051.021.133.058.209.1s.146.08.217.12.085.078.041.154a13.014,13.014,0,0,0-.746,1.089c-.018.035-.016.058.007.072s.053.008.119-.017a2.11,2.11,0,0,0,1.3-.809c.049-.058.082-.066.136-.048a2.233,2.233,0,0,1,.24.116c.08.043.158.086.208.116a.083.083,0,0,1,.04.119,2.353,2.353,0,0,1-1.224.924.121.121,0,0,0-.07.052.1.1,0,0,0,0,.083,2.156,2.156,0,0,1-.1,1.716c-.039.077-.09.1-.152.073a1.937,1.937,0,0,1-.221-.1c-.072-.037-.147-.08-.221-.123s-.075-.1-.043-.188c.3-.821.246-1.257-.009-1.386-.11-.058-.3-.01-.415.219-.141.276-.247.688-.316.824a.106.106,0,0,1-.147.062c-.062-.028-.141-.063-.221-.1s-.169-.091-.224-.125" transform="translate(-340.369 -191.837)" fill="#e34d32"/></g></g><g transform="translate(1279.744 376.286)"><g transform="translate(0 0)"><path d="M35.352,107.676A17.676,17.676,0,1,1,17.676,90a17.676,17.676,0,0,1,17.676,17.676" transform="translate(0 -90)" fill="#e34d32"/><path d="M88.809,164.624A14.185,14.185,0,1,1,74.625,150.44a14.185,14.185,0,0,1,14.185,14.184" transform="translate(-56.949 -146.949)" fill="#fff"/><path d="M306.83,324.024c-.322.183-.442-.087-.352-.362a.86.86,0,0,1,.736-.57.588.588,0,0,1,.658.516.4.4,0,0,1-.352.42c-.289.053-.388-.173-.689,0" transform="translate(-288.747 -309.627)" fill="#e34d32"/><path d="M252.545,369.841c-.244.038-.3-.094-.165-.247a1.417,1.417,0,0,1,.559-.4c.219-.075.437.139.262.344a1.094,1.094,0,0,1-.656.306" transform="translate(-237.734 -353.048)" fill="#e34d32"/><path d="M380.894,380.545c-.17,0-.245-.116-.125-.266a4.134,4.134,0,0,0,.724-1.576c.072-.447-.2-.477-.543-.462a7.691,7.691,0,0,0-2.315.474c-.249.1-.257-.005-.151-.228a4.277,4.277,0,0,0,.308-1.01c.044-.289-.17-.5-.5-.474a7.462,7.462,0,0,0-2.657.687,7.538,7.538,0,0,0-1.249.792c-.107.081-.247.075-.239-.072.009-.173-.578.263-.6.476a12.317,12.317,0,0,1-.113,1.255c-.071.235.335.427.389.217a1.753,1.753,0,0,1,.427-.754,6.431,6.431,0,0,1,1.426-1.09,5.366,5.366,0,0,1,1.81-.693c.273-.044.4-.014.362.226-.141.8-1.174,1.662-1.555,1.984-.3.252,0,.41.238.28.5-.272,1.377-.66,1.771-.826a11.8,11.8,0,0,1,2.132-.583c.277-.046.289.058.2.24a3.344,3.344,0,0,1-.953,1.227,1.364,1.364,0,0,1-.635.289c-.185.033-.068.223.91.126s1.136-.238.937-.238" transform="translate(-351.855 -360.423)" fill="#e34d32"/><path d="M196.069,291.172a17.031,17.031,0,0,0-5.5.21,12.485,12.485,0,0,0-4.12,1.6c-.131.079-.224-.02-.191-.192a12.85,12.85,0,0,0,.652-7.433,4,4,0,0,0-4.6-3.31,4.154,4.154,0,0,0-3.541,2.825c-.17.434-.173.768-.41,1.035a32.847,32.847,0,0,0-3.062,2.2c-.449.433-.421.993.008,1.2a2.639,2.639,0,0,0,1.407-.045,3.6,3.6,0,0,1,1.189.255,2.348,2.348,0,0,0,.4.029,10.45,10.45,0,0,0-2.037,2.9.82.82,0,0,0,1.04.907,12.343,12.343,0,0,0,3.477-2.3c.318-.263.595-.436.64,0a3.976,3.976,0,0,1-1.316,3.59c-1.606,1.313-2.61,2.792-2.546,4.621.012.311.126.446.377.347.15-.058.419-.3.646-.419s.219.1.088.39a5.7,5.7,0,0,0-.417,2.154,4.584,4.584,0,0,0,.039.768.723.723,0,0,0,.459.429c.447.184.561.014.52-.243a8.152,8.152,0,0,1,0-1.95,7.458,7.458,0,0,1,.862-2.343c.293-.488.094-.709-.365-.525-.332.134-.626.33-.8.4-.221.095-.344.01-.309-.269.061-.5.569-1.472,2.107-2.745a5.326,5.326,0,0,0,1.516-4.712,2.248,2.248,0,0,1,.046-1.027,2.227,2.227,0,0,0,.036-1.429,2.589,2.589,0,0,0-.657-.924,1.51,1.51,0,0,1-.377-1.3c.06-.579-.289-.69-.635-.341-.256.256-.708.712-1.155.608s-.173-.711.021-1.16a3.783,3.783,0,0,1,2.815-2.2c2.213-.293,3.3,1.169,3.687,2.843.65,2.789-.242,5.637-1.1,7.881a6.805,6.805,0,0,0-.008,5.27c.293.593.689.544.531-.262a4.878,4.878,0,0,1,.779-3.886c.7-.859,2-1.694,4.525-2.361a13.186,13.186,0,0,1,4.957-.239c.783.139,1.306.4,1.418-.021.137-.523-.305-.73-1.1-.831m-14.655-2.588c.023-.182.188-.218.231-.023a1.315,1.315,0,0,1-.408,1.188A37.634,37.634,0,0,1,178,292.2c-.693.462-.875.2-.7-.2.135-.315,1.583-1.944,1.92-2.348.2-.243.429-.161.331.023a7.355,7.355,0,0,1-.535.859c-.159.221,0,.318.206.184a11.55,11.55,0,0,0,1.71-1.271,1.449,1.449,0,0,0,.478-.857m-2.047-1.848a1.182,1.182,0,0,0,1.123-.323c.143-.131.325-.076.332.18a1.4,1.4,0,0,0,.377.92.276.276,0,0,1-.053.459,8.9,8.9,0,0,1-2.438,1.023,5.3,5.3,0,0,1-1.444-.358,2.718,2.718,0,0,0-1.148.107c-.3.093-.341-.173-.124-.382a12.577,12.577,0,0,1,2.595-1.716.973.973,0,0,1,.779.09" transform="translate(-164.866 -270.92)" fill="#e34d32"/><path d="M197.936,206.525c-.067.028-.105.027-.144,0a4.264,4.264,0,0,1-.7-1.174,9.065,9.065,0,0,1-.669-1.686.115.115,0,0,1,.044-.133c.107-.063.247-.137.374-.2.955-.471,1.756-.336,2.409.988a1.23,1.23,0,0,1-.667,1.9c-.234.115-.57.276-.649.31m.665-2.007c-.378-.768-.859-.959-1.258-.762a.18.18,0,0,0-.09.1,2.461,2.461,0,0,0,.379,1.049c.24.486.407.778.54.824a.22.22,0,0,0,.165-.023c.43-.212.559-.587.263-1.186" transform="translate(-185.072 -196.553)" fill="#e34d32"/><path d="M261.265,181.779a1.632,1.632,0,0,1,.219-.043,2.191,2.191,0,0,1,.264-.023.1.1,0,0,1,.1.058,6.833,6.833,0,0,1,.382,1.693c.13.96-.04,1.6-.934,1.726-.771.105-1.213-.341-1.355-1.366a7.575,7.575,0,0,1-.065-1.771.106.106,0,0,1,.069-.094c.063-.013.168-.032.27-.046s.187-.021.251-.025a.073.073,0,0,1,.079.077,13.255,13.255,0,0,0,.073,1.675c.1.7.3.938.605.9.331-.045.428-.31.332-1.014a14.122,14.122,0,0,0-.336-1.638c-.011-.051-.007-.087.046-.1Z" transform="translate(-244.84 -176.415)" fill="#e34d32"/><path d="M316.356,185.483c.178-1.077.751-1.888,1.556-1.755a.989.989,0,0,1,.746,1.256.326.326,0,0,1-.162.243.853.853,0,0,1-.467.173c-.042-.007-.058-.04-.049-.1s.031-.132.041-.192c.058-.336.035-.733-.252-.78-.321-.053-.585.39-.7,1.1-.1.633.031.943.423,1.007a.8.8,0,0,0,.821-.483.078.078,0,0,1,.068-.035c.088.014.134.186.092.436a.942.942,0,0,1-1.2.779c-.746-.125-1.08-.7-.919-1.657" transform="translate(-298.045 -178.3)" fill="#e34d32"/><path d="M361.311,201.031c-.074-.043-.1-.1-.051-.218.115-.285.261-.6.419-.912a16.59,16.59,0,0,1,1.015-1.716c.077-.113.119-.12.2-.086.051.021.133.058.209.1s.146.08.217.12.085.078.041.154a13.014,13.014,0,0,0-.746,1.089c-.018.035-.016.058.007.072s.053.008.119-.017a2.11,2.11,0,0,0,1.3-.809c.049-.058.082-.066.136-.048a2.233,2.233,0,0,1,.24.116c.08.043.158.086.208.116a.083.083,0,0,1,.04.119,2.353,2.353,0,0,1-1.224.924.121.121,0,0,0-.07.052.1.1,0,0,0,0,.083,2.156,2.156,0,0,1-.1,1.716c-.039.077-.09.1-.152.073a1.937,1.937,0,0,1-.221-.1c-.072-.037-.147-.08-.221-.123s-.075-.1-.043-.188c.3-.821.246-1.257-.009-1.386-.11-.058-.3-.01-.415.219-.141.276-.247.688-.316.824a.106.106,0,0,1-.147.062c-.062-.028-.141-.063-.221-.1s-.169-.091-.224-.125" transform="translate(-340.369 -191.837)" fill="#e34d32"/></g></g><g transform="translate(50.095 372)" clip-path="url(#c)"><g transform="translate(0.137 4.286)"><path d="M35.352,107.676A17.676,17.676,0,1,1,17.676,90a17.676,17.676,0,0,1,17.676,17.676" transform="translate(0 -90)" fill="#e34d32"/><path d="M88.809,164.624A14.185,14.185,0,1,1,74.625,150.44a14.185,14.185,0,0,1,14.185,14.184" transform="translate(-56.949 -146.949)" fill="#fff"/><path d="M93.937,285.861c.123-.809.071-1.256-.173-1.449a1.1,1.1,0,0,0-1.341.053,2.3,2.3,0,0,1-1.4.4,3.442,3.442,0,0,1-1.37-.339,17.765,17.765,0,0,1-1.6-.885c-.271-.166-.313-.244-.32-.292a.438.438,0,0,1,.035-.129.933.933,0,0,0,.065-.482.632.632,0,0,0-.709-.529,5.615,5.615,0,0,1-1.14-.1.141.141,0,0,1-.11-.158,11.569,11.569,0,0,1,.635-1.784,1.133,1.133,0,0,0-.2-1.419,1.471,1.471,0,0,0-1.393.018,6.383,6.383,0,0,1-1.772.655h0a9.08,9.08,0,0,1-.93-.238,11.351,11.351,0,0,0-2.067-.462c-1.119-.031-1.964.054-5.311,1.01a3.5,3.5,0,0,1-2.006.148c-.557-.132-1.839-.545-2.158-.651-.514-.173-.764.9-.482.991.457.145,1.452.378,2.146.533a5.189,5.189,0,0,0,2.74-.079c3.323-.969,4.148-1.016,5.109-.976a6.827,6.827,0,0,1,1.552.363,6,6,0,0,0,1.568.352h.035a5.882,5.882,0,0,0,2.013-.792.336.336,0,0,1,.317-.052c.062.04.032.135.022.163-.029.078-.088.209-.164.375a7.311,7.311,0,0,0-.642,1.8.026.026,0,0,1-.011.02.046.046,0,0,1-.035.008c-.259-.034-.791-.127-1-.173a3.3,3.3,0,0,1-.683-.52l-.032-.028a2.011,2.011,0,0,0-1.549-.431c-.362.079-3.041,1.1-3.412,1.865a1.312,1.312,0,0,0,.2,1.426,4.79,4.79,0,0,0,1.373,1.3,6.9,6.9,0,0,0,1.044.166c.374.043.761.087,1.078.154a5.071,5.071,0,0,1,1.492.656,4.824,4.824,0,0,0,3.466.173.8.8,0,0,0,.549-.38.452.452,0,0,0,0-.392,3.22,3.22,0,0,0-.256-.41c-.142-.2-.4-.588-.367-.717a.452.452,0,0,1,.278-.249.425.425,0,0,1,.323-.022c.568.334,1.349.741,1.721.928a5.253,5.253,0,0,0,1.526.52,4.575,4.575,0,0,0,1.286-.02,1.755,1.755,0,0,0,.6-.263c.315-.231.456-.249.516-.226.062.058,0,.445-.016.572l-.006.045a12.96,12.96,0,0,0-.04,1.576.5.5,0,0,1-.219.389,3.849,3.849,0,0,1-.885.319,7.912,7.912,0,0,1-.894.189c-.347.05-.668.077-1.079.1l-.074,0c-.453.028-.881.055-.881.365a.4.4,0,0,0,.125.285,2.057,2.057,0,0,0,1.282.3h0c.032,0,.231-.005.681-.021.248-.009.5-.018.617-.021a.189.189,0,0,1,.066.008.722.722,0,0,1-.177.533,3.732,3.732,0,0,1-2.158.894,1.546,1.546,0,0,0-1.049.826,3.772,3.772,0,0,1-2.715,1.791,5.97,5.97,0,0,1-2.76-.255,11.574,11.574,0,0,1-1.758-.939.327.327,0,0,0-.328-.054c-.166.073-.16.274-.158.34a4,4,0,0,0,.462,1.549c.3.649.533,1.162.08,1.614a2.252,2.252,0,0,1-.549.384c-.426.231-.828.455-.972,1.551-.048.367-.12.792-.22,1.233-.139.619-.274,1.18-.415,1.794-.048.21.9.565.948.347.14-.611.274-1.375.347-1.848.067-.42.137-.825.173-1.19.049-.516.668-.875,1.129-1.1a7.671,7.671,0,0,0,1.217-.751,3.923,3.923,0,0,0,.793-.888.734.734,0,0,1,.568-.368l.084,0a8.263,8.263,0,0,0,1.964-.293,5.583,5.583,0,0,0,3.1-2.32c.081-.137.2-.347.381-.378a6.218,6.218,0,0,0,1.617-.5,2.909,2.909,0,0,0,1.245-1.092,1.854,1.854,0,0,0,.2-1.1.248.248,0,0,1,.164-.289,2.269,2.269,0,0,0,.886-.5,1.19,1.19,0,0,0,.168-.958,5.162,5.162,0,0,1,0-1.56m-7.452-2.506a7.643,7.643,0,0,0-.761.494,6.89,6.89,0,0,1-.727.417.91.91,0,0,1-.549.088,19.874,19.874,0,0,0-2.84-.213c-.489,0-.943.021-1.349.062a2.244,2.244,0,0,1-1.155-.635c-.1-.128-.231-.426-.075-.565a8.155,8.155,0,0,1,1.5-.853,7.266,7.266,0,0,1,1.278-.5,1.125,1.125,0,0,1,.843.19c.1.083.277.235.36.313a1.71,1.71,0,0,0,.619.4,4.861,4.861,0,0,0,.552.086c.146.018.3.037.442.058l.1.016c.754.115,1.647.248,1.854.249s.206.04.211.058c.014.052-.042.2-.3.337" transform="translate(-66.023 -267.69)" fill="#e34d32"/><path d="M198.451,205.251a.115.115,0,0,1-.16-.041,8.187,8.187,0,0,1-.711-1.166,8.315,8.315,0,0,1-.655-1.653.112.112,0,0,1,.058-.132c.116-.068.289-.161.462-.251a1.4,1.4,0,0,1,1.115-.222,1.075,1.075,0,0,1,.578.583,1.353,1.353,0,0,1-.3,1.661c-.235.272-.268.358-.195.5a4.629,4.629,0,0,0,.293.385c.024.047.007.08-.036.107s-.143.078-.235.125c-.072.036-.148.076-.215.105m.218-1.9a1.03,1.03,0,0,0-.1-.721c-.157-.307-.369-.458-.719-.28-.115.058-.155.1-.173.152a2.45,2.45,0,0,0,.38,1.07c.1.2.166.289.25.245a.844.844,0,0,0,.366-.467" transform="translate(-185.545 -195.286)" fill="#e34d32"/><path d="M255.5,186.974c-.918.157-1.3-.371-1.425-1.107-.187-1.088.048-2.178.831-2.311s1.367.815,1.552,1.9c.127.74-.058,1.365-.958,1.52m.281-1.523c-.129-.751-.457-1.329-.769-1.276-.333.058-.426.728-.3,1.451.1.564.328.751.673.69s.493-.31.4-.867" transform="translate(-239.337 -178.141)" fill="#e34d32"/><path d="M311.759,182.23c.147,0,.645.051.814.076.7.1,1.173.394,1.074,1.067a1.194,1.194,0,0,1-.7.9.082.082,0,0,0-.042.051.048.048,0,0,0,.022.052,1.82,1.82,0,0,1,.506,1.349.1.1,0,0,1-.116.089c-.058,0-.161-.02-.267-.035-.089-.013-.178-.026-.244-.04s-.106-.047-.105-.108c.02-.668-.217-1.052-.52-1.1-.207-.031-.311.058-.346.289-.031.207-.011.635-.02.69s-.04.065-.091.062c-.069-.006-.162-.015-.264-.03-.084-.012-.168-.03-.244-.045-.058-.013-.111-.034-.107-.122a11.11,11.11,0,0,1,.109-1.227,12.042,12.042,0,0,1,.423-1.844c.017-.058.058-.075.119-.075m.239,1.84a.956.956,0,0,0,.959-.768c.046-.311-.139-.466-.43-.509a.432.432,0,0,0-.293.023,2.392,2.392,0,0,0-.3,1.014c-.027.181,0,.231.068.239" transform="translate(-293.136 -176.902)" fill="#e34d32"/><path d="M360.759,200.725c-.074-.043-.1-.1-.053-.218.112-.286.258-.6.417-.914a16.526,16.526,0,0,1,1.008-1.719c.076-.116.119-.121.2-.087.052.021.133.058.21.1s.146.08.217.12.086.077.042.153a12.99,12.99,0,0,0-.742,1.091c-.017.035-.016.058.007.072s.054.007.119-.018a2.116,2.116,0,0,0,1.3-.812c.049-.058.082-.066.135-.048a2.648,2.648,0,0,1,.24.116c.08.04.158.085.209.116s.065.072.041.116a2.368,2.368,0,0,1-1.222.931.122.122,0,0,0-.07.053.1.1,0,0,0,0,.084,2.153,2.153,0,0,1-.091,1.716c-.039.078-.089.1-.152.074a2.207,2.207,0,0,1-.221-.1c-.073-.037-.147-.08-.221-.123s-.076-.1-.043-.188c.3-.822.241-1.257-.014-1.386-.111-.058-.3-.009-.415.221-.14.276-.244.688-.313.824a.106.106,0,0,1-.147.062c-.063-.027-.141-.062-.221-.1s-.17-.091-.225-.124" transform="translate(-339.849 -191.544)" fill="#e34d32"/></g></g><g transform="translate(733.328 372)" clip-path="url(#b)"><g transform="translate(0.241 4.286)"><path d="M35.352,107.676A17.676,17.676,0,1,1,17.676,90a17.676,17.676,0,0,1,17.676,17.676" transform="translate(0 -90)" fill="#e34d32"/><path d="M88.809,164.624A14.185,14.185,0,1,1,74.625,150.44a14.185,14.185,0,0,1,14.185,14.184" transform="translate(-56.949 -146.949)" fill="#fff"/><path d="M93.937,285.861c.123-.809.071-1.256-.173-1.449a1.1,1.1,0,0,0-1.341.053,2.3,2.3,0,0,1-1.4.4,3.442,3.442,0,0,1-1.37-.339,17.765,17.765,0,0,1-1.6-.885c-.271-.166-.313-.244-.32-.292a.438.438,0,0,1,.035-.129.933.933,0,0,0,.065-.482.632.632,0,0,0-.709-.529,5.615,5.615,0,0,1-1.14-.1.141.141,0,0,1-.11-.158,11.569,11.569,0,0,1,.635-1.784,1.133,1.133,0,0,0-.2-1.419,1.471,1.471,0,0,0-1.393.018,6.383,6.383,0,0,1-1.772.655h0a9.08,9.08,0,0,1-.93-.238,11.351,11.351,0,0,0-2.067-.462c-1.119-.031-1.964.054-5.311,1.01a3.5,3.5,0,0,1-2.006.148c-.557-.132-1.839-.545-2.158-.651-.514-.173-.764.9-.482.991.457.145,1.452.378,2.146.533a5.189,5.189,0,0,0,2.74-.079c3.323-.969,4.148-1.016,5.109-.976a6.827,6.827,0,0,1,1.552.363,6,6,0,0,0,1.568.352h.035a5.882,5.882,0,0,0,2.013-.792.336.336,0,0,1,.317-.052c.062.04.032.135.022.163-.029.078-.088.209-.164.375a7.311,7.311,0,0,0-.642,1.8.026.026,0,0,1-.011.02.046.046,0,0,1-.035.008c-.259-.034-.791-.127-1-.173a3.3,3.3,0,0,1-.683-.52l-.032-.028a2.011,2.011,0,0,0-1.549-.431c-.362.079-3.041,1.1-3.412,1.865a1.312,1.312,0,0,0,.2,1.426,4.79,4.79,0,0,0,1.373,1.3,6.9,6.9,0,0,0,1.044.166c.374.043.761.087,1.078.154a5.071,5.071,0,0,1,1.492.656,4.824,4.824,0,0,0,3.466.173.8.8,0,0,0,.549-.38.452.452,0,0,0,0-.392,3.22,3.22,0,0,0-.256-.41c-.142-.2-.4-.588-.367-.717a.452.452,0,0,1,.278-.249.425.425,0,0,1,.323-.022c.568.334,1.349.741,1.721.928a5.253,5.253,0,0,0,1.526.52,4.575,4.575,0,0,0,1.286-.02,1.755,1.755,0,0,0,.6-.263c.315-.231.456-.249.516-.226.062.058,0,.445-.016.572l-.006.045a12.96,12.96,0,0,0-.04,1.576.5.5,0,0,1-.219.389,3.849,3.849,0,0,1-.885.319,7.912,7.912,0,0,1-.894.189c-.347.05-.668.077-1.079.1l-.074,0c-.453.028-.881.055-.881.365a.4.4,0,0,0,.125.285,2.057,2.057,0,0,0,1.282.3h0c.032,0,.231-.005.681-.021.248-.009.5-.018.617-.021a.189.189,0,0,1,.066.008.722.722,0,0,1-.177.533,3.732,3.732,0,0,1-2.158.894,1.546,1.546,0,0,0-1.049.826,3.772,3.772,0,0,1-2.715,1.791,5.97,5.97,0,0,1-2.76-.255,11.574,11.574,0,0,1-1.758-.939.327.327,0,0,0-.328-.054c-.166.073-.16.274-.158.34a4,4,0,0,0,.462,1.549c.3.649.533,1.162.08,1.614a2.252,2.252,0,0,1-.549.384c-.426.231-.828.455-.972,1.551-.048.367-.12.792-.22,1.233-.139.619-.274,1.18-.415,1.794-.048.21.9.565.948.347.14-.611.274-1.375.347-1.848.067-.42.137-.825.173-1.19.049-.516.668-.875,1.129-1.1a7.671,7.671,0,0,0,1.217-.751,3.923,3.923,0,0,0,.793-.888.734.734,0,0,1,.568-.368l.084,0a8.263,8.263,0,0,0,1.964-.293,5.583,5.583,0,0,0,3.1-2.32c.081-.137.2-.347.381-.378a6.218,6.218,0,0,0,1.617-.5,2.909,2.909,0,0,0,1.245-1.092,1.854,1.854,0,0,0,.2-1.1.248.248,0,0,1,.164-.289,2.269,2.269,0,0,0,.886-.5,1.19,1.19,0,0,0,.168-.958,5.162,5.162,0,0,1,0-1.56m-7.452-2.506a7.643,7.643,0,0,0-.761.494,6.89,6.89,0,0,1-.727.417.91.91,0,0,1-.549.088,19.874,19.874,0,0,0-2.84-.213c-.489,0-.943.021-1.349.062a2.244,2.244,0,0,1-1.155-.635c-.1-.128-.231-.426-.075-.565a8.155,8.155,0,0,1,1.5-.853,7.266,7.266,0,0,1,1.278-.5,1.125,1.125,0,0,1,.843.19c.1.083.277.235.36.313a1.71,1.71,0,0,0,.619.4,4.861,4.861,0,0,0,.552.086c.146.018.3.037.442.058l.1.016c.754.115,1.647.248,1.854.249s.206.04.211.058c.014.052-.042.2-.3.337" transform="translate(-66.023 -267.69)" fill="#e34d32"/><path d="M198.451,205.251a.115.115,0,0,1-.16-.041,8.187,8.187,0,0,1-.711-1.166,8.315,8.315,0,0,1-.655-1.653.112.112,0,0,1,.058-.132c.116-.068.289-.161.462-.251a1.4,1.4,0,0,1,1.115-.222,1.075,1.075,0,0,1,.578.583,1.353,1.353,0,0,1-.3,1.661c-.235.272-.268.358-.195.5a4.629,4.629,0,0,0,.293.385c.024.047.007.08-.036.107s-.143.078-.235.125c-.072.036-.148.076-.215.105m.218-1.9a1.03,1.03,0,0,0-.1-.721c-.157-.307-.369-.458-.719-.28-.115.058-.155.1-.173.152a2.45,2.45,0,0,0,.38,1.07c.1.2.166.289.25.245a.844.844,0,0,0,.366-.467" transform="translate(-185.545 -195.286)" fill="#e34d32"/><path d="M255.5,186.974c-.918.157-1.3-.371-1.425-1.107-.187-1.088.048-2.178.831-2.311s1.367.815,1.552,1.9c.127.74-.058,1.365-.958,1.52m.281-1.523c-.129-.751-.457-1.329-.769-1.276-.333.058-.426.728-.3,1.451.1.564.328.751.673.69s.493-.31.4-.867" transform="translate(-239.337 -178.141)" fill="#e34d32"/><path d="M311.759,182.23c.147,0,.645.051.814.076.7.1,1.173.394,1.074,1.067a1.194,1.194,0,0,1-.7.9.082.082,0,0,0-.042.051.048.048,0,0,0,.022.052,1.82,1.82,0,0,1,.506,1.349.1.1,0,0,1-.116.089c-.058,0-.161-.02-.267-.035-.089-.013-.178-.026-.244-.04s-.106-.047-.105-.108c.02-.668-.217-1.052-.52-1.1-.207-.031-.311.058-.346.289-.031.207-.011.635-.02.69s-.04.065-.091.062c-.069-.006-.162-.015-.264-.03-.084-.012-.168-.03-.244-.045-.058-.013-.111-.034-.107-.122a11.11,11.11,0,0,1,.109-1.227,12.042,12.042,0,0,1,.423-1.844c.017-.058.058-.075.119-.075m.239,1.84a.956.956,0,0,0,.959-.768c.046-.311-.139-.466-.43-.509a.432.432,0,0,0-.293.023,2.392,2.392,0,0,0-.3,1.014c-.027.181,0,.231.068.239" transform="translate(-293.136 -176.902)" fill="#e34d32"/><path d="M360.759,200.725c-.074-.043-.1-.1-.053-.218.112-.286.258-.6.417-.914a16.526,16.526,0,0,1,1.008-1.719c.076-.116.119-.121.2-.087.052.021.133.058.21.1s.146.08.217.12.086.077.042.153a12.99,12.99,0,0,0-.742,1.091c-.017.035-.016.058.007.072s.054.007.119-.018a2.116,2.116,0,0,0,1.3-.812c.049-.058.082-.066.135-.048a2.648,2.648,0,0,1,.24.116c.08.04.158.085.209.116s.065.072.041.116a2.368,2.368,0,0,1-1.222.931.122.122,0,0,0-.07.053.1.1,0,0,0,0,.084,2.153,2.153,0,0,1-.091,1.716c-.039.078-.089.1-.152.074a2.207,2.207,0,0,1-.221-.1c-.073-.037-.147-.08-.221-.123s-.076-.1-.043-.188c.3-.822.241-1.257-.014-1.386-.111-.058-.3-.009-.415.221-.14.276-.244.688-.313.824a.106.106,0,0,1-.147.062c-.063-.027-.141-.062-.221-.1s-.17-.091-.225-.124" transform="translate(-339.849 -191.544)" fill="#e34d32"/></g></g><g transform="translate(193.308 376.286)"><g transform="translate(0 0)"><path d="M35.352,107.676A17.676,17.676,0,1,1,17.676,90a17.676,17.676,0,0,1,17.676,17.676" transform="translate(0 -90)" fill="#e34d32"/><path d="M88.809,164.624A14.184,14.184,0,1,1,74.625,150.44a14.184,14.184,0,0,1,14.184,14.184" transform="translate(-56.949 -146.949)" fill="#fff"/><path d="M209.055,198.953a.105.105,0,0,1-.146-.047q-.328-.6-.594-1.236A11.666,11.666,0,0,1,207.74,196a.116.116,0,0,1,.069-.143c.121-.065.381-.185.641-.3a1.478,1.478,0,0,1,1.081-.189.594.594,0,0,1,.316.34.869.869,0,0,1-.051.776c-.02.041-.031.07-.02.094s.027.032.058.042a.994.994,0,0,1,.788.608c.263.619-.024,1.081-1.074,1.528-.166.07-.341.14-.493.2m.24-2.913c-.1-.225-.331-.2-.578-.1-.137.058-.252.116-.277.189a2.086,2.086,0,0,0,.218.732c.033.08.07.122.133.095a.792.792,0,0,0,.505-.921m.68,1.361c-.116-.265-.4-.41-.57-.336a1.238,1.238,0,0,0-.347.293.281.281,0,0,0-.044.355.946.946,0,0,0,.278.436c.069.032.116.026.289-.047.3-.129.533-.364.39-.7" transform="translate(-195.735 -189.241)" fill="#e34d32"/><path d="M270.924,184.718c-.094.005-.147-.007-.162-.111-.028-.2-.055-.42-.077-.65a12.439,12.439,0,0,1-.029-2.445.133.133,0,0,1,.1-.129c.143-.027.441-.061.751-.092.347-.035.716-.068.924-.071.058,0,.084.023.087.058a2.7,2.7,0,0,1-.09.52.077.077,0,0,1-.068.058.422.422,0,0,1-.116-.019,2.147,2.147,0,0,0-.669-.025c-.161.016-.231.049-.281.111a1.356,1.356,0,0,0-.058.641c.01.1.048.136.133.127.149-.015.347-.109.626-.137.183-.019.332,0,.34.088a2.257,2.257,0,0,1-.058.458c-.012.054-.032.065-.066.068a2.889,2.889,0,0,0-.479-.027c-.347.035-.462.165-.43.473.043.43.113.484.355.462a2.367,2.367,0,0,0,.877-.255.255.255,0,0,1,.082-.039c.024,0,.047.008.065.046a2.818,2.818,0,0,1,.153.59c.006.065-.032.108-.108.12-.263.04-.573.075-.871.109-.353.035-.693.061-.942.077" transform="translate(-254.976 -175.951)" fill="#e34d32"/><path d="M318.7,186.616c-.092-.021-.139-.048-.124-.151.029-.2.065-.419.107-.646a12.48,12.48,0,0,1,.656-2.356.133.133,0,0,1,.135-.1c.146.014.44.064.747.121.347.064.7.136.907.192.058.015.075.044.068.079a2.738,2.738,0,0,1-.231.472.08.08,0,0,1-.08.034.437.437,0,0,1-.1-.051,2.187,2.187,0,0,0-.635-.211.365.365,0,0,0-.3.028,1.32,1.32,0,0,0-.231.6c-.018.1.008.143.092.159.147.027.363-.008.64.043.181.034.317.095.3.181a2.259,2.259,0,0,1-.183.423c-.026.049-.048.053-.083.047a2.987,2.987,0,0,0-.453-.159c-.34-.064-.488.029-.545.333-.079.425-.027.5.213.542a2.358,2.358,0,0,0,.913,0,.255.255,0,0,1,.09-.014c.025,0,.044.021.049.062a2.8,2.8,0,0,1-.018.609c-.012.065-.058.1-.138.085-.263-.036-.57-.088-.866-.139-.346-.065-.683-.136-.924-.19" transform="translate(-300.171 -177.974)" fill="#e34d32"/><path d="M363.826,202.187a.123.123,0,0,1-.066-.148,6.432,6.432,0,0,1,.489-1.251,8.577,8.577,0,0,1,.924-1.536.116.116,0,0,1,.138-.031c.2.073.451.188.693.3s.447.224.607.316c.061.039.058.076.039.116a1.976,1.976,0,0,1-.363.489.062.062,0,0,1-.071.01.35.35,0,0,1-.069-.053,1.413,1.413,0,0,0-.4-.282c-.139-.066-.216-.084-.284-.058a1.574,1.574,0,0,0-.4.608c-.066.137-.039.2.069.251.165.08.4.1.683.236.08.039.12.077.092.132a2.6,2.6,0,0,1-.316.492.069.069,0,0,1-.088.016c-.069-.034-.241-.15-.469-.259-.185-.089-.308-.09-.389.079a5.679,5.679,0,0,0-.207.757c-.024.051-.071.058-.144.032-.032-.011-.135-.055-.231-.1s-.191-.1-.224-.116" transform="translate(-342.742 -192.901)" fill="#e34d32"/><path d="M161.18,268.95a.306.306,0,0,0,.48-.032,4.076,4.076,0,0,1,2.181-1.906c.245-.058.4-.01.593-.2a3.481,3.481,0,0,1,2.1-1.005,8.59,8.59,0,0,1,3.28,1.166,4.91,4.91,0,0,1,1.046.938c.122.158.368.395.578.28a.645.645,0,0,1,.615-.086c.191.117.125.441-.058.582a1.268,1.268,0,0,0-.4.842c-.058.274.258.339.448.215s.206-.488.5-.626a4.774,4.774,0,0,1,.975-.166c.235-.045.318.131.239.37-.116.347.068.969-.836,1.3-.628.231-.439.623-.1.645s-.045.846-.36.83-.419.088-.386.392c.02.183.35.267.8.274.241,0,.27.25.024.289s-.578.084-.508.293c.164.492-.08.9-.546.906a.292.292,0,0,0-.173.469,6,6,0,0,1,.52.717c.131.249-.226.812-.425.635s-.471-.141-.462.248a1.862,1.862,0,0,0,.422,1.271,4.6,4.6,0,0,1,1.119,1.758,5.979,5.979,0,0,1-.308,3.235.814.814,0,0,1-.816.437c-.129-.031-.381.082-.4.2a.765.765,0,0,1-.4.543c-.256.139-.553.069-.589.382s-.969.554-.969.273-.189-.333-.4-.31c-1.12.121-1.631-.017-1.928-.473a1.066,1.066,0,0,0-.854-.578,1.243,1.243,0,0,1-.955-.777c-.177-.49-.068-1.277-.389-1.665s-1.8-1.831-2.278-2.478a9.245,9.245,0,0,1-1.069-2.2c-.158-.49-.374-.462-.39-.058s-.382.34-.4-.289.166-2.489.125-2.821-.929-.158-1.229-.173-1.242-.666-.918-.6c.381.075.775-.179.659-.509-.258-.741-.788-.635-1.277-1.069-.473-.417-.432-.821.254-.971.669-.146,2.311.671,3.084,2.032.165.289.332.258.289-.025a2.847,2.847,0,0,0-.44-1.162c-.3-.456-.73-1.046-.614-1.253s.257-.327.544-.089m8.111,14.112c.573,0,.85.2,1.259-.136.129-.108.137-.206-.011-.289a2.557,2.557,0,0,0-1.378-.373,2.757,2.757,0,0,0-1.465.432c-.13.106.019.218.116.3.373.313.9.065,1.478.065m2.012-1.058c.289.095.513-.1.649-.842a2.794,2.794,0,0,0-.3-2.044c-.393-.721-.856-.954-1.092-1.381a5.779,5.779,0,0,1-.321-2.345,20.624,20.624,0,0,0-.222-2.871,3.184,3.184,0,0,1,.281-2.181c.169-.293.337-.626.2-.858a5.246,5.246,0,0,0-1.121-1.474,8.248,8.248,0,0,0-2.937-1.1c-.571.045-1.144.816-1.769,1.1-.426.191-.77-.205-1.523.452-.5.432-.273.97.008,1.419s.982.3,1.537.9.513,1.817,1.111,2.757a9.373,9.373,0,0,1,1.086,3.69,1.412,1.412,0,0,1-.134.773,5.712,5.712,0,0,0-.611,1.357,4.788,4.788,0,0,0-.129,1.591c.018.339.069.854.324,1.04a.962.962,0,0,0,.947-.033,5.821,5.821,0,0,1,1.928-.5A5.009,5.009,0,0,1,171.3,282m-8.544-8.665c-.24.062-.218.306,0,.341a11.6,11.6,0,0,1,1.386.568c.239.115.355-.113.179-.315s-.153-.45-.28-.681a.6.6,0,0,0-.7-.226c-.236.084-.347.251-.585.313" transform="translate(-148.633 -255.653)" fill="#e34d32"/><path d="M350.253,571.175a8.521,8.521,0,0,1-.486,3.1c-.24.7.69.711.88.183a12.442,12.442,0,0,0,.59-3.408c.016-.649-.331-.615-.627-.578s-.378.415-.357.7" transform="translate(-329.526 -542.705)" fill="#e34d32"/><path d="M386.788,415.363a5.247,5.247,0,0,0,2.761,1.1c1.452.3,4.737.7,5.7.867s1.359-.725.356-.956c-1.228-.28-4.354-.613-5.444-.79a4.769,4.769,0,0,1-3.293-1.511c-.307-.386-.63-.142-.582.37a1.089,1.089,0,0,0,.5.914" transform="translate(-363.966 -395.177)" fill="#e34d32"/><path d="M200.363,379.749a10.78,10.78,0,0,0,.381,3.169,17.219,17.219,0,0,0,1.543,3.74c.84,1.553,2.1,3.8,2.334,5.538.188,1.408-.835.751-1-.039a13.085,13.085,0,0,0-1.329-3.389,27.3,27.3,0,0,1-2.422-5.4,12.013,12.013,0,0,1-.173-6.166c.133-.635.34-.612.663-.563s.024,2.125,0,3.111" transform="translate(-187.865 -360.06)" fill="#e34d32"/><path d="M124.054,309.149a3.6,3.6,0,0,1-1.6-.214,2.918,2.918,0,0,1-1.145-1.349,4.351,4.351,0,0,0-.574-.887c-.207-.207-.173-.408.216-.444a7.132,7.132,0,0,1,1.836-.292,3.822,3.822,0,0,1,2.9,1.9c.425.711.9-.07.714-.591a3.893,3.893,0,0,0-2.7-2.083,9.167,9.167,0,0,0-3.318.462c-.689.113-.908.679-.5,1.18a5.392,5.392,0,0,1,.815,1.418,2.936,2.936,0,0,0,1.3,1.531,4.892,4.892,0,0,0,2.068.336c.345-.016.449.217.4.57s.465.312.545-.249.409-1.3.064-1.3a8.124,8.124,0,0,0-1.014.006" transform="translate(-112.759 -292.722)" fill="#e34d32"/><path d="M384.763,300.139a2.244,2.244,0,0,1,1.256-.6c.651-.094,1.612,0,2.134-.1s.825.045.774.458c-.07.561.347,1.77-.052,2.705-.456,1.07-1.863,1.355-3.072,1.1-.665-.138-.36-.953.226-.839.568.111,1.578.046,1.887-.4.428-.612.243-1.617.3-2.034.037-.3-.073-.431-.413-.354-.781.177-2.022-.247-2.567.791-.409.775-.946-.293-.469-.731" transform="translate(-362.361 -287.308)" fill="#e34d32"/><path d="M313.013,501.382c-.159.118-.274-.028-.188-.231a.873.873,0,0,1,.93-.5.863.863,0,0,1,.693,1.1c-.077.289-.307.214-.35-.026a.613.613,0,0,0-.448-.444.875.875,0,0,0-.64.1" transform="translate(-294.727 -476.925)" fill="#e34d32"/><path d="M370.9,499.345c.013.193-.26.209-.339-.017a.981.981,0,0,1,.1-1.011.867.867,0,0,1,1.1-.11.629.629,0,0,1,.147.7c-.085.173-.231.11-.251.01a.335.335,0,0,0-.435-.242c-.269.092-.332.462-.319.671" transform="translate(-349.07 -474.489)" fill="#e34d32"/><path d="M321.976,474.494c-.266.058-.3-.138-.083-.285a3.308,3.308,0,0,1,1.455-.511,2.959,2.959,0,0,1,1.633.4c.224.123.191.369-.133.3a5.409,5.409,0,0,0-1.4-.128,9.231,9.231,0,0,0-1.475.221" transform="translate(-303.164 -451.527)" fill="#e34d32"/><path d="M297.9,315.074c-.209-.084-.19-.253.1-.272a1.821,1.821,0,0,1,1.118.251c.143.12.255.125.342,0a1.061,1.061,0,0,1,.781-.5c.213-.012.3.17.1.325a3.467,3.467,0,0,0-.66,1.406c-.083.367-.364.347-.5.042a2.426,2.426,0,0,0-1.279-1.25" transform="translate(-280.562 -301.579)" fill="#e34d32"/></g></g><g transform="translate(870.12 376.286)"><g transform="translate(0 0)"><path d="M35.352,107.676A17.676,17.676,0,1,1,17.676,90a17.676,17.676,0,0,1,17.676,17.676" transform="translate(0 -90)" fill="#e34d32"/><path d="M88.809,164.624A14.184,14.184,0,1,1,74.625,150.44a14.184,14.184,0,0,1,14.184,14.184" transform="translate(-56.949 -146.949)" fill="#fff"/><path d="M209.055,198.953a.105.105,0,0,1-.146-.047q-.328-.6-.594-1.236A11.666,11.666,0,0,1,207.74,196a.116.116,0,0,1,.069-.143c.121-.065.381-.185.641-.3a1.478,1.478,0,0,1,1.081-.189.594.594,0,0,1,.316.34.869.869,0,0,1-.051.776c-.02.041-.031.07-.02.094s.027.032.058.042a.994.994,0,0,1,.788.608c.263.619-.024,1.081-1.074,1.528-.166.07-.341.14-.493.2m.24-2.913c-.1-.225-.331-.2-.578-.1-.137.058-.252.116-.277.189a2.086,2.086,0,0,0,.218.732c.033.08.07.122.133.095a.792.792,0,0,0,.505-.921m.68,1.361c-.116-.265-.4-.41-.57-.336a1.238,1.238,0,0,0-.347.293.281.281,0,0,0-.044.355.946.946,0,0,0,.278.436c.069.032.116.026.289-.047.3-.129.533-.364.39-.7" transform="translate(-195.735 -189.241)" fill="#e34d32"/><path d="M270.924,184.718c-.094.005-.147-.007-.162-.111-.028-.2-.055-.42-.077-.65a12.439,12.439,0,0,1-.029-2.445.133.133,0,0,1,.1-.129c.143-.027.441-.061.751-.092.347-.035.716-.068.924-.071.058,0,.084.023.087.058a2.7,2.7,0,0,1-.09.52.077.077,0,0,1-.068.058.422.422,0,0,1-.116-.019,2.147,2.147,0,0,0-.669-.025c-.161.016-.231.049-.281.111a1.356,1.356,0,0,0-.058.641c.01.1.048.136.133.127.149-.015.347-.109.626-.137.183-.019.332,0,.34.088a2.257,2.257,0,0,1-.058.458c-.012.054-.032.065-.066.068a2.889,2.889,0,0,0-.479-.027c-.347.035-.462.165-.43.473.043.43.113.484.355.462a2.367,2.367,0,0,0,.877-.255.255.255,0,0,1,.082-.039c.024,0,.047.008.065.046a2.818,2.818,0,0,1,.153.59c.006.065-.032.108-.108.12-.263.04-.573.075-.871.109-.353.035-.693.061-.942.077" transform="translate(-254.976 -175.951)" fill="#e34d32"/><path d="M318.7,186.616c-.092-.021-.139-.048-.124-.151.029-.2.065-.419.107-.646a12.48,12.48,0,0,1,.656-2.356.133.133,0,0,1,.135-.1c.146.014.44.064.747.121.347.064.7.136.907.192.058.015.075.044.068.079a2.738,2.738,0,0,1-.231.472.08.08,0,0,1-.08.034.437.437,0,0,1-.1-.051,2.187,2.187,0,0,0-.635-.211.365.365,0,0,0-.3.028,1.32,1.32,0,0,0-.231.6c-.018.1.008.143.092.159.147.027.363-.008.64.043.181.034.317.095.3.181a2.259,2.259,0,0,1-.183.423c-.026.049-.048.053-.083.047a2.987,2.987,0,0,0-.453-.159c-.34-.064-.488.029-.545.333-.079.425-.027.5.213.542a2.358,2.358,0,0,0,.913,0,.255.255,0,0,1,.09-.014c.025,0,.044.021.049.062a2.8,2.8,0,0,1-.018.609c-.012.065-.058.1-.138.085-.263-.036-.57-.088-.866-.139-.346-.065-.683-.136-.924-.19" transform="translate(-300.171 -177.974)" fill="#e34d32"/><path d="M363.826,202.187a.123.123,0,0,1-.066-.148,6.432,6.432,0,0,1,.489-1.251,8.577,8.577,0,0,1,.924-1.536.116.116,0,0,1,.138-.031c.2.073.451.188.693.3s.447.224.607.316c.061.039.058.076.039.116a1.976,1.976,0,0,1-.363.489.062.062,0,0,1-.071.01.35.35,0,0,1-.069-.053,1.413,1.413,0,0,0-.4-.282c-.139-.066-.216-.084-.284-.058a1.574,1.574,0,0,0-.4.608c-.066.137-.039.2.069.251.165.08.4.1.683.236.08.039.12.077.092.132a2.6,2.6,0,0,1-.316.492.069.069,0,0,1-.088.016c-.069-.034-.241-.15-.469-.259-.185-.089-.308-.09-.389.079a5.679,5.679,0,0,0-.207.757c-.024.051-.071.058-.144.032-.032-.011-.135-.055-.231-.1s-.191-.1-.224-.116" transform="translate(-342.742 -192.901)" fill="#e34d32"/><path d="M161.18,268.95a.306.306,0,0,0,.48-.032,4.076,4.076,0,0,1,2.181-1.906c.245-.058.4-.01.593-.2a3.481,3.481,0,0,1,2.1-1.005,8.59,8.59,0,0,1,3.28,1.166,4.91,4.91,0,0,1,1.046.938c.122.158.368.395.578.28a.645.645,0,0,1,.615-.086c.191.117.125.441-.058.582a1.268,1.268,0,0,0-.4.842c-.058.274.258.339.448.215s.206-.488.5-.626a4.774,4.774,0,0,1,.975-.166c.235-.045.318.131.239.37-.116.347.068.969-.836,1.3-.628.231-.439.623-.1.645s-.045.846-.36.83-.419.088-.386.392c.02.183.35.267.8.274.241,0,.27.25.024.289s-.578.084-.508.293c.164.492-.08.9-.546.906a.292.292,0,0,0-.173.469,6,6,0,0,1,.52.717c.131.249-.226.812-.425.635s-.471-.141-.462.248a1.862,1.862,0,0,0,.422,1.271,4.6,4.6,0,0,1,1.119,1.758,5.979,5.979,0,0,1-.308,3.235.814.814,0,0,1-.816.437c-.129-.031-.381.082-.4.2a.765.765,0,0,1-.4.543c-.256.139-.553.069-.589.382s-.969.554-.969.273-.189-.333-.4-.31c-1.12.121-1.631-.017-1.928-.473a1.066,1.066,0,0,0-.854-.578,1.243,1.243,0,0,1-.955-.777c-.177-.49-.068-1.277-.389-1.665s-1.8-1.831-2.278-2.478a9.245,9.245,0,0,1-1.069-2.2c-.158-.49-.374-.462-.39-.058s-.382.34-.4-.289.166-2.489.125-2.821-.929-.158-1.229-.173-1.242-.666-.918-.6c.381.075.775-.179.659-.509-.258-.741-.788-.635-1.277-1.069-.473-.417-.432-.821.254-.971.669-.146,2.311.671,3.084,2.032.165.289.332.258.289-.025a2.847,2.847,0,0,0-.44-1.162c-.3-.456-.73-1.046-.614-1.253s.257-.327.544-.089m8.111,14.112c.573,0,.85.2,1.259-.136.129-.108.137-.206-.011-.289a2.557,2.557,0,0,0-1.378-.373,2.757,2.757,0,0,0-1.465.432c-.13.106.019.218.116.3.373.313.9.065,1.478.065m2.012-1.058c.289.095.513-.1.649-.842a2.794,2.794,0,0,0-.3-2.044c-.393-.721-.856-.954-1.092-1.381a5.779,5.779,0,0,1-.321-2.345,20.624,20.624,0,0,0-.222-2.871,3.184,3.184,0,0,1,.281-2.181c.169-.293.337-.626.2-.858a5.246,5.246,0,0,0-1.121-1.474,8.248,8.248,0,0,0-2.937-1.1c-.571.045-1.144.816-1.769,1.1-.426.191-.77-.205-1.523.452-.5.432-.273.97.008,1.419s.982.3,1.537.9.513,1.817,1.111,2.757a9.373,9.373,0,0,1,1.086,3.69,1.412,1.412,0,0,1-.134.773,5.712,5.712,0,0,0-.611,1.357,4.788,4.788,0,0,0-.129,1.591c.018.339.069.854.324,1.04a.962.962,0,0,0,.947-.033,5.821,5.821,0,0,1,1.928-.5A5.009,5.009,0,0,1,171.3,282m-8.544-8.665c-.24.062-.218.306,0,.341a11.6,11.6,0,0,1,1.386.568c.239.115.355-.113.179-.315s-.153-.45-.28-.681a.6.6,0,0,0-.7-.226c-.236.084-.347.251-.585.313" transform="translate(-148.633 -255.653)" fill="#e34d32"/><path d="M350.253,571.175a8.521,8.521,0,0,1-.486,3.1c-.24.7.69.711.88.183a12.442,12.442,0,0,0,.59-3.408c.016-.649-.331-.615-.627-.578s-.378.415-.357.7" transform="translate(-329.526 -542.705)" fill="#e34d32"/><path d="M386.788,415.363a5.247,5.247,0,0,0,2.761,1.1c1.452.3,4.737.7,5.7.867s1.359-.725.356-.956c-1.228-.28-4.354-.613-5.444-.79a4.769,4.769,0,0,1-3.293-1.511c-.307-.386-.63-.142-.582.37a1.089,1.089,0,0,0,.5.914" transform="translate(-363.966 -395.177)" fill="#e34d32"/><path d="M200.363,379.749a10.78,10.78,0,0,0,.381,3.169,17.219,17.219,0,0,0,1.543,3.74c.84,1.553,2.1,3.8,2.334,5.538.188,1.408-.835.751-1-.039a13.085,13.085,0,0,0-1.329-3.389,27.3,27.3,0,0,1-2.422-5.4,12.013,12.013,0,0,1-.173-6.166c.133-.635.34-.612.663-.563s.024,2.125,0,3.111" transform="translate(-187.865 -360.06)" fill="#e34d32"/><path d="M124.054,309.149a3.6,3.6,0,0,1-1.6-.214,2.918,2.918,0,0,1-1.145-1.349,4.351,4.351,0,0,0-.574-.887c-.207-.207-.173-.408.216-.444a7.132,7.132,0,0,1,1.836-.292,3.822,3.822,0,0,1,2.9,1.9c.425.711.9-.07.714-.591a3.893,3.893,0,0,0-2.7-2.083,9.167,9.167,0,0,0-3.318.462c-.689.113-.908.679-.5,1.18a5.392,5.392,0,0,1,.815,1.418,2.936,2.936,0,0,0,1.3,1.531,4.892,4.892,0,0,0,2.068.336c.345-.016.449.217.4.57s.465.312.545-.249.409-1.3.064-1.3a8.124,8.124,0,0,0-1.014.006" transform="translate(-112.759 -292.722)" fill="#e34d32"/><path d="M384.763,300.139a2.244,2.244,0,0,1,1.256-.6c.651-.094,1.612,0,2.134-.1s.825.045.774.458c-.07.561.347,1.77-.052,2.705-.456,1.07-1.863,1.355-3.072,1.1-.665-.138-.36-.953.226-.839.568.111,1.578.046,1.887-.4.428-.612.243-1.617.3-2.034.037-.3-.073-.431-.413-.354-.781.177-2.022-.247-2.567.791-.409.775-.946-.293-.469-.731" transform="translate(-362.361 -287.308)" fill="#e34d32"/><path d="M313.013,501.382c-.159.118-.274-.028-.188-.231a.873.873,0,0,1,.93-.5.863.863,0,0,1,.693,1.1c-.077.289-.307.214-.35-.026a.613.613,0,0,0-.448-.444.875.875,0,0,0-.64.1" transform="translate(-294.727 -476.925)" fill="#e34d32"/><path d="M370.9,499.345c.013.193-.26.209-.339-.017a.981.981,0,0,1,.1-1.011.867.867,0,0,1,1.1-.11.629.629,0,0,1,.147.7c-.085.173-.231.11-.251.01a.335.335,0,0,0-.435-.242c-.269.092-.332.462-.319.671" transform="translate(-349.07 -474.489)" fill="#e34d32"/><path d="M321.976,474.494c-.266.058-.3-.138-.083-.285a3.308,3.308,0,0,1,1.455-.511,2.959,2.959,0,0,1,1.633.4c.224.123.191.369-.133.3a5.409,5.409,0,0,0-1.4-.128,9.231,9.231,0,0,0-1.475.221" transform="translate(-303.164 -451.527)" fill="#e34d32"/><path d="M297.9,315.074c-.209-.084-.19-.253.1-.272a1.821,1.821,0,0,1,1.118.251c.143.12.255.125.342,0a1.061,1.061,0,0,1,.781-.5c.213-.012.3.17.1.325a3.467,3.467,0,0,0-.66,1.406c-.083.367-.364.347-.5.042a2.426,2.426,0,0,0-1.279-1.25" transform="translate(-280.562 -301.579)" fill="#e34d32"/></g></g></g></svg>