<svg xmlns="http://www.w3.org/2000/svg" xmlns:xlink="http://www.w3.org/1999/xlink" width="330.744" height="31.278" viewBox="0 0 330.744 31.278"><defs><clipPath id="a"><path d="M-743.562,128.25a12.486,12.486,0,0,0,12.471,12.471,12.486,12.486,0,0,0,12.471-12.471,12.485,12.485,0,0,0-12.471-12.471,12.486,12.486,0,0,0-12.471,12.471" transform="translate(743.562 -115.779)" fill="none"/></clipPath></defs><g transform="translate(1665.519 -105.727)"><g transform="translate(-1481.003 105.727)"><path d="M-931.334,113.007c-.269-.111-.619.145-.768.254a1.492,1.492,0,0,1-.492.211,4.284,4.284,0,0,1-1.208.017,4.912,4.912,0,0,1-1.434-.49c-.368-.186-1.141-.587-1.7-.918a.653.653,0,0,0-.548,0,.7.7,0,0,0-.431.415c-.068.228.124.532.4.937a3.056,3.056,0,0,1,.232.367.194.194,0,0,1,0,.171.556.556,0,0,1-.377.241,4.664,4.664,0,0,1-3.244-.126,5.192,5.192,0,0,0-1.591-.7c-.326-.069-.716-.114-1.105-.158a6.53,6.53,0,0,1-.988-.154c-.1-.03-.407-.21-1.25-1.213a1.042,1.042,0,0,1-.166-1.146c.291-.6,2.735-1.615,3.228-1.722a1.747,1.747,0,0,1,1.32.372l.032.028a2.714,2.714,0,0,0,.8.578c.212.047.755.142,1.02.177a.3.3,0,0,0,.227-.06.28.28,0,0,0,.109-.193,7.308,7.308,0,0,1,.621-1.722c.077-.171.138-.305.168-.386a.379.379,0,0,0-.122-.468.575.575,0,0,0-.6.049,5.815,5.815,0,0,1-1.877.751h-.029a5.857,5.857,0,0,1-1.491-.34,6.956,6.956,0,0,0-1.612-.373c-.988-.04-1.828.006-5.182.984a5.114,5.114,0,0,1-3.3-.125l-.046-.015c-.175-.056-.316-.1-.417-.13a1.1,1.1,0,0,0-1.233.384,1.684,1.684,0,0,0-.072,1.235l.015.084a45.69,45.69,0,0,1,.64,7.411c0,2.344-.252,5.087-.5,7.461a1.653,1.653,0,0,0,.4,1.373,3.761,3.761,0,0,0,2.256.752c.082.009.185.018.3.029a7.118,7.118,0,0,1,1.435.225c.416.162.764.376.821,1.38a14.38,14.38,0,0,1-.089,1.5,17.539,17.539,0,0,0-.107,1.944,6.453,6.453,0,0,0,.819,2.679,4.729,4.729,0,0,1,.452,1.277c.032.133.061.247.089.34a.436.436,0,0,0,.5.312.415.415,0,0,0,.361-.429c-.014-.325.034-.529.146-.548.146,0,.309.434.455.823.033.088.067.179.1.271a.81.81,0,0,0,.433.471,4.143,4.143,0,0,0,.961.1,2.816,2.816,0,0,0,.685-.068.694.694,0,0,0,.4-.337.6.6,0,0,0,.069-.46,2.125,2.125,0,0,0-.4-.6c-.082-.1-.166-.2-.235-.3a6.791,6.791,0,0,1-1.065-1.816,4.732,4.732,0,0,1-.142-.8c-.013-.147-.02-.333-.027-.542a5.971,5.971,0,0,0-.168-1.473,1.64,1.64,0,0,1,.1-1.235,11.893,11.893,0,0,0,1.189-3.976c.127-.964.441-1.137.84-1.356a2.459,2.459,0,0,0,.6-.426c.579-.578.284-1.221-.029-1.9a3.767,3.767,0,0,1-.437-1.445.525.525,0,0,1,.006-.1c.01,0,.036,0,.076.032a11.641,11.641,0,0,0,1.812.966,6.238,6.238,0,0,0,2.9.264,3.991,3.991,0,0,0,2.88-1.909,1.3,1.3,0,0,1,.874-.7,3.927,3.927,0,0,0,2.285-.963.941.941,0,0,0,.241-.791.3.3,0,0,0-.319-.19l-.6.021c-.284.01-.641.027-.685.022a1.846,1.846,0,0,1-1.105-.227.147.147,0,0,1-.049-.1c.045-.071.417-.094.639-.108l.074,0c.417-.026.746-.053,1.1-.1a8.27,8.27,0,0,0,.927-.2,4.357,4.357,0,0,0,.954-.352.758.758,0,0,0,.333-.614h0a13.042,13.042,0,0,1,.037-1.524l.007-.045c.052-.348.111-.742-.139-.845" transform="translate(992.07 -106.667)" fill="#fff"/><path d="M-944.588,172.607c-.088-.156-.179-.318-.238-.446a7.548,7.548,0,0,1-.436-1.18,6.967,6.967,0,0,1-.16-1.08,1.01,1.01,0,0,0-.994-.927.985.985,0,0,0-1.055.757,3.122,3.122,0,0,0,.028,1.539,1.557,1.557,0,0,0,.649.663,1.381,1.381,0,0,1,.572.714,3.9,3.9,0,0,0,.589,1.163,1.093,1.093,0,0,0,.556.131,1.232,1.232,0,0,0,.37-.053.712.712,0,0,0,.361-.237.662.662,0,0,0,.02-.532,3.7,3.7,0,0,0-.261-.512" transform="translate(987.776 -144.594)" fill="#fff"/><path d="M-925.689,113.716c-.143-.022-.3-.042-.449-.06-.211-.027-.427-.053-.511-.077a1.487,1.487,0,0,1-.512-.343c-.086-.08-.268-.236-.37-.322a1.372,1.372,0,0,0-1.062-.244,7.97,7.97,0,0,0-1.332.518,8.017,8.017,0,0,0-1.564.895c-.288.262-.124.7.047.914a2.352,2.352,0,0,0,1.382.731,18.033,18.033,0,0,1,4.117.148,1.213,1.213,0,0,0,.178.013,1.16,1.16,0,0,0,.525-.125,7.177,7.177,0,0,0,.757-.435,7.421,7.421,0,0,1,.736-.472c.39-.2.478-.467.434-.631-.059-.219-.276-.249-.459-.25-.21,0-1.358-.176-1.79-.242Z" transform="translate(978.001 -109.98)" fill="#fff"/><path d="M-1033.569,108.578a16.461,16.461,0,0,0-8.012.616.537.537,0,0,0-.318.6,3.046,3.046,0,0,1,.049.851,2.723,2.723,0,0,1-.871,1.872,1.062,1.062,0,0,1-1.154.129.624.624,0,0,1-.032-.8,1.35,1.35,0,0,0,.164-.954.3.3,0,0,0-.192-.195.5.5,0,0,0-.42.076l-.145.1c-.187.133-.534.38-.642.437a.479.479,0,0,1-.458,0,.734.734,0,0,1-.29-.641,1.1,1.1,0,0,1,1.038-1.1,1.272,1.272,0,0,1,1.35.712,1.96,1.96,0,0,1-.144,1.6.4.4,0,0,0,.056.511.483.483,0,0,0,.6-.063,2.322,2.322,0,0,0,.824-1.856,2.68,2.68,0,0,0-2.9-2.548,2.843,2.843,0,0,0-2.969,2.255,3.165,3.165,0,0,0,.252,1.881,1.511,1.511,0,0,1-.072,1.332,9.058,9.058,0,0,0-2,5.625,7.029,7.029,0,0,0,3.1,5.744c.217.172.5.353.8.545a5.7,5.7,0,0,1,1.509,1.208,2.394,2.394,0,0,1,.028,2.194,5.113,5.113,0,0,0-.185,1.9,4.069,4.069,0,0,1-.036,1.325,7.47,7.47,0,0,1-.5,1.16l-.034.066a6.147,6.147,0,0,1-.629,1.03,1.688,1.688,0,0,0-.344,1.034c.043.593.36,1.064.713,1.066a.189.189,0,0,0,.134-.06c.051-.053.106-.161.092-.522a.928.928,0,0,1,.026-.3,3.629,3.629,0,0,1,.272.665,5.065,5.065,0,0,0,.233.611,1.486,1.486,0,0,0,.946.837,10.977,10.977,0,0,0,1.222.058,4.588,4.588,0,0,0,.524-.021.276.276,0,0,0,.224-.182.457.457,0,0,0-.089-.438c-.052-.06-.152-.152-.28-.268a4.381,4.381,0,0,1-.536-.544,1.786,1.786,0,0,1-.31-1.433,10.944,10.944,0,0,1,1.566-3.555,4.506,4.506,0,0,1,1.5-.977c.13-.062.242-.116.324-.161a4.568,4.568,0,0,0,1.653-1.76,2.041,2.041,0,0,1,1.26-1.17,5.519,5.519,0,0,1,1.526-.083h.035a5.257,5.257,0,0,0,1.585-.105c.518-.181.512-.745.436-1.272a62.153,62.153,0,0,1-.528-8.052,38.53,38.53,0,0,1,.762-7.691,1.109,1.109,0,0,0-.071-.888,1.077,1.077,0,0,0-.65-.4" transform="translate(1050.643 -107.075)" fill="#fff"/><path d="M-1019.718,170.7c-.3-.362-.567-.675-.786-.971a1.47,1.47,0,0,1-.2-1.758,4.371,4.371,0,0,1,1.045-1.029c.149-.111.507-.46.37-.735-.181-.363-1.322.028-1.539.12a4.988,4.988,0,0,0-1.8,1.162,2.3,2.3,0,0,0-.587,1.632,3.993,3.993,0,0,0,.929,1.7l.1.13a15.528,15.528,0,0,0,1.2,1.351,2.135,2.135,0,0,0,.99.546,4.079,4.079,0,0,0,.584.032c.182,0,.361-.006.49-.015a.432.432,0,0,0,.382-.249.571.571,0,0,0-.094-.576c-.389-.512-.761-.955-1.089-1.346" transform="translate(1034.275 -142.801)" fill="#fff"/><path d="M-975,163.638c0-.031-.029-.057-.077-.077a1.292,1.292,0,0,0-.847.033.073.073,0,0,0-.036.069,12.936,12.936,0,0,1,.177,3.559,1.161,1.161,0,0,1-1.237.886,1.16,1.16,0,0,1-1.236-.886,12.983,12.983,0,0,1,.177-3.559.073.073,0,0,0-.037-.069,1.3,1.3,0,0,0-.848-.033c-.047.021-.072.047-.076.077-.013.132-.029.273-.045.421a16.829,16.829,0,0,0-.163,3.241,1.986,1.986,0,0,0,2.226,1.722A1.986,1.986,0,0,0-974.8,167.3a16.784,16.784,0,0,0-.162-3.234c-.016-.15-.032-.295-.045-.428" transform="translate(1007.278 -141.233)" fill="#e24b32"/><path d="M-989.254,166.546a.166.166,0,0,1-.137.057h-1.333a.165.165,0,0,1-.138-.058.168.168,0,0,1-.02-.148,10.888,10.888,0,0,1,.59-1.6c.073-.138.14-.194.234-.194s.161.056.234.194a10.94,10.94,0,0,1,.59,1.6.166.166,0,0,1-.02.149m-.192-2.9c-.036-.069-.38-.1-.615-.1s-.579.036-.616.1a25.737,25.737,0,0,0-1.84,5.166.078.078,0,0,0,.025.076,1.191,1.191,0,0,0,.8.073c.069-.021.108-.049.116-.085a11.774,11.774,0,0,1,.326-1.2.3.3,0,0,1,.281-.2h1.817a.3.3,0,0,1,.281.2,11.81,11.81,0,0,1,.325,1.2c.008.036.047.064.115.085a1.115,1.115,0,0,0,.3.035.878.878,0,0,0,.5-.108.074.074,0,0,0,.024-.076,25.7,25.7,0,0,0-1.84-5.166" transform="translate(1015.409 -141.257)" fill="#e24b32"/><path d="M-1001.059,163.526a1.273,1.273,0,0,0-.83.032.075.075,0,0,0-.032.072,15.06,15.06,0,0,1,.158,1.84.267.267,0,0,1-.065.189.152.152,0,0,1-.111.045h-2.21a.154.154,0,0,1-.112-.045.269.269,0,0,1-.065-.189,14.981,14.981,0,0,1,.158-1.84.075.075,0,0,0-.032-.072,1.272,1.272,0,0,0-.829-.032c-.059.023-.091.051-.1.084a20.38,20.38,0,0,0-.064,5.2c0,.034.031.063.083.086a1.364,1.364,0,0,0,.848-.018.059.059,0,0,0,.029-.055c-.06-.465-.1-1.362-.1-1.959a.23.23,0,0,1,.068-.165.233.233,0,0,1,.165-.068h2.108a.234.234,0,0,1,.166.068.231.231,0,0,1,.067.165,19.594,19.594,0,0,1-.1,1.959.058.058,0,0,0,.029.055.934.934,0,0,0,.441.076,1.143,1.143,0,0,0,.406-.058c.052-.023.079-.052.082-.086a20.376,20.376,0,0,0-.064-5.2c-.006-.033-.038-.061-.1-.084" transform="translate(1023.277 -141.213)" fill="#e24b32"/><path d="M-964.213,164.97l-.291-.045c-.532-.081-.853-.131-.9-.327a.127.127,0,0,1,.032-.108,1.584,1.584,0,0,1,1.163-.31,4.081,4.081,0,0,1,1.636.325c.052.02.106-.029.15-.138.084-.206.13-.631-.047-.706a3.628,3.628,0,0,0-1.642-.327c-1.415,0-2.226.463-2.226,1.271,0,.71.487,1.014,2,1.25,1.217.189,1.816.606,1.778,1.24-.033.566-.636.9-1.612.9a2.6,2.6,0,0,1-1.609-.584.254.254,0,0,0-.357.008.669.669,0,0,0-.22.691,2.618,2.618,0,0,0,2.162.836,3.1,3.1,0,0,0,1.921-.546,1.629,1.629,0,0,0,.645-1.3c0-1.185-.8-1.843-2.583-2.132" transform="translate(999.354 -141.127)" fill="#e24b32"/><path d="M-1038.243,133.193c.462.629,1.136,1.345,1.875,2.319.188.247.127.575-.183.6a6.04,6.04,0,0,1-1.042-.016,1.992,1.992,0,0,1-.912-.506,15.5,15.5,0,0,1-1.191-1.336,4.382,4.382,0,0,1-1-1.759,2.153,2.153,0,0,1,.554-1.528,4.9,4.9,0,0,1,1.75-1.123c.475-.2,1.269-.362,1.356-.188s-.186.451-.328.557a4.493,4.493,0,0,0-1.079,1.065,1.621,1.621,0,0,0,.2,1.92m3.762-8.461c.085.593.039.984-.342,1.117a5.349,5.349,0,0,1-1.562.1,5.594,5.594,0,0,0-1.58.089,2.171,2.171,0,0,0-1.345,1.243,4.412,4.412,0,0,1-1.595,1.7c-.084.047-.2.1-.333.165a4.547,4.547,0,0,0-1.537,1.013,11.121,11.121,0,0,0-1.592,3.611,1.939,1.939,0,0,0,.33,1.542,10.748,10.748,0,0,0,.827.827c.112.13.107.364-.047.385a10.752,10.752,0,0,1-1.7-.037,1.348,1.348,0,0,1-.842-.761,4.86,4.86,0,0,1-.226-.591c-.144-.426-.278-.8-.42-.791s-.164.242-.155.476c.009.217-.007.432-.085.434-.237,0-.529-.384-.569-.934a1.553,1.553,0,0,1,.313-.934,6.645,6.645,0,0,0,.678-1.119,7.506,7.506,0,0,0,.506-1.187,4.148,4.148,0,0,0,.042-1.374,5,5,0,0,1,.174-1.838,2.491,2.491,0,0,0-.041-2.329,12.043,12.043,0,0,0-2.336-1.784,6.965,6.965,0,0,1-3.048-5.632,8.958,8.958,0,0,1,1.982-5.551,1.638,1.638,0,0,0,.08-1.462,3.036,3.036,0,0,1-.244-1.8,2.715,2.715,0,0,1,2.829-2.137,2.527,2.527,0,0,1,2.757,2.4,2.174,2.174,0,0,1-.773,1.746.344.344,0,0,1-.42.062.264.264,0,0,1-.02-.333,2.088,2.088,0,0,0,.144-1.732,1.421,1.421,0,0,0-1.486-.788,1.244,1.244,0,0,0-1.17,1.25.868.868,0,0,0,.361.76.624.624,0,0,0,.6,0c.154-.081.7-.478.8-.548.13-.089.344-.113.4.045a1.227,1.227,0,0,1-.148.832.763.763,0,0,0,.055.986,1.182,1.182,0,0,0,1.345-.128,2.852,2.852,0,0,0,.917-1.963,3.2,3.2,0,0,0-.05-.895.391.391,0,0,1,.227-.441,16.314,16.314,0,0,1,7.938-.61.937.937,0,0,1,.556.338.99.99,0,0,1,.048.78,38.57,38.57,0,0,0-.764,7.717,62.288,62.288,0,0,0,.529,8.074m.027-17.629a15.8,15.8,0,0,0-4.7-.262,18.745,18.745,0,0,0-3.883.809.53.53,0,0,1-.58-.116,3.5,3.5,0,0,0-2.672-1.07h-.053a3.66,3.66,0,0,0-2.832,1.21,3.479,3.479,0,0,0-.561,3.471,1.433,1.433,0,0,1-.051,1.206,9.547,9.547,0,0,0-2.11,5.883c0,3.685,1.9,6.1,4.773,8.11a1.145,1.145,0,0,1,.494,1.22,4.35,4.35,0,0,0-.05,1.936,6.661,6.661,0,0,1,.069,1.662,6.527,6.527,0,0,1-.846,1.634,2.445,2.445,0,0,0-.515,1.722,1.883,1.883,0,0,0,.822,1.435c.325.165.779.213.948.538a1.294,1.294,0,0,0,.983.774c.449.04,1.817.067,2.23.049a.885.885,0,0,0,.578-.237.779.779,0,0,0,.153-.621,1.163,1.163,0,0,0-.436-.751,6.928,6.928,0,0,1-.653-.67,1.326,1.326,0,0,1-.235-1.168,6.441,6.441,0,0,1,1.061-2.523,2.531,2.531,0,0,1,1.1-.821c.357-.1.459.051.378.194a2.65,2.65,0,0,0-.416,2.186,12.459,12.459,0,0,0,2.477,3.345,1.8,1.8,0,0,0,1.2.656c.377.025,1.626.015,1.9-.009a.54.54,0,0,0,.526-.4,1.262,1.262,0,0,0-.1-.9,19.765,19.765,0,0,0-1.556-2c-.6-.739-1.052-1.284-.691-1.864a3.536,3.536,0,0,1,.916-.817,4.944,4.944,0,0,0,1.238-1.193,3.328,3.328,0,0,0,.372-2.02c-.056-.5.085-.841.415-.938a1.537,1.537,0,0,0,.944-.6,1.612,1.612,0,0,0,.192-1.113,61.98,61.98,0,0,1-.584-8.343,40,40,0,0,1,.82-8.018,1.377,1.377,0,0,0-1.06-1.587" transform="translate(1051.9 -106.18)" fill="#e24b32"/><path d="M-938.875,110.479a7.627,7.627,0,0,0-.752.481,6.854,6.854,0,0,1-.74.425,1.024,1.024,0,0,1-.617.1,19.536,19.536,0,0,0-2.818-.211c-.477,0-.929.021-1.335.062a2.276,2.276,0,0,1-1.255-.678c-.143-.18-.27-.531-.063-.72a8.074,8.074,0,0,1,1.529-.871,7.444,7.444,0,0,1,1.3-.508,1.23,1.23,0,0,1,.94.214c.1.084.28.237.365.316a1.585,1.585,0,0,0,.571.375c.153.044.613.085.978.141s1.693.262,1.937.263.3.064.321.144c.033.124-.073.319-.361.468m-13.742,20.412a.844.844,0,0,1,.911-.641.872.872,0,0,1,.856.794,7.209,7.209,0,0,0,.164,1.105,7.719,7.719,0,0,0,.444,1.206c.139.3.431.752.494.942a.527.527,0,0,1-.005.41.577.577,0,0,1-.285.178,1.121,1.121,0,0,1-.805-.063,4.128,4.128,0,0,1-.531-1.092,1.52,1.52,0,0,0-.628-.784,1.427,1.427,0,0,1-.6-.6,2.976,2.976,0,0,1-.019-1.456m20.243-16.4a.615.615,0,0,1-.269.489,4.422,4.422,0,0,1-.915.333,8.049,8.049,0,0,1-.908.192c-.332.048-.647.075-1.086.1s-.847.04-.847.254a.284.284,0,0,0,.092.2,1.89,1.89,0,0,0,1.205.268c.055,0,1.014-.036,1.286-.044.079,0,.157.02.179.089a.812.812,0,0,1-.2.648,3.815,3.815,0,0,1-2.213.924,1.437,1.437,0,0,0-.97.768,3.861,3.861,0,0,1-2.787,1.841,6.074,6.074,0,0,1-2.819-.258,11.661,11.661,0,0,1-1.78-.949.226.226,0,0,0-.215-.044c-.073.032-.093.117-.09.231a3.891,3.891,0,0,0,.451,1.5c.3.661.567,1.233.058,1.742a2.332,2.332,0,0,1-.574.4c-.416.229-.775.426-.912,1.462a11.738,11.738,0,0,1-1.171,3.922,1.766,1.766,0,0,0-.114,1.353,5.9,5.9,0,0,1,.16,1.432c.007.205.014.4.027.55a4.862,4.862,0,0,0,.148.829,6.937,6.937,0,0,0,1.086,1.855c.07.1.157.2.241.3a2.125,2.125,0,0,1,.377.55.472.472,0,0,1-.057.35.55.55,0,0,1-.318.269,4.069,4.069,0,0,1-1.57-.033.685.685,0,0,1-.338-.385c-.037-.093-.071-.185-.1-.274-.19-.505-.342-.91-.587-.91a.2.2,0,0,0-.042,0c-.184.034-.265.26-.246.692a.273.273,0,0,1-.242.283.292.292,0,0,1-.34-.212c-.027-.091-.055-.2-.086-.333a4.829,4.829,0,0,0-.469-1.317,6.284,6.284,0,0,1-.8-2.611,17.72,17.72,0,0,1,.107-1.927,14.285,14.285,0,0,0,.089-1.523c-.061-1.078-.464-1.331-.912-1.5a9.546,9.546,0,0,0-1.772-.263,3.652,3.652,0,0,1-2.168-.709,1.541,1.541,0,0,1-.361-1.26c.25-2.413.5-5.158.5-7.475a45.534,45.534,0,0,0-.641-7.437,1.732,1.732,0,0,1,.033-1.213.95.95,0,0,1,1.078-.327c.109.03.263.08.457.143a5.245,5.245,0,0,0,3.383.127c3.33-.972,4.161-1.019,5.136-.979a6.916,6.916,0,0,1,1.575.367,5.93,5.93,0,0,0,1.533.347h.033a5.871,5.871,0,0,0,1.95-.773.431.431,0,0,1,.441-.05.238.238,0,0,1,.067.3c-.03.08-.091.213-.167.381a7.313,7.313,0,0,0-.631,1.761.151.151,0,0,1-.175.129c-.252-.034-.792-.127-1.007-.175a3.2,3.2,0,0,1-.764-.573,1.892,1.892,0,0,0-1.446-.4c-.435.094-2.991,1.107-3.326,1.8a1.18,1.18,0,0,0,.185,1.3,5.173,5.173,0,0,0,1.316,1.257,6.463,6.463,0,0,0,1.016.16c.377.044.769.088,1.091.157a5.109,5.109,0,0,1,1.535.676,4.709,4.709,0,0,0,3.364.152.684.684,0,0,0,.472-.318.334.334,0,0,0,0-.293,3.19,3.19,0,0,0-.246-.391c-.194-.282-.436-.633-.382-.813a.556.556,0,0,1,.346-.323.526.526,0,0,1,.423-.015c.562.331,1.34.736,1.711.923a5.025,5.025,0,0,0,1.483.5,4.431,4.431,0,0,0,1.25-.019,1.641,1.641,0,0,0,.548-.236c.13-.1.436-.317.629-.237.155.064.084.473.045.737a12.97,12.97,0,0,0-.038,1.552m.771-1.627c.114-.752.073-1.178-.129-1.34a.987.987,0,0,0-1.2.058,2.4,2.4,0,0,1-1.461.416h0a3.542,3.542,0,0,1-1.417-.35,17.987,17.987,0,0,1-1.6-.889c-.281-.173-.36-.273-.373-.375-.018-.129.145-.315.1-.607s-.247-.43-.6-.432a5.792,5.792,0,0,1-1.163-.1.256.256,0,0,1-.2-.291,11.647,11.647,0,0,1,.642-1.806,1.034,1.034,0,0,0-.163-1.274,1.353,1.353,0,0,0-1.276.027,6.816,6.816,0,0,1-1.8.665h-.027a8.313,8.313,0,0,1-.939-.237,11.531,11.531,0,0,0-2.045-.462c-1.1-.031-1.936.052-5.266,1a3.769,3.769,0,0,1-2.677-.017,6.6,6.6,0,0,0-1.355-.33,1.4,1.4,0,0,0-1.373.622,2.232,2.232,0,0,0-.175,1.52,45.136,45.136,0,0,1,.667,7.645,59.349,59.349,0,0,1-.54,7.478,2.113,2.113,0,0,0,.443,1.775,6.054,6.054,0,0,0,1.329.921,1.989,1.989,0,0,1,.784,1.2,13.138,13.138,0,0,1-.034,3.538,2.512,2.512,0,0,0,.236,1.634c.384.582,1.031.748,1.2,1.257a5.862,5.862,0,0,0,.529,1.325,1.532,1.532,0,0,0,1.435.428,2.022,2.022,0,0,0,.569-.219.16.16,0,0,1,.227.085.774.774,0,0,0,.67.616.733.733,0,0,0,.536-.162.316.316,0,0,1,.267-.108c.113.016.193.209.276.369a.969.969,0,0,0,.165.261,2.213,2.213,0,0,0,1.378.3,4.524,4.524,0,0,0,.956-.111,1.308,1.308,0,0,0,.791-.644,1.491,1.491,0,0,0-.009-1,5.151,5.151,0,0,0-.693-1.033l-.007-.009a10.682,10.682,0,0,1-.866-1.41,2.616,2.616,0,0,1-.2-.994,12.926,12.926,0,0,0-.2-1.971,1.453,1.453,0,0,1,.052-.907,11.934,11.934,0,0,0,1.054-3.979c.054-.565.684-.943,1.191-1.191a7.647,7.647,0,0,0,1.195-.734,3.792,3.792,0,0,0,.768-.862.849.849,0,0,1,.654-.415,8.61,8.61,0,0,0,2.018-.292,5.447,5.447,0,0,0,3.027-2.264c.091-.155.23-.39.459-.434a6.171,6.171,0,0,0,1.585-.492A2.8,2.8,0,0,0-933,117.222a1.729,1.729,0,0,0,.183-1.028.361.361,0,0,1,.239-.413,2.153,2.153,0,0,0,.842-.474,1.105,1.105,0,0,0,.135-.857,5.234,5.234,0,0,1,0-1.589" transform="translate(993.063 -105.727)" fill="#e24b32"/><path d="M-998.983,127a4.5,4.5,0,0,0,2.8-.057.167.167,0,0,0,.084-.153,65.075,65.075,0,0,1-.333-6.549.8.8,0,0,1,.236-.572.811.811,0,0,1,.577-.239h7.042a.811.811,0,0,1,.577.239.8.8,0,0,1,.236.572,65.147,65.147,0,0,1-.333,6.549.167.167,0,0,0,.084.153,3.075,3.075,0,0,0,1.448.251,3.787,3.787,0,0,0,1.35-.194c.161-.071.246-.159.256-.261a68.038,68.038,0,0,0-.215-17.362c-.016-.1-.118-.185-.3-.255a4.189,4.189,0,0,0-2.739.1.22.22,0,0,0-.1.21,50.013,50.013,0,0,1,.526,6.152.92.92,0,0,1-.225.653.54.54,0,0,1-.4.16h-7.382a.541.541,0,0,1-.4-.16.923.923,0,0,1-.226-.653,50.028,50.028,0,0,1,.527-6.152.22.22,0,0,0-.1-.21,4.19,4.19,0,0,0-2.739-.1c-.185.07-.286.156-.3.255a68.077,68.077,0,0,0-.215,17.362c.01.1.1.189.256.261" transform="translate(1019.808 -107.706)" fill="#e24b32"/></g><g transform="translate(-1665.519 109.277)"><path d="M-1445.862,115.8c-.009-.086-.081-.16-.215-.218a3.661,3.661,0,0,0-2.388.092.21.21,0,0,0-.1.2c.525,4.1.995,8.489.5,10.028a3.273,3.273,0,0,1-3.486,2.5,3.271,3.271,0,0,1-3.482-2.5c-.495-1.539-.025-5.933.5-10.028a.21.21,0,0,0-.1-.2,3.663,3.663,0,0,0-2.388-.092c-.133.059-.206.132-.215.218-.039.375-.082.778-.127,1.2-.325,3.039-.772,7.2-.458,9.119.52,3.174,2.688,4.852,6.272,4.852s5.756-1.678,6.276-4.852c.313-1.917-.132-6.077-.458-9.116-.045-.423-.088-.826-.127-1.2" transform="translate(1485.93 -115.238)" fill="#e24b32"/><path d="M-1490.29,123.571a30.935,30.935,0,0,1,1.661-4.5c.205-.387.4-.545.66-.545s.455.158.66.545a30.839,30.839,0,0,1,1.662,4.5.47.47,0,0,1-.056.419.462.462,0,0,1-.387.163h-3.756a.462.462,0,0,1-.387-.163.471.471,0,0,1-.056-.419m-.248,3.045h5.12a.854.854,0,0,1,.793.56,33.851,33.851,0,0,1,.918,3.39c.023.1.132.181.325.239a3.181,3.181,0,0,0,.856.1,2.477,2.477,0,0,0,1.4-.3.211.211,0,0,0,.07-.214,72.481,72.481,0,0,0-5.184-14.558c-.1-.192-1.073-.3-1.734-.3s-1.632.1-1.734.3a72.434,72.434,0,0,0-5.184,14.558.211.211,0,0,0,.07.214,3.355,3.355,0,0,0,2.253.2c.193-.058.3-.138.324-.239a33.909,33.909,0,0,1,.918-3.39.855.855,0,0,1,.793-.56" transform="translate(1508.65 -115.304)" fill="#e24b32"/><path d="M-1518.177,130.429a58.264,58.264,0,0,0-.181-14.64c-.076-.474-2.71-.482-2.622.045a41.975,41.975,0,0,1,.444,5.19c0,.341-.159.7-.538.7h-6.225c-.379,0-.539-.356-.537-.7a41.881,41.881,0,0,1,.444-5.19c.087-.527-2.547-.519-2.622-.045a58.247,58.247,0,0,0-.181,14.64c.048.521,2.676.459,2.622.045-.175-1.343-.277-3.924-.281-5.524a.7.7,0,0,1,.7-.7h5.939a.7.7,0,0,1,.7.7,55.3,55.3,0,0,1-.281,5.524c-.054.414,2.575.476,2.622-.045" transform="translate(1530.565 -115.244)" fill="#e24b32"/><path d="M-1415.713,130.764a8.72,8.72,0,0,0,5.413-1.539,4.589,4.589,0,0,0,1.818-3.669c0-3.339-2.245-5.191-7.277-6.007-.289-.047-.562-.088-.817-.128-1.5-.229-2.406-.368-2.55-.921a.358.358,0,0,1,.091-.3c.311-.4,1.356-.874,3.276-.874a11.492,11.492,0,0,1,4.611.916c.148.058.3-.08.423-.389.237-.581.365-1.777-.133-1.991a10.234,10.234,0,0,0-4.626-.922c-3.987,0-6.273,1.305-6.273,3.58,0,2,1.372,2.858,5.647,3.522,3.431.534,5.116,1.71,5.01,3.5-.1,1.6-1.794,2.548-4.545,2.548a7.33,7.33,0,0,1-4.532-1.644.715.715,0,0,0-1.007.023,1.878,1.878,0,0,0-.619,1.946c.538.912,2.668,2.357,6.092,2.357" transform="translate(1463.788 -114.937)" fill="#e24b32"/><path d="M-1403.639,165.152a2.172,2.172,0,0,1-2.323-1.881c0-.932,1.245-1.428,2.323-1.428s2.308.523,2.308,1.428a2.1,2.1,0,0,1-2.308,1.881m0-4.078c-1.459,0-3.132.689-3.132,2.24a2.974,2.974,0,0,0,3.132,2.651,2.96,2.96,0,0,0,3.117-2.678c0-1.6-1.658-2.213-3.117-2.213" transform="translate(1454.491 -143.289)" fill="#e24b32"/><path d="M-1418.061,161.836a4.356,4.356,0,0,1,1.882.425c.207.1.558-.615.322-.719a4.793,4.793,0,0,0-2.2-.468c-1.1,0-2.934.641-2.934,2.222,0,2.282,3.2,2.971,5.037,2.555.2-.046.179-.877-.109-.824-2.193.409-4.108-.525-4.108-1.733,0-.907,1.085-1.458,2.11-1.458" transform="translate(1463.229 -143.289)" fill="#e24b32"/><path d="M-1438.928,165.431l-3.825-.007c-.06,0-.088-.03-.088-.091v-1.384c0-.041.052-.073.092-.073l3,0c.258,0,.261-.759.007-.759l-3,0a.1.1,0,0,1-.106-.09v-.667c0-.064.077-.1.138-.1h3.534c.355,0,.374-.747.112-.747h-4.24a.334.334,0,0,0-.343.35v4.025a.3.3,0,0,0,.318.313l4.428.007c.236,0,.243-.775-.034-.775" transform="translate(1477.147 -143.558)" fill="#e24b32"/><path d="M-1390.894,171.505a.441.441,0,0,0-.479.41.471.471,0,0,0,.479.448.471.471,0,0,0,.479-.448.442.442,0,0,0-.479-.41" transform="translate(1445.029 -149.699)" fill="#e24b32"/><path d="M-1527.807,162.638l-.256-.014c-.667-.035-1.243-.066-1.243-.36s.858-.436,1.707-.436a6.623,6.623,0,0,1,1.986.337c.085.025.175-.062.234-.231.07-.2.074-.439-.057-.49a6.032,6.032,0,0,0-2.225-.342c-.923,0-2.485.244-2.485,1.159,0,.848.806,1.036,2.294,1.086,1.325.045,1.942.312,1.942.84,0,.623-.671,1-1.8,1a4.76,4.76,0,0,1-2.029-.527c-.13-.069-.284.008-.392.195s-.132.426.008.513a4.809,4.809,0,0,0,2.442.611c1.643,0,2.585-.667,2.585-1.829,0-1.243-1.341-1.427-2.715-1.508" transform="translate(1530.35 -143.307)" fill="#e24b32"/><path d="M-1496.923,161.348c0-.032-.029-.06-.077-.082a1.155,1.155,0,0,0-.743,0,.073.073,0,0,0-.035.069,10.06,10.06,0,0,1,.087,3.05,1.58,1.58,0,0,1-1.567.834,1.6,1.6,0,0,1-1.588-.823,9.15,9.15,0,0,1,.079-3.066.072.072,0,0,0-.034-.068,1.136,1.136,0,0,0-.737,0c-.051.022-.079.05-.082.082a13.259,13.259,0,0,0-.123,3.11,2.281,2.281,0,0,0,2.486,1.57c1.326,0,2.269-.6,2.462-1.571a12.269,12.269,0,0,0-.084-2.627c-.016-.167-.031-.327-.044-.473" transform="translate(1512.888 -143.365)" fill="#e24b32"/><path d="M-1470.036,163.886h-1.407c-.148,0-.22-.082-.18-.177a10.335,10.335,0,0,1,.633-1.222.312.312,0,0,1,.251-.169.312.312,0,0,1,.251.169,10.333,10.333,0,0,1,.633,1.222c.04.095-.032.177-.18.177m-.21-2.522c-.033-.048-.215-.084-.49-.084h-.007c-.275,0-.457.036-.49.084a31.656,31.656,0,0,0-2.341,4.542c-.069.16.843.212.9.072.114-.283.363-.856.488-1.079a.42.42,0,0,1,.34-.205h2.213a.42.42,0,0,1,.34.205c.126.224.374.8.488,1.079.057.14.968.087.9-.072a31.607,31.607,0,0,0-2.341-4.542" transform="translate(1495.545 -143.416)" fill="#e24b32"/><path d="M-1456.461,161.876a4.616,4.616,0,0,1,1.968.43c.169.077.512-.626.314-.714a4.855,4.855,0,0,0-2.235-.477c-1.073,0-2.913.648-2.913,2.227,0,2.055,2.691,2.9,4.857,2.607a.388.388,0,0,0,.345-.389v-2.493a.183.183,0,0,0-.2-.195h-1.439c-.3,0-.075.759.074.759,0,0,.491.01.624.01a.14.14,0,0,1,.142.155v1.061c0,.152-.076.251-.19.264-1.752.2-3.4-.688-3.4-1.778,0-.965,1.223-1.467,2.048-1.467" transform="translate(1486.788 -143.314)" fill="#e24b32"/><path d="M-1513.163,163.886h-1.407c-.148,0-.22-.082-.18-.177a10.323,10.323,0,0,1,.633-1.222.311.311,0,0,1,.251-.169.312.312,0,0,1,.251.169,10.372,10.372,0,0,1,.633,1.222c.04.095-.032.177-.18.177m-.21-2.522c-.032-.048-.215-.084-.49-.084h-.007c-.275,0-.457.036-.49.084a31.619,31.619,0,0,0-2.341,4.542c-.069.16.843.212.9.072.115-.283.363-.856.489-1.079a.42.42,0,0,1,.34-.205h2.212a.42.42,0,0,1,.34.205c.126.224.374.8.488,1.079.057.14.968.087.9-.072a31.569,31.569,0,0,0-2.341-4.542" transform="translate(1522.048 -143.416)" fill="#e24b32"/><path d="M-1484.839,162.638l-.256-.014c-.667-.035-1.243-.066-1.243-.36s.858-.436,1.707-.436a6.623,6.623,0,0,1,1.986.337c.085.025.175-.062.234-.231.069-.2.073-.439-.057-.49a6.032,6.032,0,0,0-2.225-.342c-.923,0-2.485.244-2.485,1.159,0,.848.807,1.036,2.294,1.086,1.325.045,1.942.312,1.942.84,0,.623-.671,1-1.8,1a4.757,4.757,0,0,1-2.029-.527c-.13-.069-.285.008-.392.195s-.131.426.008.513a4.808,4.808,0,0,0,2.441.611c1.643,0,2.585-.667,2.585-1.829,0-1.243-1.341-1.427-2.715-1.508" transform="translate(1503.945 -143.307)" fill="#e24b32"/></g><path d="M-1242.749,137.334a5.635,5.635,0,0,0,3.505-.071.209.209,0,0,0,.1-.193,81.519,81.519,0,0,1-.416-8.2,1,1,0,0,1,.3-.717,1.016,1.016,0,0,1,.723-.3h8.821a1.016,1.016,0,0,1,.723.3,1.006,1.006,0,0,1,.3.717,81.535,81.535,0,0,1-.417,8.2.21.21,0,0,0,.1.193,3.853,3.853,0,0,0,1.814.314,4.744,4.744,0,0,0,1.692-.243c.2-.089.308-.2.321-.327.81-8.972.729-15.477-.269-21.751-.02-.123-.147-.231-.379-.32a5.252,5.252,0,0,0-3.431.129.277.277,0,0,0-.12.264,62.765,62.765,0,0,1,.66,7.706,1.156,1.156,0,0,1-.283.818.676.676,0,0,1-.5.2h-9.247a.678.678,0,0,1-.5-.2,1.153,1.153,0,0,1-.282-.818,62.645,62.645,0,0,1,.659-7.706.276.276,0,0,0-.12-.264,5.251,5.251,0,0,0-3.431-.129c-.231.088-.359.2-.379.32-1,6.274-1.079,12.779-.269,21.751.012.127.119.237.32.327" transform="translate(-311.287 -5.524)" fill="#e03127"/><g transform="translate(-1364.573 107.174)"><path d="M-733.026,140a13.7,13.7,0,0,1-13.685-13.685,13.7,13.7,0,0,1,13.685-13.686,13.7,13.7,0,0,1,13.685,13.686A13.7,13.7,0,0,1-733.026,140" transform="translate(747.925 -111.415)" fill="#f5e8d4"/><path d="M-734.961,109.48a14.9,14.9,0,0,0-14.9,14.9,14.9,14.9,0,0,0,14.9,14.9,14.9,14.9,0,0,0,14.9-14.9,14.9,14.9,0,0,0-14.9-14.9m0,2.428A12.485,12.485,0,0,1-722.49,124.38a12.485,12.485,0,0,1-12.471,12.471,12.486,12.486,0,0,1-12.471-12.471,12.486,12.486,0,0,1,12.471-12.471" transform="translate(749.86 -109.48)" fill="#e24b32"/><g transform="translate(2.428 2.428)"><g clip-path="url(#a)"><path d="M-724.667,136.833c-.274-.113-.63.148-.782.258a1.5,1.5,0,0,1-.5.215,4.363,4.363,0,0,1-1.23.018,5,5,0,0,1-1.46-.5c-.374-.189-1.161-.6-1.733-.935a.669.669,0,0,0-.559,0,.71.71,0,0,0-.438.422c-.069.233.126.542.411.955a3.084,3.084,0,0,1,.235.374.2.2,0,0,1,0,.174.57.57,0,0,1-.384.246,4.753,4.753,0,0,1-3.3-.129,5.285,5.285,0,0,0-1.62-.714c-.332-.071-.729-.116-1.125-.162a6.7,6.7,0,0,1-1.006-.157c-.1-.031-.414-.214-1.272-1.235a1.058,1.058,0,0,1-.17-1.166c.3-.612,2.784-1.644,3.286-1.752a1.778,1.778,0,0,1,1.345.379l.032.028a2.759,2.759,0,0,0,.811.588c.215.048.769.145,1.038.18a.313.313,0,0,0,.231-.061.29.29,0,0,0,.111-.2,7.415,7.415,0,0,1,.632-1.753c.079-.174.141-.311.172-.394a.385.385,0,0,0-.124-.476.585.585,0,0,0-.606.05,5.916,5.916,0,0,1-1.911.764h-.029a5.971,5.971,0,0,1-1.518-.347,7.1,7.1,0,0,0-1.641-.379c-1.006-.04-1.861.006-5.275,1a5.2,5.2,0,0,1-3.359-.127l-.046-.015c-.179-.058-.321-.1-.425-.133a1.115,1.115,0,0,0-1.255.391,1.712,1.712,0,0,0-.073,1.257l.015.085a46.528,46.528,0,0,1,.651,7.545c0,2.387-.256,5.179-.507,7.6a1.685,1.685,0,0,0,.407,1.4,3.827,3.827,0,0,0,2.3.766l.307.03a7.232,7.232,0,0,1,1.461.229c.423.164.779.383.836,1.4a14.723,14.723,0,0,1-.091,1.532,18.062,18.062,0,0,0-.109,1.979,6.571,6.571,0,0,0,.834,2.727,4.786,4.786,0,0,1,.46,1.3c.033.135.062.252.091.347a.444.444,0,0,0,.509.317.423.423,0,0,0,.369-.436c-.015-.331.034-.539.148-.558.149,0,.315.442.464.838.034.09.069.182.1.276a.825.825,0,0,0,.441.48,4.214,4.214,0,0,0,.978.1,2.888,2.888,0,0,0,.7-.069.71.71,0,0,0,.412-.343.616.616,0,0,0,.07-.469,2.2,2.2,0,0,0-.411-.61c-.084-.1-.17-.205-.239-.3a6.941,6.941,0,0,1-1.085-1.848,4.81,4.81,0,0,1-.145-.812c-.014-.149-.02-.34-.027-.552a6.057,6.057,0,0,0-.171-1.5,1.668,1.668,0,0,1,.1-1.257,12.111,12.111,0,0,0,1.211-4.048c.129-.982.449-1.158.855-1.381a2.468,2.468,0,0,0,.616-.434c.589-.589.289-1.243-.029-1.936a3.839,3.839,0,0,1-.446-1.471.446.446,0,0,1,.007-.1c.009,0,.035,0,.077.032a11.869,11.869,0,0,0,1.845.984,6.348,6.348,0,0,0,2.949.268,4.066,4.066,0,0,0,2.933-1.944,1.326,1.326,0,0,1,.889-.712,4,4,0,0,0,2.327-.98.957.957,0,0,0,.245-.805.31.31,0,0,0-.325-.193l-.61.022c-.289.01-.652.027-.7.023a1.88,1.88,0,0,1-1.126-.231.15.15,0,0,1-.05-.1c.046-.072.425-.1.651-.109l.075,0c.424-.027.76-.054,1.117-.107a8.352,8.352,0,0,0,.944-.2,4.427,4.427,0,0,0,.972-.357.771.771,0,0,0,.339-.625h0a13.3,13.3,0,0,1,.037-1.552l.007-.045c.053-.354.113-.756-.141-.86" transform="translate(746.469 -125.12)" fill="#fff"/><path d="M-718.92,137.554c-.146-.022-.307-.042-.458-.061-.214-.027-.435-.054-.52-.078a1.5,1.5,0,0,1-.521-.349c-.087-.082-.273-.24-.377-.327a1.394,1.394,0,0,0-1.08-.249,8.11,8.11,0,0,0-1.356.528,8.155,8.155,0,0,0-1.592.911c-.293.266-.126.712.048.93a2.39,2.39,0,0,0,1.406.745,18.366,18.366,0,0,1,4.192.151,1.249,1.249,0,0,0,.181.014,1.181,1.181,0,0,0,.534-.127,7.217,7.217,0,0,0,.771-.443,7.568,7.568,0,0,1,.749-.481c.4-.206.486-.475.441-.643-.06-.223-.281-.253-.467-.254-.214,0-1.382-.179-1.822-.246Z" transform="translate(732.146 -128.492)" fill="#fff"/><path d="M-732.345,134.259a7.725,7.725,0,0,0-.765.491,7,7,0,0,1-.754.432,1.04,1.04,0,0,1-.628.1,19.91,19.91,0,0,0-2.868-.215,13.513,13.513,0,0,0-1.36.063,2.321,2.321,0,0,1-1.278-.69c-.145-.183-.275-.541-.064-.733a8.235,8.235,0,0,1,1.557-.887,7.606,7.606,0,0,1,1.323-.517,1.252,1.252,0,0,1,.957.217c.1.086.285.242.371.322a1.621,1.621,0,0,0,.581.382c.156.045.625.087,1,.143s1.723.266,1.972.268.3.064.327.146c.034.126-.075.325-.368.476m-13.991,20.781a.86.86,0,0,1,.928-.652.887.887,0,0,1,.871.808,7.333,7.333,0,0,0,.167,1.126,7.844,7.844,0,0,0,.452,1.227c.141.3.439.766.5.959a.54.54,0,0,1,0,.417.586.586,0,0,1-.29.182,1.14,1.14,0,0,1-.82-.064,4.217,4.217,0,0,1-.541-1.112,1.549,1.549,0,0,0-.64-.8,1.449,1.449,0,0,1-.606-.611,3.045,3.045,0,0,1-.019-1.483m20.608-16.7a.626.626,0,0,1-.274.5,4.52,4.52,0,0,1-.932.339,8.216,8.216,0,0,1-.924.2c-.338.049-.659.077-1.105.105s-.862.041-.862.259a.289.289,0,0,0,.093.207,1.923,1.923,0,0,0,1.227.273c.056,0,1.033-.037,1.31-.044.081,0,.16.02.182.091a.824.824,0,0,1-.209.659,3.878,3.878,0,0,1-2.252.941,1.462,1.462,0,0,0-.988.783,3.932,3.932,0,0,1-2.837,1.874,6.2,6.2,0,0,1-2.87-.263,11.844,11.844,0,0,1-1.812-.967.231.231,0,0,0-.22-.045c-.073.033-.094.119-.091.235a3.96,3.96,0,0,0,.459,1.528c.309.673.577,1.255.059,1.772a2.37,2.37,0,0,1-.584.41c-.424.233-.789.434-.928,1.488a11.96,11.96,0,0,1-1.192,3.993,1.8,1.8,0,0,0-.116,1.378,5.981,5.981,0,0,1,.163,1.458c.008.209.014.406.028.56a5,5,0,0,0,.15.843,7.065,7.065,0,0,0,1.106,1.889c.071.1.159.206.244.31a2.168,2.168,0,0,1,.384.56.479.479,0,0,1-.059.356.557.557,0,0,1-.323.273,4.141,4.141,0,0,1-1.6-.033.7.7,0,0,1-.344-.392c-.037-.094-.072-.189-.106-.279-.193-.514-.348-.926-.6-.926a.217.217,0,0,0-.044,0c-.187.034-.269.265-.25.705a.278.278,0,0,1-.247.287.3.3,0,0,1-.346-.215c-.028-.093-.056-.207-.088-.34a4.909,4.909,0,0,0-.478-1.341,6.4,6.4,0,0,1-.813-2.658,18.009,18.009,0,0,1,.109-1.962,14.806,14.806,0,0,0,.091-1.55c-.062-1.1-.473-1.355-.929-1.531a9.6,9.6,0,0,0-1.8-.268,3.719,3.719,0,0,1-2.207-.722,1.567,1.567,0,0,1-.367-1.283c.254-2.457.507-5.251.507-7.611a46.321,46.321,0,0,0-.653-7.571,1.766,1.766,0,0,1,.034-1.235.967.967,0,0,1,1.1-.333c.111.03.268.081.466.145a5.338,5.338,0,0,0,3.445.129c3.39-.989,4.236-1.037,5.229-1a7.005,7.005,0,0,1,1.6.373,6.051,6.051,0,0,0,1.562.353h.033a5.97,5.97,0,0,0,1.985-.787.442.442,0,0,1,.449-.052.243.243,0,0,1,.068.3c-.03.081-.092.217-.17.388a7.478,7.478,0,0,0-.642,1.792.153.153,0,0,1-.178.131c-.256-.034-.806-.129-1.026-.178a3.259,3.259,0,0,1-.778-.584,1.926,1.926,0,0,0-1.472-.411c-.443.1-3.045,1.127-3.386,1.831a1.2,1.2,0,0,0,.189,1.323,5.265,5.265,0,0,0,1.339,1.28,6.632,6.632,0,0,0,1.034.163c.385.044.783.089,1.111.159a5.189,5.189,0,0,1,1.562.688,4.792,4.792,0,0,0,3.425.154.7.7,0,0,0,.48-.323.338.338,0,0,0,0-.3,3.162,3.162,0,0,0-.25-.4c-.2-.287-.444-.645-.389-.828a.566.566,0,0,1,.352-.328.535.535,0,0,1,.431-.015c.573.337,1.364.749,1.742.94a5.131,5.131,0,0,0,1.51.513,4.531,4.531,0,0,0,1.273-.019,1.675,1.675,0,0,0,.558-.24c.132-.1.444-.323.641-.242.158.065.086.481.045.751a13.333,13.333,0,0,0-.039,1.58m.785-1.656c.116-.766.074-1.2-.131-1.364a1,1,0,0,0-1.224.059,2.449,2.449,0,0,1-1.487.423h0a3.612,3.612,0,0,1-1.443-.356,18.185,18.185,0,0,1-1.634-.905c-.286-.175-.366-.278-.38-.381-.018-.132.148-.321.1-.618s-.251-.438-.606-.44a5.961,5.961,0,0,1-1.184-.1.26.26,0,0,1-.2-.3,11.828,11.828,0,0,1,.654-1.839,1.053,1.053,0,0,0-.166-1.3,1.377,1.377,0,0,0-1.3.027,6.946,6.946,0,0,1-1.834.678h-.027a8.482,8.482,0,0,1-.956-.242,11.823,11.823,0,0,0-2.082-.471c-1.123-.032-1.971.053-5.362,1.022a3.838,3.838,0,0,1-2.725-.017,6.722,6.722,0,0,0-1.379-.337,1.426,1.426,0,0,0-1.4.633,2.275,2.275,0,0,0-.179,1.548,45.924,45.924,0,0,1,.679,7.784,60.477,60.477,0,0,1-.549,7.612,2.152,2.152,0,0,0,.451,1.808,6.18,6.18,0,0,0,1.353.937,2.025,2.025,0,0,1,.8,1.222,13.382,13.382,0,0,1-.035,3.6,2.563,2.563,0,0,0,.239,1.664c.392.592,1.05.762,1.226,1.279a6,6,0,0,0,.539,1.349,1.559,1.559,0,0,0,1.461.436,2.061,2.061,0,0,0,.579-.222.163.163,0,0,1,.231.086.789.789,0,0,0,.682.628.746.746,0,0,0,.545-.166.322.322,0,0,1,.271-.11c.115.016.2.212.281.375a1,1,0,0,0,.168.266,2.254,2.254,0,0,0,1.4.306,4.593,4.593,0,0,0,.974-.113,1.33,1.33,0,0,0,.806-.656,1.518,1.518,0,0,0-.009-1.017,5.273,5.273,0,0,0-.706-1.052l-.007-.01a10.944,10.944,0,0,1-.881-1.435,2.669,2.669,0,0,1-.2-1.012,13.1,13.1,0,0,0-.208-2.006,1.478,1.478,0,0,1,.054-.923,12.151,12.151,0,0,0,1.073-4.05c.055-.576.7-.96,1.213-1.213a7.744,7.744,0,0,0,1.216-.747,3.858,3.858,0,0,0,.783-.878.864.864,0,0,1,.666-.423,8.774,8.774,0,0,0,2.054-.3,5.551,5.551,0,0,0,3.081-2.3c.093-.158.234-.4.466-.441a6.249,6.249,0,0,0,1.614-.5,2.843,2.843,0,0,0,1.216-1.063,1.76,1.76,0,0,0,.187-1.046.367.367,0,0,1,.244-.421,2.193,2.193,0,0,0,.857-.482,1.125,1.125,0,0,0,.136-.872,5.339,5.339,0,0,1,0-1.618" transform="translate(747.48 -124.162)" fill="#e24b32"/><path d="M-732.345,134.259a7.725,7.725,0,0,0-.765.491,7,7,0,0,1-.754.432,1.04,1.04,0,0,1-.628.1,19.91,19.91,0,0,0-2.868-.215,13.513,13.513,0,0,0-1.36.063,2.321,2.321,0,0,1-1.278-.69c-.145-.183-.275-.541-.064-.733a8.235,8.235,0,0,1,1.557-.887,7.606,7.606,0,0,1,1.323-.517,1.252,1.252,0,0,1,.957.217c.1.086.285.242.371.322a1.621,1.621,0,0,0,.581.382c.156.045.625.087,1,.143s1.723.266,1.972.268.3.064.327.146C-731.944,133.909-732.052,134.107-732.345,134.259Zm-13.991,20.781a.86.86,0,0,1,.928-.652.887.887,0,0,1,.871.808,7.333,7.333,0,0,0,.167,1.126,7.844,7.844,0,0,0,.452,1.227c.141.3.439.766.5.959a.54.54,0,0,1,0,.417.586.586,0,0,1-.29.182,1.14,1.14,0,0,1-.82-.064,4.217,4.217,0,0,1-.541-1.112,1.549,1.549,0,0,0-.64-.8,1.449,1.449,0,0,1-.606-.611A3.045,3.045,0,0,1-746.336,155.04Zm20.608-16.7a.626.626,0,0,1-.274.5,4.52,4.52,0,0,1-.932.339,8.216,8.216,0,0,1-.924.2c-.338.049-.659.077-1.105.105s-.862.041-.862.259a.289.289,0,0,0,.093.207,1.923,1.923,0,0,0,1.227.273c.056,0,1.033-.037,1.31-.044.081,0,.16.02.182.091a.824.824,0,0,1-.209.659,3.878,3.878,0,0,1-2.252.941,1.462,1.462,0,0,0-.988.783,3.932,3.932,0,0,1-2.837,1.874,6.2,6.2,0,0,1-2.87-.263,11.844,11.844,0,0,1-1.812-.967.231.231,0,0,0-.22-.045c-.073.033-.094.119-.091.235a3.96,3.96,0,0,0,.459,1.528c.309.673.577,1.255.059,1.772a2.37,2.37,0,0,1-.584.41c-.424.233-.789.434-.928,1.488a11.96,11.96,0,0,1-1.192,3.993,1.8,1.8,0,0,0-.116,1.378,5.981,5.981,0,0,1,.163,1.458c.008.209.014.406.028.56a5,5,0,0,0,.15.843,7.065,7.065,0,0,0,1.106,1.889c.071.1.159.206.244.31a2.168,2.168,0,0,1,.384.56.479.479,0,0,1-.059.356.557.557,0,0,1-.323.273,4.141,4.141,0,0,1-1.6-.033.7.7,0,0,1-.344-.392c-.037-.094-.072-.189-.106-.279-.193-.514-.348-.926-.6-.926a.217.217,0,0,0-.044,0c-.187.034-.269.265-.25.705a.278.278,0,0,1-.247.287.3.3,0,0,1-.346-.215c-.028-.093-.056-.207-.088-.34a4.909,4.909,0,0,0-.478-1.341,6.4,6.4,0,0,1-.813-2.658,18.009,18.009,0,0,1,.109-1.962,14.806,14.806,0,0,0,.091-1.55c-.062-1.1-.473-1.355-.929-1.531a9.6,9.6,0,0,0-1.8-.268,3.719,3.719,0,0,1-2.207-.722,1.567,1.567,0,0,1-.367-1.283c.254-2.457.507-5.251.507-7.611a46.321,46.321,0,0,0-.653-7.571,1.766,1.766,0,0,1,.034-1.235.967.967,0,0,1,1.1-.333c.111.03.268.081.466.145a5.338,5.338,0,0,0,3.445.129c3.39-.989,4.236-1.037,5.229-1a7.005,7.005,0,0,1,1.6.373,6.051,6.051,0,0,0,1.562.353h.033a5.97,5.97,0,0,0,1.985-.787.442.442,0,0,1,.449-.052.243.243,0,0,1,.068.3c-.03.081-.092.217-.17.388a7.478,7.478,0,0,0-.642,1.792.153.153,0,0,1-.178.131c-.256-.034-.806-.129-1.026-.178a3.259,3.259,0,0,1-.778-.584,1.926,1.926,0,0,0-1.472-.411c-.443.1-3.045,1.127-3.386,1.831a1.2,1.2,0,0,0,.189,1.323,5.265,5.265,0,0,0,1.339,1.28,6.632,6.632,0,0,0,1.034.163c.385.044.783.089,1.111.159a5.189,5.189,0,0,1,1.562.688,4.792,4.792,0,0,0,3.425.154.7.7,0,0,0,.48-.323.338.338,0,0,0,0-.3,3.162,3.162,0,0,0-.25-.4c-.2-.287-.444-.645-.389-.828a.566.566,0,0,1,.352-.328.535.535,0,0,1,.431-.015c.573.337,1.364.749,1.742.94a5.131,5.131,0,0,0,1.51.513,4.531,4.531,0,0,0,1.273-.019,1.675,1.675,0,0,0,.558-.24c.132-.1.444-.323.641-.242.158.065.086.481.045.751A13.333,13.333,0,0,0-725.727,138.34Zm.785-1.656c.116-.766.074-1.2-.131-1.364a1,1,0,0,0-1.224.059,2.449,2.449,0,0,1-1.487.423h0a3.612,3.612,0,0,1-1.443-.356,18.185,18.185,0,0,1-1.634-.905c-.286-.175-.366-.278-.38-.381-.018-.132.148-.321.1-.618s-.251-.438-.606-.44a5.961,5.961,0,0,1-1.184-.1.26.26,0,0,1-.2-.3,11.828,11.828,0,0,1,.654-1.839,1.053,1.053,0,0,0-.166-1.3,1.377,1.377,0,0,0-1.3.027,6.946,6.946,0,0,1-1.834.678h-.027a8.482,8.482,0,0,1-.956-.242,11.823,11.823,0,0,0-2.082-.471c-1.123-.032-1.971.053-5.362,1.022a3.838,3.838,0,0,1-2.725-.017,6.722,6.722,0,0,0-1.379-.337,1.426,1.426,0,0,0-1.4.633,2.275,2.275,0,0,0-.179,1.548,45.924,45.924,0,0,1,.679,7.784,60.477,60.477,0,0,1-.549,7.612,2.152,2.152,0,0,0,.451,1.808,6.18,6.18,0,0,0,1.353.937,2.025,2.025,0,0,1,.8,1.222,13.382,13.382,0,0,1-.035,3.6,2.563,2.563,0,0,0,.239,1.664c.392.592,1.05.762,1.226,1.279a6,6,0,0,0,.539,1.349,1.559,1.559,0,0,0,1.461.436,2.061,2.061,0,0,0,.579-.222.163.163,0,0,1,.231.086.789.789,0,0,0,.682.628.746.746,0,0,0,.545-.166.322.322,0,0,1,.271-.11c.115.016.2.212.281.375a1,1,0,0,0,.168.266,2.254,2.254,0,0,0,1.4.306,4.593,4.593,0,0,0,.974-.113,1.33,1.33,0,0,0,.806-.656,1.518,1.518,0,0,0-.009-1.017,5.273,5.273,0,0,0-.706-1.052l-.007-.01a10.944,10.944,0,0,1-.881-1.435,2.669,2.669,0,0,1-.2-1.012,13.1,13.1,0,0,0-.208-2.006,1.478,1.478,0,0,1,.054-.923,12.151,12.151,0,0,0,1.073-4.05c.055-.576.7-.96,1.213-1.213a7.744,7.744,0,0,0,1.216-.747,3.858,3.858,0,0,0,.783-.878.864.864,0,0,1,.666-.423,8.774,8.774,0,0,0,2.054-.3,5.551,5.551,0,0,0,3.081-2.3c.093-.158.234-.4.466-.441a6.249,6.249,0,0,0,1.614-.5,2.843,2.843,0,0,0,1.216-1.063,1.76,1.76,0,0,0,.187-1.046.367.367,0,0,1,.244-.421,2.193,2.193,0,0,0,.857-.482,1.125,1.125,0,0,0,.136-.872A5.339,5.339,0,0,1-724.943,136.684Z" transform="translate(747.48 -124.162)" fill="none" stroke="#e24b32" stroke-linejoin="round" stroke-width="0.607"/></g></g></g></g></svg>