<svg xmlns="http://www.w3.org/2000/svg" width="174" height="95.884" viewBox="0 0 174 95.884"><g transform="translate(-303.469 -153.44)"><path d="M437.624,250.361a43.982,43.982,0,0,1-2.194-4.427,20.793,20.793,0,0,1-.723-5.306,18.3,18.3,0,0,0-1.165-6.166l-.09-.119a8.044,8.044,0,0,0-.794-.572,5.437,5.437,0,0,0-1.713-.683l-.058-.009-.058.009c-.718.136-1.264.808-1.58,1.95l-.015.051,0,.053c.1,1.418.073,2.894.048,4.194-.009.466-.016.915-.019,1.34a16.268,16.268,0,0,1-.158,1.93,7.371,7.371,0,0,0,.279,4.08,10.107,10.107,0,0,0,1.9,2.6,16.664,16.664,0,0,1,1.137,1.337c.347.48.652,1,.949,1.495.954,1.606,1.936,3.267,4.272,3.345l.075,0,.069-.033a2.215,2.215,0,0,0,1.219-1.127,2.031,2.031,0,0,0,.027-.567l-.021-.18a27.643,27.643,0,0,0-1.391-3.2" transform="translate(-17.924 -11.376)" fill="#f9dfd4"/><path d="M478.831,167.562l-.005.135.1.1c.451.439,1.007,1,1.524,1.548l.3.321.2-.393a7.559,7.559,0,0,1,1.915-2.584,21.665,21.665,0,0,1,2.073-1.357,14.2,14.2,0,0,0,1.356-.874c.648-.517,1.195-1.878.807-2.373-.3-.383-.964-.172-1.733.073-.273.085-.544.172-.772.221a6.762,6.762,0,0,1-1.847.06,6.975,6.975,0,0,0-1.929.069,5.124,5.124,0,0,0-2,.981l-.134.1.017.171a30.229,30.229,0,0,1,.129,3.8" transform="translate(-25.028 -1.204)" fill="#f9dfd4"/><path d="M353.891,229.355l-.049-.111c-.077-.165-.2-.427-.327-.656l-.061-.109-.55-.162c-.517-.153-1.035-.306-1.525-.43a5.128,5.128,0,0,0-3.182.255c-.117.048-.219.1-.323.152-.06.033-.123.063-.219.112-2.381,1.442-3.424,4.277-4.432,7.019a20.51,20.51,0,0,1-2.1,4.581l-.042.08a16.825,16.825,0,0,1-1.126,2.641l-.027.073a17.811,17.811,0,0,0-.464,2.549c-.259,2.77,1.522,5,3.489,7,.146.148.293.306.441.466l.175.111a8.837,8.837,0,0,1,2.168,1.464l.252.255a4.445,4.445,0,0,0,2.6,1.607l.039.007.041,0c.233-.02.5-.027.77-.037a6.545,6.545,0,0,0,2.674-.44,1.927,1.927,0,0,0,.714-1.779l-.044-.134a45.625,45.625,0,0,0-3.631-4.7,22.286,22.286,0,0,1-1.549-1.941c-.949-1.77-.925-2.646.119-4.26a9.62,9.62,0,0,1,2.6-2.425,8.157,8.157,0,0,0,3.481-4.054,15.162,15.162,0,0,0,.492-5.767,6.2,6.2,0,0,0-.4-1.362" transform="translate(-5.137 -10.613)" fill="#f9dfd4"/><path d="M475.912,178.046a.766.766,0,0,0-.522-.291,3.032,3.032,0,0,0-2.247.819,2.934,2.934,0,0,1-1.077.591,14.872,14.872,0,0,1-3.889.063c-2.481-.272-8.755-3.445-9.313-4.058a12.4,12.4,0,0,1-1.24-2.107,16.426,16.426,0,0,0-1.012-1.8,19.32,19.32,0,0,0-2.09-2.337l-.417-.4-.1.571c-.471,2.609-2.859,5.942-3.879,6.544-.155.087-.529.268-.689.072a.712.712,0,0,1,.129-.835,13.139,13.139,0,0,0,2.927-5.757,25.454,25.454,0,0,0-.73-9.981,1.311,1.311,0,0,0-1.141-.843l-.078,0a1.45,1.45,0,0,0-1.262.822c-1.6,2.961-4.87,5.369-7.4,6.636-.289.142-2.84,1.468-3.587,3.293a6.741,6.741,0,0,0,.031,3.261.459.459,0,0,1-.15.531.408.408,0,0,1-.5-.118,3.627,3.627,0,0,1-.915-2.952c.141-1.055.436-2.232,2.315-3.976a17.466,17.466,0,0,1,2.7-1.893l.706-.437-.595-.22a14.353,14.353,0,0,0-3.806-.879,24.737,24.737,0,0,0-9.2,1.162A25.553,25.553,0,0,0,425.3,165.1a13.8,13.8,0,0,1-5.716,1.9,28.588,28.588,0,0,1-8.274-1.2A31.62,31.62,0,0,0,404,164.619h-.158a42.63,42.63,0,0,0-5.466.452,83.7,83.7,0,0,1-12.142.745H386.1c-3.718-.005-8.85-.932-14.795-2.007q-1.66-.3-3.415-.615c-1.517-.27-2.876-.533-4.141-.778a52.484,52.484,0,0,0-10.731-1.333H352.8c-9.486.056-16.787,1.636-24.415,5.287l-.273.127.122.278a7.662,7.662,0,0,1,.5,2.935,7.845,7.845,0,0,1-2.8,5.891,2.5,2.5,0,0,1-3.087.058A2.257,2.257,0,0,1,323,172.84a3.494,3.494,0,0,0,.347-3.466l-.087-.123-.138-.02c-.212-.008-.33.073-1.2.806-.376.317-.825.7-1.277,1.051a20.338,20.338,0,0,1-2.668,1.864.978.978,0,0,1-.91-.156,3.729,3.729,0,0,1-1.548-3.092,4.057,4.057,0,0,1,4.148-3.736,5.141,5.141,0,0,1,4.684,2.862,4.58,4.58,0,0,1-.786,4.648.976.976,0,0,0-.075,1.414,1.376,1.376,0,0,0,1.905.146,7.049,7.049,0,0,0,2.51-5.587c0-3.568-2.661-7.411-8.5-7.411-3.845,0-8.3,2.275-8.993,6.491a8.293,8.293,0,0,0,1.02,5.4c.561,1.074.777,2.7.077,3.615l-.247.318c-.379.483-.8,1.029-1.833,2.505-1.7,2.439-3.656,6.053-3.656,12.386,0,3.163,1.862,8.036,3.119,10.334a29.939,29.939,0,0,0,6.321,8.018c.543.5,1.191,1,1.878,1.52a14.343,14.343,0,0,1,4.042,4.024c.7,1.276.537,4.717-.585,6.352-1.036,1.515-.906,3.49-.782,5.4a10.075,10.075,0,0,1-.2,3.872,26.461,26.461,0,0,1-3.306,6.343,5.183,5.183,0,0,0-1.185,2.9c0,1.051,1.26,3.26,2.248,3.26a.559.559,0,0,0,.41-.17c.282-.291.265-.851.248-1.5a8.324,8.324,0,0,1,.007-.879c.474.657,1.522,2.727,1.9,3.466a7.543,7.543,0,0,1,.371.94l.041.126.122.056a.406.406,0,0,1,.122.081,5.89,5.89,0,0,0,3.325.939,2.908,2.908,0,0,0,1.25-.225.964.964,0,0,0,.58-1.047l-.012-.085-.051-.065a8.511,8.511,0,0,1-1.692-4.338c-.041-3.762,1.907-8.206,3.6-10.889a7.021,7.021,0,0,1,1.525-2.025,9.938,9.938,0,0,1,2.339-1.386c.374-.177.747-.354,1.112-.55a10.4,10.4,0,0,0,2.964-2.642l.423-.49.072-.075a36.487,36.487,0,0,0,2.646-4.677c.195-.4.371-.76.546-1.089l.044-.084c.231-.438.4-.756.507-.921.146-.223.291-.468.437-.719.5-.846,1.019-1.734,1.6-1.637l.59.089c.466.07,1.182.229,2.009.413,1.19.263,2.537.566,3.591.7.3.039.749.1,1.317.187a96.564,96.564,0,0,0,12.479,1.2h.063c2.2,0,6.7-.573,11.91-1.233,6.541-.827,13.918-1.761,18.35-1.761q.31,0,.6.007a51.471,51.471,0,0,1,12.515,1.806c.681.26,1.6.568,2.584.9,1.442.483,2.935.981,3.676,1.34.669.325,2.055,1.031,3.32,1.679,1.134.579,2.17,1.107,2.52,1.275a3.319,3.319,0,0,1,1.063,1.958c.021.394.546,9.628.774,10.71a21.785,21.785,0,0,0,2.083,4.708,22.154,22.154,0,0,1,1.707,5.151A1.189,1.189,0,0,0,424,245.109c.461,0,1.015-.362,1.187-1.377.167-1,.415-1.209.595-1.215h.012c.378,0,.867.554,1.051,1.056a11.133,11.133,0,0,0,1.68,3.07,6.952,6.952,0,0,0,4.242.21c.915-.248,1.345-1.37,1.435-2.253a.631.631,0,0,0-.107-.406c-.082-.128-.179-.312-.3-.531a13.687,13.687,0,0,0-.937-1.569,21.475,21.475,0,0,1-3.388-6.053,11.658,11.658,0,0,1-.081-1.935c.005-1.963-.347-5.575-1-6.973a1.413,1.413,0,0,1,.087-1.146,31.276,31.276,0,0,0,3.66-11.67c.338-3.425,1.6-4.041,3.346-4.893.339-.165.691-.338,1.051-.537a28.772,28.772,0,0,0,3.335-2.187,3.291,3.291,0,0,0,1.356-2.5,1.057,1.057,0,0,0-.563-.88c-1.162-.628-3.327-1.8-4.2-2.446a3.7,3.7,0,0,1-1.376-1.831.668.668,0,0,1-.037-.182,34.976,34.976,0,0,0,5.393,2.883,18.783,18.783,0,0,0,8.088.561l.388-.043c.17-.02.3-.035.388-.05.716-.118,5.053-1.521,6.672-3.128a11.078,11.078,0,0,1,3.3-2.372c.806-.228,2.271-.48,3.566-.7.789-.137,1.495-.26,1.912-.351,1.905-.429,5.289-1.566,6.5-2.646a2.435,2.435,0,0,0,.942-2.234.888.888,0,0,0-.813-.617c-1-.1-2.17-.089-3.3-.085l-.8.006h-.034c-2.388,0-3.058-.483-3.207-.631a1.568,1.568,0,0,1-.111-.141,7.987,7.987,0,0,1,2.282-.289,15.787,15.787,0,0,0,1.617-.131c.351-.057.777-.123,1.223-.192,1.089-.165,2.325-.355,2.942-.533.689-.2,1.378-.479,2.109-.772.318-.132.648-.261,1-.4.656-.291.859-1.269.837-1.854a34.321,34.321,0,0,1,.027-3.568c.017-.221.049-.473.081-.738.133-1.1.272-2.245-.151-2.782" transform="translate(-0.33 -0.693)" fill="#fadcca"/><path d="M437.171,254.37c-3.015.021-3.639-2.631-5.168-4.732-.93-1.277-2.353-2.4-3-3.885-.843-1.916-.105-3.79-.1-5.879.02-3.844.615-9.567-2.769-12.1-1.393-1.042-2.673.519-1.294,1.551,2.5,1.874,1.6,11.384,1.354,14.034a5.97,5.97,0,0,0,1.251,4.655c1.1,1.581,2.433,2.426,3.477,4.21a18.208,18.208,0,0,0,2.194,3.55,5.288,5.288,0,0,0,4.864.887c1.661-.487.923-2.3-.812-2.292" transform="translate(-17.252 -10.569)" fill="#dc432d"/><path d="M474.014,156.411c.021-.023.045-.045.067-.068,0,.009,0,.018,0,.027-.024.012-.045.029-.069.041" transform="translate(-24.36 -0.415)" fill="#dc432d"/><path d="M435.577,234.646a4.453,4.453,0,0,0-4.224-3.2c-1.815-.192-3.493.706-3.714,2.608-.105.9,1.308.893,1.412,0,.179-1.533,2.116-1.275,3.1-1.025a2.689,2.689,0,0,1,2.06,1.989c.32.842,1.686.477,1.362-.375" transform="translate(-17.735 -11.139)" fill="#dc432d"/><path d="M431.832,232.009c-1.847-.711-4.2.111-4.125,2.363.03.906,1.443.91,1.413,0-.065-2.013,2.343-1.07,3.192-.527a3.853,3.853,0,0,1,2.092,2.819c.071.9,1.485.908,1.413,0a5.814,5.814,0,0,0-3.985-4.655" transform="translate(-17.746 -11.187)" fill="#dc432d"/><path d="M429.5,230.456c-2.564-.508-1.867,4.456-1.876,6.455a.707.707,0,0,0,1.413,0c.005-1.125.361-4.095,1.955-3.941.9.087,1.385-1.943-1.491-2.514" transform="translate(-17.723 -10.996)" fill="#dc432d"/><path d="M441.485,256.5c-.194-.748-1.467-.622-1.387.188a2.5,2.5,0,0,1-.026.827c-.175.508-.885.849-1.3,1.035-.554.248-.129,1.179.343,1.4-.063.441.106.882.684.756.528-.115,1.58-.307,1.94-1.113a9.976,9.976,0,0,0-.255-3.09" transform="translate(-19.289 -14.65)" fill="#dc432d"/><path d="M321.278,168.454c.076.111-.225.481-.42.639s-2.062,1.639-2.648,2.116c-.837.683-1.245-.317-1.26-.84a2.541,2.541,0,0,1,4.328-1.915m71.1,48.214c7.638.083,22.372,5.942,22.38,6.192,1.216,1.805,1.626,4.638,1.748,7.259a20,20,0,0,0,.74,5.393c.307.883,1.825,3.74,2.213,4.471a36.74,36.74,0,0,1,2.256,5.777,2.03,2.03,0,0,0,1.884,1.58c.634.033,1.417-.715,1.668-1.552.143-.477.8-.489,1.081.334a5.756,5.756,0,0,0,1.013,1.993c.817.727,1.679.358,3.222.358a10.9,10.9,0,0,0,2.415-.219,4.1,4.1,0,0,0,2.176-2.2,2.3,2.3,0,0,0,.091-1.9,11.485,11.485,0,0,0-1.64-2.937,26.976,26.976,0,0,1-2.709-5.091c-.055-.242-.1-3.032-.093-3.737.005-2.1-.7-3.915-.654-5.372s1.47-3.16,2.378-6.1a44.487,44.487,0,0,0,1.7-6.73c.108-.949,1.2-1.752,2.853-2.666a25.118,25.118,0,0,0,3.2-1.911,14,14,0,0,0,2.692-2.827,5.043,5.043,0,0,1,1.593-1.614c1.078-.537,3.062-.351,4.873-.715a13.82,13.82,0,0,0,7.144-3.508c.326-.272.624-.523.9-.758,2.211-1.857,5.511-2.271,7.407-2.712,3.15-.732,6.88-2.5,8.328-4.561a2.16,2.16,0,0,0-.123-2.707c-.452-.359-.816-.867.136-1.086a11.782,11.782,0,0,0,3.907-1.655c.537-.519-.417-3.067-.323-5.453s.789-4.826-.11-5.477a2.75,2.75,0,0,0-3.367.264,7.509,7.509,0,0,1-5.149,1.388c-2.181-.091-7.966-2.995-8.66-3.794-.726-.837-1.626-2.811-2.617-4.186a37.2,37.2,0,0,0-3.457-3.618c-.668-.576-1.152,1.268-.23,2.028a19.869,19.869,0,0,1,2.814,2.98c.663.932,1.593,3.185,2.274,3.932s7.018,3.886,9.51,4.158a14.916,14.916,0,0,0,3.979-.066c1.071-.2,1.783-1.568,3.236-1.4.876.1.416,2.258.313,3.476a35.13,35.13,0,0,0-.027,3.606c.023.566-.189,1.352-.652,1.557-1.124.434-2.1.879-3.075,1.16-.843.244-2.923.513-4.128.718s-4.153.051-4.153.666,1.12,1.149,3.657,1.142c1.321,0,2.836-.048,4.067.078.986.1.627,1.481-.3,2.31-1.095.975-4.31,2.111-6.362,2.572-1.091.244-4.17.687-5.5,1.062a11.429,11.429,0,0,0-3.429,2.449c-1.581,1.569-5.884,2.939-6.505,3.043-.111.017-.322.04-.6.072-1.042.116-4.888.635-8.112-.526a35.03,35.03,0,0,1-5.326-2.852c-.288-.2-.6.1-.423.554a3.994,3.994,0,0,0,1.48,1.97,48.723,48.723,0,0,0,4.258,2.483c.807.437.24,1.985-.863,2.855a28.649,28.649,0,0,1-3.294,2.158c-2.229,1.237-4.133,1.394-4.552,5.67a31.039,31.039,0,0,1-3.617,11.538,1.712,1.712,0,0,0-.1,1.441c.631,1.359.969,5,.966,6.841a11.583,11.583,0,0,0,.087,2,21.536,21.536,0,0,0,3.439,6.172c.591.825.974,1.695,1.224,2.085a.328.328,0,0,1,.061.207c-.07.688-.415,1.768-1.205,1.983a6.737,6.737,0,0,1-4.009-.177,12.48,12.48,0,0,1-1.545-2.908c-.213-.579-.793-1.277-1.364-1.261s-.78.824-.891,1.473c-.264,1.546-1.485,1.338-1.664.285a22.331,22.331,0,0,0-1.738-5.245,23.077,23.077,0,0,1-2.052-4.627c-.227-1.071-.769-10.661-.769-10.661a3.515,3.515,0,0,0-1.24-2.223c-.739-.351-4.57-2.337-5.836-2.951s-4.6-1.6-6.286-2.247a51.722,51.722,0,0,0-12.619-1.827c-7.638-.165-25.789,2.98-30.872,2.989a110.41,110.41,0,0,1-13.82-1.39c-1.765-.225-4.436-.934-5.592-1.111l-.588-.089c-1.006-.147-1.65,1.433-2.345,2.494-.123.188-.3.523-.566,1.031a36.016,36.016,0,0,1-6.518,9.935c-.861.937-2.191,1.09-3.419,2.72a26.856,26.856,0,0,0-4.458,9.432,5.915,5.915,0,0,0,.657,4.3c.25.665,2.259,1.843,3.295,2.511.495.319.329,1.2-.091,1.233s-6.256.149-6.666.093c-.777-.01-1.018-1.771-1.532-2.782-.66-1.3-1.96-3.874-2.229-3.784-.618.208.129,2.7-.608,2.7s-1.938-1.981-1.938-2.949a4.924,4.924,0,0,1,1.114-2.7,26.535,26.535,0,0,0,3.357-6.436c.946-2.641-.777-6.673.952-9.2,1.219-1.779,1.34-5.329.6-6.679-1.329-2.421-4.252-4.024-5.98-5.62a29.548,29.548,0,0,1-6.261-7.94c-1.173-2.148-3.079-7.019-3.079-10.187a19.965,19.965,0,0,1,3.6-12.208c1.246-1.786,1.592-2.19,2.071-2.812a3.973,3.973,0,0,0-.048-3.946,8.025,8.025,0,0,1-.987-5.21c.64-3.91,4.757-6.23,8.686-6.23,5.535,0,8.188,3.511,8.188,7.1a6.708,6.708,0,0,1-2.394,5.344c-.923.738-2.211-.346-1.424-1.095a4.856,4.856,0,0,0,.855-5,5.471,5.471,0,0,0-4.966-3.041,4.359,4.359,0,0,0-4.46,4.048c0,2.295,1.87,4.044,2.909,3.524a21.535,21.535,0,0,0,2.721-1.9,24.349,24.349,0,0,1,2.247-1.791,3.172,3.172,0,0,1-.339,3.116,2.568,2.568,0,0,0-.131,3.213,2.8,2.8,0,0,0,3.517-.038,8.141,8.141,0,0,0,2.908-6.124,8.056,8.056,0,0,0-.519-3.061,53.971,53.971,0,0,1,24.284-5.255c5.212-.03,8.782,1,15.029,2.107,7.515,1.332,13.828,2.62,18.263,2.625,10.723.012,12.5-1.14,17.743-1.2,5.115-.055,10.339,2.638,15.759,2.389,3.566-.165,5.992-2.388,9.376-3.5a24.2,24.2,0,0,1,9.086-1.148,13.634,13.634,0,0,1,4.505,1.207c.193.126.381.244.569.351-.049-.549.845-1.443.841-1.445a11.743,11.743,0,0,0-5.885-1.841,28.379,28.379,0,0,0-9.935,1.311c-3.5,1.059-6.6,3.138-8.771,3.138-4.955,0-8.662-2.649-15.331-2.6-6.377.044-9.574,1.126-17.573,1.126-8.124,0-23.485-4.447-33.831-4.66-6.37-.131-13.955.331-24.771,5.449-1.474-2.217-4.278-3.944-8.332-4.038-5.086-.118-10.385,3.074-10.926,8.291a9.217,9.217,0,0,0,1.013,5.122,3.212,3.212,0,0,1,.162,2.852,25.74,25.74,0,0,1-1.512,2.1c-2.465,3.311-4.309,7.363-4.309,14.446,0,5.052,2.6,10.431,5.009,14.241,2.23,3.531,9.3,8.445,9.988,9.679.768,1.377.05,4.426-.293,5.092-.465.9-1.4,2.769-1.282,3.958a23.3,23.3,0,0,1,.111,5.128,18.56,18.56,0,0,1-2.118,4.459c-.91,1.509-2.317,4.115-2.118,5.908.235,2.114,2.608,2.972,3.647,4.2,1.062,1.251,2.505,3.183,2.925,3.183a13.556,13.556,0,0,0,1.6.482c1.017.021,2.115.034,3.15.034a20.786,20.786,0,0,0,4.454-.259,1.957,1.957,0,0,0,.819-2.053c-.093-.791-.323-1.021-1.055-1.435a12.5,12.5,0,0,1-2.235-1.559,5.068,5.068,0,0,1-.635-4.037,26.4,26.4,0,0,1,4.185-8.834c1.149-1.569,2.2-1.374,3.348-2.635a35.649,35.649,0,0,0,6.55-10.059c.23-.436.413-.781.5-.909a2,2,0,0,1,1.709-.745l.58.088c.717.11,2.652.554,4.5.972a75.3,75.3,0,0,0,14.346,1.389c5.216.1,22.178-3.352,31.022-3.255" transform="translate(-0.029 -0.851)" fill="#dc432d"/><path d="M319.457,167.894a4.641,4.641,0,0,0-.584.041,2.26,2.26,0,0,0-1.775,2.4,1.088,1.088,0,0,0,.423.871c.147.072.332.015.549-.163.375-.305,1.275-1.02,1.927-1.539.363-.289.652-.518.721-.576a1.458,1.458,0,0,0,.361-.44,2.027,2.027,0,0,0-1.622-.592m-1.805,3.691a.665.665,0,0,1-.278-.059,1.414,1.414,0,0,1-.628-1.183,2.716,2.716,0,0,1,4.649-2.02l0,0c.21.312-.449.872-.455.876-.072.057-.36.285-.726.579-.65.514-1.549,1.231-1.922,1.534a1.027,1.027,0,0,1-.643.27m2.595,77.611.3.292a.8.8,0,0,0,.569.271c1.107.023,2.2.034,3.147.034,3.332,0,4.176-.154,4.384-.247a1.784,1.784,0,0,0,.711-1.869c-.082-.714-.267-.906-.966-1.3a12.687,12.687,0,0,1-2.27-1.587,5.2,5.2,0,0,1-.687-4.2,26.619,26.619,0,0,1,4.217-8.9,5.053,5.053,0,0,1,1.893-1.572,5.036,5.036,0,0,0,1.467-1.078,32.423,32.423,0,0,0,5.915-8.789c.213-.447.41-.856.609-1.23.259-.491.421-.8.5-.925a2.141,2.141,0,0,1,1.883-.822l.581.087c.668.1,2.322.475,4.073.873l.439.1a74.023,74.023,0,0,0,14.311,1.383c.075,0,.151,0,.229,0a112.543,112.543,0,0,0,11.782-1.329c6.424-.906,13.682-1.929,18.636-1.929.126,0,.249,0,.373,0,4.05.043,9.906,1.677,14.1,3.041,1.7.551,7.785,2.658,8.4,3.242l.021-.013c1.039,1.538,1.62,3.942,1.778,7.347a20.82,20.82,0,0,0,.73,5.346c.286.822,1.673,3.446,2.13,4.308l.071.137a36.464,36.464,0,0,1,2.271,5.811,1.846,1.846,0,0,0,1.725,1.453h.03c.536,0,1.236-.683,1.46-1.428a.6.6,0,0,1,.561-.453h.012c.279,0,.643.2.844.783a5.31,5.31,0,0,0,.965,1.918c.529.473,1.092.432,1.95.369.336-.028.718-.056,1.153-.056a10.613,10.613,0,0,0,2.366-.213,3.915,3.915,0,0,0,2.067-2.109,2.126,2.126,0,0,0,.085-1.753l-.034-.092a11.532,11.532,0,0,0-1.586-2.807,27.122,27.122,0,0,1-2.734-5.152c-.064-.285-.1-3.232-.1-3.78a15.945,15.945,0,0,0-.369-3.035,11.016,11.016,0,0,1-.285-2.344,7.342,7.342,0,0,1,.968-2.734,22.856,22.856,0,0,0,1.416-3.412,44.533,44.533,0,0,0,1.689-6.7c.119-1.031,1.263-1.865,2.945-2.8.213-.119.43-.239.647-.355a18.535,18.535,0,0,0,2.531-1.543,13.826,13.826,0,0,0,2.661-2.788,5.019,5.019,0,0,1,1.657-1.668,7.649,7.649,0,0,1,2.666-.474,17.692,17.692,0,0,0,2.249-.259,13.574,13.574,0,0,0,7.068-3.468l.9-.758c1.894-1.593,4.549-2.139,6.487-2.538.359-.074.693-.141.993-.21,2.915-.681,6.734-2.376,8.224-4.493a2,2,0,0,0-.089-2.468c-.405-.321-.579-.616-.517-.884.055-.244.291-.412.723-.51A11.765,11.765,0,0,0,477,187.313c.222-.214.075-1.117-.078-2.072a16.687,16.687,0,0,1-.3-3.263c.027-.72.11-1.434.188-2.123.171-1.509.321-2.808-.225-3.206a2.579,2.579,0,0,0-3.159.265,7.77,7.77,0,0,1-5.26,1.425c-2.217-.1-8.055-3.012-8.785-3.857a14.006,14.006,0,0,1-1.3-2.033,25.113,25.113,0,0,0-1.334-2.164,37.282,37.282,0,0,0-3.428-3.588c-.069-.057-.129-.081-.17-.059-.089.028-.206.194-.256.482a1.453,1.453,0,0,0,.423,1.334,20.5,20.5,0,0,1,2.847,3.017,16.75,16.75,0,0,1,1,1.774,12.217,12.217,0,0,0,1.263,2.139c.62.68,6.876,3.828,9.4,4.1a14.786,14.786,0,0,0,3.925-.064,3.026,3.026,0,0,0,1.135-.613,3.074,3.074,0,0,1,2.156-.793.625.625,0,0,1,.428.242c.389.491.247,1.658.121,2.687-.032.267-.062.518-.08.739a34.085,34.085,0,0,0-.026,3.584,1.853,1.853,0,0,1-.759,1.725c-.343.133-.664.263-.977.389a21.621,21.621,0,0,1-2.119.778c-.6.174-1.81.359-2.878.525-.462.068-.906.137-1.268.2a15.547,15.547,0,0,1-1.6.127c-.657.033-2.4.119-2.4.365a.418.418,0,0,0,.144.295c.2.2.927.67,3.285.67h.051c.57,0,1.18-.012,1.776-.012.8,0,1.6.019,2.308.089a.765.765,0,0,1,.7.527,2.3,2.3,0,0,1-.9,2.093c-1.192,1.059-4.549,2.187-6.442,2.612-.423.1-1.121.217-1.931.357-1.288.222-2.745.474-3.555.7a11.411,11.411,0,0,0-3.352,2.405c-1.6,1.593-5.892,2.974-6.6,3.09-.119.017-.33.044-.609.074l-.163.018a18.69,18.69,0,0,1-8.027-.55,35.515,35.515,0,0,1-5.368-2.878.123.123,0,0,0-.138-.013c-.057.048-.089.178-.021.359a3.809,3.809,0,0,0,1.421,1.892,46.442,46.442,0,0,0,4.188,2.442l.05.027a.905.905,0,0,1,.467.758,3.152,3.152,0,0,1-1.3,2.394,28.712,28.712,0,0,1-3.32,2.174c-.359.2-.71.371-1.048.536-1.714.84-3.071,1.5-3.411,5a31.221,31.221,0,0,1-3.643,11.615,1.539,1.539,0,0,0-.094,1.27c.636,1.375.984,4.963.982,6.917a11.248,11.248,0,0,0,.082,1.961,21.463,21.463,0,0,0,3.411,6.106,13.763,13.763,0,0,1,.92,1.538c.119.229.222.422.31.555a.511.511,0,0,1,.087.324c-.087.838-.489,1.9-1.336,2.13a6.85,6.85,0,0,1-4.142-.192,11.612,11.612,0,0,1-1.62-3c-.2-.547-.732-1.146-1.181-1.146h-.013c-.445.014-.625.765-.723,1.327-.158.931-.648,1.263-1.053,1.263h0a1.059,1.059,0,0,1-.957-.979,22.225,22.225,0,0,0-1.72-5.192,21.638,21.638,0,0,1-2.068-4.673c-.23-1.071-.748-10.295-.771-10.689a3.379,3.379,0,0,0-1.142-2.07c-.341-.165-1.311-.66-2.433-1.233-1.277-.65-2.723-1.389-3.4-1.721-.755-.366-2.268-.872-3.73-1.359-.963-.322-1.871-.625-2.542-.88a51.58,51.58,0,0,0-12.56-1.815q-.294-.006-.611-.007c-4.446,0-11.828.935-18.377,1.763-5.2.66-9.693,1.227-11.879,1.233h-.043a96.771,96.771,0,0,1-12.49-1.207c-.562-.081-1.009-.148-1.309-.185-1.053-.135-2.4-.435-3.595-.7-.824-.183-1.535-.342-2-.412l-.588-.089a.548.548,0,0,0-.1-.007c-.634,0-1.144.872-1.639,1.715-.144.246-.285.488-.429.708-.119.181-.291.5-.559,1.016-.181.345-.366.723-.567,1.135a33.155,33.155,0,0,1-5.977,8.837,5.348,5.348,0,0,1-1.29.945A6.428,6.428,0,0,0,328.767,231a26.809,26.809,0,0,0-4.426,9.364,5.049,5.049,0,0,0,.4,3.621c.087.195.173.387.247.585.192.51,1.709,1.466,2.711,2.1l.515.325a.939.939,0,0,1,.352,1.022.64.64,0,0,1-.524.537c-.508.045-6.291.148-6.707.089-.632,0-.927-.872-1.24-1.788a8.642,8.642,0,0,0-.423-1.087,28.775,28.775,0,0,0-2.055-3.668,2.725,2.725,0,0,0-.1,1.144c.015.593.029,1.156-.211,1.4a.426.426,0,0,1-.314.13c-.908,0-2.114-2.144-2.114-3.126a5.06,5.06,0,0,1,1.153-2.815,26.634,26.634,0,0,0,3.328-6.384,10.135,10.135,0,0,0,.215-3.924c-.126-1.885-.255-3.838.757-5.316,1.167-1.7,1.325-5.155.591-6.493a14.411,14.411,0,0,0-4.075-4.061c-.685-.523-1.332-1.017-1.87-1.513a29.91,29.91,0,0,1-6.3-7.984c-1.25-2.292-3.1-7.142-3.1-10.271,0-6.292,1.941-9.883,3.632-12.308,1.028-1.477,1.453-2.021,1.826-2.5l.247-.315c.735-.952.518-2.645-.061-3.756l-.026-.045a8.1,8.1,0,0,1-.982-5.275c.68-4.143,5.07-6.38,8.86-6.38,4.028,0,8.364,2.278,8.364,7.28a6.917,6.917,0,0,1-2.46,5.481,1.24,1.24,0,0,1-1.719-.129.847.847,0,0,1,.064-1.23,4.66,4.66,0,0,0,.817-4.8,5.279,5.279,0,0,0-4.805-2.94,4.2,4.2,0,0,0-4.284,3.872,3.868,3.868,0,0,0,1.613,3.2,1.065,1.065,0,0,0,1.039.163,21.639,21.639,0,0,0,2.691-1.88c.455-.355.915-.743,1.283-1.057.851-.721.957-.806,1.087-.773l.078.012.055.07a3.352,3.352,0,0,1-.341,3.318,2.375,2.375,0,0,0-.146,2.989,2.615,2.615,0,0,0,3.272-.048,7.989,7.989,0,0,0,2.847-5.993,7.838,7.838,0,0,0-.506-2.992l-.069-.155.155-.075c7.611-3.639,14.9-5.216,24.361-5.271h.217a52.377,52.377,0,0,1,10.7,1.333c1.29.249,2.625.508,4.139.778q1.754.312,3.417.613c5.95,1.076,11.087,2,14.816,2.008h.156a83.658,83.658,0,0,0,12.137-.746,42.427,42.427,0,0,1,5.448-.451l.153,0a31.511,31.511,0,0,1,7.286,1.185,32.641,32.641,0,0,0,7.608,1.221c.236,0,.471,0,.705-.015a13.874,13.874,0,0,0,5.766-1.917,25.187,25.187,0,0,1,3.562-1.572,24.687,24.687,0,0,1,9.151-1.159,13.747,13.747,0,0,1,4.593,1.238c.112.071.222.143.329.209a3.261,3.261,0,0,1,.717-1.125,11.892,11.892,0,0,0-5.632-1.7,28.407,28.407,0,0,0-9.872,1.3,34.724,34.724,0,0,0-4.12,1.629,13.172,13.172,0,0,1-4.7,1.515,23.64,23.64,0,0,1-6.5-1.167,30.177,30.177,0,0,0-8.656-1.434h-.171a71.076,71.076,0,0,0-7.6.517,84.159,84.159,0,0,1-9.977.608c-3.954,0-9.584-1.042-15.546-2.146-6.378-1.179-12.971-2.4-18.29-2.512-6.57-.137-14.118.434-24.69,5.434l-.137.063-.085-.126c-1.62-2.432-4.6-3.876-8.189-3.958-.087,0-.177,0-.266,0-4.785,0-9.949,3-10.482,8.135a8.563,8.563,0,0,0,.837,4.656c.062.14.117.266.163.381a3.393,3.393,0,0,1,.153,3.006,14.3,14.3,0,0,1-1.025,1.457c-.148.2-.315.417-.5.664-2.115,2.839-4.275,6.764-4.275,14.339,0,5.17,2.709,10.545,4.981,14.147,1.355,2.144,4.588,4.867,6.947,6.854a19.02,19.02,0,0,1,3.048,2.834c.8,1.431.082,4.536-.291,5.259-.341.663-1.377,2.673-1.263,3.861a19.565,19.565,0,0,1,.105,5.193,18.882,18.882,0,0,1-2.137,4.5c-1.513,2.505-2.235,4.509-2.091,5.8.148,1.357,1.224,2.163,2.265,2.95a8.261,8.261,0,0,1,1.338,1.153c1.011,1.194,2.68,3.307,3,3.3.195-.007.369-.01.519-.014Zm4.016.949c-.954,0-1.749-.01-2.859-.033a3.033,3.033,0,0,1-3.116-1.442c-.537-.539-.8-1.066-1.833-2.286a8,8,0,0,0-1.279-1.1c-1.05-.789-2.241-1.684-2.407-3.192-.153-1.382.568-3.406,2.141-6.019a18.482,18.482,0,0,0,2.1-4.413c.126-.453.208-1.7-.119-5.064-.11-1.156.689-2.867,1.3-4.053.314-.609,1.039-3.6.3-4.925a20.607,20.607,0,0,0-2.97-2.738c-2.378-2-5.633-4.744-7.016-6.935-2.3-3.639-5.036-9.081-5.036-14.335,0-7.678,2.194-11.664,4.342-14.549.186-.248.352-.47.5-.666a14.411,14.411,0,0,0,1-1.419,2.985,2.985,0,0,0-.172-2.7c-.045-.111-.1-.236-.16-.371a8.892,8.892,0,0,1-.867-4.834c.555-5.338,5.894-8.452,10.835-8.452.092,0,.183,0,.275,0,3.638.085,6.686,1.537,8.388,3.989,10.56-4.972,18.1-5.545,24.714-5.4,5.344.111,11.953,1.334,18.344,2.517,5.945,1.1,11.563,2.142,15.483,2.142a84.385,84.385,0,0,0,9.94-.606,71.321,71.321,0,0,1,7.63-.52h.169a30.856,30.856,0,0,1,8.759,1.449,23.457,23.457,0,0,0,6.4,1.153,12.989,12.989,0,0,0,4.556-1.485,36.443,36.443,0,0,1,4.165-1.645,28.375,28.375,0,0,1,10-1.318,12.072,12.072,0,0,1,5.973,1.872l.059.045.029.158-.084.091a2.329,2.329,0,0,0-.771,1.281l.03.336-.293-.166c-.192-.111-.381-.229-.577-.355a13.6,13.6,0,0,0-4.418-1.181,24.281,24.281,0,0,0-9.022,1.141,25,25,0,0,0-3.513,1.552,14.117,14.117,0,0,1-5.908,1.954,29.36,29.36,0,0,1-8.416-1.215,30.834,30.834,0,0,0-7.194-1.173h-.155a42.393,42.393,0,0,0-5.41.447,83.6,83.6,0,0,1-12.18.749h-.156c-3.761,0-8.913-.937-14.88-2.013-1.1-.2-2.245-.407-3.411-.613-1.521-.27-2.856-.529-4.147-.782a52.15,52.15,0,0,0-10.637-1.324h-.215c-9.346.055-16.551,1.6-24.059,5.165a8.463,8.463,0,0,1,.469,2.974,8.327,8.327,0,0,1-2.97,6.258,2.944,2.944,0,0,1-3.757.026,2.73,2.73,0,0,1,.114-3.438,3.134,3.134,0,0,0,.407-2.782c-.165.12-.471.381-.769.632-.373.316-.835.708-1.293,1.067a22.424,22.424,0,0,1-2.751,1.914,1.414,1.414,0,0,1-1.384-.175,4.235,4.235,0,0,1-1.78-3.506,4.557,4.557,0,0,1,4.636-4.225,5.636,5.636,0,0,1,5.126,3.142,5.058,5.058,0,0,1-.895,5.207.5.5,0,0,0-.041.743.89.89,0,0,0,1.234.085,6.48,6.48,0,0,0,2.327-5.2c0-3.449-2.479-6.927-8.012-6.927-3.643,0-7.864,2.133-8.512,6.082a7.774,7.774,0,0,0,.948,5.054l.023.045c.645,1.239.862,3.058.029,4.137l-.247.318c-.371.477-.795,1.02-1.817,2.487a19.71,19.71,0,0,0-3.568,12.107c0,3.068,1.824,7.841,3.057,10.1a29.538,29.538,0,0,0,6.224,7.892c.529.488,1.169.978,1.846,1.5a14.682,14.682,0,0,1,4.172,4.171c.778,1.419.62,5.07-.609,6.865-.945,1.377-.819,3.265-.7,5.092a10.34,10.34,0,0,1-.234,4.065,26.524,26.524,0,0,1-3.386,6.488,4.756,4.756,0,0,0-1.076,2.593c0,.934,1.169,2.774,1.761,2.774a.074.074,0,0,0,.06-.024c.137-.141.123-.7.11-1.148-.018-.707-.037-1.376.382-1.517.295-.1.613.255,2.437,3.861a9.125,9.125,0,0,1,.448,1.144c.259.759.526,1.546.933,1.55.4.056,6.176-.048,6.647-.09.089-.007.177-.117.215-.27a.594.594,0,0,0-.2-.639c-.151-.1-.325-.209-.511-.325-1.432-.9-2.638-1.7-2.854-2.272-.073-.193-.155-.377-.24-.565a5.424,5.424,0,0,1-.425-3.838,26.84,26.84,0,0,1,4.489-9.5,6.77,6.77,0,0,1,2.22-1.857,4.907,4.907,0,0,0,1.21-.879,32.867,32.867,0,0,0,5.92-8.752c.2-.416.389-.8.574-1.146.273-.521.447-.85.574-1.042.14-.218.279-.453.421-.694.579-.99,1.195-2.02,2.1-1.878l.591.089c.477.074,1.194.231,2.022.417,1.185.263,2.529.56,3.566.691.3.039.748.105,1.313.189a96.637,96.637,0,0,0,12.439,1.2h.043c2.163,0,6.646-.573,11.833-1.228,6.56-.831,13.954-1.767,18.425-1.767.213,0,.419,0,.618.007a51.965,51.965,0,0,1,12.679,1.838c.661.252,1.568.556,2.526.877,1.472.492,3,1,3.773,1.377.684.331,2.133,1.07,3.41,1.723,1.073.549,2.087,1.066,2.423,1.227a3.671,3.671,0,0,1,1.343,2.386c0,.082.542,9.574.762,10.619a21.8,21.8,0,0,0,2.037,4.582,22.657,22.657,0,0,1,1.757,5.3c.069.405.318.687.609.687h0c.261,0,.584-.254.7-.97.129-.743.364-1.6,1.062-1.62h.025c.693,0,1.3.8,1.508,1.376a13.473,13.473,0,0,0,1.483,2.829,6.6,6.6,0,0,0,3.858.148c.721-.2,1.017-1.245,1.076-1.833,0-.017,0-.041-.034-.1-.087-.136-.195-.338-.323-.576a12.487,12.487,0,0,0-.894-1.5c-2.38-3.3-3.3-5.474-3.467-6.235a11.376,11.376,0,0,1-.092-2.039,22.786,22.786,0,0,0-.949-6.769,1.906,1.906,0,0,1,.111-1.607,30.683,30.683,0,0,0,3.592-11.464c.362-3.688,1.868-4.425,3.611-5.278.332-.164.677-.332,1.032-.526a28.567,28.567,0,0,0,3.27-2.143,2.826,2.826,0,0,0,1.173-2.084.561.561,0,0,0-.285-.478l-.048-.028a47.4,47.4,0,0,1-4.231-2.468,4.175,4.175,0,0,1-1.54-2.048.651.651,0,0,1,.133-.765.454.454,0,0,1,.555,0,34.892,34.892,0,0,0,5.286,2.83,18.35,18.35,0,0,0,7.867.534l.165-.02c.273-.029.483-.052.593-.069.659-.109,4.883-1.482,6.407-2.994a11.579,11.579,0,0,1,3.5-2.493c.825-.233,2.295-.488,3.592-.712.806-.138,1.5-.26,1.913-.351,1.931-.435,5.188-1.556,6.286-2.534a2.017,2.017,0,0,0,.8-1.719.417.417,0,0,0-.4-.282,32.127,32.127,0,0,0-3.24-.083c-.292,0-.595.015-.855.006-1.783,0-3.036-.276-3.538-.775a.76.76,0,0,1-.248-.543c0-.554,1.039-.635,2.737-.717a14.482,14.482,0,0,0,1.563-.124c.363-.061.807-.13,1.275-.2,1.057-.163,2.256-.346,2.835-.513a22.019,22.019,0,0,0,2.082-.765c.316-.129.639-.259.975-.39.348-.153.565-.84.542-1.383a34.016,34.016,0,0,1,.026-3.629c.018-.224.05-.479.082-.748.105-.865.249-2.054-.048-2.427a.269.269,0,0,0-.193-.108,1.7,1.7,0,0,0-.217-.014,2.862,2.862,0,0,0-1.689.739,3.357,3.357,0,0,1-1.277.675,15.182,15.182,0,0,1-4.027.068c-2.519-.272-8.876-3.393-9.624-4.214a12.412,12.412,0,0,1-1.316-2.216,16.2,16.2,0,0,0-.97-1.732,19.854,19.854,0,0,0-2.783-2.949,1.8,1.8,0,0,1-.547-1.666.931.931,0,0,1,.485-.758.525.525,0,0,1,.518.129,36.929,36.929,0,0,1,3.487,3.647c.477.662.92,1.442,1.353,2.2a14.076,14.076,0,0,0,1.254,1.976c.691.8,6.443,3.65,8.533,3.736.183.007.359.013.532.013a7.058,7.058,0,0,0,4.5-1.366,2.911,2.911,0,0,1,3.577-.265c.711.517.561,1.846.368,3.528-.077.683-.158,1.389-.185,2.1a16.636,16.636,0,0,0,.293,3.192c.192,1.185.329,2.04-.025,2.382a11.922,11.922,0,0,1-3.991,1.7c-.266.062-.437.152-.458.247s.074.272.393.529a2.344,2.344,0,0,1,.159,2.944c-1.543,2.192-5.453,3.94-8.433,4.634-.3.07-.639.14-1,.212-1.9.392-4.505.927-6.332,2.463l-.9.758a14.055,14.055,0,0,1-7.226,3.546,18.792,18.792,0,0,1-2.293.263,7.583,7.583,0,0,0-2.535.436,4.833,4.833,0,0,0-1.528,1.558,14.26,14.26,0,0,1-2.726,2.864A19.173,19.173,0,0,1,437.8,211.3c-.218.117-.435.233-.647.353-1.371.762-2.657,1.594-2.762,2.529a45.359,45.359,0,0,1-1.7,6.763,23.446,23.446,0,0,1-1.439,3.462,7.188,7.188,0,0,0-.931,2.591,10.8,10.8,0,0,0,.281,2.266,16.216,16.216,0,0,1,.373,3.1c0,.79.044,3.485.089,3.7a27.1,27.1,0,0,0,2.68,5.027,11.893,11.893,0,0,1,1.627,2.889l.034.087a2.482,2.482,0,0,1-.1,2.042,4.245,4.245,0,0,1-2.288,2.29,11.092,11.092,0,0,1-2.46.226c-.421,0-.8.03-1.128.052a2.629,2.629,0,0,1-2.211-.455,5.387,5.387,0,0,1-1.064-2.066c-.14-.4-.359-.544-.508-.544h-.007a.247.247,0,0,0-.229.2,2.283,2.283,0,0,1-1.8,1.681l-.045,0a2.2,2.2,0,0,1-2.046-1.709,36.232,36.232,0,0,0-2.242-5.741l-.073-.137c-.508-.96-1.856-3.51-2.151-4.359a20.8,20.8,0,0,1-.748-5.443c-.153-3.334-.713-5.676-1.713-7.16-.744-.523-14.945-6.042-22.242-6.123l-.369,0c-4.929,0-12.173,1.023-18.585,1.924a112.376,112.376,0,0,1-11.835,1.334h-.231a74.446,74.446,0,0,1-14.384-1.394l-.439-.1c-1.668-.38-3.394-.771-4.048-.872l-.579-.088a1.846,1.846,0,0,0-1.538.667c-.078.123-.277.5-.488.9-.195.373-.389.778-.6,1.221a32.735,32.735,0,0,1-5.972,8.872,5.388,5.388,0,0,1-1.559,1.149,4.668,4.668,0,0,0-1.778,1.473,26.149,26.149,0,0,0-4.153,8.764,4.909,4.909,0,0,0,.586,3.875,12.27,12.27,0,0,0,2.2,1.532c.785.444,1.046.718,1.144,1.568a2.116,2.116,0,0,1-.92,2.232c-.156.07-.622.277-4.528.277" transform="translate(0 -0.821)" fill="#dc432d"/><path d="M349.388,243.586c1.228-1.974,4.417-2.891,5.5-5.33,1.58-3.544,1.179-7.543.789-11.286a1.213,1.213,0,1,0-2.395.262c.3,2.9.741,6.025-.189,8.868-1.073,3.285-4.419,3.9-6.042,6.409-1.13,1.748-1.11,2.752-.134,4.573.575,1.073,6.607,7.284,5.815,8.65a19.472,19.472,0,0,1-4.5.427c-2.319-.492-3.975-2.791-5.475-4.315-1.979-2.013-3.643-4.154-3.4-6.754.239-2.582,1.362-5.14,1.555-7.832.129-1.814-2.105-1.936-2.234-.131-.218,3.035-2.682,7.266-1.958,10.18.638,2.565,5.2,7.53,7.144,9.077,1.664,1.328,1.864,1.8,3.992,1.819,1.7.014,5.5.842,6.86-.942,3.289-4.309-7.919-9.521-5.334-13.676" transform="translate(-4.732 -10.328)" fill="#dc432d"/><path d="M342.052,234.447c-.066-.9-1.479-.909-1.413,0a15.7,15.7,0,0,1-2.3,9.544c-.475.778.746,1.489,1.22.713a17.041,17.041,0,0,0,2.494-10.257" transform="translate(-4.965 -11.474)" fill="#dc432d"/><path d="M340.028,237.045v2.3a.707.707,0,0,0,1.413,0v-2.3a.707.707,0,0,0-1.413,0" transform="translate(-5.222 -11.845)" fill="#dc432d"/><path d="M355.27,227.735c-.932-1.43-2.67-1.731-4.4-1.547a6.057,6.057,0,0,0-1.851-.09,7.241,7.241,0,0,0-4.293,2.185.64.64,0,0,0-.141.76,11.08,11.08,0,0,0-3.2,5.907c-.177.888,1.185,1.268,1.362.375a9.367,9.367,0,0,1,3.435-5.806,11.342,11.342,0,0,1,2.41-1.332,4.782,4.782,0,0,1,2.989-.239c.927.233,1.884.556,2.893.825a.714.714,0,0,0,.8-1.038" transform="translate(-5.414 -10.373)" fill="#dc432d"/><path d="M355.438,226.826c-.869-.271-1.241,1.09-.375,1.363.256.079.615.954.711,1.165a6.109,6.109,0,0,1,.442,1.521c.153.894,1.514.514,1.362-.376-.2-1.19-.848-3.268-2.139-3.673" transform="translate(-7.299 -10.477)" fill="#dc432d"/><path d="M349.588,226.317c-6.37,1.179-6.362,8.907-9.466,13.118-.54.732.686,1.437,1.22.713,2.859-3.88,2.818-11.394,8.622-12.469.892-.165.514-1.527-.375-1.362" transform="translate(-5.216 -10.408)" fill="#dc432d"/><path d="M338.864,234.747a12.051,12.051,0,0,1-3.33,3.094,17.9,17.9,0,0,0-3.507,1.978c-2.389,2.088-3.037,6.321-4.03,9.178-.3.861,1.065,1.229,1.362.375,1.208-3.474,1.856-7.672,5.289-9.54a16.174,16.174,0,0,0,5.214-4.085c.6-.681-.4-1.683-1-1" transform="translate(-3.498 -11.581)" fill="#dc432d"/><path d="M331.391,258.914c-.327-.39-.937-.575-1.312-.885-2.029-1.674-2.214-3.519-1.73-5.882a24.8,24.8,0,0,1,3.136-8.374c.488-.77-.734-1.479-1.22-.713-1.925,3.035-3.7,7.441-3.662,11.082.019,1.833,1.755,5.988,4.15,5.968a.706.706,0,0,0,0,1.412c1.6-.014,1.434-1.656.638-2.607" transform="translate(-3.304 -12.754)" fill="#dc432d"/><path d="M352.665,257.662a1.706,1.706,0,0,1-.478,1.789,9.591,9.591,0,0,1-3.325.442,4.191,4.191,0,0,1-2.777-1.259,41.3,41.3,0,0,0-3.881-3.1c-.708-.554-1.714.439-1,1,1.085.849,2.61,1.179,3.584,2.133.089.087.165.173.242.261a.627.627,0,0,0,.015.944,5.2,5.2,0,0,0,2.991,1.451,4.08,4.08,0,0,0,.489.017c2.016.407,4.708.467,5.773-1.229a6.7,6.7,0,0,0-.588-2.631c-.457-.693-1.334-.314-1.045.177" transform="translate(-5.355 -14.56)" fill="#dc432d"/><path d="M360.819,227.8c-2.318.52-3.411,2.04-3.293,3.977.055.9,1.467.909,1.413,0a2.508,2.508,0,0,1,2.256-2.615c.887-.2.512-1.56-.375-1.362" transform="translate(-7.72 -10.619)" fill="#dc432d"/><path d="M459.228,172.25a3.92,3.92,0,0,1-1.011-3.219,6.362,6.362,0,0,1,2.413-4.163c1.708-1.587,4.6-2.705,6.183-4.5,1.479-1.669,3.642-5.211,4.482-6.19s2.207-1.063,2.784.191a28.687,28.687,0,0,1,2.081,13.645c-.259,2.647-2.907,6.484-4.111,7.192s-1.565-.564-.948-1.239a12.791,12.791,0,0,0,2.847-5.591,25,25,0,0,0-.711-9.822,1.028,1.028,0,0,0-1.917.012c-1.674,3.108-5.138,5.565-7.538,6.766-.964.482-2.847,1.688-3.437,3.132a6.468,6.468,0,0,0,.042,3.064c.2.791-.552,1.287-1.159.717" transform="translate(-22.099 0)" fill="#dc432d"/><path d="M477.544,162.55a5.2,5.2,0,0,1,2.867-1.8,18.933,18.933,0,0,1,3.844-.174,37.365,37.365,0,0,0,3.785-1.065.977.977,0,0,1,1.061,1.517c-.6.976-.643,2.906-1.663,4.081s-2.743,1.761-3.61,2.33a5.932,5.932,0,0,0-1.924,3.3c-.129,1.119-1.989-.717-1.623-1.486a8.989,8.989,0,0,1,2.231-3.147c1.076-.85,2.784-1.72,3.427-2.231.584-.465,1-1.634.757-1.939s-1.452.253-2.2.4c-1.358.277-2.48-.139-3.777.129a4.231,4.231,0,0,0-2.744,1.916c-.273.662-.434-1.832-.434-1.832" transform="translate(-24.865 -0.863)" fill="#dc432d"/><path d="M476.776,183.21c.237-.488.547-1.611,1.552-1.981a4.935,4.935,0,0,1,2.5.192c.843.088.973,1.248.326,1.419a10.219,10.219,0,0,0-3.194,1.6c-.621.5-1.564-.439-1.183-1.227" transform="translate(-24.742 -3.952)" fill="#dc432d"/><path d="M371.345,173.667a1.17,1.17,0,0,1-.2-.018,1.058,1.058,0,0,1-.844-1.233c.393-2.1.794-3.952,1.139-5.4a1.056,1.056,0,0,1,2.055.489c-.341,1.424-.733,3.243-1.117,5.3a1.058,1.058,0,0,1-1.036.862M369.78,184.62c-.034,0-.067,0-.1,0a1.06,1.06,0,0,1-.957-1.149c.171-1.853.4-3.7.654-5.487a1.057,1.057,0,1,1,2.091.3c-.251,1.748-.473,3.561-.64,5.377a1.058,1.058,0,0,1-1.05.961m-.227,11.053a1.058,1.058,0,0,1-1.054-1.007c-.064-1.355-.105-2.678-.115-3.931l0-.451.011-1.155a.986.986,0,0,1,1.076-1.04,1.059,1.059,0,0,1,1.038,1.076l-.011,1.119,0,.428c.009,1.235.045,2.526.11,3.853a1.055,1.055,0,0,1-1,1.106l-.051,0m.929,11.027a1.055,1.055,0,0,1-1.046-.933c-.211-1.762-.4-3.616-.561-5.478a1.056,1.056,0,0,1,.963-1.142,1.081,1.081,0,0,1,1.142.963c.158,1.839.345,3.665.551,5.41a1.053,1.053,0,0,1-.924,1.172.865.865,0,0,1-.126.009m1.568,9.764a1.059,1.059,0,0,1-1.029-.817c-.266-1.142-.543-2.608-.813-4.293a1.056,1.056,0,1,1,2.086-.334c.261,1.629.529,3.046.785,4.146a1.06,1.06,0,0,1-.789,1.27,1.121,1.121,0,0,1-.24.027" transform="translate(-9.272 -1.823)" fill="#9d6740"/><path d="M416.56,175.555a1.056,1.056,0,0,1-1.035-.844l-.487-2.307c-.222-1.024-.407-1.9-.536-2.585a1.056,1.056,0,1,1,2.078-.384c.123.669.307,1.523.522,2.525l.492,2.325a1.055,1.055,0,0,1-.822,1.247,1.013,1.013,0,0,1-.213.022m1.643,10.179a1.056,1.056,0,0,1-1.048-.952c-.167-1.671-.4-3.309-.65-4.863a1.056,1.056,0,0,1,.874-1.212,1.068,1.068,0,0,1,1.213.873c.258,1.6.491,3.274.663,4.99a1.052,1.052,0,0,1-.945,1.155.76.76,0,0,1-.107.008m.178,10.306-.048,0a1.054,1.054,0,0,1-1.007-1.1q.107-2.331.108-4.837a1.094,1.094,0,0,1,1.057-1.1,1.021,1.021,0,0,1,1.057,1.014v.085c0,1.7-.041,3.347-.111,4.933a1.057,1.057,0,0,1-1.055,1.009m-.95,10.268a1.273,1.273,0,0,1-.151-.011,1.058,1.058,0,0,1-.9-1.195c.218-1.528.415-3.16.577-4.886a1.1,1.1,0,0,1,1.151-.954,1.059,1.059,0,0,1,.954,1.151c-.167,1.761-.369,3.425-.591,4.986a1.058,1.058,0,0,1-1.043.909m-1.467,8.052a1.043,1.043,0,0,1-.233-.027,1.054,1.054,0,0,1-.8-1.263q.289-1.273.575-2.75a1.071,1.071,0,0,1,1.238-.836,1.054,1.054,0,0,1,.835,1.238c-.195,1.007-.391,1.947-.588,2.815a1.057,1.057,0,0,1-1.029.824" transform="translate(-15.857 -2.162)" fill="#9d6740"/><path d="M379.323,196.581H374.85a1.057,1.057,0,1,1,0-2.115h4.474a1.057,1.057,0,0,1,0,2.115m9.446,0H384.3a1.057,1.057,0,1,1,0-2.115h4.474a1.057,1.057,0,0,1,0,2.115m9.443,0h-4.474a1.057,1.057,0,0,1,0-2.115h4.474a1.057,1.057,0,0,1,0,2.115m9.446,0h-4.474a1.057,1.057,0,1,1,0-2.115h4.474a1.057,1.057,0,0,1,0,2.115" transform="translate(-10.045 -5.86)" fill="#9d6740"/></g></svg>